G04 #@! TF.GenerationSoftware,KiCad,Pcbnew,(2017-01-24 revision 0b6147e)-makepkg*
G04 #@! TF.CreationDate,2018-02-06T15:13:29-08:00*
G04 #@! TF.ProjectId,sx1238RfModule,73783132333852664D6F64756C652E6B,rev?*
G04 #@! TF.FileFunction,Paste,Top*
G04 #@! TF.FilePolarity,Positive*
%FSLAX46Y46*%
G04 Gerber Fmt 4.6, Leading zero omitted, Abs format (unit mm)*
G04 Created by KiCad (PCBNEW (2017-01-24 revision 0b6147e)-makepkg) date 02/06/18 15:13:29*
%MOMM*%
%LPD*%
G01*
G04 APERTURE LIST*
%ADD10C,0.100000*%
%ADD11R,1.017000X1.094400*%
%ADD12R,0.270000X0.720000*%
%ADD13R,0.720000X0.270000*%
%ADD14R,0.585000X0.315000*%
%ADD15R,1.080000X0.900000*%
%ADD16R,0.450000X0.495000*%
%ADD17R,0.540000X0.360000*%
%ADD18R,0.495000X0.450000*%
%ADD19R,0.900000X1.080000*%
%ADD20R,0.315000X0.585000*%
G04 APERTURE END LIST*
D10*
D11*
X112260000Y-95317000D03*
X111130000Y-95317000D03*
X110000000Y-95317000D03*
X112260000Y-94101000D03*
X111130000Y-94101000D03*
X110000000Y-94101000D03*
X112260000Y-92885000D03*
X111130000Y-92885000D03*
X110000000Y-92885000D03*
X108870000Y-92885000D03*
X108870000Y-94101000D03*
X108870000Y-95317000D03*
X107740000Y-92885000D03*
X107740000Y-94101000D03*
X107740000Y-95317000D03*
D12*
X107250000Y-91650000D03*
X107750000Y-91650000D03*
X108250000Y-91650000D03*
X108750000Y-91650000D03*
X109250000Y-91650000D03*
X109750000Y-91650000D03*
X110250000Y-91650000D03*
X110750000Y-91650000D03*
X111250000Y-91650000D03*
X111750000Y-91650000D03*
X112250000Y-91650000D03*
X112750000Y-91650000D03*
X107250000Y-96550000D03*
X107750000Y-96550000D03*
X108250000Y-96550000D03*
X108750000Y-96550000D03*
X109250000Y-96550000D03*
X109750000Y-96550000D03*
X110250000Y-96550000D03*
X110750000Y-96550000D03*
X111250000Y-96550000D03*
X111750000Y-96550000D03*
X112250000Y-96550000D03*
X112750000Y-96550000D03*
D13*
X106550000Y-92350000D03*
X106550000Y-92850000D03*
X106550000Y-93350000D03*
X106550000Y-93850000D03*
X106550000Y-94350000D03*
X106550000Y-94850000D03*
X106550000Y-95350000D03*
X106550000Y-95850000D03*
X113450000Y-92350000D03*
X113450000Y-92850000D03*
X113450000Y-93350000D03*
X113450000Y-93850000D03*
X113450000Y-94350000D03*
X113450000Y-94850000D03*
X113450000Y-95350000D03*
X113450000Y-95850000D03*
D14*
X111350000Y-99640000D03*
X111350000Y-98790000D03*
X113550000Y-98950000D03*
X113550000Y-98100000D03*
D15*
X117351000Y-94280000D03*
X115651000Y-94280000D03*
X117351000Y-92980000D03*
X115651000Y-92980000D03*
D16*
X108800000Y-99580000D03*
X108800000Y-98630000D03*
D17*
X112800000Y-100775000D03*
X112800000Y-101675000D03*
X111350000Y-103800000D03*
X111350000Y-102900000D03*
D15*
X105100000Y-87790000D03*
X105100000Y-89790000D03*
D18*
X115980000Y-98100000D03*
X115030000Y-98100000D03*
X115980000Y-96950000D03*
X115030000Y-96950000D03*
X115980000Y-95800000D03*
X115030000Y-95800000D03*
X118080000Y-95800000D03*
X117130000Y-95800000D03*
D16*
X118800000Y-94080000D03*
X118800000Y-93130000D03*
X105100000Y-93400000D03*
X105100000Y-94350000D03*
X104000000Y-93400000D03*
X104000000Y-94350000D03*
X101100000Y-93400000D03*
X101100000Y-94350000D03*
X100000000Y-93400000D03*
X100000000Y-94350000D03*
X98900000Y-93400000D03*
X98900000Y-94350000D03*
X103660000Y-89060000D03*
X103660000Y-90010000D03*
X109750000Y-89050000D03*
X109750000Y-90000000D03*
D18*
X105520000Y-101000000D03*
X106470000Y-101000000D03*
D16*
X97800000Y-93400000D03*
X97800000Y-94350000D03*
D18*
X115980000Y-99240000D03*
X115030000Y-99240000D03*
D16*
X111350000Y-100745000D03*
X111350000Y-101695000D03*
X110000000Y-103850000D03*
X110000000Y-102900000D03*
X106200000Y-99580000D03*
X106200000Y-98630000D03*
X110000000Y-101705000D03*
X110000000Y-100755000D03*
X107500000Y-99580000D03*
X107500000Y-98630000D03*
D18*
X104050000Y-97600000D03*
X105000000Y-97600000D03*
D19*
X102800000Y-99200000D03*
X104800000Y-99200000D03*
D20*
X107680000Y-101000000D03*
X108530000Y-101000000D03*
D14*
X105100000Y-91210000D03*
X105100000Y-92060000D03*
X105000000Y-96420000D03*
X105000000Y-95570000D03*
X103670000Y-91210000D03*
X103670000Y-92060000D03*
D20*
X102150000Y-94350000D03*
X103000000Y-94350000D03*
M02*
