G04 #@! TF.GenerationSoftware,KiCad,Pcbnew,(2017-01-24 revision 0b6147e)-makepkg*
G04 #@! TF.CreationDate,2018-02-06T10:22:29-08:00*
G04 #@! TF.ProjectId,sx1238RfModule,73783132333852664D6F64756C652E6B,rev?*
G04 #@! TF.FileFunction,Copper,L1,Top,Signal*
G04 #@! TF.FilePolarity,Positive*
%FSLAX46Y46*%
G04 Gerber Fmt 4.6, Leading zero omitted, Abs format (unit mm)*
G04 Created by KiCad (PCBNEW (2017-01-24 revision 0b6147e)-makepkg) date 02/06/18 10:22:29*
%MOMM*%
%LPD*%
G01*
G04 APERTURE LIST*
%ADD10C,0.100000*%
%ADD11C,0.635000*%
%ADD12R,1.130000X1.216000*%
%ADD13R,0.300000X0.800000*%
%ADD14R,0.800000X0.300000*%
%ADD15R,1.000000X3.300000*%
%ADD16R,3.300000X1.000000*%
%ADD17R,5.100000X1.000000*%
%ADD18R,1.000000X5.100000*%
%ADD19R,1.000000X2.600000*%
%ADD20R,2.600000X1.000000*%
%ADD21R,0.650000X0.350000*%
%ADD22R,1.200000X1.000000*%
%ADD23R,0.500000X0.550000*%
%ADD24R,0.600000X0.400000*%
%ADD25R,5.080000X2.415000*%
%ADD26R,5.080000X2.290000*%
%ADD27R,0.550000X0.500000*%
%ADD28R,1.000000X1.200000*%
%ADD29R,0.350000X0.650000*%
%ADD30C,4.200000*%
%ADD31O,1.727200X1.727200*%
%ADD32R,1.727200X1.727200*%
%ADD33C,0.762000*%
%ADD34C,1.016000*%
%ADD35C,0.304800*%
%ADD36C,0.508000*%
%ADD37C,1.016000*%
%ADD38C,0.254000*%
G04 APERTURE END LIST*
D10*
D11*
X112260000Y-94101000D03*
X111130000Y-94101000D03*
X110000000Y-94101000D03*
X108870000Y-94101000D03*
X112260000Y-92885000D03*
X111130000Y-92885000D03*
X110000000Y-92885000D03*
X108870000Y-92885000D03*
X107740000Y-92885000D03*
X107740000Y-94101000D03*
X112260000Y-95317000D03*
X111130000Y-95317000D03*
X110000000Y-95317000D03*
X108870000Y-95317000D03*
D12*
X112260000Y-95317000D03*
X111130000Y-95317000D03*
X110000000Y-95317000D03*
X112260000Y-94101000D03*
X111130000Y-94101000D03*
X110000000Y-94101000D03*
X112260000Y-92885000D03*
X111130000Y-92885000D03*
X110000000Y-92885000D03*
X108870000Y-92885000D03*
X108870000Y-94101000D03*
X108870000Y-95317000D03*
X107740000Y-92885000D03*
X107740000Y-94101000D03*
X107740000Y-95317000D03*
D11*
X107740000Y-95317000D03*
D13*
X107250000Y-91650000D03*
X107750000Y-91650000D03*
X108250000Y-91650000D03*
X108750000Y-91650000D03*
X109250000Y-91650000D03*
X109750000Y-91650000D03*
X110250000Y-91650000D03*
X110750000Y-91650000D03*
X111250000Y-91650000D03*
X111750000Y-91650000D03*
X112250000Y-91650000D03*
X112750000Y-91650000D03*
X107250000Y-96550000D03*
X107750000Y-96550000D03*
X108250000Y-96550000D03*
X108750000Y-96550000D03*
X109250000Y-96550000D03*
X109750000Y-96550000D03*
X110250000Y-96550000D03*
X110750000Y-96550000D03*
X111250000Y-96550000D03*
X111750000Y-96550000D03*
X112250000Y-96550000D03*
X112750000Y-96550000D03*
D14*
X106550000Y-92350000D03*
X106550000Y-92850000D03*
X106550000Y-93350000D03*
X106550000Y-93850000D03*
X106550000Y-94350000D03*
X106550000Y-94850000D03*
X106550000Y-95350000D03*
X106550000Y-95850000D03*
X113450000Y-92350000D03*
X113450000Y-92850000D03*
X113450000Y-93350000D03*
X113450000Y-93850000D03*
X113450000Y-94350000D03*
X113450000Y-94850000D03*
X113450000Y-95350000D03*
X113450000Y-95850000D03*
D15*
X96070000Y-109710000D03*
X96070000Y-86510000D03*
X121570000Y-109710000D03*
X121570000Y-86510000D03*
D16*
X97220000Y-110860000D03*
X97220000Y-85360000D03*
X120420000Y-85360000D03*
X120420000Y-110860000D03*
D17*
X108820000Y-85360000D03*
X108820000Y-110860000D03*
D18*
X96070000Y-98110000D03*
X121570000Y-98110000D03*
D19*
X96070000Y-91860000D03*
X96070000Y-104360000D03*
D20*
X115070000Y-110860000D03*
X102570000Y-110860000D03*
X102570000Y-85360000D03*
X115070000Y-85360000D03*
D19*
X121570000Y-104360000D03*
X121570000Y-91860000D03*
D21*
X111350000Y-99640000D03*
X111350000Y-98790000D03*
X113550000Y-98950000D03*
X113550000Y-98100000D03*
D22*
X117351000Y-94280000D03*
X115651000Y-94280000D03*
X117351000Y-92980000D03*
X115651000Y-92980000D03*
D23*
X108800000Y-99580000D03*
X108800000Y-98630000D03*
D24*
X112800000Y-100775000D03*
X112800000Y-101675000D03*
X111350000Y-103800000D03*
X111350000Y-102900000D03*
D22*
X105100000Y-87790000D03*
X105100000Y-89790000D03*
D25*
X91760000Y-89967500D03*
X91760000Y-98732500D03*
D26*
X91760000Y-94350000D03*
D11*
X92310000Y-89967500D03*
X93060000Y-89967500D03*
X92310000Y-89100000D03*
X93060000Y-89100000D03*
X93060000Y-90850000D03*
X92260000Y-90850000D03*
X93060000Y-99600000D03*
X92310000Y-97850000D03*
X93060000Y-97850000D03*
X93060000Y-98717500D03*
X92310000Y-98717500D03*
X92260000Y-99600000D03*
D27*
X115980000Y-98100000D03*
X115030000Y-98100000D03*
X115980000Y-96950000D03*
X115030000Y-96950000D03*
X115980000Y-95800000D03*
X115030000Y-95800000D03*
X118080000Y-95800000D03*
X117130000Y-95800000D03*
D23*
X118800000Y-94080000D03*
X118800000Y-93130000D03*
X105100000Y-93400000D03*
X105100000Y-94350000D03*
X104000000Y-93400000D03*
X104000000Y-94350000D03*
X101100000Y-93400000D03*
X101100000Y-94350000D03*
X100000000Y-93400000D03*
X100000000Y-94350000D03*
X98900000Y-93400000D03*
X98900000Y-94350000D03*
X103660000Y-89060000D03*
X103660000Y-90010000D03*
X109750000Y-89050000D03*
X109750000Y-90000000D03*
D27*
X105520000Y-101000000D03*
X106470000Y-101000000D03*
D23*
X97800000Y-93400000D03*
X97800000Y-94350000D03*
D27*
X115980000Y-99240000D03*
X115030000Y-99240000D03*
D23*
X111350000Y-100745000D03*
X111350000Y-101695000D03*
X110000000Y-103850000D03*
X110000000Y-102900000D03*
X106200000Y-99580000D03*
X106200000Y-98630000D03*
X110000000Y-101705000D03*
X110000000Y-100755000D03*
X107500000Y-99580000D03*
X107500000Y-98630000D03*
D27*
X104050000Y-97600000D03*
X105000000Y-97600000D03*
D28*
X102800000Y-99200000D03*
X104800000Y-99200000D03*
D29*
X107680000Y-101000000D03*
X108530000Y-101000000D03*
D21*
X105100000Y-91210000D03*
X105100000Y-92060000D03*
X105000000Y-96420000D03*
X105000000Y-95570000D03*
X103670000Y-91210000D03*
X103670000Y-92060000D03*
D29*
X102150000Y-94350000D03*
X103000000Y-94350000D03*
D11*
X90480000Y-86690000D03*
X92680000Y-86690000D03*
X92680000Y-84490000D03*
X90380000Y-84490000D03*
X89980000Y-85590000D03*
X91580000Y-87290000D03*
X93180000Y-85590000D03*
X91580000Y-83990000D03*
D30*
X91580000Y-85590000D03*
D11*
X90480000Y-110750000D03*
X92680000Y-110750000D03*
X92680000Y-108550000D03*
X90380000Y-108550000D03*
X89980000Y-109650000D03*
X91580000Y-111350000D03*
X93180000Y-109650000D03*
X91580000Y-108050000D03*
D30*
X91580000Y-109650000D03*
D31*
X128920000Y-109050000D03*
X126380000Y-109050000D03*
X128920000Y-106510000D03*
X126380000Y-106510000D03*
X128920000Y-103970000D03*
X126380000Y-103970000D03*
X128920000Y-101430000D03*
X126380000Y-101430000D03*
X128920000Y-98890000D03*
X126380000Y-98890000D03*
X128920000Y-96350000D03*
X126380000Y-96350000D03*
X128920000Y-93810000D03*
X126380000Y-93810000D03*
X128920000Y-91270000D03*
X126380000Y-91270000D03*
X128920000Y-88730000D03*
X126380000Y-88730000D03*
X128920000Y-86190000D03*
D32*
X126380000Y-86190000D03*
D33*
X108650000Y-100130000D03*
X107530000Y-100140000D03*
X118350000Y-94830000D03*
X115640000Y-92000000D03*
X109460000Y-102160000D03*
X109760000Y-88360000D03*
X104040000Y-87790000D03*
X103010000Y-89060000D03*
X102960000Y-91180000D03*
D34*
X96070000Y-101920000D03*
X96060000Y-106890000D03*
X100070000Y-110860000D03*
X105090000Y-110860000D03*
X112600000Y-110860000D03*
X117570000Y-110860000D03*
X117530000Y-85360000D03*
X112530000Y-85360000D03*
X96070000Y-89380000D03*
X105040000Y-85360000D03*
X100080000Y-85360000D03*
X121570000Y-106860000D03*
X121570000Y-101870000D03*
X121570000Y-94340000D03*
X121570000Y-89380000D03*
D33*
X97800000Y-92650000D03*
X98900000Y-92650000D03*
X100000000Y-92650000D03*
X101110000Y-92650000D03*
X103230000Y-93400000D03*
X116760000Y-99240000D03*
X116770000Y-98100000D03*
X116770000Y-96940000D03*
X115990000Y-96390000D03*
X118850000Y-95800000D03*
X119570000Y-94080000D03*
X111360000Y-104530000D03*
X109200000Y-103840000D03*
X102800000Y-98100000D03*
X104070000Y-96420000D03*
X102800000Y-100450000D03*
X104690000Y-101000000D03*
X106060000Y-89780000D03*
X114250000Y-97440000D03*
X109680000Y-90580000D03*
X105930000Y-91210000D03*
X104180000Y-90490000D03*
X105090000Y-90650000D03*
X103990000Y-99190000D03*
X105020000Y-98210000D03*
X107750000Y-98030000D03*
X105800000Y-97210000D03*
X108160000Y-98630000D03*
X108580000Y-101900000D03*
X112730000Y-97550000D03*
X106740000Y-90660000D03*
X107430000Y-89790000D03*
X108190000Y-90300000D03*
X108940000Y-89760000D03*
X110720000Y-88470000D03*
X111920000Y-88210000D03*
X111890000Y-89190000D03*
X111970000Y-90110000D03*
X112760000Y-90680000D03*
X113390000Y-91600000D03*
X114280000Y-91300000D03*
X112240000Y-99070000D03*
X109930000Y-99490000D03*
X109710000Y-98600000D03*
X108650000Y-97810000D03*
D35*
X114450199Y-95310199D02*
X114450199Y-96370199D01*
X114450199Y-96370199D02*
X115030000Y-96950000D01*
X113990000Y-94850000D02*
X114450199Y-95310199D01*
X113450000Y-94850000D02*
X113990000Y-94850000D01*
D36*
X108800000Y-99580000D02*
X108800000Y-99980000D01*
X108800000Y-99980000D02*
X108650000Y-100130000D01*
X107500000Y-99580000D02*
X107500000Y-100110000D01*
X107500000Y-100110000D02*
X107530000Y-100140000D01*
X118350000Y-94830000D02*
X117800000Y-94280000D01*
X117800000Y-94280000D02*
X117351000Y-94280000D01*
X115651000Y-92980000D02*
X115651000Y-92011000D01*
X115651000Y-92011000D02*
X115640000Y-92000000D01*
X110000000Y-101705000D02*
X109915000Y-101705000D01*
X109915000Y-101705000D02*
X109460000Y-102160000D01*
X109750000Y-89050000D02*
X109750000Y-88370000D01*
X109750000Y-88370000D02*
X109760000Y-88360000D01*
D35*
X113450000Y-95350000D02*
X112293000Y-95350000D01*
X112293000Y-95350000D02*
X112260000Y-95317000D01*
X106550000Y-93850000D02*
X107489000Y-93850000D01*
X107489000Y-93850000D02*
X107740000Y-94101000D01*
X106550000Y-95350000D02*
X107707000Y-95350000D01*
X107707000Y-95350000D02*
X107740000Y-95317000D01*
X109250000Y-91650000D02*
X109250000Y-92505000D01*
X109250000Y-92505000D02*
X108870000Y-92885000D01*
X112250000Y-96550000D02*
X112250000Y-95327000D01*
X112250000Y-95327000D02*
X112260000Y-95317000D01*
D36*
X104040000Y-87960000D02*
X103660000Y-88340000D01*
X103660000Y-88340000D02*
X103660000Y-89060000D01*
X104040000Y-87790000D02*
X104040000Y-87960000D01*
X105100000Y-87790000D02*
X104040000Y-87790000D01*
X103660000Y-89060000D02*
X103010000Y-89060000D01*
D35*
X103670000Y-91210000D02*
X102990000Y-91210000D01*
X102990000Y-91210000D02*
X102960000Y-91180000D01*
D37*
X96070000Y-101920000D02*
X96070000Y-98110000D01*
X96070000Y-104360000D02*
X96070000Y-101920000D01*
X96060000Y-106890000D02*
X96060000Y-104370000D01*
X96060000Y-104370000D02*
X96070000Y-104360000D01*
X96070000Y-109710000D02*
X96070000Y-106900000D01*
X96070000Y-106900000D02*
X96060000Y-106890000D01*
X100070000Y-110860000D02*
X97220000Y-110860000D01*
X102570000Y-110860000D02*
X100070000Y-110860000D01*
X105090000Y-110860000D02*
X102570000Y-110860000D01*
X108820000Y-110860000D02*
X105090000Y-110860000D01*
X112600000Y-110860000D02*
X108820000Y-110860000D01*
X115070000Y-110860000D02*
X112600000Y-110860000D01*
X117570000Y-110860000D02*
X115070000Y-110860000D01*
X120420000Y-110860000D02*
X117570000Y-110860000D01*
X117530000Y-85360000D02*
X120420000Y-85360000D01*
X115070000Y-85360000D02*
X117530000Y-85360000D01*
X112530000Y-85360000D02*
X115070000Y-85360000D01*
X108820000Y-85360000D02*
X112530000Y-85360000D01*
X96070000Y-89380000D02*
X96070000Y-86510000D01*
X96070000Y-91860000D02*
X96070000Y-89380000D01*
X105040000Y-85360000D02*
X108820000Y-85360000D01*
X102570000Y-85360000D02*
X105040000Y-85360000D01*
X100080000Y-85360000D02*
X102570000Y-85360000D01*
X97220000Y-85360000D02*
X100080000Y-85360000D01*
X121570000Y-106860000D02*
X121570000Y-109710000D01*
X121570000Y-104360000D02*
X121570000Y-106860000D01*
X121570000Y-101870000D02*
X121570000Y-104360000D01*
X121570000Y-98110000D02*
X121570000Y-101870000D01*
X121570000Y-94340000D02*
X121570000Y-98110000D01*
X121570000Y-91860000D02*
X121570000Y-94340000D01*
X121570000Y-89380000D02*
X121570000Y-91860000D01*
X121570000Y-86510000D02*
X121570000Y-89380000D01*
D36*
X97800000Y-93400000D02*
X97800000Y-92650000D01*
X98900000Y-93400000D02*
X98900000Y-92650000D01*
X100000000Y-93400000D02*
X100000000Y-92650000D01*
X101100000Y-93400000D02*
X101100000Y-92660000D01*
X101100000Y-92660000D02*
X101110000Y-92650000D01*
X103230000Y-93400000D02*
X104000000Y-93400000D01*
X115980000Y-99240000D02*
X116760000Y-99240000D01*
X115980000Y-98100000D02*
X116770000Y-98100000D01*
X115980000Y-96950000D02*
X115980000Y-98100000D01*
X115980000Y-96950000D02*
X116760000Y-96950000D01*
X116760000Y-96950000D02*
X116770000Y-96940000D01*
X115990000Y-96390000D02*
X115990000Y-96940000D01*
X115990000Y-96940000D02*
X115980000Y-96950000D01*
X115980000Y-95800000D02*
X115980000Y-96380000D01*
X115980000Y-96380000D02*
X115990000Y-96390000D01*
X118080000Y-95800000D02*
X118850000Y-95800000D01*
X118800000Y-94080000D02*
X119570000Y-94080000D01*
X111350000Y-103800000D02*
X111350000Y-104520000D01*
X111350000Y-104520000D02*
X111360000Y-104530000D01*
X110000000Y-103850000D02*
X109210000Y-103850000D01*
X109210000Y-103850000D02*
X109200000Y-103840000D01*
X102800000Y-98100000D02*
X102800000Y-99200000D01*
X104050000Y-97600000D02*
X103300000Y-97600000D01*
X103300000Y-97600000D02*
X102800000Y-98100000D01*
D35*
X104070000Y-96420000D02*
X105000000Y-96420000D01*
D36*
X104050000Y-97600000D02*
X104050000Y-96440000D01*
X104050000Y-96440000D02*
X104070000Y-96420000D01*
X102800000Y-100450000D02*
X102800000Y-99200000D01*
X104690000Y-101000000D02*
X103350000Y-101000000D01*
X103350000Y-101000000D02*
X102800000Y-100450000D01*
X105520000Y-101000000D02*
X104690000Y-101000000D01*
D35*
X105700000Y-96200000D02*
X105480000Y-96420000D01*
X105480000Y-96420000D02*
X105000000Y-96420000D01*
X105700000Y-95700000D02*
X105700000Y-96200000D01*
X106050000Y-95350000D02*
X105700000Y-95700000D01*
X106550000Y-95350000D02*
X106050000Y-95350000D01*
D36*
X100000000Y-93400000D02*
X101100000Y-93400000D01*
X98900000Y-93400000D02*
X100000000Y-93400000D01*
X97800000Y-93400000D02*
X98900000Y-93400000D01*
X111350000Y-103800000D02*
X110050000Y-103800000D01*
X110050000Y-103800000D02*
X110000000Y-103850000D01*
X115980000Y-98100000D02*
X115980000Y-99240000D01*
X118080000Y-95800000D02*
X118080000Y-95009000D01*
X118080000Y-95009000D02*
X117351000Y-94280000D01*
X117970000Y-94280000D02*
X118170000Y-94080000D01*
X118170000Y-94080000D02*
X118800000Y-94080000D01*
X117351000Y-94280000D02*
X117970000Y-94280000D01*
D35*
X117130000Y-95800000D02*
X117130000Y-95759000D01*
X117130000Y-95759000D02*
X115651000Y-94280000D01*
X114350000Y-93850000D02*
X114780000Y-94280000D01*
X114780000Y-94280000D02*
X115651000Y-94280000D01*
X113450000Y-93850000D02*
X114350000Y-93850000D01*
X114160000Y-94350000D02*
X115030000Y-95220000D01*
X115030000Y-95220000D02*
X115030000Y-95800000D01*
X113450000Y-94350000D02*
X114160000Y-94350000D01*
D36*
X105100000Y-89790000D02*
X106050000Y-89790000D01*
X106050000Y-89790000D02*
X106060000Y-89780000D01*
X114250000Y-97540000D02*
X114810000Y-98100000D01*
X114810000Y-98100000D02*
X115030000Y-98100000D01*
X114250000Y-97440000D02*
X114250000Y-97540000D01*
D35*
X113450000Y-96180000D02*
X114250000Y-96980000D01*
X114250000Y-96980000D02*
X114250000Y-97440000D01*
X113450000Y-95850000D02*
X113450000Y-96180000D01*
D36*
X109680000Y-90580000D02*
X109680000Y-90070000D01*
X109680000Y-90070000D02*
X109750000Y-90000000D01*
D35*
X109750000Y-91650000D02*
X109750000Y-90650000D01*
X109750000Y-90650000D02*
X109680000Y-90580000D01*
X105100000Y-91210000D02*
X105930000Y-91210000D01*
X104180000Y-90490000D02*
X104140000Y-90490000D01*
X104140000Y-90490000D02*
X103660000Y-90010000D01*
X105090000Y-90650000D02*
X104340000Y-90650000D01*
X104340000Y-90650000D02*
X104180000Y-90490000D01*
X105090000Y-90650000D02*
X105090000Y-89800000D01*
X105090000Y-89800000D02*
X105100000Y-89790000D01*
X105100000Y-91210000D02*
X105100000Y-90660000D01*
X105100000Y-90660000D02*
X105090000Y-90650000D01*
D36*
X104800000Y-99200000D02*
X104000000Y-99200000D01*
X104000000Y-99200000D02*
X103990000Y-99190000D01*
X105020000Y-98210000D02*
X105020000Y-97620000D01*
X105020000Y-97620000D02*
X105000000Y-97600000D01*
X104800000Y-99200000D02*
X104800000Y-98430000D01*
X104800000Y-98430000D02*
X105020000Y-98210000D01*
X107750000Y-98030000D02*
X107750000Y-98380000D01*
X107750000Y-98380000D02*
X107500000Y-98630000D01*
D35*
X108250000Y-97220000D02*
X107750000Y-97720000D01*
X107750000Y-97720000D02*
X107750000Y-98030000D01*
X108250000Y-96550000D02*
X108250000Y-97220000D01*
D36*
X105800000Y-97260000D02*
X105460000Y-97600000D01*
X105460000Y-97600000D02*
X105000000Y-97600000D01*
X105800000Y-97210000D02*
X105800000Y-97260000D01*
D35*
X107250000Y-96550000D02*
X106460000Y-96550000D01*
X106460000Y-96550000D02*
X105800000Y-97210000D01*
D36*
X108160000Y-98630000D02*
X108800000Y-98630000D01*
X107500000Y-98630000D02*
X108160000Y-98630000D01*
D35*
X115964199Y-91314199D02*
X117351000Y-92701000D01*
X117351000Y-92701000D02*
X117351000Y-92980000D01*
X115310815Y-91314199D02*
X115964199Y-91314199D01*
X114720000Y-91905014D02*
X115310815Y-91314199D01*
X114720000Y-92990000D02*
X114720000Y-91905014D01*
X114360000Y-93350000D02*
X114720000Y-92990000D01*
X113450000Y-93350000D02*
X114360000Y-93350000D01*
X118800000Y-93130000D02*
X117501000Y-93130000D01*
X117501000Y-93130000D02*
X117351000Y-92980000D01*
X115030000Y-99180000D02*
X113950000Y-98100000D01*
X113950000Y-98100000D02*
X113550000Y-98100000D01*
X115030000Y-99240000D02*
X115030000Y-99180000D01*
X113020000Y-96550000D02*
X113550000Y-97080000D01*
X113550000Y-97080000D02*
X113550000Y-98100000D01*
X112750000Y-96550000D02*
X113020000Y-96550000D01*
X106470000Y-101000000D02*
X106470000Y-99850000D01*
X106470000Y-99850000D02*
X106200000Y-99580000D01*
X107680000Y-101000000D02*
X106470000Y-101000000D01*
X111970000Y-100890000D02*
X111825000Y-100745000D01*
X111825000Y-100745000D02*
X111350000Y-100745000D01*
X111970000Y-101440000D02*
X111970000Y-100890000D01*
X112205000Y-101675000D02*
X111970000Y-101440000D01*
X112800000Y-101675000D02*
X112205000Y-101675000D01*
X111350000Y-99640000D02*
X111350000Y-99760000D01*
X111350000Y-99760000D02*
X110720000Y-100390000D01*
X110720000Y-100390000D02*
X110720000Y-101430000D01*
X110720000Y-101430000D02*
X110985000Y-101695000D01*
X110985000Y-101695000D02*
X111350000Y-101695000D01*
X111350000Y-102900000D02*
X111350000Y-101695000D01*
X110000000Y-102900000D02*
X111350000Y-102900000D01*
X106420000Y-97870000D02*
X106200000Y-98090000D01*
X106200000Y-98090000D02*
X106200000Y-98630000D01*
X106920000Y-97870000D02*
X106420000Y-97870000D01*
X107750000Y-97040000D02*
X106920000Y-97870000D01*
X107750000Y-96550000D02*
X107750000Y-97040000D01*
X106200000Y-98630000D02*
X106200000Y-98560000D01*
X111350000Y-98790000D02*
X111250000Y-98790000D01*
X111250000Y-98790000D02*
X110650000Y-99390000D01*
X110650000Y-99390000D02*
X110650000Y-99800000D01*
X110650000Y-99800000D02*
X110000000Y-100450000D01*
X110000000Y-100450000D02*
X110000000Y-100755000D01*
X111350000Y-98790000D02*
X111220000Y-98790000D01*
X110250000Y-97470000D02*
X111350000Y-98570000D01*
X111350000Y-98570000D02*
X111350000Y-98790000D01*
X110250000Y-96550000D02*
X110250000Y-97470000D01*
X104000000Y-94350000D02*
X103000000Y-94350000D01*
X105100000Y-94350000D02*
X104000000Y-94350000D01*
X106550000Y-94350000D02*
X105100000Y-94350000D01*
X105100000Y-93400000D02*
X105010000Y-93400000D01*
X105010000Y-93400000D02*
X103670000Y-92060000D01*
X97800000Y-94350000D02*
X91760000Y-94350000D01*
X98900000Y-94350000D02*
X97800000Y-94350000D01*
X100000000Y-94350000D02*
X98900000Y-94350000D01*
X101100000Y-94350000D02*
X100000000Y-94350000D01*
X102150000Y-94350000D02*
X101100000Y-94350000D01*
X108580000Y-101900000D02*
X108580000Y-101050000D01*
X108580000Y-101050000D02*
X108530000Y-101000000D01*
X112094511Y-97446579D02*
X112626579Y-97446579D01*
X112626579Y-97446579D02*
X112730000Y-97550000D01*
X111750000Y-97102068D02*
X112094511Y-97446579D01*
X111750000Y-96550000D02*
X111750000Y-97102068D01*
X112800000Y-100460000D02*
X113550000Y-99710000D01*
X113550000Y-99710000D02*
X113550000Y-98950000D01*
X112800000Y-100775000D02*
X112800000Y-100460000D01*
X112093789Y-97903789D02*
X113140000Y-98950000D01*
X113140000Y-98950000D02*
X113550000Y-98950000D01*
X111905129Y-97903789D02*
X112093789Y-97903789D01*
X111250000Y-97248660D02*
X111905129Y-97903789D01*
X111250000Y-96550000D02*
X111250000Y-97248660D01*
X105560000Y-92850000D02*
X105100000Y-92390000D01*
X105100000Y-92390000D02*
X105100000Y-92060000D01*
X106550000Y-92850000D02*
X105560000Y-92850000D01*
X105030000Y-95570000D02*
X105750000Y-94850000D01*
X105750000Y-94850000D02*
X106550000Y-94850000D01*
X105000000Y-95570000D02*
X105030000Y-95570000D01*
D38*
X107250000Y-91650000D02*
X107250000Y-91170000D01*
X107250000Y-91170000D02*
X106740000Y-90660000D01*
X107750000Y-90930000D02*
X107430000Y-90610000D01*
X107430000Y-90610000D02*
X107430000Y-89790000D01*
X107750000Y-91650000D02*
X107750000Y-90930000D01*
X108250000Y-91650000D02*
X108250000Y-90360000D01*
X108250000Y-90360000D02*
X108190000Y-90300000D01*
X108750000Y-90660000D02*
X108940000Y-90470000D01*
X108940000Y-90470000D02*
X108940000Y-89760000D01*
X108750000Y-91650000D02*
X108750000Y-90660000D01*
X110480000Y-90490500D02*
X110480000Y-88710000D01*
X110480000Y-88710000D02*
X110720000Y-88470000D01*
X110343590Y-90626910D02*
X110480000Y-90490500D01*
X110343590Y-90930000D02*
X110343590Y-90626910D01*
X110250000Y-91023590D02*
X110343590Y-90930000D01*
X110250000Y-91650000D02*
X110250000Y-91023590D01*
X110903189Y-90642061D02*
X110903189Y-89226811D01*
X110903189Y-89226811D02*
X111920000Y-88210000D01*
X110750000Y-90795250D02*
X110903189Y-90642061D01*
X110750000Y-91650000D02*
X110750000Y-90795250D01*
X111309599Y-90810401D02*
X111309599Y-89770401D01*
X111309599Y-89770401D02*
X111890000Y-89190000D01*
X111250000Y-90870000D02*
X111309599Y-90810401D01*
X111250000Y-91650000D02*
X111250000Y-90870000D01*
X111750000Y-91010000D02*
X111970000Y-90790000D01*
X111970000Y-90790000D02*
X111970000Y-90110000D01*
X111750000Y-91650000D02*
X111750000Y-91010000D01*
X112250000Y-91650000D02*
X112250000Y-91190000D01*
X112250000Y-91190000D02*
X112760000Y-90680000D01*
X113390000Y-91600000D02*
X113340000Y-91650000D01*
X113340000Y-91650000D02*
X112750000Y-91650000D01*
X114120000Y-92850000D02*
X114280000Y-92690000D01*
X114280000Y-92690000D02*
X114280000Y-91300000D01*
X113450000Y-92850000D02*
X114120000Y-92850000D01*
X111905599Y-98335599D02*
X112240000Y-98670000D01*
X112240000Y-98670000D02*
X112240000Y-99070000D01*
X111726269Y-98335599D02*
X111905599Y-98335599D01*
X110750000Y-97359330D02*
X111726269Y-98335599D01*
X110750000Y-96550000D02*
X110750000Y-97359330D01*
X109930000Y-99490000D02*
X110370401Y-99049599D01*
X110370401Y-99049599D02*
X110370401Y-98230401D01*
X110370401Y-98230401D02*
X109750000Y-97610000D01*
X109750000Y-97610000D02*
X109750000Y-96550000D01*
X109320000Y-98210000D02*
X109710000Y-98600000D01*
X109250000Y-96550000D02*
X109320000Y-96620000D01*
X109320000Y-96620000D02*
X109320000Y-98210000D01*
X108650000Y-97810000D02*
X108750000Y-97710000D01*
X108750000Y-97710000D02*
X108750000Y-96550000D01*
M02*
