G04 #@! TF.GenerationSoftware,KiCad,Pcbnew,(2017-01-24 revision 0b6147e)-makepkg*
G04 #@! TF.CreationDate,2018-02-06T10:22:29-08:00*
G04 #@! TF.ProjectId,sx1238RfModule,73783132333852664D6F64756C652E6B,rev?*
G04 #@! TF.FileFunction,Copper,L3,Inr,Signal*
G04 #@! TF.FilePolarity,Positive*
%FSLAX46Y46*%
G04 Gerber Fmt 4.6, Leading zero omitted, Abs format (unit mm)*
G04 Created by KiCad (PCBNEW (2017-01-24 revision 0b6147e)-makepkg) date 02/06/18 10:22:29*
%MOMM*%
%LPD*%
G01*
G04 APERTURE LIST*
%ADD10C,0.100000*%
%ADD11C,0.635000*%
%ADD12C,4.200000*%
%ADD13O,1.727200X1.727200*%
%ADD14R,1.727200X1.727200*%
%ADD15C,0.762000*%
%ADD16C,1.016000*%
%ADD17C,0.254000*%
G04 APERTURE END LIST*
D10*
D11*
X112260000Y-94101000D03*
X111130000Y-94101000D03*
X110000000Y-94101000D03*
X108870000Y-94101000D03*
X112260000Y-92885000D03*
X111130000Y-92885000D03*
X110000000Y-92885000D03*
X108870000Y-92885000D03*
X107740000Y-92885000D03*
X107740000Y-94101000D03*
X112260000Y-95317000D03*
X111130000Y-95317000D03*
X110000000Y-95317000D03*
X108870000Y-95317000D03*
X107740000Y-95317000D03*
X92310000Y-89967500D03*
X93060000Y-89967500D03*
X92310000Y-89100000D03*
X93060000Y-89100000D03*
X93060000Y-90850000D03*
X92260000Y-90850000D03*
X93060000Y-99600000D03*
X92310000Y-97850000D03*
X93060000Y-97850000D03*
X93060000Y-98717500D03*
X92310000Y-98717500D03*
X92260000Y-99600000D03*
X90480000Y-86690000D03*
X92680000Y-86690000D03*
X92680000Y-84490000D03*
X90380000Y-84490000D03*
X89980000Y-85590000D03*
X91580000Y-87290000D03*
X93180000Y-85590000D03*
X91580000Y-83990000D03*
D12*
X91580000Y-85590000D03*
D11*
X90480000Y-110750000D03*
X92680000Y-110750000D03*
X92680000Y-108550000D03*
X90380000Y-108550000D03*
X89980000Y-109650000D03*
X91580000Y-111350000D03*
X93180000Y-109650000D03*
X91580000Y-108050000D03*
D12*
X91580000Y-109650000D03*
D13*
X128920000Y-109050000D03*
X126380000Y-109050000D03*
X128920000Y-106510000D03*
X126380000Y-106510000D03*
X128920000Y-103970000D03*
X126380000Y-103970000D03*
X128920000Y-101430000D03*
X126380000Y-101430000D03*
X128920000Y-98890000D03*
X126380000Y-98890000D03*
X128920000Y-96350000D03*
X126380000Y-96350000D03*
X128920000Y-93810000D03*
X126380000Y-93810000D03*
X128920000Y-91270000D03*
X126380000Y-91270000D03*
X128920000Y-88730000D03*
X126380000Y-88730000D03*
X128920000Y-86190000D03*
D14*
X126380000Y-86190000D03*
D15*
X108650000Y-100130000D03*
X107530000Y-100140000D03*
X118350000Y-94830000D03*
X115640000Y-92000000D03*
X109460000Y-102160000D03*
X109760000Y-88360000D03*
X104040000Y-87790000D03*
X103010000Y-89060000D03*
X102960000Y-91180000D03*
D16*
X96070000Y-101920000D03*
X96060000Y-106890000D03*
X100070000Y-110860000D03*
X105090000Y-110860000D03*
X112600000Y-110860000D03*
X117570000Y-110860000D03*
X117530000Y-85360000D03*
X112530000Y-85360000D03*
X96070000Y-89380000D03*
X105040000Y-85360000D03*
X100080000Y-85360000D03*
X121570000Y-106860000D03*
X121570000Y-101870000D03*
X121570000Y-94340000D03*
X121570000Y-89380000D03*
D15*
X97800000Y-92650000D03*
X98900000Y-92650000D03*
X100000000Y-92650000D03*
X101110000Y-92650000D03*
X103230000Y-93400000D03*
X116760000Y-99240000D03*
X116770000Y-98100000D03*
X116770000Y-96940000D03*
X115990000Y-96390000D03*
X118850000Y-95800000D03*
X119570000Y-94080000D03*
X111360000Y-104530000D03*
X109200000Y-103840000D03*
X102800000Y-98100000D03*
X104070000Y-96420000D03*
X102800000Y-100450000D03*
X104690000Y-101000000D03*
X106060000Y-89780000D03*
X114250000Y-97440000D03*
X109680000Y-90580000D03*
X105930000Y-91210000D03*
X104180000Y-90490000D03*
X105090000Y-90650000D03*
X103990000Y-99190000D03*
X105020000Y-98210000D03*
X107750000Y-98030000D03*
X105800000Y-97210000D03*
X108160000Y-98630000D03*
X108580000Y-101900000D03*
X112730000Y-97550000D03*
X106740000Y-90660000D03*
X107430000Y-89790000D03*
X108190000Y-90300000D03*
X108940000Y-89760000D03*
X110720000Y-88470000D03*
X111920000Y-88210000D03*
X111890000Y-89190000D03*
X111970000Y-90110000D03*
X112760000Y-90680000D03*
X113390000Y-91600000D03*
X114280000Y-91300000D03*
X112240000Y-99070000D03*
X109930000Y-99490000D03*
X109710000Y-98600000D03*
X108650000Y-97810000D03*
D17*
G36*
X130306400Y-112316400D02*
X88913600Y-112316400D01*
X88913600Y-110121215D01*
X89200188Y-110121215D01*
X89561667Y-110996061D01*
X90230418Y-111665981D01*
X91104632Y-112028986D01*
X92051215Y-112029812D01*
X92926061Y-111668333D01*
X93579598Y-111015936D01*
X99282464Y-111015936D01*
X99402086Y-111305444D01*
X99623391Y-111527136D01*
X99912689Y-111647263D01*
X100225936Y-111647536D01*
X100515444Y-111527914D01*
X100737136Y-111306609D01*
X100857263Y-111017311D01*
X100857264Y-111015936D01*
X104302464Y-111015936D01*
X104422086Y-111305444D01*
X104643391Y-111527136D01*
X104932689Y-111647263D01*
X105245936Y-111647536D01*
X105535444Y-111527914D01*
X105757136Y-111306609D01*
X105877263Y-111017311D01*
X105877264Y-111015936D01*
X111812464Y-111015936D01*
X111932086Y-111305444D01*
X112153391Y-111527136D01*
X112442689Y-111647263D01*
X112755936Y-111647536D01*
X113045444Y-111527914D01*
X113267136Y-111306609D01*
X113387263Y-111017311D01*
X113387264Y-111015936D01*
X116782464Y-111015936D01*
X116902086Y-111305444D01*
X117123391Y-111527136D01*
X117412689Y-111647263D01*
X117725936Y-111647536D01*
X118015444Y-111527914D01*
X118237136Y-111306609D01*
X118357263Y-111017311D01*
X118357536Y-110704064D01*
X118237914Y-110414556D01*
X118016609Y-110192864D01*
X117727311Y-110072737D01*
X117414064Y-110072464D01*
X117124556Y-110192086D01*
X116902864Y-110413391D01*
X116782737Y-110702689D01*
X116782464Y-111015936D01*
X113387264Y-111015936D01*
X113387536Y-110704064D01*
X113267914Y-110414556D01*
X113046609Y-110192864D01*
X112757311Y-110072737D01*
X112444064Y-110072464D01*
X112154556Y-110192086D01*
X111932864Y-110413391D01*
X111812737Y-110702689D01*
X111812464Y-111015936D01*
X105877264Y-111015936D01*
X105877536Y-110704064D01*
X105757914Y-110414556D01*
X105536609Y-110192864D01*
X105247311Y-110072737D01*
X104934064Y-110072464D01*
X104644556Y-110192086D01*
X104422864Y-110413391D01*
X104302737Y-110702689D01*
X104302464Y-111015936D01*
X100857264Y-111015936D01*
X100857536Y-110704064D01*
X100737914Y-110414556D01*
X100516609Y-110192864D01*
X100227311Y-110072737D01*
X99914064Y-110072464D01*
X99624556Y-110192086D01*
X99402864Y-110413391D01*
X99282737Y-110702689D01*
X99282464Y-111015936D01*
X93579598Y-111015936D01*
X93595981Y-110999582D01*
X93958986Y-110125368D01*
X93959666Y-109345135D01*
X125328432Y-109345135D01*
X125427726Y-109584886D01*
X125704906Y-109908590D01*
X126084863Y-110101581D01*
X126253000Y-110077654D01*
X126253000Y-109177000D01*
X126507000Y-109177000D01*
X126507000Y-110077654D01*
X126675137Y-110101581D01*
X127055094Y-109908590D01*
X127332274Y-109584886D01*
X127431568Y-109345135D01*
X127407229Y-109177000D01*
X126507000Y-109177000D01*
X126253000Y-109177000D01*
X125352771Y-109177000D01*
X125328432Y-109345135D01*
X93959666Y-109345135D01*
X93959812Y-109178785D01*
X93906600Y-109050000D01*
X127754607Y-109050000D01*
X127841613Y-109487407D01*
X128089384Y-109858223D01*
X128460200Y-110105994D01*
X128897607Y-110193000D01*
X128942393Y-110193000D01*
X129379800Y-110105994D01*
X129750616Y-109858223D01*
X129998387Y-109487407D01*
X130085393Y-109050000D01*
X129998387Y-108612593D01*
X129750616Y-108241777D01*
X129379800Y-107994006D01*
X128942393Y-107907000D01*
X128897607Y-107907000D01*
X128460200Y-107994006D01*
X128089384Y-108241777D01*
X127841613Y-108612593D01*
X127754607Y-109050000D01*
X93906600Y-109050000D01*
X93784652Y-108754865D01*
X125328432Y-108754865D01*
X125352771Y-108923000D01*
X126253000Y-108923000D01*
X126253000Y-108022346D01*
X126507000Y-108022346D01*
X126507000Y-108923000D01*
X127407229Y-108923000D01*
X127431568Y-108754865D01*
X127332274Y-108515114D01*
X127055094Y-108191410D01*
X126675137Y-107998419D01*
X126507000Y-108022346D01*
X126253000Y-108022346D01*
X126084863Y-107998419D01*
X125704906Y-108191410D01*
X125427726Y-108515114D01*
X125328432Y-108754865D01*
X93784652Y-108754865D01*
X93598333Y-108303939D01*
X92929582Y-107634019D01*
X92055368Y-107271014D01*
X91108785Y-107270188D01*
X90233939Y-107631667D01*
X89564019Y-108300418D01*
X89201014Y-109174632D01*
X89200188Y-110121215D01*
X88913600Y-110121215D01*
X88913600Y-107045936D01*
X95272464Y-107045936D01*
X95392086Y-107335444D01*
X95613391Y-107557136D01*
X95902689Y-107677263D01*
X96215936Y-107677536D01*
X96505444Y-107557914D01*
X96727136Y-107336609D01*
X96847263Y-107047311D01*
X96847290Y-107015936D01*
X120782464Y-107015936D01*
X120902086Y-107305444D01*
X121123391Y-107527136D01*
X121412689Y-107647263D01*
X121725936Y-107647536D01*
X122015444Y-107527914D01*
X122237136Y-107306609D01*
X122357263Y-107017311D01*
X122357536Y-106704064D01*
X122277351Y-106510000D01*
X125214607Y-106510000D01*
X125301613Y-106947407D01*
X125549384Y-107318223D01*
X125920200Y-107565994D01*
X126357607Y-107653000D01*
X126402393Y-107653000D01*
X126839800Y-107565994D01*
X127210616Y-107318223D01*
X127458387Y-106947407D01*
X127545393Y-106510000D01*
X127754607Y-106510000D01*
X127841613Y-106947407D01*
X128089384Y-107318223D01*
X128460200Y-107565994D01*
X128897607Y-107653000D01*
X128942393Y-107653000D01*
X129379800Y-107565994D01*
X129750616Y-107318223D01*
X129998387Y-106947407D01*
X130085393Y-106510000D01*
X129998387Y-106072593D01*
X129750616Y-105701777D01*
X129379800Y-105454006D01*
X128942393Y-105367000D01*
X128897607Y-105367000D01*
X128460200Y-105454006D01*
X128089384Y-105701777D01*
X127841613Y-106072593D01*
X127754607Y-106510000D01*
X127545393Y-106510000D01*
X127458387Y-106072593D01*
X127210616Y-105701777D01*
X126839800Y-105454006D01*
X126402393Y-105367000D01*
X126357607Y-105367000D01*
X125920200Y-105454006D01*
X125549384Y-105701777D01*
X125301613Y-106072593D01*
X125214607Y-106510000D01*
X122277351Y-106510000D01*
X122237914Y-106414556D01*
X122016609Y-106192864D01*
X121727311Y-106072737D01*
X121414064Y-106072464D01*
X121124556Y-106192086D01*
X120902864Y-106413391D01*
X120782737Y-106702689D01*
X120782464Y-107015936D01*
X96847290Y-107015936D01*
X96847536Y-106734064D01*
X96727914Y-106444556D01*
X96506609Y-106222864D01*
X96217311Y-106102737D01*
X95904064Y-106102464D01*
X95614556Y-106222086D01*
X95392864Y-106443391D01*
X95272737Y-106732689D01*
X95272464Y-107045936D01*
X88913600Y-107045936D01*
X88913600Y-104660785D01*
X110699486Y-104660785D01*
X110799814Y-104903598D01*
X110985425Y-105089533D01*
X111228062Y-105190285D01*
X111490785Y-105190514D01*
X111733598Y-105090186D01*
X111919533Y-104904575D01*
X112020285Y-104661938D01*
X112020514Y-104399215D01*
X111920186Y-104156402D01*
X111734575Y-103970467D01*
X111733451Y-103970000D01*
X125214607Y-103970000D01*
X125301613Y-104407407D01*
X125549384Y-104778223D01*
X125920200Y-105025994D01*
X126357607Y-105113000D01*
X126402393Y-105113000D01*
X126839800Y-105025994D01*
X127210616Y-104778223D01*
X127458387Y-104407407D01*
X127545393Y-103970000D01*
X127754607Y-103970000D01*
X127841613Y-104407407D01*
X128089384Y-104778223D01*
X128460200Y-105025994D01*
X128897607Y-105113000D01*
X128942393Y-105113000D01*
X129379800Y-105025994D01*
X129750616Y-104778223D01*
X129998387Y-104407407D01*
X130085393Y-103970000D01*
X129998387Y-103532593D01*
X129750616Y-103161777D01*
X129379800Y-102914006D01*
X128942393Y-102827000D01*
X128897607Y-102827000D01*
X128460200Y-102914006D01*
X128089384Y-103161777D01*
X127841613Y-103532593D01*
X127754607Y-103970000D01*
X127545393Y-103970000D01*
X127458387Y-103532593D01*
X127210616Y-103161777D01*
X126839800Y-102914006D01*
X126402393Y-102827000D01*
X126357607Y-102827000D01*
X125920200Y-102914006D01*
X125549384Y-103161777D01*
X125301613Y-103532593D01*
X125214607Y-103970000D01*
X111733451Y-103970000D01*
X111491938Y-103869715D01*
X111229215Y-103869486D01*
X110986402Y-103969814D01*
X110800467Y-104155425D01*
X110699715Y-104398062D01*
X110699486Y-104660785D01*
X88913600Y-104660785D01*
X88913600Y-103970785D01*
X108539486Y-103970785D01*
X108639814Y-104213598D01*
X108825425Y-104399533D01*
X109068062Y-104500285D01*
X109330785Y-104500514D01*
X109573598Y-104400186D01*
X109759533Y-104214575D01*
X109860285Y-103971938D01*
X109860514Y-103709215D01*
X109760186Y-103466402D01*
X109574575Y-103280467D01*
X109331938Y-103179715D01*
X109069215Y-103179486D01*
X108826402Y-103279814D01*
X108640467Y-103465425D01*
X108539715Y-103708062D01*
X108539486Y-103970785D01*
X88913600Y-103970785D01*
X88913600Y-102075936D01*
X95282464Y-102075936D01*
X95402086Y-102365444D01*
X95623391Y-102587136D01*
X95912689Y-102707263D01*
X96225936Y-102707536D01*
X96515444Y-102587914D01*
X96737136Y-102366609D01*
X96857263Y-102077311D01*
X96857303Y-102030785D01*
X107919486Y-102030785D01*
X108019814Y-102273598D01*
X108205425Y-102459533D01*
X108448062Y-102560285D01*
X108710785Y-102560514D01*
X108881748Y-102489874D01*
X108899814Y-102533598D01*
X109085425Y-102719533D01*
X109328062Y-102820285D01*
X109590785Y-102820514D01*
X109833598Y-102720186D01*
X110019533Y-102534575D01*
X110120285Y-102291938D01*
X110120514Y-102029215D01*
X110119160Y-102025936D01*
X120782464Y-102025936D01*
X120902086Y-102315444D01*
X121123391Y-102537136D01*
X121412689Y-102657263D01*
X121725936Y-102657536D01*
X122015444Y-102537914D01*
X122237136Y-102316609D01*
X122357263Y-102027311D01*
X122357536Y-101714064D01*
X122240164Y-101430000D01*
X125214607Y-101430000D01*
X125301613Y-101867407D01*
X125549384Y-102238223D01*
X125920200Y-102485994D01*
X126357607Y-102573000D01*
X126402393Y-102573000D01*
X126839800Y-102485994D01*
X127210616Y-102238223D01*
X127458387Y-101867407D01*
X127545393Y-101430000D01*
X127754607Y-101430000D01*
X127841613Y-101867407D01*
X128089384Y-102238223D01*
X128460200Y-102485994D01*
X128897607Y-102573000D01*
X128942393Y-102573000D01*
X129379800Y-102485994D01*
X129750616Y-102238223D01*
X129998387Y-101867407D01*
X130085393Y-101430000D01*
X129998387Y-100992593D01*
X129750616Y-100621777D01*
X129379800Y-100374006D01*
X128942393Y-100287000D01*
X128897607Y-100287000D01*
X128460200Y-100374006D01*
X128089384Y-100621777D01*
X127841613Y-100992593D01*
X127754607Y-101430000D01*
X127545393Y-101430000D01*
X127458387Y-100992593D01*
X127210616Y-100621777D01*
X126839800Y-100374006D01*
X126402393Y-100287000D01*
X126357607Y-100287000D01*
X125920200Y-100374006D01*
X125549384Y-100621777D01*
X125301613Y-100992593D01*
X125214607Y-101430000D01*
X122240164Y-101430000D01*
X122237914Y-101424556D01*
X122016609Y-101202864D01*
X121727311Y-101082737D01*
X121414064Y-101082464D01*
X121124556Y-101202086D01*
X120902864Y-101423391D01*
X120782737Y-101712689D01*
X120782464Y-102025936D01*
X110119160Y-102025936D01*
X110020186Y-101786402D01*
X109834575Y-101600467D01*
X109591938Y-101499715D01*
X109329215Y-101499486D01*
X109158252Y-101570126D01*
X109140186Y-101526402D01*
X108954575Y-101340467D01*
X108711938Y-101239715D01*
X108449215Y-101239486D01*
X108206402Y-101339814D01*
X108020467Y-101525425D01*
X107919715Y-101768062D01*
X107919486Y-102030785D01*
X96857303Y-102030785D01*
X96857536Y-101764064D01*
X96737914Y-101474556D01*
X96516609Y-101252864D01*
X96227311Y-101132737D01*
X95914064Y-101132464D01*
X95624556Y-101252086D01*
X95402864Y-101473391D01*
X95282737Y-101762689D01*
X95282464Y-102075936D01*
X88913600Y-102075936D01*
X88913600Y-101130785D01*
X104029486Y-101130785D01*
X104129814Y-101373598D01*
X104315425Y-101559533D01*
X104558062Y-101660285D01*
X104820785Y-101660514D01*
X105063598Y-101560186D01*
X105249533Y-101374575D01*
X105350285Y-101131938D01*
X105350514Y-100869215D01*
X105250186Y-100626402D01*
X105064575Y-100440467D01*
X104821938Y-100339715D01*
X104559215Y-100339486D01*
X104316402Y-100439814D01*
X104130467Y-100625425D01*
X104029715Y-100868062D01*
X104029486Y-101130785D01*
X88913600Y-101130785D01*
X88913600Y-100580785D01*
X102139486Y-100580785D01*
X102239814Y-100823598D01*
X102425425Y-101009533D01*
X102668062Y-101110285D01*
X102930785Y-101110514D01*
X103173598Y-101010186D01*
X103359533Y-100824575D01*
X103460285Y-100581938D01*
X103460514Y-100319215D01*
X103440504Y-100270785D01*
X106869486Y-100270785D01*
X106969814Y-100513598D01*
X107155425Y-100699533D01*
X107398062Y-100800285D01*
X107660785Y-100800514D01*
X107903598Y-100700186D01*
X108089533Y-100514575D01*
X108092835Y-100506624D01*
X108275425Y-100689533D01*
X108518062Y-100790285D01*
X108780785Y-100790514D01*
X109023598Y-100690186D01*
X109209533Y-100504575D01*
X109310285Y-100261938D01*
X109310514Y-99999215D01*
X109210186Y-99756402D01*
X109024575Y-99570467D01*
X108781938Y-99469715D01*
X108519215Y-99469486D01*
X108276402Y-99569814D01*
X108090467Y-99755425D01*
X108087165Y-99763376D01*
X107904575Y-99580467D01*
X107661938Y-99479715D01*
X107399215Y-99479486D01*
X107156402Y-99579814D01*
X106970467Y-99765425D01*
X106869715Y-100008062D01*
X106869486Y-100270785D01*
X103440504Y-100270785D01*
X103360186Y-100076402D01*
X103174575Y-99890467D01*
X102931938Y-99789715D01*
X102669215Y-99789486D01*
X102426402Y-99889814D01*
X102240467Y-100075425D01*
X102139715Y-100318062D01*
X102139486Y-100580785D01*
X88913600Y-100580785D01*
X88913600Y-99718210D01*
X91662997Y-99718210D01*
X91753678Y-99937675D01*
X91921442Y-100105732D01*
X92140748Y-100196796D01*
X92378210Y-100197003D01*
X92597675Y-100106322D01*
X92659961Y-100044144D01*
X92721442Y-100105732D01*
X92940748Y-100196796D01*
X93178210Y-100197003D01*
X93397675Y-100106322D01*
X93565732Y-99938558D01*
X93656796Y-99719252D01*
X93657003Y-99481790D01*
X93566322Y-99262325D01*
X93462894Y-99158717D01*
X93565732Y-99056058D01*
X93656796Y-98836752D01*
X93657003Y-98599290D01*
X93566322Y-98379825D01*
X93470394Y-98283730D01*
X93523431Y-98230785D01*
X102139486Y-98230785D01*
X102239814Y-98473598D01*
X102425425Y-98659533D01*
X102668062Y-98760285D01*
X102930785Y-98760514D01*
X103173598Y-98660186D01*
X103359533Y-98474575D01*
X103460285Y-98231938D01*
X103460514Y-97969215D01*
X103448767Y-97940785D01*
X107989486Y-97940785D01*
X108089814Y-98183598D01*
X108275425Y-98369533D01*
X108518062Y-98470285D01*
X108780785Y-98470514D01*
X109023598Y-98370186D01*
X109137621Y-98256362D01*
X109049715Y-98468062D01*
X109049486Y-98730785D01*
X109149814Y-98973598D01*
X109335425Y-99159533D01*
X109349692Y-99165457D01*
X109269715Y-99358062D01*
X109269486Y-99620785D01*
X109369814Y-99863598D01*
X109555425Y-100049533D01*
X109798062Y-100150285D01*
X110060785Y-100150514D01*
X110303598Y-100050186D01*
X110489533Y-99864575D01*
X110590285Y-99621938D01*
X110590514Y-99359215D01*
X110525053Y-99200785D01*
X111579486Y-99200785D01*
X111679814Y-99443598D01*
X111865425Y-99629533D01*
X112108062Y-99730285D01*
X112370785Y-99730514D01*
X112613598Y-99630186D01*
X112799533Y-99444575D01*
X112900285Y-99201938D01*
X112900514Y-98939215D01*
X112800186Y-98696402D01*
X112614575Y-98510467D01*
X112371938Y-98409715D01*
X112109215Y-98409486D01*
X111866402Y-98509814D01*
X111680467Y-98695425D01*
X111579715Y-98938062D01*
X111579486Y-99200785D01*
X110525053Y-99200785D01*
X110490186Y-99116402D01*
X110304575Y-98930467D01*
X110290308Y-98924543D01*
X110370285Y-98731938D01*
X110370514Y-98469215D01*
X110270186Y-98226402D01*
X110084575Y-98040467D01*
X109841938Y-97939715D01*
X109579215Y-97939486D01*
X109336402Y-98039814D01*
X109222379Y-98153638D01*
X109310285Y-97941938D01*
X109310512Y-97680785D01*
X112069486Y-97680785D01*
X112169814Y-97923598D01*
X112355425Y-98109533D01*
X112598062Y-98210285D01*
X112860785Y-98210514D01*
X113103598Y-98110186D01*
X113289533Y-97924575D01*
X113390285Y-97681938D01*
X113390514Y-97419215D01*
X113290186Y-97176402D01*
X113104575Y-96990467D01*
X112861938Y-96889715D01*
X112599215Y-96889486D01*
X112356402Y-96989814D01*
X112170467Y-97175425D01*
X112069715Y-97418062D01*
X112069486Y-97680785D01*
X109310512Y-97680785D01*
X109310514Y-97679215D01*
X109210186Y-97436402D01*
X109024575Y-97250467D01*
X108781938Y-97149715D01*
X108519215Y-97149486D01*
X108276402Y-97249814D01*
X108090467Y-97435425D01*
X107989715Y-97678062D01*
X107989486Y-97940785D01*
X103448767Y-97940785D01*
X103360186Y-97726402D01*
X103174575Y-97540467D01*
X102931938Y-97439715D01*
X102669215Y-97439486D01*
X102426402Y-97539814D01*
X102240467Y-97725425D01*
X102139715Y-97968062D01*
X102139486Y-98230785D01*
X93523431Y-98230785D01*
X93565732Y-98188558D01*
X93656796Y-97969252D01*
X93657003Y-97731790D01*
X93566322Y-97512325D01*
X93398558Y-97344268D01*
X93179252Y-97253204D01*
X92941790Y-97252997D01*
X92722325Y-97343678D01*
X92685082Y-97380856D01*
X92648558Y-97344268D01*
X92429252Y-97253204D01*
X92191790Y-97252997D01*
X91972325Y-97343678D01*
X91804268Y-97511442D01*
X91713204Y-97730748D01*
X91712997Y-97968210D01*
X91803678Y-98187675D01*
X91899606Y-98283770D01*
X91804268Y-98378942D01*
X91713204Y-98598248D01*
X91712997Y-98835710D01*
X91803678Y-99055175D01*
X91882149Y-99133784D01*
X91754268Y-99261442D01*
X91663204Y-99480748D01*
X91662997Y-99718210D01*
X88913600Y-99718210D01*
X88913600Y-96550785D01*
X103409486Y-96550785D01*
X103509814Y-96793598D01*
X103695425Y-96979533D01*
X103938062Y-97080285D01*
X104200785Y-97080514D01*
X104443598Y-96980186D01*
X104629533Y-96794575D01*
X104730285Y-96551938D01*
X104730312Y-96520785D01*
X115329486Y-96520785D01*
X115429814Y-96763598D01*
X115615425Y-96949533D01*
X115858062Y-97050285D01*
X116109504Y-97050504D01*
X116109486Y-97070785D01*
X116209814Y-97313598D01*
X116395425Y-97499533D01*
X116444536Y-97519926D01*
X116396402Y-97539814D01*
X116210467Y-97725425D01*
X116109715Y-97968062D01*
X116109486Y-98230785D01*
X116209814Y-98473598D01*
X116395425Y-98659533D01*
X116415406Y-98667830D01*
X116386402Y-98679814D01*
X116200467Y-98865425D01*
X116099715Y-99108062D01*
X116099486Y-99370785D01*
X116199814Y-99613598D01*
X116385425Y-99799533D01*
X116628062Y-99900285D01*
X116890785Y-99900514D01*
X117133598Y-99800186D01*
X117319533Y-99614575D01*
X117420285Y-99371938D01*
X117420514Y-99109215D01*
X117329937Y-98890000D01*
X125214607Y-98890000D01*
X125301613Y-99327407D01*
X125549384Y-99698223D01*
X125920200Y-99945994D01*
X126357607Y-100033000D01*
X126402393Y-100033000D01*
X126839800Y-99945994D01*
X127210616Y-99698223D01*
X127458387Y-99327407D01*
X127545393Y-98890000D01*
X127754607Y-98890000D01*
X127841613Y-99327407D01*
X128089384Y-99698223D01*
X128460200Y-99945994D01*
X128897607Y-100033000D01*
X128942393Y-100033000D01*
X129379800Y-99945994D01*
X129750616Y-99698223D01*
X129998387Y-99327407D01*
X130085393Y-98890000D01*
X129998387Y-98452593D01*
X129750616Y-98081777D01*
X129379800Y-97834006D01*
X128942393Y-97747000D01*
X128897607Y-97747000D01*
X128460200Y-97834006D01*
X128089384Y-98081777D01*
X127841613Y-98452593D01*
X127754607Y-98890000D01*
X127545393Y-98890000D01*
X127458387Y-98452593D01*
X127210616Y-98081777D01*
X126839800Y-97834006D01*
X126402393Y-97747000D01*
X126357607Y-97747000D01*
X125920200Y-97834006D01*
X125549384Y-98081777D01*
X125301613Y-98452593D01*
X125214607Y-98890000D01*
X117329937Y-98890000D01*
X117320186Y-98866402D01*
X117134575Y-98680467D01*
X117114594Y-98672170D01*
X117143598Y-98660186D01*
X117329533Y-98474575D01*
X117430285Y-98231938D01*
X117430514Y-97969215D01*
X117330186Y-97726402D01*
X117144575Y-97540467D01*
X117095464Y-97520074D01*
X117143598Y-97500186D01*
X117329533Y-97314575D01*
X117430285Y-97071938D01*
X117430514Y-96809215D01*
X117330186Y-96566402D01*
X117144575Y-96380467D01*
X116901938Y-96279715D01*
X116650496Y-96279496D01*
X116650514Y-96259215D01*
X116550186Y-96016402D01*
X116364575Y-95830467D01*
X116121938Y-95729715D01*
X115859215Y-95729486D01*
X115616402Y-95829814D01*
X115430467Y-96015425D01*
X115329715Y-96258062D01*
X115329486Y-96520785D01*
X104730312Y-96520785D01*
X104730514Y-96289215D01*
X104630186Y-96046402D01*
X104444575Y-95860467D01*
X104201938Y-95759715D01*
X103939215Y-95759486D01*
X103696402Y-95859814D01*
X103510467Y-96045425D01*
X103409715Y-96288062D01*
X103409486Y-96550785D01*
X88913600Y-96550785D01*
X88913600Y-95435210D01*
X107142997Y-95435210D01*
X107233678Y-95654675D01*
X107401442Y-95822732D01*
X107620748Y-95913796D01*
X107858210Y-95914003D01*
X108077675Y-95823322D01*
X108245732Y-95655558D01*
X108305034Y-95512744D01*
X108363678Y-95654675D01*
X108531442Y-95822732D01*
X108750748Y-95913796D01*
X108988210Y-95914003D01*
X109207675Y-95823322D01*
X109375732Y-95655558D01*
X109435034Y-95512744D01*
X109493678Y-95654675D01*
X109661442Y-95822732D01*
X109880748Y-95913796D01*
X110118210Y-95914003D01*
X110337675Y-95823322D01*
X110505732Y-95655558D01*
X110565034Y-95512744D01*
X110623678Y-95654675D01*
X110791442Y-95822732D01*
X111010748Y-95913796D01*
X111248210Y-95914003D01*
X111467675Y-95823322D01*
X111635732Y-95655558D01*
X111695034Y-95512744D01*
X111753678Y-95654675D01*
X111921442Y-95822732D01*
X112140748Y-95913796D01*
X112378210Y-95914003D01*
X112597675Y-95823322D01*
X112765732Y-95655558D01*
X112856796Y-95436252D01*
X112857003Y-95198790D01*
X112766322Y-94979325D01*
X112747815Y-94960785D01*
X117689486Y-94960785D01*
X117789814Y-95203598D01*
X117975425Y-95389533D01*
X118218062Y-95490285D01*
X118263518Y-95490325D01*
X118189715Y-95668062D01*
X118189486Y-95930785D01*
X118289814Y-96173598D01*
X118475425Y-96359533D01*
X118718062Y-96460285D01*
X118980785Y-96460514D01*
X119223598Y-96360186D01*
X119233801Y-96350000D01*
X125214607Y-96350000D01*
X125301613Y-96787407D01*
X125549384Y-97158223D01*
X125920200Y-97405994D01*
X126357607Y-97493000D01*
X126402393Y-97493000D01*
X126839800Y-97405994D01*
X127210616Y-97158223D01*
X127458387Y-96787407D01*
X127545393Y-96350000D01*
X127754607Y-96350000D01*
X127841613Y-96787407D01*
X128089384Y-97158223D01*
X128460200Y-97405994D01*
X128897607Y-97493000D01*
X128942393Y-97493000D01*
X129379800Y-97405994D01*
X129750616Y-97158223D01*
X129998387Y-96787407D01*
X130085393Y-96350000D01*
X129998387Y-95912593D01*
X129750616Y-95541777D01*
X129379800Y-95294006D01*
X128942393Y-95207000D01*
X128897607Y-95207000D01*
X128460200Y-95294006D01*
X128089384Y-95541777D01*
X127841613Y-95912593D01*
X127754607Y-96350000D01*
X127545393Y-96350000D01*
X127458387Y-95912593D01*
X127210616Y-95541777D01*
X126839800Y-95294006D01*
X126402393Y-95207000D01*
X126357607Y-95207000D01*
X125920200Y-95294006D01*
X125549384Y-95541777D01*
X125301613Y-95912593D01*
X125214607Y-96350000D01*
X119233801Y-96350000D01*
X119409533Y-96174575D01*
X119510285Y-95931938D01*
X119510514Y-95669215D01*
X119410186Y-95426402D01*
X119224575Y-95240467D01*
X118981938Y-95139715D01*
X118936482Y-95139675D01*
X119010285Y-94961938D01*
X119010514Y-94699215D01*
X118910186Y-94456402D01*
X118724575Y-94270467D01*
X118580846Y-94210785D01*
X118909486Y-94210785D01*
X119009814Y-94453598D01*
X119195425Y-94639533D01*
X119438062Y-94740285D01*
X119700785Y-94740514D01*
X119943598Y-94640186D01*
X120088099Y-94495936D01*
X120782464Y-94495936D01*
X120902086Y-94785444D01*
X121123391Y-95007136D01*
X121412689Y-95127263D01*
X121725936Y-95127536D01*
X122015444Y-95007914D01*
X122237136Y-94786609D01*
X122357263Y-94497311D01*
X122357536Y-94184064D01*
X122237914Y-93894556D01*
X122153506Y-93810000D01*
X125214607Y-93810000D01*
X125301613Y-94247407D01*
X125549384Y-94618223D01*
X125920200Y-94865994D01*
X126357607Y-94953000D01*
X126402393Y-94953000D01*
X126839800Y-94865994D01*
X127210616Y-94618223D01*
X127458387Y-94247407D01*
X127545393Y-93810000D01*
X127754607Y-93810000D01*
X127841613Y-94247407D01*
X128089384Y-94618223D01*
X128460200Y-94865994D01*
X128897607Y-94953000D01*
X128942393Y-94953000D01*
X129379800Y-94865994D01*
X129750616Y-94618223D01*
X129998387Y-94247407D01*
X130085393Y-93810000D01*
X129998387Y-93372593D01*
X129750616Y-93001777D01*
X129379800Y-92754006D01*
X128942393Y-92667000D01*
X128897607Y-92667000D01*
X128460200Y-92754006D01*
X128089384Y-93001777D01*
X127841613Y-93372593D01*
X127754607Y-93810000D01*
X127545393Y-93810000D01*
X127458387Y-93372593D01*
X127210616Y-93001777D01*
X126839800Y-92754006D01*
X126402393Y-92667000D01*
X126357607Y-92667000D01*
X125920200Y-92754006D01*
X125549384Y-93001777D01*
X125301613Y-93372593D01*
X125214607Y-93810000D01*
X122153506Y-93810000D01*
X122016609Y-93672864D01*
X121727311Y-93552737D01*
X121414064Y-93552464D01*
X121124556Y-93672086D01*
X120902864Y-93893391D01*
X120782737Y-94182689D01*
X120782464Y-94495936D01*
X120088099Y-94495936D01*
X120129533Y-94454575D01*
X120230285Y-94211938D01*
X120230514Y-93949215D01*
X120130186Y-93706402D01*
X119944575Y-93520467D01*
X119701938Y-93419715D01*
X119439215Y-93419486D01*
X119196402Y-93519814D01*
X119010467Y-93705425D01*
X118909715Y-93948062D01*
X118909486Y-94210785D01*
X118580846Y-94210785D01*
X118481938Y-94169715D01*
X118219215Y-94169486D01*
X117976402Y-94269814D01*
X117790467Y-94455425D01*
X117689715Y-94698062D01*
X117689486Y-94960785D01*
X112747815Y-94960785D01*
X112598558Y-94811268D01*
X112379252Y-94720204D01*
X112141790Y-94719997D01*
X111922325Y-94810678D01*
X111754268Y-94978442D01*
X111694966Y-95121256D01*
X111636322Y-94979325D01*
X111468558Y-94811268D01*
X111249252Y-94720204D01*
X111011790Y-94719997D01*
X110792325Y-94810678D01*
X110624268Y-94978442D01*
X110564966Y-95121256D01*
X110506322Y-94979325D01*
X110338558Y-94811268D01*
X110119252Y-94720204D01*
X109881790Y-94719997D01*
X109662325Y-94810678D01*
X109494268Y-94978442D01*
X109434966Y-95121256D01*
X109376322Y-94979325D01*
X109208558Y-94811268D01*
X108989252Y-94720204D01*
X108751790Y-94719997D01*
X108532325Y-94810678D01*
X108364268Y-94978442D01*
X108304966Y-95121256D01*
X108246322Y-94979325D01*
X108078558Y-94811268D01*
X107859252Y-94720204D01*
X107621790Y-94719997D01*
X107402325Y-94810678D01*
X107234268Y-94978442D01*
X107143204Y-95197748D01*
X107142997Y-95435210D01*
X88913600Y-95435210D01*
X88913600Y-94219210D01*
X107142997Y-94219210D01*
X107233678Y-94438675D01*
X107401442Y-94606732D01*
X107620748Y-94697796D01*
X107858210Y-94698003D01*
X108077675Y-94607322D01*
X108245732Y-94439558D01*
X108305034Y-94296744D01*
X108363678Y-94438675D01*
X108531442Y-94606732D01*
X108750748Y-94697796D01*
X108988210Y-94698003D01*
X109207675Y-94607322D01*
X109375732Y-94439558D01*
X109435034Y-94296744D01*
X109493678Y-94438675D01*
X109661442Y-94606732D01*
X109880748Y-94697796D01*
X110118210Y-94698003D01*
X110337675Y-94607322D01*
X110505732Y-94439558D01*
X110565034Y-94296744D01*
X110623678Y-94438675D01*
X110791442Y-94606732D01*
X111010748Y-94697796D01*
X111248210Y-94698003D01*
X111467675Y-94607322D01*
X111635732Y-94439558D01*
X111695034Y-94296744D01*
X111753678Y-94438675D01*
X111921442Y-94606732D01*
X112140748Y-94697796D01*
X112378210Y-94698003D01*
X112597675Y-94607322D01*
X112765732Y-94439558D01*
X112856796Y-94220252D01*
X112857003Y-93982790D01*
X112766322Y-93763325D01*
X112598558Y-93595268D01*
X112379252Y-93504204D01*
X112141790Y-93503997D01*
X111922325Y-93594678D01*
X111754268Y-93762442D01*
X111694966Y-93905256D01*
X111636322Y-93763325D01*
X111468558Y-93595268D01*
X111249252Y-93504204D01*
X111011790Y-93503997D01*
X110792325Y-93594678D01*
X110624268Y-93762442D01*
X110564966Y-93905256D01*
X110506322Y-93763325D01*
X110338558Y-93595268D01*
X110119252Y-93504204D01*
X109881790Y-93503997D01*
X109662325Y-93594678D01*
X109494268Y-93762442D01*
X109434966Y-93905256D01*
X109376322Y-93763325D01*
X109208558Y-93595268D01*
X108989252Y-93504204D01*
X108751790Y-93503997D01*
X108532325Y-93594678D01*
X108364268Y-93762442D01*
X108304966Y-93905256D01*
X108246322Y-93763325D01*
X108078558Y-93595268D01*
X107859252Y-93504204D01*
X107621790Y-93503997D01*
X107402325Y-93594678D01*
X107234268Y-93762442D01*
X107143204Y-93981748D01*
X107142997Y-94219210D01*
X88913600Y-94219210D01*
X88913600Y-93530785D01*
X102569486Y-93530785D01*
X102669814Y-93773598D01*
X102855425Y-93959533D01*
X103098062Y-94060285D01*
X103360785Y-94060514D01*
X103603598Y-93960186D01*
X103789533Y-93774575D01*
X103890285Y-93531938D01*
X103890514Y-93269215D01*
X103790186Y-93026402D01*
X103767035Y-93003210D01*
X107142997Y-93003210D01*
X107233678Y-93222675D01*
X107401442Y-93390732D01*
X107620748Y-93481796D01*
X107858210Y-93482003D01*
X108077675Y-93391322D01*
X108245732Y-93223558D01*
X108305034Y-93080744D01*
X108363678Y-93222675D01*
X108531442Y-93390732D01*
X108750748Y-93481796D01*
X108988210Y-93482003D01*
X109207675Y-93391322D01*
X109375732Y-93223558D01*
X109435034Y-93080744D01*
X109493678Y-93222675D01*
X109661442Y-93390732D01*
X109880748Y-93481796D01*
X110118210Y-93482003D01*
X110337675Y-93391322D01*
X110505732Y-93223558D01*
X110565034Y-93080744D01*
X110623678Y-93222675D01*
X110791442Y-93390732D01*
X111010748Y-93481796D01*
X111248210Y-93482003D01*
X111467675Y-93391322D01*
X111635732Y-93223558D01*
X111695034Y-93080744D01*
X111753678Y-93222675D01*
X111921442Y-93390732D01*
X112140748Y-93481796D01*
X112378210Y-93482003D01*
X112597675Y-93391322D01*
X112765732Y-93223558D01*
X112856796Y-93004252D01*
X112857003Y-92766790D01*
X112766322Y-92547325D01*
X112598558Y-92379268D01*
X112379252Y-92288204D01*
X112141790Y-92287997D01*
X111922325Y-92378678D01*
X111754268Y-92546442D01*
X111694966Y-92689256D01*
X111636322Y-92547325D01*
X111468558Y-92379268D01*
X111249252Y-92288204D01*
X111011790Y-92287997D01*
X110792325Y-92378678D01*
X110624268Y-92546442D01*
X110564966Y-92689256D01*
X110506322Y-92547325D01*
X110338558Y-92379268D01*
X110119252Y-92288204D01*
X109881790Y-92287997D01*
X109662325Y-92378678D01*
X109494268Y-92546442D01*
X109434966Y-92689256D01*
X109376322Y-92547325D01*
X109208558Y-92379268D01*
X108989252Y-92288204D01*
X108751790Y-92287997D01*
X108532325Y-92378678D01*
X108364268Y-92546442D01*
X108304966Y-92689256D01*
X108246322Y-92547325D01*
X108078558Y-92379268D01*
X107859252Y-92288204D01*
X107621790Y-92287997D01*
X107402325Y-92378678D01*
X107234268Y-92546442D01*
X107143204Y-92765748D01*
X107142997Y-93003210D01*
X103767035Y-93003210D01*
X103604575Y-92840467D01*
X103361938Y-92739715D01*
X103099215Y-92739486D01*
X102856402Y-92839814D01*
X102670467Y-93025425D01*
X102569715Y-93268062D01*
X102569486Y-93530785D01*
X88913600Y-93530785D01*
X88913600Y-92780785D01*
X97139486Y-92780785D01*
X97239814Y-93023598D01*
X97425425Y-93209533D01*
X97668062Y-93310285D01*
X97930785Y-93310514D01*
X98173598Y-93210186D01*
X98350145Y-93033947D01*
X98525425Y-93209533D01*
X98768062Y-93310285D01*
X99030785Y-93310514D01*
X99273598Y-93210186D01*
X99450145Y-93033947D01*
X99625425Y-93209533D01*
X99868062Y-93310285D01*
X100130785Y-93310514D01*
X100373598Y-93210186D01*
X100555154Y-93028947D01*
X100735425Y-93209533D01*
X100978062Y-93310285D01*
X101240785Y-93310514D01*
X101483598Y-93210186D01*
X101669533Y-93024575D01*
X101770285Y-92781938D01*
X101770514Y-92519215D01*
X101670186Y-92276402D01*
X101484575Y-92090467D01*
X101241938Y-91989715D01*
X100979215Y-91989486D01*
X100736402Y-92089814D01*
X100554846Y-92271053D01*
X100374575Y-92090467D01*
X100131938Y-91989715D01*
X99869215Y-91989486D01*
X99626402Y-92089814D01*
X99449855Y-92266053D01*
X99274575Y-92090467D01*
X99031938Y-91989715D01*
X98769215Y-91989486D01*
X98526402Y-92089814D01*
X98349855Y-92266053D01*
X98174575Y-92090467D01*
X97931938Y-91989715D01*
X97669215Y-91989486D01*
X97426402Y-92089814D01*
X97240467Y-92275425D01*
X97139715Y-92518062D01*
X97139486Y-92780785D01*
X88913600Y-92780785D01*
X88913600Y-90968210D01*
X91662997Y-90968210D01*
X91753678Y-91187675D01*
X91921442Y-91355732D01*
X92140748Y-91446796D01*
X92378210Y-91447003D01*
X92597675Y-91356322D01*
X92659961Y-91294144D01*
X92721442Y-91355732D01*
X92940748Y-91446796D01*
X93178210Y-91447003D01*
X93397675Y-91356322D01*
X93443291Y-91310785D01*
X102299486Y-91310785D01*
X102399814Y-91553598D01*
X102585425Y-91739533D01*
X102828062Y-91840285D01*
X103090785Y-91840514D01*
X103333598Y-91740186D01*
X103519533Y-91554575D01*
X103620285Y-91311938D01*
X103620514Y-91049215D01*
X103520186Y-90806402D01*
X103504597Y-90790785D01*
X106079486Y-90790785D01*
X106179814Y-91033598D01*
X106365425Y-91219533D01*
X106608062Y-91320285D01*
X106870785Y-91320514D01*
X107113598Y-91220186D01*
X107299533Y-91034575D01*
X107400285Y-90791938D01*
X107400514Y-90529215D01*
X107367926Y-90450346D01*
X107537629Y-90450494D01*
X107629814Y-90673598D01*
X107815425Y-90859533D01*
X108058062Y-90960285D01*
X108320785Y-90960514D01*
X108563598Y-90860186D01*
X108749533Y-90674575D01*
X108850285Y-90431938D01*
X108850295Y-90420322D01*
X109070785Y-90420514D01*
X109313598Y-90320186D01*
X109499533Y-90134575D01*
X109600285Y-89891938D01*
X109600514Y-89629215D01*
X109500186Y-89386402D01*
X109314575Y-89200467D01*
X109071938Y-89099715D01*
X108809215Y-89099486D01*
X108566402Y-89199814D01*
X108380467Y-89385425D01*
X108279715Y-89628062D01*
X108279705Y-89639678D01*
X108082371Y-89639506D01*
X107990186Y-89416402D01*
X107804575Y-89230467D01*
X107561938Y-89129715D01*
X107299215Y-89129486D01*
X107056402Y-89229814D01*
X106870467Y-89415425D01*
X106769715Y-89658062D01*
X106769486Y-89920785D01*
X106802074Y-89999654D01*
X106609215Y-89999486D01*
X106366402Y-90099814D01*
X106180467Y-90285425D01*
X106079715Y-90528062D01*
X106079486Y-90790785D01*
X103504597Y-90790785D01*
X103334575Y-90620467D01*
X103091938Y-90519715D01*
X102829215Y-90519486D01*
X102586402Y-90619814D01*
X102400467Y-90805425D01*
X102299715Y-91048062D01*
X102299486Y-91310785D01*
X93443291Y-91310785D01*
X93565732Y-91188558D01*
X93656796Y-90969252D01*
X93657003Y-90731790D01*
X93566322Y-90512325D01*
X93462894Y-90408717D01*
X93565732Y-90306058D01*
X93656796Y-90086752D01*
X93657003Y-89849290D01*
X93566322Y-89629825D01*
X93472597Y-89535936D01*
X95282464Y-89535936D01*
X95402086Y-89825444D01*
X95623391Y-90047136D01*
X95912689Y-90167263D01*
X96225936Y-90167536D01*
X96515444Y-90047914D01*
X96737136Y-89826609D01*
X96857263Y-89537311D01*
X96857536Y-89224064D01*
X96843786Y-89190785D01*
X102349486Y-89190785D01*
X102449814Y-89433598D01*
X102635425Y-89619533D01*
X102878062Y-89720285D01*
X103140785Y-89720514D01*
X103383598Y-89620186D01*
X103569533Y-89434575D01*
X103670285Y-89191938D01*
X103670514Y-88929215D01*
X103570186Y-88686402D01*
X103384575Y-88500467D01*
X103361259Y-88490785D01*
X109099486Y-88490785D01*
X109199814Y-88733598D01*
X109385425Y-88919533D01*
X109628062Y-89020285D01*
X109890785Y-89020514D01*
X110133598Y-88920186D01*
X110185023Y-88868851D01*
X110345425Y-89029533D01*
X110588062Y-89130285D01*
X110850785Y-89130514D01*
X111093598Y-89030186D01*
X111279533Y-88844575D01*
X111379650Y-88603468D01*
X111461079Y-88685040D01*
X111330467Y-88815425D01*
X111229715Y-89058062D01*
X111229486Y-89320785D01*
X111329814Y-89563598D01*
X111455984Y-89689988D01*
X111410467Y-89735425D01*
X111309715Y-89978062D01*
X111309486Y-90240785D01*
X111409814Y-90483598D01*
X111595425Y-90669533D01*
X111838062Y-90770285D01*
X112099521Y-90770513D01*
X112099486Y-90810785D01*
X112199814Y-91053598D01*
X112385425Y-91239533D01*
X112628062Y-91340285D01*
X112782717Y-91340420D01*
X112729715Y-91468062D01*
X112729486Y-91730785D01*
X112829814Y-91973598D01*
X113015425Y-92159533D01*
X113258062Y-92260285D01*
X113520785Y-92260514D01*
X113763598Y-92160186D01*
X113793050Y-92130785D01*
X114979486Y-92130785D01*
X115079814Y-92373598D01*
X115265425Y-92559533D01*
X115508062Y-92660285D01*
X115770785Y-92660514D01*
X116013598Y-92560186D01*
X116199533Y-92374575D01*
X116300285Y-92131938D01*
X116300514Y-91869215D01*
X116200186Y-91626402D01*
X116014575Y-91440467D01*
X115771938Y-91339715D01*
X115509215Y-91339486D01*
X115266402Y-91439814D01*
X115080467Y-91625425D01*
X114979715Y-91868062D01*
X114979486Y-92130785D01*
X113793050Y-92130785D01*
X113949533Y-91974575D01*
X113983791Y-91892073D01*
X114148062Y-91960285D01*
X114410785Y-91960514D01*
X114653598Y-91860186D01*
X114839533Y-91674575D01*
X114940285Y-91431938D01*
X114940426Y-91270000D01*
X125214607Y-91270000D01*
X125301613Y-91707407D01*
X125549384Y-92078223D01*
X125920200Y-92325994D01*
X126357607Y-92413000D01*
X126402393Y-92413000D01*
X126839800Y-92325994D01*
X127210616Y-92078223D01*
X127458387Y-91707407D01*
X127545393Y-91270000D01*
X127754607Y-91270000D01*
X127841613Y-91707407D01*
X128089384Y-92078223D01*
X128460200Y-92325994D01*
X128897607Y-92413000D01*
X128942393Y-92413000D01*
X129379800Y-92325994D01*
X129750616Y-92078223D01*
X129998387Y-91707407D01*
X130085393Y-91270000D01*
X129998387Y-90832593D01*
X129750616Y-90461777D01*
X129379800Y-90214006D01*
X128942393Y-90127000D01*
X128897607Y-90127000D01*
X128460200Y-90214006D01*
X128089384Y-90461777D01*
X127841613Y-90832593D01*
X127754607Y-91270000D01*
X127545393Y-91270000D01*
X127458387Y-90832593D01*
X127210616Y-90461777D01*
X126839800Y-90214006D01*
X126402393Y-90127000D01*
X126357607Y-90127000D01*
X125920200Y-90214006D01*
X125549384Y-90461777D01*
X125301613Y-90832593D01*
X125214607Y-91270000D01*
X114940426Y-91270000D01*
X114940514Y-91169215D01*
X114840186Y-90926402D01*
X114654575Y-90740467D01*
X114411938Y-90639715D01*
X114149215Y-90639486D01*
X113906402Y-90739814D01*
X113720467Y-90925425D01*
X113686209Y-91007927D01*
X113521938Y-90939715D01*
X113367283Y-90939580D01*
X113420285Y-90811938D01*
X113420514Y-90549215D01*
X113320186Y-90306402D01*
X113134575Y-90120467D01*
X112891938Y-90019715D01*
X112630479Y-90019487D01*
X112630514Y-89979215D01*
X112530186Y-89736402D01*
X112404016Y-89610012D01*
X112449533Y-89564575D01*
X112461424Y-89535936D01*
X120782464Y-89535936D01*
X120902086Y-89825444D01*
X121123391Y-90047136D01*
X121412689Y-90167263D01*
X121725936Y-90167536D01*
X122015444Y-90047914D01*
X122237136Y-89826609D01*
X122357263Y-89537311D01*
X122357536Y-89224064D01*
X122237914Y-88934556D01*
X122033716Y-88730000D01*
X125214607Y-88730000D01*
X125301613Y-89167407D01*
X125549384Y-89538223D01*
X125920200Y-89785994D01*
X126357607Y-89873000D01*
X126402393Y-89873000D01*
X126839800Y-89785994D01*
X127210616Y-89538223D01*
X127458387Y-89167407D01*
X127545393Y-88730000D01*
X127754607Y-88730000D01*
X127841613Y-89167407D01*
X128089384Y-89538223D01*
X128460200Y-89785994D01*
X128897607Y-89873000D01*
X128942393Y-89873000D01*
X129379800Y-89785994D01*
X129750616Y-89538223D01*
X129998387Y-89167407D01*
X130085393Y-88730000D01*
X129998387Y-88292593D01*
X129750616Y-87921777D01*
X129379800Y-87674006D01*
X128942393Y-87587000D01*
X128897607Y-87587000D01*
X128460200Y-87674006D01*
X128089384Y-87921777D01*
X127841613Y-88292593D01*
X127754607Y-88730000D01*
X127545393Y-88730000D01*
X127458387Y-88292593D01*
X127210616Y-87921777D01*
X126839800Y-87674006D01*
X126402393Y-87587000D01*
X126357607Y-87587000D01*
X125920200Y-87674006D01*
X125549384Y-87921777D01*
X125301613Y-88292593D01*
X125214607Y-88730000D01*
X122033716Y-88730000D01*
X122016609Y-88712864D01*
X121727311Y-88592737D01*
X121414064Y-88592464D01*
X121124556Y-88712086D01*
X120902864Y-88933391D01*
X120782737Y-89222689D01*
X120782464Y-89535936D01*
X112461424Y-89535936D01*
X112550285Y-89321938D01*
X112550514Y-89059215D01*
X112450186Y-88816402D01*
X112348921Y-88714960D01*
X112479533Y-88584575D01*
X112580285Y-88341938D01*
X112580514Y-88079215D01*
X112480186Y-87836402D01*
X112294575Y-87650467D01*
X112051938Y-87549715D01*
X111789215Y-87549486D01*
X111546402Y-87649814D01*
X111360467Y-87835425D01*
X111260350Y-88076532D01*
X111094575Y-87910467D01*
X110851938Y-87809715D01*
X110589215Y-87809486D01*
X110346402Y-87909814D01*
X110294977Y-87961149D01*
X110134575Y-87800467D01*
X109891938Y-87699715D01*
X109629215Y-87699486D01*
X109386402Y-87799814D01*
X109200467Y-87985425D01*
X109099715Y-88228062D01*
X109099486Y-88490785D01*
X103361259Y-88490785D01*
X103141938Y-88399715D01*
X102879215Y-88399486D01*
X102636402Y-88499814D01*
X102450467Y-88685425D01*
X102349715Y-88928062D01*
X102349486Y-89190785D01*
X96843786Y-89190785D01*
X96737914Y-88934556D01*
X96516609Y-88712864D01*
X96227311Y-88592737D01*
X95914064Y-88592464D01*
X95624556Y-88712086D01*
X95402864Y-88933391D01*
X95282737Y-89222689D01*
X95282464Y-89535936D01*
X93472597Y-89535936D01*
X93470394Y-89533730D01*
X93565732Y-89438558D01*
X93656796Y-89219252D01*
X93657003Y-88981790D01*
X93566322Y-88762325D01*
X93398558Y-88594268D01*
X93179252Y-88503204D01*
X92941790Y-88502997D01*
X92722325Y-88593678D01*
X92685082Y-88630856D01*
X92648558Y-88594268D01*
X92429252Y-88503204D01*
X92191790Y-88502997D01*
X91972325Y-88593678D01*
X91804268Y-88761442D01*
X91713204Y-88980748D01*
X91712997Y-89218210D01*
X91803678Y-89437675D01*
X91899606Y-89533770D01*
X91804268Y-89628942D01*
X91713204Y-89848248D01*
X91712997Y-90085710D01*
X91803678Y-90305175D01*
X91882149Y-90383784D01*
X91754268Y-90511442D01*
X91663204Y-90730748D01*
X91662997Y-90968210D01*
X88913600Y-90968210D01*
X88913600Y-86061215D01*
X89200188Y-86061215D01*
X89561667Y-86936061D01*
X90230418Y-87605981D01*
X91104632Y-87968986D01*
X92051215Y-87969812D01*
X92169869Y-87920785D01*
X103379486Y-87920785D01*
X103479814Y-88163598D01*
X103665425Y-88349533D01*
X103908062Y-88450285D01*
X104170785Y-88450514D01*
X104413598Y-88350186D01*
X104599533Y-88164575D01*
X104700285Y-87921938D01*
X104700514Y-87659215D01*
X104600186Y-87416402D01*
X104414575Y-87230467D01*
X104171938Y-87129715D01*
X103909215Y-87129486D01*
X103666402Y-87229814D01*
X103480467Y-87415425D01*
X103379715Y-87658062D01*
X103379486Y-87920785D01*
X92169869Y-87920785D01*
X92926061Y-87608333D01*
X93595981Y-86939582D01*
X93958986Y-86065368D01*
X93959465Y-85515936D01*
X99292464Y-85515936D01*
X99412086Y-85805444D01*
X99633391Y-86027136D01*
X99922689Y-86147263D01*
X100235936Y-86147536D01*
X100525444Y-86027914D01*
X100747136Y-85806609D01*
X100867263Y-85517311D01*
X100867264Y-85515936D01*
X104252464Y-85515936D01*
X104372086Y-85805444D01*
X104593391Y-86027136D01*
X104882689Y-86147263D01*
X105195936Y-86147536D01*
X105485444Y-86027914D01*
X105707136Y-85806609D01*
X105827263Y-85517311D01*
X105827264Y-85515936D01*
X111742464Y-85515936D01*
X111862086Y-85805444D01*
X112083391Y-86027136D01*
X112372689Y-86147263D01*
X112685936Y-86147536D01*
X112975444Y-86027914D01*
X113197136Y-85806609D01*
X113317263Y-85517311D01*
X113317264Y-85515936D01*
X116742464Y-85515936D01*
X116862086Y-85805444D01*
X117083391Y-86027136D01*
X117372689Y-86147263D01*
X117685936Y-86147536D01*
X117975444Y-86027914D01*
X118197136Y-85806609D01*
X118317263Y-85517311D01*
X118317429Y-85326400D01*
X125231527Y-85326400D01*
X125231527Y-87053600D01*
X125253212Y-87162616D01*
X125314964Y-87255036D01*
X125407384Y-87316788D01*
X125516400Y-87338473D01*
X127243600Y-87338473D01*
X127352616Y-87316788D01*
X127445036Y-87255036D01*
X127506788Y-87162616D01*
X127528473Y-87053600D01*
X127528473Y-86485135D01*
X127868432Y-86485135D01*
X127967726Y-86724886D01*
X128244906Y-87048590D01*
X128624863Y-87241581D01*
X128793000Y-87217654D01*
X128793000Y-86317000D01*
X129047000Y-86317000D01*
X129047000Y-87217654D01*
X129215137Y-87241581D01*
X129595094Y-87048590D01*
X129872274Y-86724886D01*
X129971568Y-86485135D01*
X129947229Y-86317000D01*
X129047000Y-86317000D01*
X128793000Y-86317000D01*
X127892771Y-86317000D01*
X127868432Y-86485135D01*
X127528473Y-86485135D01*
X127528473Y-85894865D01*
X127868432Y-85894865D01*
X127892771Y-86063000D01*
X128793000Y-86063000D01*
X128793000Y-85162346D01*
X129047000Y-85162346D01*
X129047000Y-86063000D01*
X129947229Y-86063000D01*
X129971568Y-85894865D01*
X129872274Y-85655114D01*
X129595094Y-85331410D01*
X129215137Y-85138419D01*
X129047000Y-85162346D01*
X128793000Y-85162346D01*
X128624863Y-85138419D01*
X128244906Y-85331410D01*
X127967726Y-85655114D01*
X127868432Y-85894865D01*
X127528473Y-85894865D01*
X127528473Y-85326400D01*
X127506788Y-85217384D01*
X127445036Y-85124964D01*
X127352616Y-85063212D01*
X127243600Y-85041527D01*
X125516400Y-85041527D01*
X125407384Y-85063212D01*
X125314964Y-85124964D01*
X125253212Y-85217384D01*
X125231527Y-85326400D01*
X118317429Y-85326400D01*
X118317536Y-85204064D01*
X118197914Y-84914556D01*
X117976609Y-84692864D01*
X117687311Y-84572737D01*
X117374064Y-84572464D01*
X117084556Y-84692086D01*
X116862864Y-84913391D01*
X116742737Y-85202689D01*
X116742464Y-85515936D01*
X113317264Y-85515936D01*
X113317536Y-85204064D01*
X113197914Y-84914556D01*
X112976609Y-84692864D01*
X112687311Y-84572737D01*
X112374064Y-84572464D01*
X112084556Y-84692086D01*
X111862864Y-84913391D01*
X111742737Y-85202689D01*
X111742464Y-85515936D01*
X105827264Y-85515936D01*
X105827536Y-85204064D01*
X105707914Y-84914556D01*
X105486609Y-84692864D01*
X105197311Y-84572737D01*
X104884064Y-84572464D01*
X104594556Y-84692086D01*
X104372864Y-84913391D01*
X104252737Y-85202689D01*
X104252464Y-85515936D01*
X100867264Y-85515936D01*
X100867536Y-85204064D01*
X100747914Y-84914556D01*
X100526609Y-84692864D01*
X100237311Y-84572737D01*
X99924064Y-84572464D01*
X99634556Y-84692086D01*
X99412864Y-84913391D01*
X99292737Y-85202689D01*
X99292464Y-85515936D01*
X93959465Y-85515936D01*
X93959812Y-85118785D01*
X93598333Y-84243939D01*
X92929582Y-83574019D01*
X92055368Y-83211014D01*
X91108785Y-83210188D01*
X90233939Y-83571667D01*
X89564019Y-84240418D01*
X89201014Y-85114632D01*
X89200188Y-86061215D01*
X88913600Y-86061215D01*
X88913600Y-82923600D01*
X130306400Y-82923600D01*
X130306400Y-112316400D01*
X130306400Y-112316400D01*
G37*
X130306400Y-112316400D02*
X88913600Y-112316400D01*
X88913600Y-110121215D01*
X89200188Y-110121215D01*
X89561667Y-110996061D01*
X90230418Y-111665981D01*
X91104632Y-112028986D01*
X92051215Y-112029812D01*
X92926061Y-111668333D01*
X93579598Y-111015936D01*
X99282464Y-111015936D01*
X99402086Y-111305444D01*
X99623391Y-111527136D01*
X99912689Y-111647263D01*
X100225936Y-111647536D01*
X100515444Y-111527914D01*
X100737136Y-111306609D01*
X100857263Y-111017311D01*
X100857264Y-111015936D01*
X104302464Y-111015936D01*
X104422086Y-111305444D01*
X104643391Y-111527136D01*
X104932689Y-111647263D01*
X105245936Y-111647536D01*
X105535444Y-111527914D01*
X105757136Y-111306609D01*
X105877263Y-111017311D01*
X105877264Y-111015936D01*
X111812464Y-111015936D01*
X111932086Y-111305444D01*
X112153391Y-111527136D01*
X112442689Y-111647263D01*
X112755936Y-111647536D01*
X113045444Y-111527914D01*
X113267136Y-111306609D01*
X113387263Y-111017311D01*
X113387264Y-111015936D01*
X116782464Y-111015936D01*
X116902086Y-111305444D01*
X117123391Y-111527136D01*
X117412689Y-111647263D01*
X117725936Y-111647536D01*
X118015444Y-111527914D01*
X118237136Y-111306609D01*
X118357263Y-111017311D01*
X118357536Y-110704064D01*
X118237914Y-110414556D01*
X118016609Y-110192864D01*
X117727311Y-110072737D01*
X117414064Y-110072464D01*
X117124556Y-110192086D01*
X116902864Y-110413391D01*
X116782737Y-110702689D01*
X116782464Y-111015936D01*
X113387264Y-111015936D01*
X113387536Y-110704064D01*
X113267914Y-110414556D01*
X113046609Y-110192864D01*
X112757311Y-110072737D01*
X112444064Y-110072464D01*
X112154556Y-110192086D01*
X111932864Y-110413391D01*
X111812737Y-110702689D01*
X111812464Y-111015936D01*
X105877264Y-111015936D01*
X105877536Y-110704064D01*
X105757914Y-110414556D01*
X105536609Y-110192864D01*
X105247311Y-110072737D01*
X104934064Y-110072464D01*
X104644556Y-110192086D01*
X104422864Y-110413391D01*
X104302737Y-110702689D01*
X104302464Y-111015936D01*
X100857264Y-111015936D01*
X100857536Y-110704064D01*
X100737914Y-110414556D01*
X100516609Y-110192864D01*
X100227311Y-110072737D01*
X99914064Y-110072464D01*
X99624556Y-110192086D01*
X99402864Y-110413391D01*
X99282737Y-110702689D01*
X99282464Y-111015936D01*
X93579598Y-111015936D01*
X93595981Y-110999582D01*
X93958986Y-110125368D01*
X93959666Y-109345135D01*
X125328432Y-109345135D01*
X125427726Y-109584886D01*
X125704906Y-109908590D01*
X126084863Y-110101581D01*
X126253000Y-110077654D01*
X126253000Y-109177000D01*
X126507000Y-109177000D01*
X126507000Y-110077654D01*
X126675137Y-110101581D01*
X127055094Y-109908590D01*
X127332274Y-109584886D01*
X127431568Y-109345135D01*
X127407229Y-109177000D01*
X126507000Y-109177000D01*
X126253000Y-109177000D01*
X125352771Y-109177000D01*
X125328432Y-109345135D01*
X93959666Y-109345135D01*
X93959812Y-109178785D01*
X93906600Y-109050000D01*
X127754607Y-109050000D01*
X127841613Y-109487407D01*
X128089384Y-109858223D01*
X128460200Y-110105994D01*
X128897607Y-110193000D01*
X128942393Y-110193000D01*
X129379800Y-110105994D01*
X129750616Y-109858223D01*
X129998387Y-109487407D01*
X130085393Y-109050000D01*
X129998387Y-108612593D01*
X129750616Y-108241777D01*
X129379800Y-107994006D01*
X128942393Y-107907000D01*
X128897607Y-107907000D01*
X128460200Y-107994006D01*
X128089384Y-108241777D01*
X127841613Y-108612593D01*
X127754607Y-109050000D01*
X93906600Y-109050000D01*
X93784652Y-108754865D01*
X125328432Y-108754865D01*
X125352771Y-108923000D01*
X126253000Y-108923000D01*
X126253000Y-108022346D01*
X126507000Y-108022346D01*
X126507000Y-108923000D01*
X127407229Y-108923000D01*
X127431568Y-108754865D01*
X127332274Y-108515114D01*
X127055094Y-108191410D01*
X126675137Y-107998419D01*
X126507000Y-108022346D01*
X126253000Y-108022346D01*
X126084863Y-107998419D01*
X125704906Y-108191410D01*
X125427726Y-108515114D01*
X125328432Y-108754865D01*
X93784652Y-108754865D01*
X93598333Y-108303939D01*
X92929582Y-107634019D01*
X92055368Y-107271014D01*
X91108785Y-107270188D01*
X90233939Y-107631667D01*
X89564019Y-108300418D01*
X89201014Y-109174632D01*
X89200188Y-110121215D01*
X88913600Y-110121215D01*
X88913600Y-107045936D01*
X95272464Y-107045936D01*
X95392086Y-107335444D01*
X95613391Y-107557136D01*
X95902689Y-107677263D01*
X96215936Y-107677536D01*
X96505444Y-107557914D01*
X96727136Y-107336609D01*
X96847263Y-107047311D01*
X96847290Y-107015936D01*
X120782464Y-107015936D01*
X120902086Y-107305444D01*
X121123391Y-107527136D01*
X121412689Y-107647263D01*
X121725936Y-107647536D01*
X122015444Y-107527914D01*
X122237136Y-107306609D01*
X122357263Y-107017311D01*
X122357536Y-106704064D01*
X122277351Y-106510000D01*
X125214607Y-106510000D01*
X125301613Y-106947407D01*
X125549384Y-107318223D01*
X125920200Y-107565994D01*
X126357607Y-107653000D01*
X126402393Y-107653000D01*
X126839800Y-107565994D01*
X127210616Y-107318223D01*
X127458387Y-106947407D01*
X127545393Y-106510000D01*
X127754607Y-106510000D01*
X127841613Y-106947407D01*
X128089384Y-107318223D01*
X128460200Y-107565994D01*
X128897607Y-107653000D01*
X128942393Y-107653000D01*
X129379800Y-107565994D01*
X129750616Y-107318223D01*
X129998387Y-106947407D01*
X130085393Y-106510000D01*
X129998387Y-106072593D01*
X129750616Y-105701777D01*
X129379800Y-105454006D01*
X128942393Y-105367000D01*
X128897607Y-105367000D01*
X128460200Y-105454006D01*
X128089384Y-105701777D01*
X127841613Y-106072593D01*
X127754607Y-106510000D01*
X127545393Y-106510000D01*
X127458387Y-106072593D01*
X127210616Y-105701777D01*
X126839800Y-105454006D01*
X126402393Y-105367000D01*
X126357607Y-105367000D01*
X125920200Y-105454006D01*
X125549384Y-105701777D01*
X125301613Y-106072593D01*
X125214607Y-106510000D01*
X122277351Y-106510000D01*
X122237914Y-106414556D01*
X122016609Y-106192864D01*
X121727311Y-106072737D01*
X121414064Y-106072464D01*
X121124556Y-106192086D01*
X120902864Y-106413391D01*
X120782737Y-106702689D01*
X120782464Y-107015936D01*
X96847290Y-107015936D01*
X96847536Y-106734064D01*
X96727914Y-106444556D01*
X96506609Y-106222864D01*
X96217311Y-106102737D01*
X95904064Y-106102464D01*
X95614556Y-106222086D01*
X95392864Y-106443391D01*
X95272737Y-106732689D01*
X95272464Y-107045936D01*
X88913600Y-107045936D01*
X88913600Y-104660785D01*
X110699486Y-104660785D01*
X110799814Y-104903598D01*
X110985425Y-105089533D01*
X111228062Y-105190285D01*
X111490785Y-105190514D01*
X111733598Y-105090186D01*
X111919533Y-104904575D01*
X112020285Y-104661938D01*
X112020514Y-104399215D01*
X111920186Y-104156402D01*
X111734575Y-103970467D01*
X111733451Y-103970000D01*
X125214607Y-103970000D01*
X125301613Y-104407407D01*
X125549384Y-104778223D01*
X125920200Y-105025994D01*
X126357607Y-105113000D01*
X126402393Y-105113000D01*
X126839800Y-105025994D01*
X127210616Y-104778223D01*
X127458387Y-104407407D01*
X127545393Y-103970000D01*
X127754607Y-103970000D01*
X127841613Y-104407407D01*
X128089384Y-104778223D01*
X128460200Y-105025994D01*
X128897607Y-105113000D01*
X128942393Y-105113000D01*
X129379800Y-105025994D01*
X129750616Y-104778223D01*
X129998387Y-104407407D01*
X130085393Y-103970000D01*
X129998387Y-103532593D01*
X129750616Y-103161777D01*
X129379800Y-102914006D01*
X128942393Y-102827000D01*
X128897607Y-102827000D01*
X128460200Y-102914006D01*
X128089384Y-103161777D01*
X127841613Y-103532593D01*
X127754607Y-103970000D01*
X127545393Y-103970000D01*
X127458387Y-103532593D01*
X127210616Y-103161777D01*
X126839800Y-102914006D01*
X126402393Y-102827000D01*
X126357607Y-102827000D01*
X125920200Y-102914006D01*
X125549384Y-103161777D01*
X125301613Y-103532593D01*
X125214607Y-103970000D01*
X111733451Y-103970000D01*
X111491938Y-103869715D01*
X111229215Y-103869486D01*
X110986402Y-103969814D01*
X110800467Y-104155425D01*
X110699715Y-104398062D01*
X110699486Y-104660785D01*
X88913600Y-104660785D01*
X88913600Y-103970785D01*
X108539486Y-103970785D01*
X108639814Y-104213598D01*
X108825425Y-104399533D01*
X109068062Y-104500285D01*
X109330785Y-104500514D01*
X109573598Y-104400186D01*
X109759533Y-104214575D01*
X109860285Y-103971938D01*
X109860514Y-103709215D01*
X109760186Y-103466402D01*
X109574575Y-103280467D01*
X109331938Y-103179715D01*
X109069215Y-103179486D01*
X108826402Y-103279814D01*
X108640467Y-103465425D01*
X108539715Y-103708062D01*
X108539486Y-103970785D01*
X88913600Y-103970785D01*
X88913600Y-102075936D01*
X95282464Y-102075936D01*
X95402086Y-102365444D01*
X95623391Y-102587136D01*
X95912689Y-102707263D01*
X96225936Y-102707536D01*
X96515444Y-102587914D01*
X96737136Y-102366609D01*
X96857263Y-102077311D01*
X96857303Y-102030785D01*
X107919486Y-102030785D01*
X108019814Y-102273598D01*
X108205425Y-102459533D01*
X108448062Y-102560285D01*
X108710785Y-102560514D01*
X108881748Y-102489874D01*
X108899814Y-102533598D01*
X109085425Y-102719533D01*
X109328062Y-102820285D01*
X109590785Y-102820514D01*
X109833598Y-102720186D01*
X110019533Y-102534575D01*
X110120285Y-102291938D01*
X110120514Y-102029215D01*
X110119160Y-102025936D01*
X120782464Y-102025936D01*
X120902086Y-102315444D01*
X121123391Y-102537136D01*
X121412689Y-102657263D01*
X121725936Y-102657536D01*
X122015444Y-102537914D01*
X122237136Y-102316609D01*
X122357263Y-102027311D01*
X122357536Y-101714064D01*
X122240164Y-101430000D01*
X125214607Y-101430000D01*
X125301613Y-101867407D01*
X125549384Y-102238223D01*
X125920200Y-102485994D01*
X126357607Y-102573000D01*
X126402393Y-102573000D01*
X126839800Y-102485994D01*
X127210616Y-102238223D01*
X127458387Y-101867407D01*
X127545393Y-101430000D01*
X127754607Y-101430000D01*
X127841613Y-101867407D01*
X128089384Y-102238223D01*
X128460200Y-102485994D01*
X128897607Y-102573000D01*
X128942393Y-102573000D01*
X129379800Y-102485994D01*
X129750616Y-102238223D01*
X129998387Y-101867407D01*
X130085393Y-101430000D01*
X129998387Y-100992593D01*
X129750616Y-100621777D01*
X129379800Y-100374006D01*
X128942393Y-100287000D01*
X128897607Y-100287000D01*
X128460200Y-100374006D01*
X128089384Y-100621777D01*
X127841613Y-100992593D01*
X127754607Y-101430000D01*
X127545393Y-101430000D01*
X127458387Y-100992593D01*
X127210616Y-100621777D01*
X126839800Y-100374006D01*
X126402393Y-100287000D01*
X126357607Y-100287000D01*
X125920200Y-100374006D01*
X125549384Y-100621777D01*
X125301613Y-100992593D01*
X125214607Y-101430000D01*
X122240164Y-101430000D01*
X122237914Y-101424556D01*
X122016609Y-101202864D01*
X121727311Y-101082737D01*
X121414064Y-101082464D01*
X121124556Y-101202086D01*
X120902864Y-101423391D01*
X120782737Y-101712689D01*
X120782464Y-102025936D01*
X110119160Y-102025936D01*
X110020186Y-101786402D01*
X109834575Y-101600467D01*
X109591938Y-101499715D01*
X109329215Y-101499486D01*
X109158252Y-101570126D01*
X109140186Y-101526402D01*
X108954575Y-101340467D01*
X108711938Y-101239715D01*
X108449215Y-101239486D01*
X108206402Y-101339814D01*
X108020467Y-101525425D01*
X107919715Y-101768062D01*
X107919486Y-102030785D01*
X96857303Y-102030785D01*
X96857536Y-101764064D01*
X96737914Y-101474556D01*
X96516609Y-101252864D01*
X96227311Y-101132737D01*
X95914064Y-101132464D01*
X95624556Y-101252086D01*
X95402864Y-101473391D01*
X95282737Y-101762689D01*
X95282464Y-102075936D01*
X88913600Y-102075936D01*
X88913600Y-101130785D01*
X104029486Y-101130785D01*
X104129814Y-101373598D01*
X104315425Y-101559533D01*
X104558062Y-101660285D01*
X104820785Y-101660514D01*
X105063598Y-101560186D01*
X105249533Y-101374575D01*
X105350285Y-101131938D01*
X105350514Y-100869215D01*
X105250186Y-100626402D01*
X105064575Y-100440467D01*
X104821938Y-100339715D01*
X104559215Y-100339486D01*
X104316402Y-100439814D01*
X104130467Y-100625425D01*
X104029715Y-100868062D01*
X104029486Y-101130785D01*
X88913600Y-101130785D01*
X88913600Y-100580785D01*
X102139486Y-100580785D01*
X102239814Y-100823598D01*
X102425425Y-101009533D01*
X102668062Y-101110285D01*
X102930785Y-101110514D01*
X103173598Y-101010186D01*
X103359533Y-100824575D01*
X103460285Y-100581938D01*
X103460514Y-100319215D01*
X103440504Y-100270785D01*
X106869486Y-100270785D01*
X106969814Y-100513598D01*
X107155425Y-100699533D01*
X107398062Y-100800285D01*
X107660785Y-100800514D01*
X107903598Y-100700186D01*
X108089533Y-100514575D01*
X108092835Y-100506624D01*
X108275425Y-100689533D01*
X108518062Y-100790285D01*
X108780785Y-100790514D01*
X109023598Y-100690186D01*
X109209533Y-100504575D01*
X109310285Y-100261938D01*
X109310514Y-99999215D01*
X109210186Y-99756402D01*
X109024575Y-99570467D01*
X108781938Y-99469715D01*
X108519215Y-99469486D01*
X108276402Y-99569814D01*
X108090467Y-99755425D01*
X108087165Y-99763376D01*
X107904575Y-99580467D01*
X107661938Y-99479715D01*
X107399215Y-99479486D01*
X107156402Y-99579814D01*
X106970467Y-99765425D01*
X106869715Y-100008062D01*
X106869486Y-100270785D01*
X103440504Y-100270785D01*
X103360186Y-100076402D01*
X103174575Y-99890467D01*
X102931938Y-99789715D01*
X102669215Y-99789486D01*
X102426402Y-99889814D01*
X102240467Y-100075425D01*
X102139715Y-100318062D01*
X102139486Y-100580785D01*
X88913600Y-100580785D01*
X88913600Y-99718210D01*
X91662997Y-99718210D01*
X91753678Y-99937675D01*
X91921442Y-100105732D01*
X92140748Y-100196796D01*
X92378210Y-100197003D01*
X92597675Y-100106322D01*
X92659961Y-100044144D01*
X92721442Y-100105732D01*
X92940748Y-100196796D01*
X93178210Y-100197003D01*
X93397675Y-100106322D01*
X93565732Y-99938558D01*
X93656796Y-99719252D01*
X93657003Y-99481790D01*
X93566322Y-99262325D01*
X93462894Y-99158717D01*
X93565732Y-99056058D01*
X93656796Y-98836752D01*
X93657003Y-98599290D01*
X93566322Y-98379825D01*
X93470394Y-98283730D01*
X93523431Y-98230785D01*
X102139486Y-98230785D01*
X102239814Y-98473598D01*
X102425425Y-98659533D01*
X102668062Y-98760285D01*
X102930785Y-98760514D01*
X103173598Y-98660186D01*
X103359533Y-98474575D01*
X103460285Y-98231938D01*
X103460514Y-97969215D01*
X103448767Y-97940785D01*
X107989486Y-97940785D01*
X108089814Y-98183598D01*
X108275425Y-98369533D01*
X108518062Y-98470285D01*
X108780785Y-98470514D01*
X109023598Y-98370186D01*
X109137621Y-98256362D01*
X109049715Y-98468062D01*
X109049486Y-98730785D01*
X109149814Y-98973598D01*
X109335425Y-99159533D01*
X109349692Y-99165457D01*
X109269715Y-99358062D01*
X109269486Y-99620785D01*
X109369814Y-99863598D01*
X109555425Y-100049533D01*
X109798062Y-100150285D01*
X110060785Y-100150514D01*
X110303598Y-100050186D01*
X110489533Y-99864575D01*
X110590285Y-99621938D01*
X110590514Y-99359215D01*
X110525053Y-99200785D01*
X111579486Y-99200785D01*
X111679814Y-99443598D01*
X111865425Y-99629533D01*
X112108062Y-99730285D01*
X112370785Y-99730514D01*
X112613598Y-99630186D01*
X112799533Y-99444575D01*
X112900285Y-99201938D01*
X112900514Y-98939215D01*
X112800186Y-98696402D01*
X112614575Y-98510467D01*
X112371938Y-98409715D01*
X112109215Y-98409486D01*
X111866402Y-98509814D01*
X111680467Y-98695425D01*
X111579715Y-98938062D01*
X111579486Y-99200785D01*
X110525053Y-99200785D01*
X110490186Y-99116402D01*
X110304575Y-98930467D01*
X110290308Y-98924543D01*
X110370285Y-98731938D01*
X110370514Y-98469215D01*
X110270186Y-98226402D01*
X110084575Y-98040467D01*
X109841938Y-97939715D01*
X109579215Y-97939486D01*
X109336402Y-98039814D01*
X109222379Y-98153638D01*
X109310285Y-97941938D01*
X109310512Y-97680785D01*
X112069486Y-97680785D01*
X112169814Y-97923598D01*
X112355425Y-98109533D01*
X112598062Y-98210285D01*
X112860785Y-98210514D01*
X113103598Y-98110186D01*
X113289533Y-97924575D01*
X113390285Y-97681938D01*
X113390514Y-97419215D01*
X113290186Y-97176402D01*
X113104575Y-96990467D01*
X112861938Y-96889715D01*
X112599215Y-96889486D01*
X112356402Y-96989814D01*
X112170467Y-97175425D01*
X112069715Y-97418062D01*
X112069486Y-97680785D01*
X109310512Y-97680785D01*
X109310514Y-97679215D01*
X109210186Y-97436402D01*
X109024575Y-97250467D01*
X108781938Y-97149715D01*
X108519215Y-97149486D01*
X108276402Y-97249814D01*
X108090467Y-97435425D01*
X107989715Y-97678062D01*
X107989486Y-97940785D01*
X103448767Y-97940785D01*
X103360186Y-97726402D01*
X103174575Y-97540467D01*
X102931938Y-97439715D01*
X102669215Y-97439486D01*
X102426402Y-97539814D01*
X102240467Y-97725425D01*
X102139715Y-97968062D01*
X102139486Y-98230785D01*
X93523431Y-98230785D01*
X93565732Y-98188558D01*
X93656796Y-97969252D01*
X93657003Y-97731790D01*
X93566322Y-97512325D01*
X93398558Y-97344268D01*
X93179252Y-97253204D01*
X92941790Y-97252997D01*
X92722325Y-97343678D01*
X92685082Y-97380856D01*
X92648558Y-97344268D01*
X92429252Y-97253204D01*
X92191790Y-97252997D01*
X91972325Y-97343678D01*
X91804268Y-97511442D01*
X91713204Y-97730748D01*
X91712997Y-97968210D01*
X91803678Y-98187675D01*
X91899606Y-98283770D01*
X91804268Y-98378942D01*
X91713204Y-98598248D01*
X91712997Y-98835710D01*
X91803678Y-99055175D01*
X91882149Y-99133784D01*
X91754268Y-99261442D01*
X91663204Y-99480748D01*
X91662997Y-99718210D01*
X88913600Y-99718210D01*
X88913600Y-96550785D01*
X103409486Y-96550785D01*
X103509814Y-96793598D01*
X103695425Y-96979533D01*
X103938062Y-97080285D01*
X104200785Y-97080514D01*
X104443598Y-96980186D01*
X104629533Y-96794575D01*
X104730285Y-96551938D01*
X104730312Y-96520785D01*
X115329486Y-96520785D01*
X115429814Y-96763598D01*
X115615425Y-96949533D01*
X115858062Y-97050285D01*
X116109504Y-97050504D01*
X116109486Y-97070785D01*
X116209814Y-97313598D01*
X116395425Y-97499533D01*
X116444536Y-97519926D01*
X116396402Y-97539814D01*
X116210467Y-97725425D01*
X116109715Y-97968062D01*
X116109486Y-98230785D01*
X116209814Y-98473598D01*
X116395425Y-98659533D01*
X116415406Y-98667830D01*
X116386402Y-98679814D01*
X116200467Y-98865425D01*
X116099715Y-99108062D01*
X116099486Y-99370785D01*
X116199814Y-99613598D01*
X116385425Y-99799533D01*
X116628062Y-99900285D01*
X116890785Y-99900514D01*
X117133598Y-99800186D01*
X117319533Y-99614575D01*
X117420285Y-99371938D01*
X117420514Y-99109215D01*
X117329937Y-98890000D01*
X125214607Y-98890000D01*
X125301613Y-99327407D01*
X125549384Y-99698223D01*
X125920200Y-99945994D01*
X126357607Y-100033000D01*
X126402393Y-100033000D01*
X126839800Y-99945994D01*
X127210616Y-99698223D01*
X127458387Y-99327407D01*
X127545393Y-98890000D01*
X127754607Y-98890000D01*
X127841613Y-99327407D01*
X128089384Y-99698223D01*
X128460200Y-99945994D01*
X128897607Y-100033000D01*
X128942393Y-100033000D01*
X129379800Y-99945994D01*
X129750616Y-99698223D01*
X129998387Y-99327407D01*
X130085393Y-98890000D01*
X129998387Y-98452593D01*
X129750616Y-98081777D01*
X129379800Y-97834006D01*
X128942393Y-97747000D01*
X128897607Y-97747000D01*
X128460200Y-97834006D01*
X128089384Y-98081777D01*
X127841613Y-98452593D01*
X127754607Y-98890000D01*
X127545393Y-98890000D01*
X127458387Y-98452593D01*
X127210616Y-98081777D01*
X126839800Y-97834006D01*
X126402393Y-97747000D01*
X126357607Y-97747000D01*
X125920200Y-97834006D01*
X125549384Y-98081777D01*
X125301613Y-98452593D01*
X125214607Y-98890000D01*
X117329937Y-98890000D01*
X117320186Y-98866402D01*
X117134575Y-98680467D01*
X117114594Y-98672170D01*
X117143598Y-98660186D01*
X117329533Y-98474575D01*
X117430285Y-98231938D01*
X117430514Y-97969215D01*
X117330186Y-97726402D01*
X117144575Y-97540467D01*
X117095464Y-97520074D01*
X117143598Y-97500186D01*
X117329533Y-97314575D01*
X117430285Y-97071938D01*
X117430514Y-96809215D01*
X117330186Y-96566402D01*
X117144575Y-96380467D01*
X116901938Y-96279715D01*
X116650496Y-96279496D01*
X116650514Y-96259215D01*
X116550186Y-96016402D01*
X116364575Y-95830467D01*
X116121938Y-95729715D01*
X115859215Y-95729486D01*
X115616402Y-95829814D01*
X115430467Y-96015425D01*
X115329715Y-96258062D01*
X115329486Y-96520785D01*
X104730312Y-96520785D01*
X104730514Y-96289215D01*
X104630186Y-96046402D01*
X104444575Y-95860467D01*
X104201938Y-95759715D01*
X103939215Y-95759486D01*
X103696402Y-95859814D01*
X103510467Y-96045425D01*
X103409715Y-96288062D01*
X103409486Y-96550785D01*
X88913600Y-96550785D01*
X88913600Y-95435210D01*
X107142997Y-95435210D01*
X107233678Y-95654675D01*
X107401442Y-95822732D01*
X107620748Y-95913796D01*
X107858210Y-95914003D01*
X108077675Y-95823322D01*
X108245732Y-95655558D01*
X108305034Y-95512744D01*
X108363678Y-95654675D01*
X108531442Y-95822732D01*
X108750748Y-95913796D01*
X108988210Y-95914003D01*
X109207675Y-95823322D01*
X109375732Y-95655558D01*
X109435034Y-95512744D01*
X109493678Y-95654675D01*
X109661442Y-95822732D01*
X109880748Y-95913796D01*
X110118210Y-95914003D01*
X110337675Y-95823322D01*
X110505732Y-95655558D01*
X110565034Y-95512744D01*
X110623678Y-95654675D01*
X110791442Y-95822732D01*
X111010748Y-95913796D01*
X111248210Y-95914003D01*
X111467675Y-95823322D01*
X111635732Y-95655558D01*
X111695034Y-95512744D01*
X111753678Y-95654675D01*
X111921442Y-95822732D01*
X112140748Y-95913796D01*
X112378210Y-95914003D01*
X112597675Y-95823322D01*
X112765732Y-95655558D01*
X112856796Y-95436252D01*
X112857003Y-95198790D01*
X112766322Y-94979325D01*
X112747815Y-94960785D01*
X117689486Y-94960785D01*
X117789814Y-95203598D01*
X117975425Y-95389533D01*
X118218062Y-95490285D01*
X118263518Y-95490325D01*
X118189715Y-95668062D01*
X118189486Y-95930785D01*
X118289814Y-96173598D01*
X118475425Y-96359533D01*
X118718062Y-96460285D01*
X118980785Y-96460514D01*
X119223598Y-96360186D01*
X119233801Y-96350000D01*
X125214607Y-96350000D01*
X125301613Y-96787407D01*
X125549384Y-97158223D01*
X125920200Y-97405994D01*
X126357607Y-97493000D01*
X126402393Y-97493000D01*
X126839800Y-97405994D01*
X127210616Y-97158223D01*
X127458387Y-96787407D01*
X127545393Y-96350000D01*
X127754607Y-96350000D01*
X127841613Y-96787407D01*
X128089384Y-97158223D01*
X128460200Y-97405994D01*
X128897607Y-97493000D01*
X128942393Y-97493000D01*
X129379800Y-97405994D01*
X129750616Y-97158223D01*
X129998387Y-96787407D01*
X130085393Y-96350000D01*
X129998387Y-95912593D01*
X129750616Y-95541777D01*
X129379800Y-95294006D01*
X128942393Y-95207000D01*
X128897607Y-95207000D01*
X128460200Y-95294006D01*
X128089384Y-95541777D01*
X127841613Y-95912593D01*
X127754607Y-96350000D01*
X127545393Y-96350000D01*
X127458387Y-95912593D01*
X127210616Y-95541777D01*
X126839800Y-95294006D01*
X126402393Y-95207000D01*
X126357607Y-95207000D01*
X125920200Y-95294006D01*
X125549384Y-95541777D01*
X125301613Y-95912593D01*
X125214607Y-96350000D01*
X119233801Y-96350000D01*
X119409533Y-96174575D01*
X119510285Y-95931938D01*
X119510514Y-95669215D01*
X119410186Y-95426402D01*
X119224575Y-95240467D01*
X118981938Y-95139715D01*
X118936482Y-95139675D01*
X119010285Y-94961938D01*
X119010514Y-94699215D01*
X118910186Y-94456402D01*
X118724575Y-94270467D01*
X118580846Y-94210785D01*
X118909486Y-94210785D01*
X119009814Y-94453598D01*
X119195425Y-94639533D01*
X119438062Y-94740285D01*
X119700785Y-94740514D01*
X119943598Y-94640186D01*
X120088099Y-94495936D01*
X120782464Y-94495936D01*
X120902086Y-94785444D01*
X121123391Y-95007136D01*
X121412689Y-95127263D01*
X121725936Y-95127536D01*
X122015444Y-95007914D01*
X122237136Y-94786609D01*
X122357263Y-94497311D01*
X122357536Y-94184064D01*
X122237914Y-93894556D01*
X122153506Y-93810000D01*
X125214607Y-93810000D01*
X125301613Y-94247407D01*
X125549384Y-94618223D01*
X125920200Y-94865994D01*
X126357607Y-94953000D01*
X126402393Y-94953000D01*
X126839800Y-94865994D01*
X127210616Y-94618223D01*
X127458387Y-94247407D01*
X127545393Y-93810000D01*
X127754607Y-93810000D01*
X127841613Y-94247407D01*
X128089384Y-94618223D01*
X128460200Y-94865994D01*
X128897607Y-94953000D01*
X128942393Y-94953000D01*
X129379800Y-94865994D01*
X129750616Y-94618223D01*
X129998387Y-94247407D01*
X130085393Y-93810000D01*
X129998387Y-93372593D01*
X129750616Y-93001777D01*
X129379800Y-92754006D01*
X128942393Y-92667000D01*
X128897607Y-92667000D01*
X128460200Y-92754006D01*
X128089384Y-93001777D01*
X127841613Y-93372593D01*
X127754607Y-93810000D01*
X127545393Y-93810000D01*
X127458387Y-93372593D01*
X127210616Y-93001777D01*
X126839800Y-92754006D01*
X126402393Y-92667000D01*
X126357607Y-92667000D01*
X125920200Y-92754006D01*
X125549384Y-93001777D01*
X125301613Y-93372593D01*
X125214607Y-93810000D01*
X122153506Y-93810000D01*
X122016609Y-93672864D01*
X121727311Y-93552737D01*
X121414064Y-93552464D01*
X121124556Y-93672086D01*
X120902864Y-93893391D01*
X120782737Y-94182689D01*
X120782464Y-94495936D01*
X120088099Y-94495936D01*
X120129533Y-94454575D01*
X120230285Y-94211938D01*
X120230514Y-93949215D01*
X120130186Y-93706402D01*
X119944575Y-93520467D01*
X119701938Y-93419715D01*
X119439215Y-93419486D01*
X119196402Y-93519814D01*
X119010467Y-93705425D01*
X118909715Y-93948062D01*
X118909486Y-94210785D01*
X118580846Y-94210785D01*
X118481938Y-94169715D01*
X118219215Y-94169486D01*
X117976402Y-94269814D01*
X117790467Y-94455425D01*
X117689715Y-94698062D01*
X117689486Y-94960785D01*
X112747815Y-94960785D01*
X112598558Y-94811268D01*
X112379252Y-94720204D01*
X112141790Y-94719997D01*
X111922325Y-94810678D01*
X111754268Y-94978442D01*
X111694966Y-95121256D01*
X111636322Y-94979325D01*
X111468558Y-94811268D01*
X111249252Y-94720204D01*
X111011790Y-94719997D01*
X110792325Y-94810678D01*
X110624268Y-94978442D01*
X110564966Y-95121256D01*
X110506322Y-94979325D01*
X110338558Y-94811268D01*
X110119252Y-94720204D01*
X109881790Y-94719997D01*
X109662325Y-94810678D01*
X109494268Y-94978442D01*
X109434966Y-95121256D01*
X109376322Y-94979325D01*
X109208558Y-94811268D01*
X108989252Y-94720204D01*
X108751790Y-94719997D01*
X108532325Y-94810678D01*
X108364268Y-94978442D01*
X108304966Y-95121256D01*
X108246322Y-94979325D01*
X108078558Y-94811268D01*
X107859252Y-94720204D01*
X107621790Y-94719997D01*
X107402325Y-94810678D01*
X107234268Y-94978442D01*
X107143204Y-95197748D01*
X107142997Y-95435210D01*
X88913600Y-95435210D01*
X88913600Y-94219210D01*
X107142997Y-94219210D01*
X107233678Y-94438675D01*
X107401442Y-94606732D01*
X107620748Y-94697796D01*
X107858210Y-94698003D01*
X108077675Y-94607322D01*
X108245732Y-94439558D01*
X108305034Y-94296744D01*
X108363678Y-94438675D01*
X108531442Y-94606732D01*
X108750748Y-94697796D01*
X108988210Y-94698003D01*
X109207675Y-94607322D01*
X109375732Y-94439558D01*
X109435034Y-94296744D01*
X109493678Y-94438675D01*
X109661442Y-94606732D01*
X109880748Y-94697796D01*
X110118210Y-94698003D01*
X110337675Y-94607322D01*
X110505732Y-94439558D01*
X110565034Y-94296744D01*
X110623678Y-94438675D01*
X110791442Y-94606732D01*
X111010748Y-94697796D01*
X111248210Y-94698003D01*
X111467675Y-94607322D01*
X111635732Y-94439558D01*
X111695034Y-94296744D01*
X111753678Y-94438675D01*
X111921442Y-94606732D01*
X112140748Y-94697796D01*
X112378210Y-94698003D01*
X112597675Y-94607322D01*
X112765732Y-94439558D01*
X112856796Y-94220252D01*
X112857003Y-93982790D01*
X112766322Y-93763325D01*
X112598558Y-93595268D01*
X112379252Y-93504204D01*
X112141790Y-93503997D01*
X111922325Y-93594678D01*
X111754268Y-93762442D01*
X111694966Y-93905256D01*
X111636322Y-93763325D01*
X111468558Y-93595268D01*
X111249252Y-93504204D01*
X111011790Y-93503997D01*
X110792325Y-93594678D01*
X110624268Y-93762442D01*
X110564966Y-93905256D01*
X110506322Y-93763325D01*
X110338558Y-93595268D01*
X110119252Y-93504204D01*
X109881790Y-93503997D01*
X109662325Y-93594678D01*
X109494268Y-93762442D01*
X109434966Y-93905256D01*
X109376322Y-93763325D01*
X109208558Y-93595268D01*
X108989252Y-93504204D01*
X108751790Y-93503997D01*
X108532325Y-93594678D01*
X108364268Y-93762442D01*
X108304966Y-93905256D01*
X108246322Y-93763325D01*
X108078558Y-93595268D01*
X107859252Y-93504204D01*
X107621790Y-93503997D01*
X107402325Y-93594678D01*
X107234268Y-93762442D01*
X107143204Y-93981748D01*
X107142997Y-94219210D01*
X88913600Y-94219210D01*
X88913600Y-93530785D01*
X102569486Y-93530785D01*
X102669814Y-93773598D01*
X102855425Y-93959533D01*
X103098062Y-94060285D01*
X103360785Y-94060514D01*
X103603598Y-93960186D01*
X103789533Y-93774575D01*
X103890285Y-93531938D01*
X103890514Y-93269215D01*
X103790186Y-93026402D01*
X103767035Y-93003210D01*
X107142997Y-93003210D01*
X107233678Y-93222675D01*
X107401442Y-93390732D01*
X107620748Y-93481796D01*
X107858210Y-93482003D01*
X108077675Y-93391322D01*
X108245732Y-93223558D01*
X108305034Y-93080744D01*
X108363678Y-93222675D01*
X108531442Y-93390732D01*
X108750748Y-93481796D01*
X108988210Y-93482003D01*
X109207675Y-93391322D01*
X109375732Y-93223558D01*
X109435034Y-93080744D01*
X109493678Y-93222675D01*
X109661442Y-93390732D01*
X109880748Y-93481796D01*
X110118210Y-93482003D01*
X110337675Y-93391322D01*
X110505732Y-93223558D01*
X110565034Y-93080744D01*
X110623678Y-93222675D01*
X110791442Y-93390732D01*
X111010748Y-93481796D01*
X111248210Y-93482003D01*
X111467675Y-93391322D01*
X111635732Y-93223558D01*
X111695034Y-93080744D01*
X111753678Y-93222675D01*
X111921442Y-93390732D01*
X112140748Y-93481796D01*
X112378210Y-93482003D01*
X112597675Y-93391322D01*
X112765732Y-93223558D01*
X112856796Y-93004252D01*
X112857003Y-92766790D01*
X112766322Y-92547325D01*
X112598558Y-92379268D01*
X112379252Y-92288204D01*
X112141790Y-92287997D01*
X111922325Y-92378678D01*
X111754268Y-92546442D01*
X111694966Y-92689256D01*
X111636322Y-92547325D01*
X111468558Y-92379268D01*
X111249252Y-92288204D01*
X111011790Y-92287997D01*
X110792325Y-92378678D01*
X110624268Y-92546442D01*
X110564966Y-92689256D01*
X110506322Y-92547325D01*
X110338558Y-92379268D01*
X110119252Y-92288204D01*
X109881790Y-92287997D01*
X109662325Y-92378678D01*
X109494268Y-92546442D01*
X109434966Y-92689256D01*
X109376322Y-92547325D01*
X109208558Y-92379268D01*
X108989252Y-92288204D01*
X108751790Y-92287997D01*
X108532325Y-92378678D01*
X108364268Y-92546442D01*
X108304966Y-92689256D01*
X108246322Y-92547325D01*
X108078558Y-92379268D01*
X107859252Y-92288204D01*
X107621790Y-92287997D01*
X107402325Y-92378678D01*
X107234268Y-92546442D01*
X107143204Y-92765748D01*
X107142997Y-93003210D01*
X103767035Y-93003210D01*
X103604575Y-92840467D01*
X103361938Y-92739715D01*
X103099215Y-92739486D01*
X102856402Y-92839814D01*
X102670467Y-93025425D01*
X102569715Y-93268062D01*
X102569486Y-93530785D01*
X88913600Y-93530785D01*
X88913600Y-92780785D01*
X97139486Y-92780785D01*
X97239814Y-93023598D01*
X97425425Y-93209533D01*
X97668062Y-93310285D01*
X97930785Y-93310514D01*
X98173598Y-93210186D01*
X98350145Y-93033947D01*
X98525425Y-93209533D01*
X98768062Y-93310285D01*
X99030785Y-93310514D01*
X99273598Y-93210186D01*
X99450145Y-93033947D01*
X99625425Y-93209533D01*
X99868062Y-93310285D01*
X100130785Y-93310514D01*
X100373598Y-93210186D01*
X100555154Y-93028947D01*
X100735425Y-93209533D01*
X100978062Y-93310285D01*
X101240785Y-93310514D01*
X101483598Y-93210186D01*
X101669533Y-93024575D01*
X101770285Y-92781938D01*
X101770514Y-92519215D01*
X101670186Y-92276402D01*
X101484575Y-92090467D01*
X101241938Y-91989715D01*
X100979215Y-91989486D01*
X100736402Y-92089814D01*
X100554846Y-92271053D01*
X100374575Y-92090467D01*
X100131938Y-91989715D01*
X99869215Y-91989486D01*
X99626402Y-92089814D01*
X99449855Y-92266053D01*
X99274575Y-92090467D01*
X99031938Y-91989715D01*
X98769215Y-91989486D01*
X98526402Y-92089814D01*
X98349855Y-92266053D01*
X98174575Y-92090467D01*
X97931938Y-91989715D01*
X97669215Y-91989486D01*
X97426402Y-92089814D01*
X97240467Y-92275425D01*
X97139715Y-92518062D01*
X97139486Y-92780785D01*
X88913600Y-92780785D01*
X88913600Y-90968210D01*
X91662997Y-90968210D01*
X91753678Y-91187675D01*
X91921442Y-91355732D01*
X92140748Y-91446796D01*
X92378210Y-91447003D01*
X92597675Y-91356322D01*
X92659961Y-91294144D01*
X92721442Y-91355732D01*
X92940748Y-91446796D01*
X93178210Y-91447003D01*
X93397675Y-91356322D01*
X93443291Y-91310785D01*
X102299486Y-91310785D01*
X102399814Y-91553598D01*
X102585425Y-91739533D01*
X102828062Y-91840285D01*
X103090785Y-91840514D01*
X103333598Y-91740186D01*
X103519533Y-91554575D01*
X103620285Y-91311938D01*
X103620514Y-91049215D01*
X103520186Y-90806402D01*
X103504597Y-90790785D01*
X106079486Y-90790785D01*
X106179814Y-91033598D01*
X106365425Y-91219533D01*
X106608062Y-91320285D01*
X106870785Y-91320514D01*
X107113598Y-91220186D01*
X107299533Y-91034575D01*
X107400285Y-90791938D01*
X107400514Y-90529215D01*
X107367926Y-90450346D01*
X107537629Y-90450494D01*
X107629814Y-90673598D01*
X107815425Y-90859533D01*
X108058062Y-90960285D01*
X108320785Y-90960514D01*
X108563598Y-90860186D01*
X108749533Y-90674575D01*
X108850285Y-90431938D01*
X108850295Y-90420322D01*
X109070785Y-90420514D01*
X109313598Y-90320186D01*
X109499533Y-90134575D01*
X109600285Y-89891938D01*
X109600514Y-89629215D01*
X109500186Y-89386402D01*
X109314575Y-89200467D01*
X109071938Y-89099715D01*
X108809215Y-89099486D01*
X108566402Y-89199814D01*
X108380467Y-89385425D01*
X108279715Y-89628062D01*
X108279705Y-89639678D01*
X108082371Y-89639506D01*
X107990186Y-89416402D01*
X107804575Y-89230467D01*
X107561938Y-89129715D01*
X107299215Y-89129486D01*
X107056402Y-89229814D01*
X106870467Y-89415425D01*
X106769715Y-89658062D01*
X106769486Y-89920785D01*
X106802074Y-89999654D01*
X106609215Y-89999486D01*
X106366402Y-90099814D01*
X106180467Y-90285425D01*
X106079715Y-90528062D01*
X106079486Y-90790785D01*
X103504597Y-90790785D01*
X103334575Y-90620467D01*
X103091938Y-90519715D01*
X102829215Y-90519486D01*
X102586402Y-90619814D01*
X102400467Y-90805425D01*
X102299715Y-91048062D01*
X102299486Y-91310785D01*
X93443291Y-91310785D01*
X93565732Y-91188558D01*
X93656796Y-90969252D01*
X93657003Y-90731790D01*
X93566322Y-90512325D01*
X93462894Y-90408717D01*
X93565732Y-90306058D01*
X93656796Y-90086752D01*
X93657003Y-89849290D01*
X93566322Y-89629825D01*
X93472597Y-89535936D01*
X95282464Y-89535936D01*
X95402086Y-89825444D01*
X95623391Y-90047136D01*
X95912689Y-90167263D01*
X96225936Y-90167536D01*
X96515444Y-90047914D01*
X96737136Y-89826609D01*
X96857263Y-89537311D01*
X96857536Y-89224064D01*
X96843786Y-89190785D01*
X102349486Y-89190785D01*
X102449814Y-89433598D01*
X102635425Y-89619533D01*
X102878062Y-89720285D01*
X103140785Y-89720514D01*
X103383598Y-89620186D01*
X103569533Y-89434575D01*
X103670285Y-89191938D01*
X103670514Y-88929215D01*
X103570186Y-88686402D01*
X103384575Y-88500467D01*
X103361259Y-88490785D01*
X109099486Y-88490785D01*
X109199814Y-88733598D01*
X109385425Y-88919533D01*
X109628062Y-89020285D01*
X109890785Y-89020514D01*
X110133598Y-88920186D01*
X110185023Y-88868851D01*
X110345425Y-89029533D01*
X110588062Y-89130285D01*
X110850785Y-89130514D01*
X111093598Y-89030186D01*
X111279533Y-88844575D01*
X111379650Y-88603468D01*
X111461079Y-88685040D01*
X111330467Y-88815425D01*
X111229715Y-89058062D01*
X111229486Y-89320785D01*
X111329814Y-89563598D01*
X111455984Y-89689988D01*
X111410467Y-89735425D01*
X111309715Y-89978062D01*
X111309486Y-90240785D01*
X111409814Y-90483598D01*
X111595425Y-90669533D01*
X111838062Y-90770285D01*
X112099521Y-90770513D01*
X112099486Y-90810785D01*
X112199814Y-91053598D01*
X112385425Y-91239533D01*
X112628062Y-91340285D01*
X112782717Y-91340420D01*
X112729715Y-91468062D01*
X112729486Y-91730785D01*
X112829814Y-91973598D01*
X113015425Y-92159533D01*
X113258062Y-92260285D01*
X113520785Y-92260514D01*
X113763598Y-92160186D01*
X113793050Y-92130785D01*
X114979486Y-92130785D01*
X115079814Y-92373598D01*
X115265425Y-92559533D01*
X115508062Y-92660285D01*
X115770785Y-92660514D01*
X116013598Y-92560186D01*
X116199533Y-92374575D01*
X116300285Y-92131938D01*
X116300514Y-91869215D01*
X116200186Y-91626402D01*
X116014575Y-91440467D01*
X115771938Y-91339715D01*
X115509215Y-91339486D01*
X115266402Y-91439814D01*
X115080467Y-91625425D01*
X114979715Y-91868062D01*
X114979486Y-92130785D01*
X113793050Y-92130785D01*
X113949533Y-91974575D01*
X113983791Y-91892073D01*
X114148062Y-91960285D01*
X114410785Y-91960514D01*
X114653598Y-91860186D01*
X114839533Y-91674575D01*
X114940285Y-91431938D01*
X114940426Y-91270000D01*
X125214607Y-91270000D01*
X125301613Y-91707407D01*
X125549384Y-92078223D01*
X125920200Y-92325994D01*
X126357607Y-92413000D01*
X126402393Y-92413000D01*
X126839800Y-92325994D01*
X127210616Y-92078223D01*
X127458387Y-91707407D01*
X127545393Y-91270000D01*
X127754607Y-91270000D01*
X127841613Y-91707407D01*
X128089384Y-92078223D01*
X128460200Y-92325994D01*
X128897607Y-92413000D01*
X128942393Y-92413000D01*
X129379800Y-92325994D01*
X129750616Y-92078223D01*
X129998387Y-91707407D01*
X130085393Y-91270000D01*
X129998387Y-90832593D01*
X129750616Y-90461777D01*
X129379800Y-90214006D01*
X128942393Y-90127000D01*
X128897607Y-90127000D01*
X128460200Y-90214006D01*
X128089384Y-90461777D01*
X127841613Y-90832593D01*
X127754607Y-91270000D01*
X127545393Y-91270000D01*
X127458387Y-90832593D01*
X127210616Y-90461777D01*
X126839800Y-90214006D01*
X126402393Y-90127000D01*
X126357607Y-90127000D01*
X125920200Y-90214006D01*
X125549384Y-90461777D01*
X125301613Y-90832593D01*
X125214607Y-91270000D01*
X114940426Y-91270000D01*
X114940514Y-91169215D01*
X114840186Y-90926402D01*
X114654575Y-90740467D01*
X114411938Y-90639715D01*
X114149215Y-90639486D01*
X113906402Y-90739814D01*
X113720467Y-90925425D01*
X113686209Y-91007927D01*
X113521938Y-90939715D01*
X113367283Y-90939580D01*
X113420285Y-90811938D01*
X113420514Y-90549215D01*
X113320186Y-90306402D01*
X113134575Y-90120467D01*
X112891938Y-90019715D01*
X112630479Y-90019487D01*
X112630514Y-89979215D01*
X112530186Y-89736402D01*
X112404016Y-89610012D01*
X112449533Y-89564575D01*
X112461424Y-89535936D01*
X120782464Y-89535936D01*
X120902086Y-89825444D01*
X121123391Y-90047136D01*
X121412689Y-90167263D01*
X121725936Y-90167536D01*
X122015444Y-90047914D01*
X122237136Y-89826609D01*
X122357263Y-89537311D01*
X122357536Y-89224064D01*
X122237914Y-88934556D01*
X122033716Y-88730000D01*
X125214607Y-88730000D01*
X125301613Y-89167407D01*
X125549384Y-89538223D01*
X125920200Y-89785994D01*
X126357607Y-89873000D01*
X126402393Y-89873000D01*
X126839800Y-89785994D01*
X127210616Y-89538223D01*
X127458387Y-89167407D01*
X127545393Y-88730000D01*
X127754607Y-88730000D01*
X127841613Y-89167407D01*
X128089384Y-89538223D01*
X128460200Y-89785994D01*
X128897607Y-89873000D01*
X128942393Y-89873000D01*
X129379800Y-89785994D01*
X129750616Y-89538223D01*
X129998387Y-89167407D01*
X130085393Y-88730000D01*
X129998387Y-88292593D01*
X129750616Y-87921777D01*
X129379800Y-87674006D01*
X128942393Y-87587000D01*
X128897607Y-87587000D01*
X128460200Y-87674006D01*
X128089384Y-87921777D01*
X127841613Y-88292593D01*
X127754607Y-88730000D01*
X127545393Y-88730000D01*
X127458387Y-88292593D01*
X127210616Y-87921777D01*
X126839800Y-87674006D01*
X126402393Y-87587000D01*
X126357607Y-87587000D01*
X125920200Y-87674006D01*
X125549384Y-87921777D01*
X125301613Y-88292593D01*
X125214607Y-88730000D01*
X122033716Y-88730000D01*
X122016609Y-88712864D01*
X121727311Y-88592737D01*
X121414064Y-88592464D01*
X121124556Y-88712086D01*
X120902864Y-88933391D01*
X120782737Y-89222689D01*
X120782464Y-89535936D01*
X112461424Y-89535936D01*
X112550285Y-89321938D01*
X112550514Y-89059215D01*
X112450186Y-88816402D01*
X112348921Y-88714960D01*
X112479533Y-88584575D01*
X112580285Y-88341938D01*
X112580514Y-88079215D01*
X112480186Y-87836402D01*
X112294575Y-87650467D01*
X112051938Y-87549715D01*
X111789215Y-87549486D01*
X111546402Y-87649814D01*
X111360467Y-87835425D01*
X111260350Y-88076532D01*
X111094575Y-87910467D01*
X110851938Y-87809715D01*
X110589215Y-87809486D01*
X110346402Y-87909814D01*
X110294977Y-87961149D01*
X110134575Y-87800467D01*
X109891938Y-87699715D01*
X109629215Y-87699486D01*
X109386402Y-87799814D01*
X109200467Y-87985425D01*
X109099715Y-88228062D01*
X109099486Y-88490785D01*
X103361259Y-88490785D01*
X103141938Y-88399715D01*
X102879215Y-88399486D01*
X102636402Y-88499814D01*
X102450467Y-88685425D01*
X102349715Y-88928062D01*
X102349486Y-89190785D01*
X96843786Y-89190785D01*
X96737914Y-88934556D01*
X96516609Y-88712864D01*
X96227311Y-88592737D01*
X95914064Y-88592464D01*
X95624556Y-88712086D01*
X95402864Y-88933391D01*
X95282737Y-89222689D01*
X95282464Y-89535936D01*
X93472597Y-89535936D01*
X93470394Y-89533730D01*
X93565732Y-89438558D01*
X93656796Y-89219252D01*
X93657003Y-88981790D01*
X93566322Y-88762325D01*
X93398558Y-88594268D01*
X93179252Y-88503204D01*
X92941790Y-88502997D01*
X92722325Y-88593678D01*
X92685082Y-88630856D01*
X92648558Y-88594268D01*
X92429252Y-88503204D01*
X92191790Y-88502997D01*
X91972325Y-88593678D01*
X91804268Y-88761442D01*
X91713204Y-88980748D01*
X91712997Y-89218210D01*
X91803678Y-89437675D01*
X91899606Y-89533770D01*
X91804268Y-89628942D01*
X91713204Y-89848248D01*
X91712997Y-90085710D01*
X91803678Y-90305175D01*
X91882149Y-90383784D01*
X91754268Y-90511442D01*
X91663204Y-90730748D01*
X91662997Y-90968210D01*
X88913600Y-90968210D01*
X88913600Y-86061215D01*
X89200188Y-86061215D01*
X89561667Y-86936061D01*
X90230418Y-87605981D01*
X91104632Y-87968986D01*
X92051215Y-87969812D01*
X92169869Y-87920785D01*
X103379486Y-87920785D01*
X103479814Y-88163598D01*
X103665425Y-88349533D01*
X103908062Y-88450285D01*
X104170785Y-88450514D01*
X104413598Y-88350186D01*
X104599533Y-88164575D01*
X104700285Y-87921938D01*
X104700514Y-87659215D01*
X104600186Y-87416402D01*
X104414575Y-87230467D01*
X104171938Y-87129715D01*
X103909215Y-87129486D01*
X103666402Y-87229814D01*
X103480467Y-87415425D01*
X103379715Y-87658062D01*
X103379486Y-87920785D01*
X92169869Y-87920785D01*
X92926061Y-87608333D01*
X93595981Y-86939582D01*
X93958986Y-86065368D01*
X93959465Y-85515936D01*
X99292464Y-85515936D01*
X99412086Y-85805444D01*
X99633391Y-86027136D01*
X99922689Y-86147263D01*
X100235936Y-86147536D01*
X100525444Y-86027914D01*
X100747136Y-85806609D01*
X100867263Y-85517311D01*
X100867264Y-85515936D01*
X104252464Y-85515936D01*
X104372086Y-85805444D01*
X104593391Y-86027136D01*
X104882689Y-86147263D01*
X105195936Y-86147536D01*
X105485444Y-86027914D01*
X105707136Y-85806609D01*
X105827263Y-85517311D01*
X105827264Y-85515936D01*
X111742464Y-85515936D01*
X111862086Y-85805444D01*
X112083391Y-86027136D01*
X112372689Y-86147263D01*
X112685936Y-86147536D01*
X112975444Y-86027914D01*
X113197136Y-85806609D01*
X113317263Y-85517311D01*
X113317264Y-85515936D01*
X116742464Y-85515936D01*
X116862086Y-85805444D01*
X117083391Y-86027136D01*
X117372689Y-86147263D01*
X117685936Y-86147536D01*
X117975444Y-86027914D01*
X118197136Y-85806609D01*
X118317263Y-85517311D01*
X118317429Y-85326400D01*
X125231527Y-85326400D01*
X125231527Y-87053600D01*
X125253212Y-87162616D01*
X125314964Y-87255036D01*
X125407384Y-87316788D01*
X125516400Y-87338473D01*
X127243600Y-87338473D01*
X127352616Y-87316788D01*
X127445036Y-87255036D01*
X127506788Y-87162616D01*
X127528473Y-87053600D01*
X127528473Y-86485135D01*
X127868432Y-86485135D01*
X127967726Y-86724886D01*
X128244906Y-87048590D01*
X128624863Y-87241581D01*
X128793000Y-87217654D01*
X128793000Y-86317000D01*
X129047000Y-86317000D01*
X129047000Y-87217654D01*
X129215137Y-87241581D01*
X129595094Y-87048590D01*
X129872274Y-86724886D01*
X129971568Y-86485135D01*
X129947229Y-86317000D01*
X129047000Y-86317000D01*
X128793000Y-86317000D01*
X127892771Y-86317000D01*
X127868432Y-86485135D01*
X127528473Y-86485135D01*
X127528473Y-85894865D01*
X127868432Y-85894865D01*
X127892771Y-86063000D01*
X128793000Y-86063000D01*
X128793000Y-85162346D01*
X129047000Y-85162346D01*
X129047000Y-86063000D01*
X129947229Y-86063000D01*
X129971568Y-85894865D01*
X129872274Y-85655114D01*
X129595094Y-85331410D01*
X129215137Y-85138419D01*
X129047000Y-85162346D01*
X128793000Y-85162346D01*
X128624863Y-85138419D01*
X128244906Y-85331410D01*
X127967726Y-85655114D01*
X127868432Y-85894865D01*
X127528473Y-85894865D01*
X127528473Y-85326400D01*
X127506788Y-85217384D01*
X127445036Y-85124964D01*
X127352616Y-85063212D01*
X127243600Y-85041527D01*
X125516400Y-85041527D01*
X125407384Y-85063212D01*
X125314964Y-85124964D01*
X125253212Y-85217384D01*
X125231527Y-85326400D01*
X118317429Y-85326400D01*
X118317536Y-85204064D01*
X118197914Y-84914556D01*
X117976609Y-84692864D01*
X117687311Y-84572737D01*
X117374064Y-84572464D01*
X117084556Y-84692086D01*
X116862864Y-84913391D01*
X116742737Y-85202689D01*
X116742464Y-85515936D01*
X113317264Y-85515936D01*
X113317536Y-85204064D01*
X113197914Y-84914556D01*
X112976609Y-84692864D01*
X112687311Y-84572737D01*
X112374064Y-84572464D01*
X112084556Y-84692086D01*
X111862864Y-84913391D01*
X111742737Y-85202689D01*
X111742464Y-85515936D01*
X105827264Y-85515936D01*
X105827536Y-85204064D01*
X105707914Y-84914556D01*
X105486609Y-84692864D01*
X105197311Y-84572737D01*
X104884064Y-84572464D01*
X104594556Y-84692086D01*
X104372864Y-84913391D01*
X104252737Y-85202689D01*
X104252464Y-85515936D01*
X100867264Y-85515936D01*
X100867536Y-85204064D01*
X100747914Y-84914556D01*
X100526609Y-84692864D01*
X100237311Y-84572737D01*
X99924064Y-84572464D01*
X99634556Y-84692086D01*
X99412864Y-84913391D01*
X99292737Y-85202689D01*
X99292464Y-85515936D01*
X93959465Y-85515936D01*
X93959812Y-85118785D01*
X93598333Y-84243939D01*
X92929582Y-83574019D01*
X92055368Y-83211014D01*
X91108785Y-83210188D01*
X90233939Y-83571667D01*
X89564019Y-84240418D01*
X89201014Y-85114632D01*
X89200188Y-86061215D01*
X88913600Y-86061215D01*
X88913600Y-82923600D01*
X130306400Y-82923600D01*
X130306400Y-112316400D01*
M02*
