G04 #@! TF.GenerationSoftware,KiCad,Pcbnew,(2017-01-24 revision 0b6147e)-makepkg*
G04 #@! TF.CreationDate,2018-02-06T10:22:29-08:00*
G04 #@! TF.ProjectId,sx1238RfModule,73783132333852664D6F64756C652E6B,rev?*
G04 #@! TF.FileFunction,Copper,L2,Inr,Signal*
G04 #@! TF.FilePolarity,Positive*
%FSLAX46Y46*%
G04 Gerber Fmt 4.6, Leading zero omitted, Abs format (unit mm)*
G04 Created by KiCad (PCBNEW (2017-01-24 revision 0b6147e)-makepkg) date 02/06/18 10:22:29*
%MOMM*%
%LPD*%
G01*
G04 APERTURE LIST*
%ADD10C,0.100000*%
%ADD11C,0.635000*%
%ADD12C,4.200000*%
%ADD13O,1.727200X1.727200*%
%ADD14R,1.727200X1.727200*%
%ADD15C,0.762000*%
%ADD16C,1.016000*%
%ADD17C,0.254000*%
G04 APERTURE END LIST*
D10*
D11*
X112260000Y-94101000D03*
X111130000Y-94101000D03*
X110000000Y-94101000D03*
X108870000Y-94101000D03*
X112260000Y-92885000D03*
X111130000Y-92885000D03*
X110000000Y-92885000D03*
X108870000Y-92885000D03*
X107740000Y-92885000D03*
X107740000Y-94101000D03*
X112260000Y-95317000D03*
X111130000Y-95317000D03*
X110000000Y-95317000D03*
X108870000Y-95317000D03*
X107740000Y-95317000D03*
X92310000Y-89967500D03*
X93060000Y-89967500D03*
X92310000Y-89100000D03*
X93060000Y-89100000D03*
X93060000Y-90850000D03*
X92260000Y-90850000D03*
X93060000Y-99600000D03*
X92310000Y-97850000D03*
X93060000Y-97850000D03*
X93060000Y-98717500D03*
X92310000Y-98717500D03*
X92260000Y-99600000D03*
X90480000Y-86690000D03*
X92680000Y-86690000D03*
X92680000Y-84490000D03*
X90380000Y-84490000D03*
X89980000Y-85590000D03*
X91580000Y-87290000D03*
X93180000Y-85590000D03*
X91580000Y-83990000D03*
D12*
X91580000Y-85590000D03*
D11*
X90480000Y-110750000D03*
X92680000Y-110750000D03*
X92680000Y-108550000D03*
X90380000Y-108550000D03*
X89980000Y-109650000D03*
X91580000Y-111350000D03*
X93180000Y-109650000D03*
X91580000Y-108050000D03*
D12*
X91580000Y-109650000D03*
D13*
X128920000Y-109050000D03*
X126380000Y-109050000D03*
X128920000Y-106510000D03*
X126380000Y-106510000D03*
X128920000Y-103970000D03*
X126380000Y-103970000D03*
X128920000Y-101430000D03*
X126380000Y-101430000D03*
X128920000Y-98890000D03*
X126380000Y-98890000D03*
X128920000Y-96350000D03*
X126380000Y-96350000D03*
X128920000Y-93810000D03*
X126380000Y-93810000D03*
X128920000Y-91270000D03*
X126380000Y-91270000D03*
X128920000Y-88730000D03*
X126380000Y-88730000D03*
X128920000Y-86190000D03*
D14*
X126380000Y-86190000D03*
D15*
X108650000Y-100130000D03*
X107530000Y-100140000D03*
X118350000Y-94830000D03*
X115640000Y-92000000D03*
X109460000Y-102160000D03*
X109760000Y-88360000D03*
X104040000Y-87790000D03*
X103010000Y-89060000D03*
X102960000Y-91180000D03*
D16*
X96070000Y-101920000D03*
X96060000Y-106890000D03*
X100070000Y-110860000D03*
X105090000Y-110860000D03*
X112600000Y-110860000D03*
X117570000Y-110860000D03*
X117530000Y-85360000D03*
X112530000Y-85360000D03*
X96070000Y-89380000D03*
X105040000Y-85360000D03*
X100080000Y-85360000D03*
X121570000Y-106860000D03*
X121570000Y-101870000D03*
X121570000Y-94340000D03*
X121570000Y-89380000D03*
D15*
X97800000Y-92650000D03*
X98900000Y-92650000D03*
X100000000Y-92650000D03*
X101110000Y-92650000D03*
X103230000Y-93400000D03*
X116760000Y-99240000D03*
X116770000Y-98100000D03*
X116770000Y-96940000D03*
X115990000Y-96390000D03*
X118850000Y-95800000D03*
X119570000Y-94080000D03*
X111360000Y-104530000D03*
X109200000Y-103840000D03*
X102800000Y-98100000D03*
X104070000Y-96420000D03*
X102800000Y-100450000D03*
X104690000Y-101000000D03*
X106060000Y-89780000D03*
X114250000Y-97440000D03*
X109680000Y-90580000D03*
X105930000Y-91210000D03*
X104180000Y-90490000D03*
X105090000Y-90650000D03*
X103990000Y-99190000D03*
X105020000Y-98210000D03*
X107750000Y-98030000D03*
X105800000Y-97210000D03*
X108160000Y-98630000D03*
X108580000Y-101900000D03*
X112730000Y-97550000D03*
X106740000Y-90660000D03*
X107430000Y-89790000D03*
X108190000Y-90300000D03*
X108940000Y-89760000D03*
X110720000Y-88470000D03*
X111920000Y-88210000D03*
X111890000Y-89190000D03*
X111970000Y-90110000D03*
X112760000Y-90680000D03*
X113390000Y-91600000D03*
X114280000Y-91300000D03*
X112240000Y-99070000D03*
X109930000Y-99490000D03*
X109710000Y-98600000D03*
X108650000Y-97810000D03*
D17*
G36*
X130306400Y-112316400D02*
X88913600Y-112316400D01*
X88913600Y-111375756D01*
X90033850Y-111375756D01*
X90289212Y-111642683D01*
X91150034Y-111984963D01*
X92076314Y-111971765D01*
X92870788Y-111642683D01*
X93126150Y-111375756D01*
X92931899Y-111181505D01*
X92931899Y-111181504D01*
X91580000Y-109829605D01*
X90228101Y-111181504D01*
X90228101Y-111181505D01*
X90033850Y-111375756D01*
X88913600Y-111375756D01*
X88913600Y-109220034D01*
X89245037Y-109220034D01*
X89258235Y-110146314D01*
X89587317Y-110940788D01*
X89854244Y-111196150D01*
X90048495Y-111001899D01*
X90048496Y-111001899D01*
X91400395Y-109650000D01*
X91759605Y-109650000D01*
X93111504Y-111001899D01*
X93111505Y-111001899D01*
X93305756Y-111196150D01*
X93572683Y-110940788D01*
X93914963Y-110079966D01*
X93901765Y-109153686D01*
X93858817Y-109050000D01*
X125214607Y-109050000D01*
X125301613Y-109487407D01*
X125549384Y-109858223D01*
X125920200Y-110105994D01*
X126357607Y-110193000D01*
X126402393Y-110193000D01*
X126839800Y-110105994D01*
X127210616Y-109858223D01*
X127458387Y-109487407D01*
X127486686Y-109345135D01*
X127868432Y-109345135D01*
X127967726Y-109584886D01*
X128244906Y-109908590D01*
X128624863Y-110101581D01*
X128793000Y-110077654D01*
X128793000Y-109177000D01*
X129047000Y-109177000D01*
X129047000Y-110077654D01*
X129215137Y-110101581D01*
X129595094Y-109908590D01*
X129872274Y-109584886D01*
X129971568Y-109345135D01*
X129947229Y-109177000D01*
X129047000Y-109177000D01*
X128793000Y-109177000D01*
X127892771Y-109177000D01*
X127868432Y-109345135D01*
X127486686Y-109345135D01*
X127545393Y-109050000D01*
X127486687Y-108754865D01*
X127868432Y-108754865D01*
X127892771Y-108923000D01*
X128793000Y-108923000D01*
X128793000Y-108022346D01*
X129047000Y-108022346D01*
X129047000Y-108923000D01*
X129947229Y-108923000D01*
X129971568Y-108754865D01*
X129872274Y-108515114D01*
X129595094Y-108191410D01*
X129215137Y-107998419D01*
X129047000Y-108022346D01*
X128793000Y-108022346D01*
X128624863Y-107998419D01*
X128244906Y-108191410D01*
X127967726Y-108515114D01*
X127868432Y-108754865D01*
X127486687Y-108754865D01*
X127458387Y-108612593D01*
X127210616Y-108241777D01*
X126839800Y-107994006D01*
X126402393Y-107907000D01*
X126357607Y-107907000D01*
X125920200Y-107994006D01*
X125549384Y-108241777D01*
X125301613Y-108612593D01*
X125214607Y-109050000D01*
X93858817Y-109050000D01*
X93572683Y-108359212D01*
X93305756Y-108103850D01*
X93111505Y-108298101D01*
X92859605Y-108550000D01*
X91759605Y-109650000D01*
X91400395Y-109650000D01*
X89854244Y-108103850D01*
X89587317Y-108359212D01*
X89245037Y-109220034D01*
X88913600Y-109220034D01*
X88913600Y-107924244D01*
X90033850Y-107924244D01*
X90158676Y-108049070D01*
X90128101Y-108118496D01*
X90380000Y-108370395D01*
X90394143Y-108356253D01*
X90573748Y-108535858D01*
X90559605Y-108550000D01*
X90811504Y-108801899D01*
X90880930Y-108771325D01*
X91580000Y-109470395D01*
X92931899Y-108118496D01*
X92931899Y-108118495D01*
X93126150Y-107924244D01*
X92870788Y-107657317D01*
X92009966Y-107315037D01*
X91083686Y-107328235D01*
X90289212Y-107657317D01*
X90033850Y-107924244D01*
X88913600Y-107924244D01*
X88913600Y-106510000D01*
X125214607Y-106510000D01*
X125301613Y-106947407D01*
X125549384Y-107318223D01*
X125920200Y-107565994D01*
X126357607Y-107653000D01*
X126402393Y-107653000D01*
X126839800Y-107565994D01*
X127210616Y-107318223D01*
X127458387Y-106947407D01*
X127545393Y-106510000D01*
X127754607Y-106510000D01*
X127841613Y-106947407D01*
X128089384Y-107318223D01*
X128460200Y-107565994D01*
X128897607Y-107653000D01*
X128942393Y-107653000D01*
X129379800Y-107565994D01*
X129750616Y-107318223D01*
X129998387Y-106947407D01*
X130085393Y-106510000D01*
X129998387Y-106072593D01*
X129750616Y-105701777D01*
X129379800Y-105454006D01*
X128942393Y-105367000D01*
X128897607Y-105367000D01*
X128460200Y-105454006D01*
X128089384Y-105701777D01*
X127841613Y-106072593D01*
X127754607Y-106510000D01*
X127545393Y-106510000D01*
X127458387Y-106072593D01*
X127210616Y-105701777D01*
X126839800Y-105454006D01*
X126402393Y-105367000D01*
X126357607Y-105367000D01*
X125920200Y-105454006D01*
X125549384Y-105701777D01*
X125301613Y-106072593D01*
X125214607Y-106510000D01*
X88913600Y-106510000D01*
X88913600Y-103970000D01*
X125214607Y-103970000D01*
X125301613Y-104407407D01*
X125549384Y-104778223D01*
X125920200Y-105025994D01*
X126357607Y-105113000D01*
X126402393Y-105113000D01*
X126839800Y-105025994D01*
X127210616Y-104778223D01*
X127458387Y-104407407D01*
X127545393Y-103970000D01*
X127754607Y-103970000D01*
X127841613Y-104407407D01*
X128089384Y-104778223D01*
X128460200Y-105025994D01*
X128897607Y-105113000D01*
X128942393Y-105113000D01*
X129379800Y-105025994D01*
X129750616Y-104778223D01*
X129998387Y-104407407D01*
X130085393Y-103970000D01*
X129998387Y-103532593D01*
X129750616Y-103161777D01*
X129379800Y-102914006D01*
X128942393Y-102827000D01*
X128897607Y-102827000D01*
X128460200Y-102914006D01*
X128089384Y-103161777D01*
X127841613Y-103532593D01*
X127754607Y-103970000D01*
X127545393Y-103970000D01*
X127458387Y-103532593D01*
X127210616Y-103161777D01*
X126839800Y-102914006D01*
X126402393Y-102827000D01*
X126357607Y-102827000D01*
X125920200Y-102914006D01*
X125549384Y-103161777D01*
X125301613Y-103532593D01*
X125214607Y-103970000D01*
X88913600Y-103970000D01*
X88913600Y-102030785D01*
X107919486Y-102030785D01*
X108019814Y-102273598D01*
X108205425Y-102459533D01*
X108448062Y-102560285D01*
X108710785Y-102560514D01*
X108953598Y-102460186D01*
X109139533Y-102274575D01*
X109240285Y-102031938D01*
X109240514Y-101769215D01*
X109140186Y-101526402D01*
X109043952Y-101430000D01*
X125214607Y-101430000D01*
X125301613Y-101867407D01*
X125549384Y-102238223D01*
X125920200Y-102485994D01*
X126357607Y-102573000D01*
X126402393Y-102573000D01*
X126839800Y-102485994D01*
X127210616Y-102238223D01*
X127458387Y-101867407D01*
X127545393Y-101430000D01*
X127754607Y-101430000D01*
X127841613Y-101867407D01*
X128089384Y-102238223D01*
X128460200Y-102485994D01*
X128897607Y-102573000D01*
X128942393Y-102573000D01*
X129379800Y-102485994D01*
X129750616Y-102238223D01*
X129998387Y-101867407D01*
X130085393Y-101430000D01*
X129998387Y-100992593D01*
X129750616Y-100621777D01*
X129379800Y-100374006D01*
X128942393Y-100287000D01*
X128897607Y-100287000D01*
X128460200Y-100374006D01*
X128089384Y-100621777D01*
X127841613Y-100992593D01*
X127754607Y-101430000D01*
X127545393Y-101430000D01*
X127458387Y-100992593D01*
X127210616Y-100621777D01*
X126839800Y-100374006D01*
X126402393Y-100287000D01*
X126357607Y-100287000D01*
X125920200Y-100374006D01*
X125549384Y-100621777D01*
X125301613Y-100992593D01*
X125214607Y-101430000D01*
X109043952Y-101430000D01*
X108954575Y-101340467D01*
X108711938Y-101239715D01*
X108449215Y-101239486D01*
X108206402Y-101339814D01*
X108020467Y-101525425D01*
X107919715Y-101768062D01*
X107919486Y-102030785D01*
X88913600Y-102030785D01*
X88913600Y-100031504D01*
X92008101Y-100031504D01*
X92044094Y-100113234D01*
X92256935Y-100156790D01*
X92470243Y-100115580D01*
X92475906Y-100113234D01*
X92511899Y-100031504D01*
X92808101Y-100031504D01*
X92844094Y-100113234D01*
X93056935Y-100156790D01*
X93270243Y-100115580D01*
X93275906Y-100113234D01*
X93311899Y-100031504D01*
X93060000Y-99779605D01*
X92808101Y-100031504D01*
X92511899Y-100031504D01*
X92260000Y-99779605D01*
X92008101Y-100031504D01*
X88913600Y-100031504D01*
X88913600Y-99596935D01*
X91703210Y-99596935D01*
X91744420Y-99810243D01*
X91746766Y-99815906D01*
X91828496Y-99851899D01*
X92080395Y-99600000D01*
X92439605Y-99600000D01*
X92519175Y-99679570D01*
X92544420Y-99810243D01*
X92546766Y-99815906D01*
X92628496Y-99851899D01*
X92660000Y-99820395D01*
X92691504Y-99851899D01*
X92773234Y-99815906D01*
X92801213Y-99679182D01*
X92880395Y-99600000D01*
X93239605Y-99600000D01*
X93491504Y-99851899D01*
X93573234Y-99815906D01*
X93616790Y-99603065D01*
X93575580Y-99389757D01*
X93573234Y-99384094D01*
X93491504Y-99348101D01*
X93239605Y-99600000D01*
X92880395Y-99600000D01*
X92800825Y-99520430D01*
X92775580Y-99389757D01*
X92773234Y-99384094D01*
X92691504Y-99348101D01*
X92660000Y-99379605D01*
X92628496Y-99348101D01*
X92546766Y-99384094D01*
X92518787Y-99520818D01*
X92439605Y-99600000D01*
X92080395Y-99600000D01*
X91828496Y-99348101D01*
X91746766Y-99384094D01*
X91703210Y-99596935D01*
X88913600Y-99596935D01*
X88913600Y-99168496D01*
X92008101Y-99168496D01*
X92260000Y-99420395D01*
X92429852Y-99250543D01*
X92520243Y-99233080D01*
X92525906Y-99230734D01*
X92561899Y-99149004D01*
X92808101Y-99149004D01*
X92812393Y-99158750D01*
X92808101Y-99168496D01*
X92823440Y-99183835D01*
X92844094Y-99230734D01*
X92877092Y-99237487D01*
X93060000Y-99420395D01*
X93159610Y-99320785D01*
X103329486Y-99320785D01*
X103429814Y-99563598D01*
X103615425Y-99749533D01*
X103858062Y-99850285D01*
X104120785Y-99850514D01*
X104363598Y-99750186D01*
X104549533Y-99564575D01*
X104650285Y-99321938D01*
X104650514Y-99059215D01*
X104550186Y-98816402D01*
X104364575Y-98630467D01*
X104121938Y-98529715D01*
X103859215Y-98529486D01*
X103616402Y-98629814D01*
X103430467Y-98815425D01*
X103329715Y-99058062D01*
X103329486Y-99320785D01*
X93159610Y-99320785D01*
X93241825Y-99238570D01*
X93270243Y-99233080D01*
X93275906Y-99230734D01*
X93296560Y-99183835D01*
X93311899Y-99168496D01*
X93307607Y-99158750D01*
X93311899Y-99149004D01*
X93296560Y-99133665D01*
X93275906Y-99086766D01*
X93242908Y-99080013D01*
X93060000Y-98897105D01*
X92878175Y-99078930D01*
X92849757Y-99084420D01*
X92844094Y-99086766D01*
X92823440Y-99133665D01*
X92808101Y-99149004D01*
X92561899Y-99149004D01*
X92310000Y-98897105D01*
X92140148Y-99066957D01*
X92049757Y-99084420D01*
X92044094Y-99086766D01*
X92008101Y-99168496D01*
X88913600Y-99168496D01*
X88913600Y-98714435D01*
X91753210Y-98714435D01*
X91794420Y-98927743D01*
X91796766Y-98933406D01*
X91878496Y-98969399D01*
X92130395Y-98717500D01*
X92489605Y-98717500D01*
X92507202Y-98735097D01*
X92544420Y-98927743D01*
X92546766Y-98933406D01*
X92628496Y-98969399D01*
X92685000Y-98912895D01*
X92741504Y-98969399D01*
X92823234Y-98933406D01*
X92864078Y-98733817D01*
X92880395Y-98717500D01*
X93239605Y-98717500D01*
X93491504Y-98969399D01*
X93573234Y-98933406D01*
X93616790Y-98720565D01*
X93575580Y-98507257D01*
X93573234Y-98501594D01*
X93491504Y-98465601D01*
X93239605Y-98717500D01*
X92880395Y-98717500D01*
X92862798Y-98699903D01*
X92825580Y-98507257D01*
X92823234Y-98501594D01*
X92741504Y-98465601D01*
X92685000Y-98522105D01*
X92628496Y-98465601D01*
X92546766Y-98501594D01*
X92505922Y-98701183D01*
X92489605Y-98717500D01*
X92130395Y-98717500D01*
X91878496Y-98465601D01*
X91796766Y-98501594D01*
X91753210Y-98714435D01*
X88913600Y-98714435D01*
X88913600Y-98281504D01*
X92058101Y-98281504D01*
X92059090Y-98283750D01*
X92058101Y-98285996D01*
X92061636Y-98289531D01*
X92094094Y-98363234D01*
X92145951Y-98373846D01*
X92310000Y-98537895D01*
X92473233Y-98374662D01*
X92520243Y-98365580D01*
X92525906Y-98363234D01*
X92558364Y-98289531D01*
X92561899Y-98285996D01*
X92560910Y-98283750D01*
X92561899Y-98281504D01*
X92808101Y-98281504D01*
X92809090Y-98283750D01*
X92808101Y-98285996D01*
X92811636Y-98289531D01*
X92844094Y-98363234D01*
X92895951Y-98373846D01*
X93060000Y-98537895D01*
X93223233Y-98374662D01*
X93270243Y-98365580D01*
X93275906Y-98363234D01*
X93285792Y-98340785D01*
X104359486Y-98340785D01*
X104459814Y-98583598D01*
X104645425Y-98769533D01*
X104888062Y-98870285D01*
X105150785Y-98870514D01*
X105393598Y-98770186D01*
X105579533Y-98584575D01*
X105680285Y-98341938D01*
X105680442Y-98160785D01*
X107089486Y-98160785D01*
X107189814Y-98403598D01*
X107375425Y-98589533D01*
X107499590Y-98641091D01*
X107499486Y-98760785D01*
X107599814Y-99003598D01*
X107785425Y-99189533D01*
X108028062Y-99290285D01*
X108290785Y-99290514D01*
X108533598Y-99190186D01*
X108719533Y-99004575D01*
X108820285Y-98761938D01*
X108820514Y-98499215D01*
X108804591Y-98460678D01*
X109023598Y-98370186D01*
X109137621Y-98256362D01*
X109049715Y-98468062D01*
X109049486Y-98730785D01*
X109149814Y-98973598D01*
X109335425Y-99159533D01*
X109349692Y-99165457D01*
X109269715Y-99358062D01*
X109269486Y-99620785D01*
X109369814Y-99863598D01*
X109555425Y-100049533D01*
X109798062Y-100150285D01*
X110060785Y-100150514D01*
X110303598Y-100050186D01*
X110489533Y-99864575D01*
X110590285Y-99621938D01*
X110590514Y-99359215D01*
X110525053Y-99200785D01*
X111579486Y-99200785D01*
X111679814Y-99443598D01*
X111865425Y-99629533D01*
X112108062Y-99730285D01*
X112370785Y-99730514D01*
X112613598Y-99630186D01*
X112799533Y-99444575D01*
X112900285Y-99201938D01*
X112900514Y-98939215D01*
X112880179Y-98890000D01*
X125214607Y-98890000D01*
X125301613Y-99327407D01*
X125549384Y-99698223D01*
X125920200Y-99945994D01*
X126357607Y-100033000D01*
X126402393Y-100033000D01*
X126839800Y-99945994D01*
X127210616Y-99698223D01*
X127458387Y-99327407D01*
X127545393Y-98890000D01*
X127754607Y-98890000D01*
X127841613Y-99327407D01*
X128089384Y-99698223D01*
X128460200Y-99945994D01*
X128897607Y-100033000D01*
X128942393Y-100033000D01*
X129379800Y-99945994D01*
X129750616Y-99698223D01*
X129998387Y-99327407D01*
X130085393Y-98890000D01*
X129998387Y-98452593D01*
X129750616Y-98081777D01*
X129379800Y-97834006D01*
X128942393Y-97747000D01*
X128897607Y-97747000D01*
X128460200Y-97834006D01*
X128089384Y-98081777D01*
X127841613Y-98452593D01*
X127754607Y-98890000D01*
X127545393Y-98890000D01*
X127458387Y-98452593D01*
X127210616Y-98081777D01*
X126839800Y-97834006D01*
X126402393Y-97747000D01*
X126357607Y-97747000D01*
X125920200Y-97834006D01*
X125549384Y-98081777D01*
X125301613Y-98452593D01*
X125214607Y-98890000D01*
X112880179Y-98890000D01*
X112800186Y-98696402D01*
X112614575Y-98510467D01*
X112371938Y-98409715D01*
X112109215Y-98409486D01*
X111866402Y-98509814D01*
X111680467Y-98695425D01*
X111579715Y-98938062D01*
X111579486Y-99200785D01*
X110525053Y-99200785D01*
X110490186Y-99116402D01*
X110304575Y-98930467D01*
X110290308Y-98924543D01*
X110370285Y-98731938D01*
X110370514Y-98469215D01*
X110270186Y-98226402D01*
X110084575Y-98040467D01*
X109841938Y-97939715D01*
X109579215Y-97939486D01*
X109336402Y-98039814D01*
X109222379Y-98153638D01*
X109310285Y-97941938D01*
X109310512Y-97680785D01*
X112069486Y-97680785D01*
X112169814Y-97923598D01*
X112355425Y-98109533D01*
X112598062Y-98210285D01*
X112860785Y-98210514D01*
X113103598Y-98110186D01*
X113289533Y-97924575D01*
X113390285Y-97681938D01*
X113390381Y-97570785D01*
X113589486Y-97570785D01*
X113689814Y-97813598D01*
X113875425Y-97999533D01*
X114118062Y-98100285D01*
X114380785Y-98100514D01*
X114623598Y-98000186D01*
X114809533Y-97814575D01*
X114910285Y-97571938D01*
X114910514Y-97309215D01*
X114810186Y-97066402D01*
X114624575Y-96880467D01*
X114381938Y-96779715D01*
X114119215Y-96779486D01*
X113876402Y-96879814D01*
X113690467Y-97065425D01*
X113589715Y-97308062D01*
X113589486Y-97570785D01*
X113390381Y-97570785D01*
X113390514Y-97419215D01*
X113290186Y-97176402D01*
X113104575Y-96990467D01*
X112861938Y-96889715D01*
X112599215Y-96889486D01*
X112356402Y-96989814D01*
X112170467Y-97175425D01*
X112069715Y-97418062D01*
X112069486Y-97680785D01*
X109310512Y-97680785D01*
X109310514Y-97679215D01*
X109210186Y-97436402D01*
X109024575Y-97250467D01*
X108781938Y-97149715D01*
X108519215Y-97149486D01*
X108276402Y-97249814D01*
X108090467Y-97435425D01*
X108083072Y-97453233D01*
X107881938Y-97369715D01*
X107619215Y-97369486D01*
X107376402Y-97469814D01*
X107190467Y-97655425D01*
X107089715Y-97898062D01*
X107089486Y-98160785D01*
X105680442Y-98160785D01*
X105680514Y-98079215D01*
X105580186Y-97836402D01*
X105575742Y-97831950D01*
X105668062Y-97870285D01*
X105930785Y-97870514D01*
X106173598Y-97770186D01*
X106359533Y-97584575D01*
X106460285Y-97341938D01*
X106460514Y-97079215D01*
X106360186Y-96836402D01*
X106174575Y-96650467D01*
X105931938Y-96549715D01*
X105669215Y-96549486D01*
X105426402Y-96649814D01*
X105240467Y-96835425D01*
X105139715Y-97078062D01*
X105139486Y-97340785D01*
X105239814Y-97583598D01*
X105244258Y-97588050D01*
X105151938Y-97549715D01*
X104889215Y-97549486D01*
X104646402Y-97649814D01*
X104460467Y-97835425D01*
X104359715Y-98078062D01*
X104359486Y-98340785D01*
X93285792Y-98340785D01*
X93308364Y-98289531D01*
X93311899Y-98285996D01*
X93310910Y-98283750D01*
X93311899Y-98281504D01*
X93308364Y-98277969D01*
X93275906Y-98204266D01*
X93224049Y-98193654D01*
X93060000Y-98029605D01*
X92896767Y-98192838D01*
X92849757Y-98201920D01*
X92844094Y-98204266D01*
X92811636Y-98277969D01*
X92808101Y-98281504D01*
X92561899Y-98281504D01*
X92558364Y-98277969D01*
X92525906Y-98204266D01*
X92474049Y-98193654D01*
X92310000Y-98029605D01*
X92146767Y-98192838D01*
X92099757Y-98201920D01*
X92094094Y-98204266D01*
X92061636Y-98277969D01*
X92058101Y-98281504D01*
X88913600Y-98281504D01*
X88913600Y-97846935D01*
X91753210Y-97846935D01*
X91794420Y-98060243D01*
X91796766Y-98065906D01*
X91878496Y-98101899D01*
X92130395Y-97850000D01*
X92489605Y-97850000D01*
X92507202Y-97867597D01*
X92544420Y-98060243D01*
X92546766Y-98065906D01*
X92628496Y-98101899D01*
X92685000Y-98045395D01*
X92741504Y-98101899D01*
X92823234Y-98065906D01*
X92864078Y-97866317D01*
X92880395Y-97850000D01*
X93239605Y-97850000D01*
X93491504Y-98101899D01*
X93573234Y-98065906D01*
X93616790Y-97853065D01*
X93575580Y-97639757D01*
X93573234Y-97634094D01*
X93491504Y-97598101D01*
X93239605Y-97850000D01*
X92880395Y-97850000D01*
X92862798Y-97832403D01*
X92825580Y-97639757D01*
X92823234Y-97634094D01*
X92741504Y-97598101D01*
X92685000Y-97654605D01*
X92628496Y-97598101D01*
X92546766Y-97634094D01*
X92505922Y-97833683D01*
X92489605Y-97850000D01*
X92130395Y-97850000D01*
X91878496Y-97598101D01*
X91796766Y-97634094D01*
X91753210Y-97846935D01*
X88913600Y-97846935D01*
X88913600Y-97418496D01*
X92058101Y-97418496D01*
X92310000Y-97670395D01*
X92561899Y-97418496D01*
X92808101Y-97418496D01*
X93060000Y-97670395D01*
X93311899Y-97418496D01*
X93275906Y-97336766D01*
X93063065Y-97293210D01*
X92849757Y-97334420D01*
X92844094Y-97336766D01*
X92808101Y-97418496D01*
X92561899Y-97418496D01*
X92525906Y-97336766D01*
X92313065Y-97293210D01*
X92099757Y-97334420D01*
X92094094Y-97336766D01*
X92058101Y-97418496D01*
X88913600Y-97418496D01*
X88913600Y-96350000D01*
X125214607Y-96350000D01*
X125301613Y-96787407D01*
X125549384Y-97158223D01*
X125920200Y-97405994D01*
X126357607Y-97493000D01*
X126402393Y-97493000D01*
X126839800Y-97405994D01*
X127210616Y-97158223D01*
X127458387Y-96787407D01*
X127545393Y-96350000D01*
X127754607Y-96350000D01*
X127841613Y-96787407D01*
X128089384Y-97158223D01*
X128460200Y-97405994D01*
X128897607Y-97493000D01*
X128942393Y-97493000D01*
X129379800Y-97405994D01*
X129750616Y-97158223D01*
X129998387Y-96787407D01*
X130085393Y-96350000D01*
X129998387Y-95912593D01*
X129750616Y-95541777D01*
X129379800Y-95294006D01*
X128942393Y-95207000D01*
X128897607Y-95207000D01*
X128460200Y-95294006D01*
X128089384Y-95541777D01*
X127841613Y-95912593D01*
X127754607Y-96350000D01*
X127545393Y-96350000D01*
X127458387Y-95912593D01*
X127210616Y-95541777D01*
X126839800Y-95294006D01*
X126402393Y-95207000D01*
X126357607Y-95207000D01*
X125920200Y-95294006D01*
X125549384Y-95541777D01*
X125301613Y-95912593D01*
X125214607Y-96350000D01*
X88913600Y-96350000D01*
X88913600Y-95748504D01*
X107488101Y-95748504D01*
X107524094Y-95830234D01*
X107736935Y-95873790D01*
X107950243Y-95832580D01*
X107955906Y-95830234D01*
X107991899Y-95748504D01*
X108618101Y-95748504D01*
X108654094Y-95830234D01*
X108866935Y-95873790D01*
X109080243Y-95832580D01*
X109085906Y-95830234D01*
X109121899Y-95748504D01*
X109748101Y-95748504D01*
X109784094Y-95830234D01*
X109996935Y-95873790D01*
X110210243Y-95832580D01*
X110215906Y-95830234D01*
X110251899Y-95748504D01*
X110878101Y-95748504D01*
X110914094Y-95830234D01*
X111126935Y-95873790D01*
X111340243Y-95832580D01*
X111345906Y-95830234D01*
X111381899Y-95748504D01*
X112008101Y-95748504D01*
X112044094Y-95830234D01*
X112256935Y-95873790D01*
X112470243Y-95832580D01*
X112475906Y-95830234D01*
X112511899Y-95748504D01*
X112260000Y-95496605D01*
X112008101Y-95748504D01*
X111381899Y-95748504D01*
X111130000Y-95496605D01*
X110878101Y-95748504D01*
X110251899Y-95748504D01*
X110000000Y-95496605D01*
X109748101Y-95748504D01*
X109121899Y-95748504D01*
X108870000Y-95496605D01*
X108618101Y-95748504D01*
X107991899Y-95748504D01*
X107740000Y-95496605D01*
X107488101Y-95748504D01*
X88913600Y-95748504D01*
X88913600Y-95313935D01*
X107183210Y-95313935D01*
X107224420Y-95527243D01*
X107226766Y-95532906D01*
X107308496Y-95568899D01*
X107560395Y-95317000D01*
X107919605Y-95317000D01*
X108171504Y-95568899D01*
X108253234Y-95532906D01*
X108296790Y-95320065D01*
X108295606Y-95313935D01*
X108313210Y-95313935D01*
X108354420Y-95527243D01*
X108356766Y-95532906D01*
X108438496Y-95568899D01*
X108690395Y-95317000D01*
X109049605Y-95317000D01*
X109301504Y-95568899D01*
X109383234Y-95532906D01*
X109426790Y-95320065D01*
X109425606Y-95313935D01*
X109443210Y-95313935D01*
X109484420Y-95527243D01*
X109486766Y-95532906D01*
X109568496Y-95568899D01*
X109820395Y-95317000D01*
X110179605Y-95317000D01*
X110431504Y-95568899D01*
X110513234Y-95532906D01*
X110556790Y-95320065D01*
X110555606Y-95313935D01*
X110573210Y-95313935D01*
X110614420Y-95527243D01*
X110616766Y-95532906D01*
X110698496Y-95568899D01*
X110950395Y-95317000D01*
X111309605Y-95317000D01*
X111561504Y-95568899D01*
X111643234Y-95532906D01*
X111686790Y-95320065D01*
X111685606Y-95313935D01*
X111703210Y-95313935D01*
X111744420Y-95527243D01*
X111746766Y-95532906D01*
X111828496Y-95568899D01*
X112080395Y-95317000D01*
X112439605Y-95317000D01*
X112691504Y-95568899D01*
X112773234Y-95532906D01*
X112816790Y-95320065D01*
X112775580Y-95106757D01*
X112773234Y-95101094D01*
X112691504Y-95065101D01*
X112439605Y-95317000D01*
X112080395Y-95317000D01*
X111828496Y-95065101D01*
X111746766Y-95101094D01*
X111703210Y-95313935D01*
X111685606Y-95313935D01*
X111645580Y-95106757D01*
X111643234Y-95101094D01*
X111561504Y-95065101D01*
X111309605Y-95317000D01*
X110950395Y-95317000D01*
X110698496Y-95065101D01*
X110616766Y-95101094D01*
X110573210Y-95313935D01*
X110555606Y-95313935D01*
X110515580Y-95106757D01*
X110513234Y-95101094D01*
X110431504Y-95065101D01*
X110179605Y-95317000D01*
X109820395Y-95317000D01*
X109568496Y-95065101D01*
X109486766Y-95101094D01*
X109443210Y-95313935D01*
X109425606Y-95313935D01*
X109385580Y-95106757D01*
X109383234Y-95101094D01*
X109301504Y-95065101D01*
X109049605Y-95317000D01*
X108690395Y-95317000D01*
X108438496Y-95065101D01*
X108356766Y-95101094D01*
X108313210Y-95313935D01*
X108295606Y-95313935D01*
X108255580Y-95106757D01*
X108253234Y-95101094D01*
X108171504Y-95065101D01*
X107919605Y-95317000D01*
X107560395Y-95317000D01*
X107308496Y-95065101D01*
X107226766Y-95101094D01*
X107183210Y-95313935D01*
X88913600Y-95313935D01*
X88913600Y-94885496D01*
X107488101Y-94885496D01*
X107740000Y-95137395D01*
X107991899Y-94885496D01*
X108618101Y-94885496D01*
X108870000Y-95137395D01*
X109121899Y-94885496D01*
X109748101Y-94885496D01*
X110000000Y-95137395D01*
X110251899Y-94885496D01*
X110878101Y-94885496D01*
X111130000Y-95137395D01*
X111381899Y-94885496D01*
X112008101Y-94885496D01*
X112260000Y-95137395D01*
X112511899Y-94885496D01*
X112475906Y-94803766D01*
X112263065Y-94760210D01*
X112049757Y-94801420D01*
X112044094Y-94803766D01*
X112008101Y-94885496D01*
X111381899Y-94885496D01*
X111345906Y-94803766D01*
X111133065Y-94760210D01*
X110919757Y-94801420D01*
X110914094Y-94803766D01*
X110878101Y-94885496D01*
X110251899Y-94885496D01*
X110215906Y-94803766D01*
X110003065Y-94760210D01*
X109789757Y-94801420D01*
X109784094Y-94803766D01*
X109748101Y-94885496D01*
X109121899Y-94885496D01*
X109085906Y-94803766D01*
X108873065Y-94760210D01*
X108659757Y-94801420D01*
X108654094Y-94803766D01*
X108618101Y-94885496D01*
X107991899Y-94885496D01*
X107955906Y-94803766D01*
X107743065Y-94760210D01*
X107529757Y-94801420D01*
X107524094Y-94803766D01*
X107488101Y-94885496D01*
X88913600Y-94885496D01*
X88913600Y-94532504D01*
X107488101Y-94532504D01*
X107524094Y-94614234D01*
X107736935Y-94657790D01*
X107950243Y-94616580D01*
X107955906Y-94614234D01*
X107991899Y-94532504D01*
X108618101Y-94532504D01*
X108654094Y-94614234D01*
X108866935Y-94657790D01*
X109080243Y-94616580D01*
X109085906Y-94614234D01*
X109121899Y-94532504D01*
X109748101Y-94532504D01*
X109784094Y-94614234D01*
X109996935Y-94657790D01*
X110210243Y-94616580D01*
X110215906Y-94614234D01*
X110251899Y-94532504D01*
X110878101Y-94532504D01*
X110914094Y-94614234D01*
X111126935Y-94657790D01*
X111340243Y-94616580D01*
X111345906Y-94614234D01*
X111381899Y-94532504D01*
X112008101Y-94532504D01*
X112044094Y-94614234D01*
X112256935Y-94657790D01*
X112470243Y-94616580D01*
X112475906Y-94614234D01*
X112511899Y-94532504D01*
X112260000Y-94280605D01*
X112008101Y-94532504D01*
X111381899Y-94532504D01*
X111130000Y-94280605D01*
X110878101Y-94532504D01*
X110251899Y-94532504D01*
X110000000Y-94280605D01*
X109748101Y-94532504D01*
X109121899Y-94532504D01*
X108870000Y-94280605D01*
X108618101Y-94532504D01*
X107991899Y-94532504D01*
X107740000Y-94280605D01*
X107488101Y-94532504D01*
X88913600Y-94532504D01*
X88913600Y-94097935D01*
X107183210Y-94097935D01*
X107224420Y-94311243D01*
X107226766Y-94316906D01*
X107308496Y-94352899D01*
X107560395Y-94101000D01*
X107919605Y-94101000D01*
X108171504Y-94352899D01*
X108253234Y-94316906D01*
X108296790Y-94104065D01*
X108295606Y-94097935D01*
X108313210Y-94097935D01*
X108354420Y-94311243D01*
X108356766Y-94316906D01*
X108438496Y-94352899D01*
X108690395Y-94101000D01*
X109049605Y-94101000D01*
X109301504Y-94352899D01*
X109383234Y-94316906D01*
X109426790Y-94104065D01*
X109425606Y-94097935D01*
X109443210Y-94097935D01*
X109484420Y-94311243D01*
X109486766Y-94316906D01*
X109568496Y-94352899D01*
X109820395Y-94101000D01*
X110179605Y-94101000D01*
X110431504Y-94352899D01*
X110513234Y-94316906D01*
X110556790Y-94104065D01*
X110555606Y-94097935D01*
X110573210Y-94097935D01*
X110614420Y-94311243D01*
X110616766Y-94316906D01*
X110698496Y-94352899D01*
X110950395Y-94101000D01*
X111309605Y-94101000D01*
X111561504Y-94352899D01*
X111643234Y-94316906D01*
X111686790Y-94104065D01*
X111685606Y-94097935D01*
X111703210Y-94097935D01*
X111744420Y-94311243D01*
X111746766Y-94316906D01*
X111828496Y-94352899D01*
X112080395Y-94101000D01*
X112439605Y-94101000D01*
X112691504Y-94352899D01*
X112773234Y-94316906D01*
X112816571Y-94105135D01*
X125328432Y-94105135D01*
X125427726Y-94344886D01*
X125704906Y-94668590D01*
X126084863Y-94861581D01*
X126253000Y-94837654D01*
X126253000Y-93937000D01*
X126507000Y-93937000D01*
X126507000Y-94837654D01*
X126675137Y-94861581D01*
X127055094Y-94668590D01*
X127332274Y-94344886D01*
X127431568Y-94105135D01*
X127407229Y-93937000D01*
X126507000Y-93937000D01*
X126253000Y-93937000D01*
X125352771Y-93937000D01*
X125328432Y-94105135D01*
X112816571Y-94105135D01*
X112816790Y-94104065D01*
X112775580Y-93890757D01*
X112773234Y-93885094D01*
X112691504Y-93849101D01*
X112439605Y-94101000D01*
X112080395Y-94101000D01*
X111828496Y-93849101D01*
X111746766Y-93885094D01*
X111703210Y-94097935D01*
X111685606Y-94097935D01*
X111645580Y-93890757D01*
X111643234Y-93885094D01*
X111561504Y-93849101D01*
X111309605Y-94101000D01*
X110950395Y-94101000D01*
X110698496Y-93849101D01*
X110616766Y-93885094D01*
X110573210Y-94097935D01*
X110555606Y-94097935D01*
X110515580Y-93890757D01*
X110513234Y-93885094D01*
X110431504Y-93849101D01*
X110179605Y-94101000D01*
X109820395Y-94101000D01*
X109568496Y-93849101D01*
X109486766Y-93885094D01*
X109443210Y-94097935D01*
X109425606Y-94097935D01*
X109385580Y-93890757D01*
X109383234Y-93885094D01*
X109301504Y-93849101D01*
X109049605Y-94101000D01*
X108690395Y-94101000D01*
X108438496Y-93849101D01*
X108356766Y-93885094D01*
X108313210Y-94097935D01*
X108295606Y-94097935D01*
X108255580Y-93890757D01*
X108253234Y-93885094D01*
X108171504Y-93849101D01*
X107919605Y-94101000D01*
X107560395Y-94101000D01*
X107308496Y-93849101D01*
X107226766Y-93885094D01*
X107183210Y-94097935D01*
X88913600Y-94097935D01*
X88913600Y-93669496D01*
X107488101Y-93669496D01*
X107740000Y-93921395D01*
X107991899Y-93669496D01*
X108618101Y-93669496D01*
X108870000Y-93921395D01*
X109121899Y-93669496D01*
X109748101Y-93669496D01*
X110000000Y-93921395D01*
X110251899Y-93669496D01*
X110878101Y-93669496D01*
X111130000Y-93921395D01*
X111381899Y-93669496D01*
X112008101Y-93669496D01*
X112260000Y-93921395D01*
X112371395Y-93810000D01*
X127754607Y-93810000D01*
X127841613Y-94247407D01*
X128089384Y-94618223D01*
X128460200Y-94865994D01*
X128897607Y-94953000D01*
X128942393Y-94953000D01*
X129379800Y-94865994D01*
X129750616Y-94618223D01*
X129998387Y-94247407D01*
X130085393Y-93810000D01*
X129998387Y-93372593D01*
X129750616Y-93001777D01*
X129379800Y-92754006D01*
X128942393Y-92667000D01*
X128897607Y-92667000D01*
X128460200Y-92754006D01*
X128089384Y-93001777D01*
X127841613Y-93372593D01*
X127754607Y-93810000D01*
X112371395Y-93810000D01*
X112511899Y-93669496D01*
X112475906Y-93587766D01*
X112263065Y-93544210D01*
X112049757Y-93585420D01*
X112044094Y-93587766D01*
X112008101Y-93669496D01*
X111381899Y-93669496D01*
X111345906Y-93587766D01*
X111133065Y-93544210D01*
X110919757Y-93585420D01*
X110914094Y-93587766D01*
X110878101Y-93669496D01*
X110251899Y-93669496D01*
X110215906Y-93587766D01*
X110003065Y-93544210D01*
X109789757Y-93585420D01*
X109784094Y-93587766D01*
X109748101Y-93669496D01*
X109121899Y-93669496D01*
X109085906Y-93587766D01*
X108873065Y-93544210D01*
X108659757Y-93585420D01*
X108654094Y-93587766D01*
X108618101Y-93669496D01*
X107991899Y-93669496D01*
X107955906Y-93587766D01*
X107743065Y-93544210D01*
X107529757Y-93585420D01*
X107524094Y-93587766D01*
X107488101Y-93669496D01*
X88913600Y-93669496D01*
X88913600Y-93514865D01*
X125328432Y-93514865D01*
X125352771Y-93683000D01*
X126253000Y-93683000D01*
X126253000Y-92782346D01*
X126507000Y-92782346D01*
X126507000Y-93683000D01*
X127407229Y-93683000D01*
X127431568Y-93514865D01*
X127332274Y-93275114D01*
X127055094Y-92951410D01*
X126675137Y-92758419D01*
X126507000Y-92782346D01*
X126253000Y-92782346D01*
X126084863Y-92758419D01*
X125704906Y-92951410D01*
X125427726Y-93275114D01*
X125328432Y-93514865D01*
X88913600Y-93514865D01*
X88913600Y-93316504D01*
X107488101Y-93316504D01*
X107524094Y-93398234D01*
X107736935Y-93441790D01*
X107950243Y-93400580D01*
X107955906Y-93398234D01*
X107991899Y-93316504D01*
X108618101Y-93316504D01*
X108654094Y-93398234D01*
X108866935Y-93441790D01*
X109080243Y-93400580D01*
X109085906Y-93398234D01*
X109121899Y-93316504D01*
X109748101Y-93316504D01*
X109784094Y-93398234D01*
X109996935Y-93441790D01*
X110210243Y-93400580D01*
X110215906Y-93398234D01*
X110251899Y-93316504D01*
X110878101Y-93316504D01*
X110914094Y-93398234D01*
X111126935Y-93441790D01*
X111340243Y-93400580D01*
X111345906Y-93398234D01*
X111381899Y-93316504D01*
X112008101Y-93316504D01*
X112044094Y-93398234D01*
X112256935Y-93441790D01*
X112470243Y-93400580D01*
X112475906Y-93398234D01*
X112511899Y-93316504D01*
X112260000Y-93064605D01*
X112008101Y-93316504D01*
X111381899Y-93316504D01*
X111130000Y-93064605D01*
X110878101Y-93316504D01*
X110251899Y-93316504D01*
X110000000Y-93064605D01*
X109748101Y-93316504D01*
X109121899Y-93316504D01*
X108870000Y-93064605D01*
X108618101Y-93316504D01*
X107991899Y-93316504D01*
X107740000Y-93064605D01*
X107488101Y-93316504D01*
X88913600Y-93316504D01*
X88913600Y-92881935D01*
X107183210Y-92881935D01*
X107224420Y-93095243D01*
X107226766Y-93100906D01*
X107308496Y-93136899D01*
X107560395Y-92885000D01*
X107919605Y-92885000D01*
X108171504Y-93136899D01*
X108253234Y-93100906D01*
X108296790Y-92888065D01*
X108295606Y-92881935D01*
X108313210Y-92881935D01*
X108354420Y-93095243D01*
X108356766Y-93100906D01*
X108438496Y-93136899D01*
X108690395Y-92885000D01*
X109049605Y-92885000D01*
X109301504Y-93136899D01*
X109383234Y-93100906D01*
X109426790Y-92888065D01*
X109425606Y-92881935D01*
X109443210Y-92881935D01*
X109484420Y-93095243D01*
X109486766Y-93100906D01*
X109568496Y-93136899D01*
X109820395Y-92885000D01*
X110179605Y-92885000D01*
X110431504Y-93136899D01*
X110513234Y-93100906D01*
X110556790Y-92888065D01*
X110555606Y-92881935D01*
X110573210Y-92881935D01*
X110614420Y-93095243D01*
X110616766Y-93100906D01*
X110698496Y-93136899D01*
X110950395Y-92885000D01*
X111309605Y-92885000D01*
X111561504Y-93136899D01*
X111643234Y-93100906D01*
X111686790Y-92888065D01*
X111685606Y-92881935D01*
X111703210Y-92881935D01*
X111744420Y-93095243D01*
X111746766Y-93100906D01*
X111828496Y-93136899D01*
X112080395Y-92885000D01*
X112439605Y-92885000D01*
X112691504Y-93136899D01*
X112773234Y-93100906D01*
X112816790Y-92888065D01*
X112775580Y-92674757D01*
X112773234Y-92669094D01*
X112691504Y-92633101D01*
X112439605Y-92885000D01*
X112080395Y-92885000D01*
X111828496Y-92633101D01*
X111746766Y-92669094D01*
X111703210Y-92881935D01*
X111685606Y-92881935D01*
X111645580Y-92674757D01*
X111643234Y-92669094D01*
X111561504Y-92633101D01*
X111309605Y-92885000D01*
X110950395Y-92885000D01*
X110698496Y-92633101D01*
X110616766Y-92669094D01*
X110573210Y-92881935D01*
X110555606Y-92881935D01*
X110515580Y-92674757D01*
X110513234Y-92669094D01*
X110431504Y-92633101D01*
X110179605Y-92885000D01*
X109820395Y-92885000D01*
X109568496Y-92633101D01*
X109486766Y-92669094D01*
X109443210Y-92881935D01*
X109425606Y-92881935D01*
X109385580Y-92674757D01*
X109383234Y-92669094D01*
X109301504Y-92633101D01*
X109049605Y-92885000D01*
X108690395Y-92885000D01*
X108438496Y-92633101D01*
X108356766Y-92669094D01*
X108313210Y-92881935D01*
X108295606Y-92881935D01*
X108255580Y-92674757D01*
X108253234Y-92669094D01*
X108171504Y-92633101D01*
X107919605Y-92885000D01*
X107560395Y-92885000D01*
X107308496Y-92633101D01*
X107226766Y-92669094D01*
X107183210Y-92881935D01*
X88913600Y-92881935D01*
X88913600Y-92453496D01*
X107488101Y-92453496D01*
X107740000Y-92705395D01*
X107991899Y-92453496D01*
X108618101Y-92453496D01*
X108870000Y-92705395D01*
X109121899Y-92453496D01*
X109748101Y-92453496D01*
X110000000Y-92705395D01*
X110251899Y-92453496D01*
X110878101Y-92453496D01*
X111130000Y-92705395D01*
X111381899Y-92453496D01*
X112008101Y-92453496D01*
X112260000Y-92705395D01*
X112511899Y-92453496D01*
X112475906Y-92371766D01*
X112263065Y-92328210D01*
X112049757Y-92369420D01*
X112044094Y-92371766D01*
X112008101Y-92453496D01*
X111381899Y-92453496D01*
X111345906Y-92371766D01*
X111133065Y-92328210D01*
X110919757Y-92369420D01*
X110914094Y-92371766D01*
X110878101Y-92453496D01*
X110251899Y-92453496D01*
X110215906Y-92371766D01*
X110003065Y-92328210D01*
X109789757Y-92369420D01*
X109784094Y-92371766D01*
X109748101Y-92453496D01*
X109121899Y-92453496D01*
X109085906Y-92371766D01*
X108873065Y-92328210D01*
X108659757Y-92369420D01*
X108654094Y-92371766D01*
X108618101Y-92453496D01*
X107991899Y-92453496D01*
X107955906Y-92371766D01*
X107743065Y-92328210D01*
X107529757Y-92369420D01*
X107524094Y-92371766D01*
X107488101Y-92453496D01*
X88913600Y-92453496D01*
X88913600Y-91281504D01*
X92008101Y-91281504D01*
X92044094Y-91363234D01*
X92256935Y-91406790D01*
X92470243Y-91365580D01*
X92475906Y-91363234D01*
X92511899Y-91281504D01*
X92808101Y-91281504D01*
X92844094Y-91363234D01*
X93056935Y-91406790D01*
X93270243Y-91365580D01*
X93275906Y-91363234D01*
X93311899Y-91281504D01*
X93060000Y-91029605D01*
X92808101Y-91281504D01*
X92511899Y-91281504D01*
X92260000Y-91029605D01*
X92008101Y-91281504D01*
X88913600Y-91281504D01*
X88913600Y-90846935D01*
X91703210Y-90846935D01*
X91744420Y-91060243D01*
X91746766Y-91065906D01*
X91828496Y-91101899D01*
X92080395Y-90850000D01*
X92439605Y-90850000D01*
X92519175Y-90929570D01*
X92544420Y-91060243D01*
X92546766Y-91065906D01*
X92628496Y-91101899D01*
X92660000Y-91070395D01*
X92691504Y-91101899D01*
X92773234Y-91065906D01*
X92801213Y-90929182D01*
X92880395Y-90850000D01*
X93239605Y-90850000D01*
X93491504Y-91101899D01*
X93573234Y-91065906D01*
X93616790Y-90853065D01*
X93575580Y-90639757D01*
X93573234Y-90634094D01*
X93543013Y-90620785D01*
X103519486Y-90620785D01*
X103619814Y-90863598D01*
X103805425Y-91049533D01*
X104048062Y-91150285D01*
X104310785Y-91150514D01*
X104553598Y-91050186D01*
X104554979Y-91048807D01*
X104715425Y-91209533D01*
X104958062Y-91310285D01*
X105220785Y-91310514D01*
X105269530Y-91290373D01*
X105269486Y-91340785D01*
X105369814Y-91583598D01*
X105555425Y-91769533D01*
X105798062Y-91870285D01*
X106060785Y-91870514D01*
X106303598Y-91770186D01*
X106489533Y-91584575D01*
X106590285Y-91341938D01*
X106590310Y-91312914D01*
X106608062Y-91320285D01*
X106870785Y-91320514D01*
X107113598Y-91220186D01*
X107299533Y-91034575D01*
X107400285Y-90791938D01*
X107400514Y-90529215D01*
X107367926Y-90450346D01*
X107537629Y-90450494D01*
X107629814Y-90673598D01*
X107815425Y-90859533D01*
X108058062Y-90960285D01*
X108320785Y-90960514D01*
X108563598Y-90860186D01*
X108749533Y-90674575D01*
X108850285Y-90431938D01*
X108850295Y-90420322D01*
X109031168Y-90420479D01*
X109019715Y-90448062D01*
X109019486Y-90710785D01*
X109119814Y-90953598D01*
X109305425Y-91139533D01*
X109548062Y-91240285D01*
X109810785Y-91240514D01*
X110053598Y-91140186D01*
X110239533Y-90954575D01*
X110340285Y-90711938D01*
X110340514Y-90449215D01*
X110240186Y-90206402D01*
X110054575Y-90020467D01*
X109811938Y-89919715D01*
X109588832Y-89919521D01*
X109600285Y-89891938D01*
X109600514Y-89629215D01*
X109500186Y-89386402D01*
X109314575Y-89200467D01*
X109071938Y-89099715D01*
X108809215Y-89099486D01*
X108566402Y-89199814D01*
X108380467Y-89385425D01*
X108279715Y-89628062D01*
X108279705Y-89639678D01*
X108082371Y-89639506D01*
X107990186Y-89416402D01*
X107804575Y-89230467D01*
X107561938Y-89129715D01*
X107299215Y-89129486D01*
X107056402Y-89229814D01*
X106870467Y-89415425D01*
X106769715Y-89658062D01*
X106769486Y-89920785D01*
X106802074Y-89999654D01*
X106683905Y-89999551D01*
X106720285Y-89911938D01*
X106720514Y-89649215D01*
X106620186Y-89406402D01*
X106434575Y-89220467D01*
X106191938Y-89119715D01*
X105929215Y-89119486D01*
X105686402Y-89219814D01*
X105500467Y-89405425D01*
X105399715Y-89648062D01*
X105399486Y-89910785D01*
X105480194Y-90106113D01*
X105464575Y-90090467D01*
X105221938Y-89989715D01*
X104959215Y-89989486D01*
X104716402Y-90089814D01*
X104715021Y-90091193D01*
X104554575Y-89930467D01*
X104311938Y-89829715D01*
X104049215Y-89829486D01*
X103806402Y-89929814D01*
X103620467Y-90115425D01*
X103519715Y-90358062D01*
X103519486Y-90620785D01*
X93543013Y-90620785D01*
X93491504Y-90598101D01*
X93239605Y-90850000D01*
X92880395Y-90850000D01*
X92800825Y-90770430D01*
X92775580Y-90639757D01*
X92773234Y-90634094D01*
X92691504Y-90598101D01*
X92660000Y-90629605D01*
X92628496Y-90598101D01*
X92546766Y-90634094D01*
X92518787Y-90770818D01*
X92439605Y-90850000D01*
X92080395Y-90850000D01*
X91828496Y-90598101D01*
X91746766Y-90634094D01*
X91703210Y-90846935D01*
X88913600Y-90846935D01*
X88913600Y-90418496D01*
X92008101Y-90418496D01*
X92260000Y-90670395D01*
X92429852Y-90500543D01*
X92520243Y-90483080D01*
X92525906Y-90480734D01*
X92561899Y-90399004D01*
X92808101Y-90399004D01*
X92812393Y-90408750D01*
X92808101Y-90418496D01*
X92823440Y-90433835D01*
X92844094Y-90480734D01*
X92877092Y-90487487D01*
X93060000Y-90670395D01*
X93241825Y-90488570D01*
X93270243Y-90483080D01*
X93275906Y-90480734D01*
X93296560Y-90433835D01*
X93311899Y-90418496D01*
X93307607Y-90408750D01*
X93311899Y-90399004D01*
X93296560Y-90383665D01*
X93275906Y-90336766D01*
X93242908Y-90330013D01*
X93060000Y-90147105D01*
X92878175Y-90328930D01*
X92849757Y-90334420D01*
X92844094Y-90336766D01*
X92823440Y-90383665D01*
X92808101Y-90399004D01*
X92561899Y-90399004D01*
X92310000Y-90147105D01*
X92140148Y-90316957D01*
X92049757Y-90334420D01*
X92044094Y-90336766D01*
X92008101Y-90418496D01*
X88913600Y-90418496D01*
X88913600Y-89964435D01*
X91753210Y-89964435D01*
X91794420Y-90177743D01*
X91796766Y-90183406D01*
X91878496Y-90219399D01*
X92130395Y-89967500D01*
X92489605Y-89967500D01*
X92507202Y-89985097D01*
X92544420Y-90177743D01*
X92546766Y-90183406D01*
X92628496Y-90219399D01*
X92685000Y-90162895D01*
X92741504Y-90219399D01*
X92823234Y-90183406D01*
X92864078Y-89983817D01*
X92880395Y-89967500D01*
X93239605Y-89967500D01*
X93491504Y-90219399D01*
X93573234Y-90183406D01*
X93616790Y-89970565D01*
X93575580Y-89757257D01*
X93573234Y-89751594D01*
X93491504Y-89715601D01*
X93239605Y-89967500D01*
X92880395Y-89967500D01*
X92862798Y-89949903D01*
X92825580Y-89757257D01*
X92823234Y-89751594D01*
X92741504Y-89715601D01*
X92685000Y-89772105D01*
X92628496Y-89715601D01*
X92546766Y-89751594D01*
X92505922Y-89951183D01*
X92489605Y-89967500D01*
X92130395Y-89967500D01*
X91878496Y-89715601D01*
X91796766Y-89751594D01*
X91753210Y-89964435D01*
X88913600Y-89964435D01*
X88913600Y-89531504D01*
X92058101Y-89531504D01*
X92059090Y-89533750D01*
X92058101Y-89535996D01*
X92061636Y-89539531D01*
X92094094Y-89613234D01*
X92145951Y-89623846D01*
X92310000Y-89787895D01*
X92473233Y-89624662D01*
X92520243Y-89615580D01*
X92525906Y-89613234D01*
X92558364Y-89539531D01*
X92561899Y-89535996D01*
X92560910Y-89533750D01*
X92561899Y-89531504D01*
X92808101Y-89531504D01*
X92809090Y-89533750D01*
X92808101Y-89535996D01*
X92811636Y-89539531D01*
X92844094Y-89613234D01*
X92895951Y-89623846D01*
X93060000Y-89787895D01*
X93223233Y-89624662D01*
X93270243Y-89615580D01*
X93275906Y-89613234D01*
X93308364Y-89539531D01*
X93311899Y-89535996D01*
X93310910Y-89533750D01*
X93311899Y-89531504D01*
X93308364Y-89527969D01*
X93275906Y-89454266D01*
X93224049Y-89443654D01*
X93060000Y-89279605D01*
X92896767Y-89442838D01*
X92849757Y-89451920D01*
X92844094Y-89454266D01*
X92811636Y-89527969D01*
X92808101Y-89531504D01*
X92561899Y-89531504D01*
X92558364Y-89527969D01*
X92525906Y-89454266D01*
X92474049Y-89443654D01*
X92310000Y-89279605D01*
X92146767Y-89442838D01*
X92099757Y-89451920D01*
X92094094Y-89454266D01*
X92061636Y-89527969D01*
X92058101Y-89531504D01*
X88913600Y-89531504D01*
X88913600Y-89096935D01*
X91753210Y-89096935D01*
X91794420Y-89310243D01*
X91796766Y-89315906D01*
X91878496Y-89351899D01*
X92130395Y-89100000D01*
X92489605Y-89100000D01*
X92507202Y-89117597D01*
X92544420Y-89310243D01*
X92546766Y-89315906D01*
X92628496Y-89351899D01*
X92685000Y-89295395D01*
X92741504Y-89351899D01*
X92823234Y-89315906D01*
X92864078Y-89116317D01*
X92880395Y-89100000D01*
X93239605Y-89100000D01*
X93491504Y-89351899D01*
X93573234Y-89315906D01*
X93616790Y-89103065D01*
X93575580Y-88889757D01*
X93573234Y-88884094D01*
X93491504Y-88848101D01*
X93239605Y-89100000D01*
X92880395Y-89100000D01*
X92862798Y-89082403D01*
X92825580Y-88889757D01*
X92823234Y-88884094D01*
X92741504Y-88848101D01*
X92685000Y-88904605D01*
X92628496Y-88848101D01*
X92546766Y-88884094D01*
X92505922Y-89083683D01*
X92489605Y-89100000D01*
X92130395Y-89100000D01*
X91878496Y-88848101D01*
X91796766Y-88884094D01*
X91753210Y-89096935D01*
X88913600Y-89096935D01*
X88913600Y-88668496D01*
X92058101Y-88668496D01*
X92310000Y-88920395D01*
X92561899Y-88668496D01*
X92808101Y-88668496D01*
X93060000Y-88920395D01*
X93311899Y-88668496D01*
X93282080Y-88600785D01*
X110059486Y-88600785D01*
X110159814Y-88843598D01*
X110345425Y-89029533D01*
X110588062Y-89130285D01*
X110850785Y-89130514D01*
X111093598Y-89030186D01*
X111279533Y-88844575D01*
X111379650Y-88603468D01*
X111461079Y-88685040D01*
X111330467Y-88815425D01*
X111229715Y-89058062D01*
X111229486Y-89320785D01*
X111329814Y-89563598D01*
X111455984Y-89689988D01*
X111410467Y-89735425D01*
X111309715Y-89978062D01*
X111309486Y-90240785D01*
X111409814Y-90483598D01*
X111595425Y-90669533D01*
X111838062Y-90770285D01*
X112099521Y-90770513D01*
X112099486Y-90810785D01*
X112199814Y-91053598D01*
X112385425Y-91239533D01*
X112628062Y-91340285D01*
X112782717Y-91340420D01*
X112729715Y-91468062D01*
X112729486Y-91730785D01*
X112829814Y-91973598D01*
X113015425Y-92159533D01*
X113258062Y-92260285D01*
X113520785Y-92260514D01*
X113763598Y-92160186D01*
X113949533Y-91974575D01*
X113983791Y-91892073D01*
X114148062Y-91960285D01*
X114410785Y-91960514D01*
X114653598Y-91860186D01*
X114839533Y-91674575D01*
X114940285Y-91431938D01*
X114940426Y-91270000D01*
X125214607Y-91270000D01*
X125301613Y-91707407D01*
X125549384Y-92078223D01*
X125920200Y-92325994D01*
X126357607Y-92413000D01*
X126402393Y-92413000D01*
X126839800Y-92325994D01*
X127210616Y-92078223D01*
X127458387Y-91707407D01*
X127545393Y-91270000D01*
X127754607Y-91270000D01*
X127841613Y-91707407D01*
X128089384Y-92078223D01*
X128460200Y-92325994D01*
X128897607Y-92413000D01*
X128942393Y-92413000D01*
X129379800Y-92325994D01*
X129750616Y-92078223D01*
X129998387Y-91707407D01*
X130085393Y-91270000D01*
X129998387Y-90832593D01*
X129750616Y-90461777D01*
X129379800Y-90214006D01*
X128942393Y-90127000D01*
X128897607Y-90127000D01*
X128460200Y-90214006D01*
X128089384Y-90461777D01*
X127841613Y-90832593D01*
X127754607Y-91270000D01*
X127545393Y-91270000D01*
X127458387Y-90832593D01*
X127210616Y-90461777D01*
X126839800Y-90214006D01*
X126402393Y-90127000D01*
X126357607Y-90127000D01*
X125920200Y-90214006D01*
X125549384Y-90461777D01*
X125301613Y-90832593D01*
X125214607Y-91270000D01*
X114940426Y-91270000D01*
X114940514Y-91169215D01*
X114840186Y-90926402D01*
X114654575Y-90740467D01*
X114411938Y-90639715D01*
X114149215Y-90639486D01*
X113906402Y-90739814D01*
X113720467Y-90925425D01*
X113686209Y-91007927D01*
X113521938Y-90939715D01*
X113367283Y-90939580D01*
X113420285Y-90811938D01*
X113420514Y-90549215D01*
X113320186Y-90306402D01*
X113134575Y-90120467D01*
X112891938Y-90019715D01*
X112630479Y-90019487D01*
X112630514Y-89979215D01*
X112530186Y-89736402D01*
X112404016Y-89610012D01*
X112449533Y-89564575D01*
X112550285Y-89321938D01*
X112550514Y-89059215D01*
X112450186Y-88816402D01*
X112363935Y-88730000D01*
X125214607Y-88730000D01*
X125301613Y-89167407D01*
X125549384Y-89538223D01*
X125920200Y-89785994D01*
X126357607Y-89873000D01*
X126402393Y-89873000D01*
X126839800Y-89785994D01*
X127210616Y-89538223D01*
X127458387Y-89167407D01*
X127545393Y-88730000D01*
X127754607Y-88730000D01*
X127841613Y-89167407D01*
X128089384Y-89538223D01*
X128460200Y-89785994D01*
X128897607Y-89873000D01*
X128942393Y-89873000D01*
X129379800Y-89785994D01*
X129750616Y-89538223D01*
X129998387Y-89167407D01*
X130085393Y-88730000D01*
X129998387Y-88292593D01*
X129750616Y-87921777D01*
X129379800Y-87674006D01*
X128942393Y-87587000D01*
X128897607Y-87587000D01*
X128460200Y-87674006D01*
X128089384Y-87921777D01*
X127841613Y-88292593D01*
X127754607Y-88730000D01*
X127545393Y-88730000D01*
X127458387Y-88292593D01*
X127210616Y-87921777D01*
X126839800Y-87674006D01*
X126402393Y-87587000D01*
X126357607Y-87587000D01*
X125920200Y-87674006D01*
X125549384Y-87921777D01*
X125301613Y-88292593D01*
X125214607Y-88730000D01*
X112363935Y-88730000D01*
X112348921Y-88714960D01*
X112479533Y-88584575D01*
X112580285Y-88341938D01*
X112580514Y-88079215D01*
X112480186Y-87836402D01*
X112294575Y-87650467D01*
X112051938Y-87549715D01*
X111789215Y-87549486D01*
X111546402Y-87649814D01*
X111360467Y-87835425D01*
X111260350Y-88076532D01*
X111094575Y-87910467D01*
X110851938Y-87809715D01*
X110589215Y-87809486D01*
X110346402Y-87909814D01*
X110160467Y-88095425D01*
X110059715Y-88338062D01*
X110059486Y-88600785D01*
X93282080Y-88600785D01*
X93275906Y-88586766D01*
X93063065Y-88543210D01*
X92849757Y-88584420D01*
X92844094Y-88586766D01*
X92808101Y-88668496D01*
X92561899Y-88668496D01*
X92525906Y-88586766D01*
X92313065Y-88543210D01*
X92099757Y-88584420D01*
X92094094Y-88586766D01*
X92058101Y-88668496D01*
X88913600Y-88668496D01*
X88913600Y-87315756D01*
X90033850Y-87315756D01*
X90289212Y-87582683D01*
X91150034Y-87924963D01*
X92076314Y-87911765D01*
X92870788Y-87582683D01*
X93126150Y-87315756D01*
X92931899Y-87121505D01*
X92931899Y-87121504D01*
X91580000Y-85769605D01*
X90228101Y-87121504D01*
X90228101Y-87121505D01*
X90033850Y-87315756D01*
X88913600Y-87315756D01*
X88913600Y-85160034D01*
X89245037Y-85160034D01*
X89258235Y-86086314D01*
X89587317Y-86880788D01*
X89854244Y-87136150D01*
X90048495Y-86941899D01*
X90048496Y-86941899D01*
X91400395Y-85590000D01*
X91759605Y-85590000D01*
X93111504Y-86941899D01*
X93111505Y-86941899D01*
X93305756Y-87136150D01*
X93572683Y-86880788D01*
X93774132Y-86374150D01*
X125287800Y-86374150D01*
X125287800Y-87099072D01*
X125322603Y-87183092D01*
X125386909Y-87247398D01*
X125470929Y-87282200D01*
X126195850Y-87282200D01*
X126253000Y-87225050D01*
X126253000Y-86317000D01*
X126507000Y-86317000D01*
X126507000Y-87225050D01*
X126564150Y-87282200D01*
X127289071Y-87282200D01*
X127373091Y-87247398D01*
X127437397Y-87183092D01*
X127472200Y-87099072D01*
X127472200Y-86374150D01*
X127415050Y-86317000D01*
X126507000Y-86317000D01*
X126253000Y-86317000D01*
X125344950Y-86317000D01*
X125287800Y-86374150D01*
X93774132Y-86374150D01*
X93847353Y-86190000D01*
X127754607Y-86190000D01*
X127841613Y-86627407D01*
X128089384Y-86998223D01*
X128460200Y-87245994D01*
X128897607Y-87333000D01*
X128942393Y-87333000D01*
X129379800Y-87245994D01*
X129750616Y-86998223D01*
X129998387Y-86627407D01*
X130085393Y-86190000D01*
X129998387Y-85752593D01*
X129750616Y-85381777D01*
X129379800Y-85134006D01*
X128942393Y-85047000D01*
X128897607Y-85047000D01*
X128460200Y-85134006D01*
X128089384Y-85381777D01*
X127841613Y-85752593D01*
X127754607Y-86190000D01*
X93847353Y-86190000D01*
X93914963Y-86019966D01*
X93904433Y-85280928D01*
X125287800Y-85280928D01*
X125287800Y-86005850D01*
X125344950Y-86063000D01*
X126253000Y-86063000D01*
X126253000Y-85154950D01*
X126507000Y-85154950D01*
X126507000Y-86063000D01*
X127415050Y-86063000D01*
X127472200Y-86005850D01*
X127472200Y-85280928D01*
X127437397Y-85196908D01*
X127373091Y-85132602D01*
X127289071Y-85097800D01*
X126564150Y-85097800D01*
X126507000Y-85154950D01*
X126253000Y-85154950D01*
X126195850Y-85097800D01*
X125470929Y-85097800D01*
X125386909Y-85132602D01*
X125322603Y-85196908D01*
X125287800Y-85280928D01*
X93904433Y-85280928D01*
X93901765Y-85093686D01*
X93572683Y-84299212D01*
X93305756Y-84043850D01*
X93111505Y-84238101D01*
X92859605Y-84490000D01*
X91759605Y-85590000D01*
X91400395Y-85590000D01*
X89854244Y-84043850D01*
X89587317Y-84299212D01*
X89245037Y-85160034D01*
X88913600Y-85160034D01*
X88913600Y-83864244D01*
X90033850Y-83864244D01*
X90158676Y-83989070D01*
X90128101Y-84058496D01*
X90380000Y-84310395D01*
X90394143Y-84296253D01*
X90573748Y-84475858D01*
X90559605Y-84490000D01*
X90811504Y-84741899D01*
X90880930Y-84711325D01*
X91580000Y-85410395D01*
X92931899Y-84058496D01*
X92931899Y-84058495D01*
X93126150Y-83864244D01*
X92870788Y-83597317D01*
X92009966Y-83255037D01*
X91083686Y-83268235D01*
X90289212Y-83597317D01*
X90033850Y-83864244D01*
X88913600Y-83864244D01*
X88913600Y-82923600D01*
X130306400Y-82923600D01*
X130306400Y-112316400D01*
X130306400Y-112316400D01*
G37*
X130306400Y-112316400D02*
X88913600Y-112316400D01*
X88913600Y-111375756D01*
X90033850Y-111375756D01*
X90289212Y-111642683D01*
X91150034Y-111984963D01*
X92076314Y-111971765D01*
X92870788Y-111642683D01*
X93126150Y-111375756D01*
X92931899Y-111181505D01*
X92931899Y-111181504D01*
X91580000Y-109829605D01*
X90228101Y-111181504D01*
X90228101Y-111181505D01*
X90033850Y-111375756D01*
X88913600Y-111375756D01*
X88913600Y-109220034D01*
X89245037Y-109220034D01*
X89258235Y-110146314D01*
X89587317Y-110940788D01*
X89854244Y-111196150D01*
X90048495Y-111001899D01*
X90048496Y-111001899D01*
X91400395Y-109650000D01*
X91759605Y-109650000D01*
X93111504Y-111001899D01*
X93111505Y-111001899D01*
X93305756Y-111196150D01*
X93572683Y-110940788D01*
X93914963Y-110079966D01*
X93901765Y-109153686D01*
X93858817Y-109050000D01*
X125214607Y-109050000D01*
X125301613Y-109487407D01*
X125549384Y-109858223D01*
X125920200Y-110105994D01*
X126357607Y-110193000D01*
X126402393Y-110193000D01*
X126839800Y-110105994D01*
X127210616Y-109858223D01*
X127458387Y-109487407D01*
X127486686Y-109345135D01*
X127868432Y-109345135D01*
X127967726Y-109584886D01*
X128244906Y-109908590D01*
X128624863Y-110101581D01*
X128793000Y-110077654D01*
X128793000Y-109177000D01*
X129047000Y-109177000D01*
X129047000Y-110077654D01*
X129215137Y-110101581D01*
X129595094Y-109908590D01*
X129872274Y-109584886D01*
X129971568Y-109345135D01*
X129947229Y-109177000D01*
X129047000Y-109177000D01*
X128793000Y-109177000D01*
X127892771Y-109177000D01*
X127868432Y-109345135D01*
X127486686Y-109345135D01*
X127545393Y-109050000D01*
X127486687Y-108754865D01*
X127868432Y-108754865D01*
X127892771Y-108923000D01*
X128793000Y-108923000D01*
X128793000Y-108022346D01*
X129047000Y-108022346D01*
X129047000Y-108923000D01*
X129947229Y-108923000D01*
X129971568Y-108754865D01*
X129872274Y-108515114D01*
X129595094Y-108191410D01*
X129215137Y-107998419D01*
X129047000Y-108022346D01*
X128793000Y-108022346D01*
X128624863Y-107998419D01*
X128244906Y-108191410D01*
X127967726Y-108515114D01*
X127868432Y-108754865D01*
X127486687Y-108754865D01*
X127458387Y-108612593D01*
X127210616Y-108241777D01*
X126839800Y-107994006D01*
X126402393Y-107907000D01*
X126357607Y-107907000D01*
X125920200Y-107994006D01*
X125549384Y-108241777D01*
X125301613Y-108612593D01*
X125214607Y-109050000D01*
X93858817Y-109050000D01*
X93572683Y-108359212D01*
X93305756Y-108103850D01*
X93111505Y-108298101D01*
X92859605Y-108550000D01*
X91759605Y-109650000D01*
X91400395Y-109650000D01*
X89854244Y-108103850D01*
X89587317Y-108359212D01*
X89245037Y-109220034D01*
X88913600Y-109220034D01*
X88913600Y-107924244D01*
X90033850Y-107924244D01*
X90158676Y-108049070D01*
X90128101Y-108118496D01*
X90380000Y-108370395D01*
X90394143Y-108356253D01*
X90573748Y-108535858D01*
X90559605Y-108550000D01*
X90811504Y-108801899D01*
X90880930Y-108771325D01*
X91580000Y-109470395D01*
X92931899Y-108118496D01*
X92931899Y-108118495D01*
X93126150Y-107924244D01*
X92870788Y-107657317D01*
X92009966Y-107315037D01*
X91083686Y-107328235D01*
X90289212Y-107657317D01*
X90033850Y-107924244D01*
X88913600Y-107924244D01*
X88913600Y-106510000D01*
X125214607Y-106510000D01*
X125301613Y-106947407D01*
X125549384Y-107318223D01*
X125920200Y-107565994D01*
X126357607Y-107653000D01*
X126402393Y-107653000D01*
X126839800Y-107565994D01*
X127210616Y-107318223D01*
X127458387Y-106947407D01*
X127545393Y-106510000D01*
X127754607Y-106510000D01*
X127841613Y-106947407D01*
X128089384Y-107318223D01*
X128460200Y-107565994D01*
X128897607Y-107653000D01*
X128942393Y-107653000D01*
X129379800Y-107565994D01*
X129750616Y-107318223D01*
X129998387Y-106947407D01*
X130085393Y-106510000D01*
X129998387Y-106072593D01*
X129750616Y-105701777D01*
X129379800Y-105454006D01*
X128942393Y-105367000D01*
X128897607Y-105367000D01*
X128460200Y-105454006D01*
X128089384Y-105701777D01*
X127841613Y-106072593D01*
X127754607Y-106510000D01*
X127545393Y-106510000D01*
X127458387Y-106072593D01*
X127210616Y-105701777D01*
X126839800Y-105454006D01*
X126402393Y-105367000D01*
X126357607Y-105367000D01*
X125920200Y-105454006D01*
X125549384Y-105701777D01*
X125301613Y-106072593D01*
X125214607Y-106510000D01*
X88913600Y-106510000D01*
X88913600Y-103970000D01*
X125214607Y-103970000D01*
X125301613Y-104407407D01*
X125549384Y-104778223D01*
X125920200Y-105025994D01*
X126357607Y-105113000D01*
X126402393Y-105113000D01*
X126839800Y-105025994D01*
X127210616Y-104778223D01*
X127458387Y-104407407D01*
X127545393Y-103970000D01*
X127754607Y-103970000D01*
X127841613Y-104407407D01*
X128089384Y-104778223D01*
X128460200Y-105025994D01*
X128897607Y-105113000D01*
X128942393Y-105113000D01*
X129379800Y-105025994D01*
X129750616Y-104778223D01*
X129998387Y-104407407D01*
X130085393Y-103970000D01*
X129998387Y-103532593D01*
X129750616Y-103161777D01*
X129379800Y-102914006D01*
X128942393Y-102827000D01*
X128897607Y-102827000D01*
X128460200Y-102914006D01*
X128089384Y-103161777D01*
X127841613Y-103532593D01*
X127754607Y-103970000D01*
X127545393Y-103970000D01*
X127458387Y-103532593D01*
X127210616Y-103161777D01*
X126839800Y-102914006D01*
X126402393Y-102827000D01*
X126357607Y-102827000D01*
X125920200Y-102914006D01*
X125549384Y-103161777D01*
X125301613Y-103532593D01*
X125214607Y-103970000D01*
X88913600Y-103970000D01*
X88913600Y-102030785D01*
X107919486Y-102030785D01*
X108019814Y-102273598D01*
X108205425Y-102459533D01*
X108448062Y-102560285D01*
X108710785Y-102560514D01*
X108953598Y-102460186D01*
X109139533Y-102274575D01*
X109240285Y-102031938D01*
X109240514Y-101769215D01*
X109140186Y-101526402D01*
X109043952Y-101430000D01*
X125214607Y-101430000D01*
X125301613Y-101867407D01*
X125549384Y-102238223D01*
X125920200Y-102485994D01*
X126357607Y-102573000D01*
X126402393Y-102573000D01*
X126839800Y-102485994D01*
X127210616Y-102238223D01*
X127458387Y-101867407D01*
X127545393Y-101430000D01*
X127754607Y-101430000D01*
X127841613Y-101867407D01*
X128089384Y-102238223D01*
X128460200Y-102485994D01*
X128897607Y-102573000D01*
X128942393Y-102573000D01*
X129379800Y-102485994D01*
X129750616Y-102238223D01*
X129998387Y-101867407D01*
X130085393Y-101430000D01*
X129998387Y-100992593D01*
X129750616Y-100621777D01*
X129379800Y-100374006D01*
X128942393Y-100287000D01*
X128897607Y-100287000D01*
X128460200Y-100374006D01*
X128089384Y-100621777D01*
X127841613Y-100992593D01*
X127754607Y-101430000D01*
X127545393Y-101430000D01*
X127458387Y-100992593D01*
X127210616Y-100621777D01*
X126839800Y-100374006D01*
X126402393Y-100287000D01*
X126357607Y-100287000D01*
X125920200Y-100374006D01*
X125549384Y-100621777D01*
X125301613Y-100992593D01*
X125214607Y-101430000D01*
X109043952Y-101430000D01*
X108954575Y-101340467D01*
X108711938Y-101239715D01*
X108449215Y-101239486D01*
X108206402Y-101339814D01*
X108020467Y-101525425D01*
X107919715Y-101768062D01*
X107919486Y-102030785D01*
X88913600Y-102030785D01*
X88913600Y-100031504D01*
X92008101Y-100031504D01*
X92044094Y-100113234D01*
X92256935Y-100156790D01*
X92470243Y-100115580D01*
X92475906Y-100113234D01*
X92511899Y-100031504D01*
X92808101Y-100031504D01*
X92844094Y-100113234D01*
X93056935Y-100156790D01*
X93270243Y-100115580D01*
X93275906Y-100113234D01*
X93311899Y-100031504D01*
X93060000Y-99779605D01*
X92808101Y-100031504D01*
X92511899Y-100031504D01*
X92260000Y-99779605D01*
X92008101Y-100031504D01*
X88913600Y-100031504D01*
X88913600Y-99596935D01*
X91703210Y-99596935D01*
X91744420Y-99810243D01*
X91746766Y-99815906D01*
X91828496Y-99851899D01*
X92080395Y-99600000D01*
X92439605Y-99600000D01*
X92519175Y-99679570D01*
X92544420Y-99810243D01*
X92546766Y-99815906D01*
X92628496Y-99851899D01*
X92660000Y-99820395D01*
X92691504Y-99851899D01*
X92773234Y-99815906D01*
X92801213Y-99679182D01*
X92880395Y-99600000D01*
X93239605Y-99600000D01*
X93491504Y-99851899D01*
X93573234Y-99815906D01*
X93616790Y-99603065D01*
X93575580Y-99389757D01*
X93573234Y-99384094D01*
X93491504Y-99348101D01*
X93239605Y-99600000D01*
X92880395Y-99600000D01*
X92800825Y-99520430D01*
X92775580Y-99389757D01*
X92773234Y-99384094D01*
X92691504Y-99348101D01*
X92660000Y-99379605D01*
X92628496Y-99348101D01*
X92546766Y-99384094D01*
X92518787Y-99520818D01*
X92439605Y-99600000D01*
X92080395Y-99600000D01*
X91828496Y-99348101D01*
X91746766Y-99384094D01*
X91703210Y-99596935D01*
X88913600Y-99596935D01*
X88913600Y-99168496D01*
X92008101Y-99168496D01*
X92260000Y-99420395D01*
X92429852Y-99250543D01*
X92520243Y-99233080D01*
X92525906Y-99230734D01*
X92561899Y-99149004D01*
X92808101Y-99149004D01*
X92812393Y-99158750D01*
X92808101Y-99168496D01*
X92823440Y-99183835D01*
X92844094Y-99230734D01*
X92877092Y-99237487D01*
X93060000Y-99420395D01*
X93159610Y-99320785D01*
X103329486Y-99320785D01*
X103429814Y-99563598D01*
X103615425Y-99749533D01*
X103858062Y-99850285D01*
X104120785Y-99850514D01*
X104363598Y-99750186D01*
X104549533Y-99564575D01*
X104650285Y-99321938D01*
X104650514Y-99059215D01*
X104550186Y-98816402D01*
X104364575Y-98630467D01*
X104121938Y-98529715D01*
X103859215Y-98529486D01*
X103616402Y-98629814D01*
X103430467Y-98815425D01*
X103329715Y-99058062D01*
X103329486Y-99320785D01*
X93159610Y-99320785D01*
X93241825Y-99238570D01*
X93270243Y-99233080D01*
X93275906Y-99230734D01*
X93296560Y-99183835D01*
X93311899Y-99168496D01*
X93307607Y-99158750D01*
X93311899Y-99149004D01*
X93296560Y-99133665D01*
X93275906Y-99086766D01*
X93242908Y-99080013D01*
X93060000Y-98897105D01*
X92878175Y-99078930D01*
X92849757Y-99084420D01*
X92844094Y-99086766D01*
X92823440Y-99133665D01*
X92808101Y-99149004D01*
X92561899Y-99149004D01*
X92310000Y-98897105D01*
X92140148Y-99066957D01*
X92049757Y-99084420D01*
X92044094Y-99086766D01*
X92008101Y-99168496D01*
X88913600Y-99168496D01*
X88913600Y-98714435D01*
X91753210Y-98714435D01*
X91794420Y-98927743D01*
X91796766Y-98933406D01*
X91878496Y-98969399D01*
X92130395Y-98717500D01*
X92489605Y-98717500D01*
X92507202Y-98735097D01*
X92544420Y-98927743D01*
X92546766Y-98933406D01*
X92628496Y-98969399D01*
X92685000Y-98912895D01*
X92741504Y-98969399D01*
X92823234Y-98933406D01*
X92864078Y-98733817D01*
X92880395Y-98717500D01*
X93239605Y-98717500D01*
X93491504Y-98969399D01*
X93573234Y-98933406D01*
X93616790Y-98720565D01*
X93575580Y-98507257D01*
X93573234Y-98501594D01*
X93491504Y-98465601D01*
X93239605Y-98717500D01*
X92880395Y-98717500D01*
X92862798Y-98699903D01*
X92825580Y-98507257D01*
X92823234Y-98501594D01*
X92741504Y-98465601D01*
X92685000Y-98522105D01*
X92628496Y-98465601D01*
X92546766Y-98501594D01*
X92505922Y-98701183D01*
X92489605Y-98717500D01*
X92130395Y-98717500D01*
X91878496Y-98465601D01*
X91796766Y-98501594D01*
X91753210Y-98714435D01*
X88913600Y-98714435D01*
X88913600Y-98281504D01*
X92058101Y-98281504D01*
X92059090Y-98283750D01*
X92058101Y-98285996D01*
X92061636Y-98289531D01*
X92094094Y-98363234D01*
X92145951Y-98373846D01*
X92310000Y-98537895D01*
X92473233Y-98374662D01*
X92520243Y-98365580D01*
X92525906Y-98363234D01*
X92558364Y-98289531D01*
X92561899Y-98285996D01*
X92560910Y-98283750D01*
X92561899Y-98281504D01*
X92808101Y-98281504D01*
X92809090Y-98283750D01*
X92808101Y-98285996D01*
X92811636Y-98289531D01*
X92844094Y-98363234D01*
X92895951Y-98373846D01*
X93060000Y-98537895D01*
X93223233Y-98374662D01*
X93270243Y-98365580D01*
X93275906Y-98363234D01*
X93285792Y-98340785D01*
X104359486Y-98340785D01*
X104459814Y-98583598D01*
X104645425Y-98769533D01*
X104888062Y-98870285D01*
X105150785Y-98870514D01*
X105393598Y-98770186D01*
X105579533Y-98584575D01*
X105680285Y-98341938D01*
X105680442Y-98160785D01*
X107089486Y-98160785D01*
X107189814Y-98403598D01*
X107375425Y-98589533D01*
X107499590Y-98641091D01*
X107499486Y-98760785D01*
X107599814Y-99003598D01*
X107785425Y-99189533D01*
X108028062Y-99290285D01*
X108290785Y-99290514D01*
X108533598Y-99190186D01*
X108719533Y-99004575D01*
X108820285Y-98761938D01*
X108820514Y-98499215D01*
X108804591Y-98460678D01*
X109023598Y-98370186D01*
X109137621Y-98256362D01*
X109049715Y-98468062D01*
X109049486Y-98730785D01*
X109149814Y-98973598D01*
X109335425Y-99159533D01*
X109349692Y-99165457D01*
X109269715Y-99358062D01*
X109269486Y-99620785D01*
X109369814Y-99863598D01*
X109555425Y-100049533D01*
X109798062Y-100150285D01*
X110060785Y-100150514D01*
X110303598Y-100050186D01*
X110489533Y-99864575D01*
X110590285Y-99621938D01*
X110590514Y-99359215D01*
X110525053Y-99200785D01*
X111579486Y-99200785D01*
X111679814Y-99443598D01*
X111865425Y-99629533D01*
X112108062Y-99730285D01*
X112370785Y-99730514D01*
X112613598Y-99630186D01*
X112799533Y-99444575D01*
X112900285Y-99201938D01*
X112900514Y-98939215D01*
X112880179Y-98890000D01*
X125214607Y-98890000D01*
X125301613Y-99327407D01*
X125549384Y-99698223D01*
X125920200Y-99945994D01*
X126357607Y-100033000D01*
X126402393Y-100033000D01*
X126839800Y-99945994D01*
X127210616Y-99698223D01*
X127458387Y-99327407D01*
X127545393Y-98890000D01*
X127754607Y-98890000D01*
X127841613Y-99327407D01*
X128089384Y-99698223D01*
X128460200Y-99945994D01*
X128897607Y-100033000D01*
X128942393Y-100033000D01*
X129379800Y-99945994D01*
X129750616Y-99698223D01*
X129998387Y-99327407D01*
X130085393Y-98890000D01*
X129998387Y-98452593D01*
X129750616Y-98081777D01*
X129379800Y-97834006D01*
X128942393Y-97747000D01*
X128897607Y-97747000D01*
X128460200Y-97834006D01*
X128089384Y-98081777D01*
X127841613Y-98452593D01*
X127754607Y-98890000D01*
X127545393Y-98890000D01*
X127458387Y-98452593D01*
X127210616Y-98081777D01*
X126839800Y-97834006D01*
X126402393Y-97747000D01*
X126357607Y-97747000D01*
X125920200Y-97834006D01*
X125549384Y-98081777D01*
X125301613Y-98452593D01*
X125214607Y-98890000D01*
X112880179Y-98890000D01*
X112800186Y-98696402D01*
X112614575Y-98510467D01*
X112371938Y-98409715D01*
X112109215Y-98409486D01*
X111866402Y-98509814D01*
X111680467Y-98695425D01*
X111579715Y-98938062D01*
X111579486Y-99200785D01*
X110525053Y-99200785D01*
X110490186Y-99116402D01*
X110304575Y-98930467D01*
X110290308Y-98924543D01*
X110370285Y-98731938D01*
X110370514Y-98469215D01*
X110270186Y-98226402D01*
X110084575Y-98040467D01*
X109841938Y-97939715D01*
X109579215Y-97939486D01*
X109336402Y-98039814D01*
X109222379Y-98153638D01*
X109310285Y-97941938D01*
X109310512Y-97680785D01*
X112069486Y-97680785D01*
X112169814Y-97923598D01*
X112355425Y-98109533D01*
X112598062Y-98210285D01*
X112860785Y-98210514D01*
X113103598Y-98110186D01*
X113289533Y-97924575D01*
X113390285Y-97681938D01*
X113390381Y-97570785D01*
X113589486Y-97570785D01*
X113689814Y-97813598D01*
X113875425Y-97999533D01*
X114118062Y-98100285D01*
X114380785Y-98100514D01*
X114623598Y-98000186D01*
X114809533Y-97814575D01*
X114910285Y-97571938D01*
X114910514Y-97309215D01*
X114810186Y-97066402D01*
X114624575Y-96880467D01*
X114381938Y-96779715D01*
X114119215Y-96779486D01*
X113876402Y-96879814D01*
X113690467Y-97065425D01*
X113589715Y-97308062D01*
X113589486Y-97570785D01*
X113390381Y-97570785D01*
X113390514Y-97419215D01*
X113290186Y-97176402D01*
X113104575Y-96990467D01*
X112861938Y-96889715D01*
X112599215Y-96889486D01*
X112356402Y-96989814D01*
X112170467Y-97175425D01*
X112069715Y-97418062D01*
X112069486Y-97680785D01*
X109310512Y-97680785D01*
X109310514Y-97679215D01*
X109210186Y-97436402D01*
X109024575Y-97250467D01*
X108781938Y-97149715D01*
X108519215Y-97149486D01*
X108276402Y-97249814D01*
X108090467Y-97435425D01*
X108083072Y-97453233D01*
X107881938Y-97369715D01*
X107619215Y-97369486D01*
X107376402Y-97469814D01*
X107190467Y-97655425D01*
X107089715Y-97898062D01*
X107089486Y-98160785D01*
X105680442Y-98160785D01*
X105680514Y-98079215D01*
X105580186Y-97836402D01*
X105575742Y-97831950D01*
X105668062Y-97870285D01*
X105930785Y-97870514D01*
X106173598Y-97770186D01*
X106359533Y-97584575D01*
X106460285Y-97341938D01*
X106460514Y-97079215D01*
X106360186Y-96836402D01*
X106174575Y-96650467D01*
X105931938Y-96549715D01*
X105669215Y-96549486D01*
X105426402Y-96649814D01*
X105240467Y-96835425D01*
X105139715Y-97078062D01*
X105139486Y-97340785D01*
X105239814Y-97583598D01*
X105244258Y-97588050D01*
X105151938Y-97549715D01*
X104889215Y-97549486D01*
X104646402Y-97649814D01*
X104460467Y-97835425D01*
X104359715Y-98078062D01*
X104359486Y-98340785D01*
X93285792Y-98340785D01*
X93308364Y-98289531D01*
X93311899Y-98285996D01*
X93310910Y-98283750D01*
X93311899Y-98281504D01*
X93308364Y-98277969D01*
X93275906Y-98204266D01*
X93224049Y-98193654D01*
X93060000Y-98029605D01*
X92896767Y-98192838D01*
X92849757Y-98201920D01*
X92844094Y-98204266D01*
X92811636Y-98277969D01*
X92808101Y-98281504D01*
X92561899Y-98281504D01*
X92558364Y-98277969D01*
X92525906Y-98204266D01*
X92474049Y-98193654D01*
X92310000Y-98029605D01*
X92146767Y-98192838D01*
X92099757Y-98201920D01*
X92094094Y-98204266D01*
X92061636Y-98277969D01*
X92058101Y-98281504D01*
X88913600Y-98281504D01*
X88913600Y-97846935D01*
X91753210Y-97846935D01*
X91794420Y-98060243D01*
X91796766Y-98065906D01*
X91878496Y-98101899D01*
X92130395Y-97850000D01*
X92489605Y-97850000D01*
X92507202Y-97867597D01*
X92544420Y-98060243D01*
X92546766Y-98065906D01*
X92628496Y-98101899D01*
X92685000Y-98045395D01*
X92741504Y-98101899D01*
X92823234Y-98065906D01*
X92864078Y-97866317D01*
X92880395Y-97850000D01*
X93239605Y-97850000D01*
X93491504Y-98101899D01*
X93573234Y-98065906D01*
X93616790Y-97853065D01*
X93575580Y-97639757D01*
X93573234Y-97634094D01*
X93491504Y-97598101D01*
X93239605Y-97850000D01*
X92880395Y-97850000D01*
X92862798Y-97832403D01*
X92825580Y-97639757D01*
X92823234Y-97634094D01*
X92741504Y-97598101D01*
X92685000Y-97654605D01*
X92628496Y-97598101D01*
X92546766Y-97634094D01*
X92505922Y-97833683D01*
X92489605Y-97850000D01*
X92130395Y-97850000D01*
X91878496Y-97598101D01*
X91796766Y-97634094D01*
X91753210Y-97846935D01*
X88913600Y-97846935D01*
X88913600Y-97418496D01*
X92058101Y-97418496D01*
X92310000Y-97670395D01*
X92561899Y-97418496D01*
X92808101Y-97418496D01*
X93060000Y-97670395D01*
X93311899Y-97418496D01*
X93275906Y-97336766D01*
X93063065Y-97293210D01*
X92849757Y-97334420D01*
X92844094Y-97336766D01*
X92808101Y-97418496D01*
X92561899Y-97418496D01*
X92525906Y-97336766D01*
X92313065Y-97293210D01*
X92099757Y-97334420D01*
X92094094Y-97336766D01*
X92058101Y-97418496D01*
X88913600Y-97418496D01*
X88913600Y-96350000D01*
X125214607Y-96350000D01*
X125301613Y-96787407D01*
X125549384Y-97158223D01*
X125920200Y-97405994D01*
X126357607Y-97493000D01*
X126402393Y-97493000D01*
X126839800Y-97405994D01*
X127210616Y-97158223D01*
X127458387Y-96787407D01*
X127545393Y-96350000D01*
X127754607Y-96350000D01*
X127841613Y-96787407D01*
X128089384Y-97158223D01*
X128460200Y-97405994D01*
X128897607Y-97493000D01*
X128942393Y-97493000D01*
X129379800Y-97405994D01*
X129750616Y-97158223D01*
X129998387Y-96787407D01*
X130085393Y-96350000D01*
X129998387Y-95912593D01*
X129750616Y-95541777D01*
X129379800Y-95294006D01*
X128942393Y-95207000D01*
X128897607Y-95207000D01*
X128460200Y-95294006D01*
X128089384Y-95541777D01*
X127841613Y-95912593D01*
X127754607Y-96350000D01*
X127545393Y-96350000D01*
X127458387Y-95912593D01*
X127210616Y-95541777D01*
X126839800Y-95294006D01*
X126402393Y-95207000D01*
X126357607Y-95207000D01*
X125920200Y-95294006D01*
X125549384Y-95541777D01*
X125301613Y-95912593D01*
X125214607Y-96350000D01*
X88913600Y-96350000D01*
X88913600Y-95748504D01*
X107488101Y-95748504D01*
X107524094Y-95830234D01*
X107736935Y-95873790D01*
X107950243Y-95832580D01*
X107955906Y-95830234D01*
X107991899Y-95748504D01*
X108618101Y-95748504D01*
X108654094Y-95830234D01*
X108866935Y-95873790D01*
X109080243Y-95832580D01*
X109085906Y-95830234D01*
X109121899Y-95748504D01*
X109748101Y-95748504D01*
X109784094Y-95830234D01*
X109996935Y-95873790D01*
X110210243Y-95832580D01*
X110215906Y-95830234D01*
X110251899Y-95748504D01*
X110878101Y-95748504D01*
X110914094Y-95830234D01*
X111126935Y-95873790D01*
X111340243Y-95832580D01*
X111345906Y-95830234D01*
X111381899Y-95748504D01*
X112008101Y-95748504D01*
X112044094Y-95830234D01*
X112256935Y-95873790D01*
X112470243Y-95832580D01*
X112475906Y-95830234D01*
X112511899Y-95748504D01*
X112260000Y-95496605D01*
X112008101Y-95748504D01*
X111381899Y-95748504D01*
X111130000Y-95496605D01*
X110878101Y-95748504D01*
X110251899Y-95748504D01*
X110000000Y-95496605D01*
X109748101Y-95748504D01*
X109121899Y-95748504D01*
X108870000Y-95496605D01*
X108618101Y-95748504D01*
X107991899Y-95748504D01*
X107740000Y-95496605D01*
X107488101Y-95748504D01*
X88913600Y-95748504D01*
X88913600Y-95313935D01*
X107183210Y-95313935D01*
X107224420Y-95527243D01*
X107226766Y-95532906D01*
X107308496Y-95568899D01*
X107560395Y-95317000D01*
X107919605Y-95317000D01*
X108171504Y-95568899D01*
X108253234Y-95532906D01*
X108296790Y-95320065D01*
X108295606Y-95313935D01*
X108313210Y-95313935D01*
X108354420Y-95527243D01*
X108356766Y-95532906D01*
X108438496Y-95568899D01*
X108690395Y-95317000D01*
X109049605Y-95317000D01*
X109301504Y-95568899D01*
X109383234Y-95532906D01*
X109426790Y-95320065D01*
X109425606Y-95313935D01*
X109443210Y-95313935D01*
X109484420Y-95527243D01*
X109486766Y-95532906D01*
X109568496Y-95568899D01*
X109820395Y-95317000D01*
X110179605Y-95317000D01*
X110431504Y-95568899D01*
X110513234Y-95532906D01*
X110556790Y-95320065D01*
X110555606Y-95313935D01*
X110573210Y-95313935D01*
X110614420Y-95527243D01*
X110616766Y-95532906D01*
X110698496Y-95568899D01*
X110950395Y-95317000D01*
X111309605Y-95317000D01*
X111561504Y-95568899D01*
X111643234Y-95532906D01*
X111686790Y-95320065D01*
X111685606Y-95313935D01*
X111703210Y-95313935D01*
X111744420Y-95527243D01*
X111746766Y-95532906D01*
X111828496Y-95568899D01*
X112080395Y-95317000D01*
X112439605Y-95317000D01*
X112691504Y-95568899D01*
X112773234Y-95532906D01*
X112816790Y-95320065D01*
X112775580Y-95106757D01*
X112773234Y-95101094D01*
X112691504Y-95065101D01*
X112439605Y-95317000D01*
X112080395Y-95317000D01*
X111828496Y-95065101D01*
X111746766Y-95101094D01*
X111703210Y-95313935D01*
X111685606Y-95313935D01*
X111645580Y-95106757D01*
X111643234Y-95101094D01*
X111561504Y-95065101D01*
X111309605Y-95317000D01*
X110950395Y-95317000D01*
X110698496Y-95065101D01*
X110616766Y-95101094D01*
X110573210Y-95313935D01*
X110555606Y-95313935D01*
X110515580Y-95106757D01*
X110513234Y-95101094D01*
X110431504Y-95065101D01*
X110179605Y-95317000D01*
X109820395Y-95317000D01*
X109568496Y-95065101D01*
X109486766Y-95101094D01*
X109443210Y-95313935D01*
X109425606Y-95313935D01*
X109385580Y-95106757D01*
X109383234Y-95101094D01*
X109301504Y-95065101D01*
X109049605Y-95317000D01*
X108690395Y-95317000D01*
X108438496Y-95065101D01*
X108356766Y-95101094D01*
X108313210Y-95313935D01*
X108295606Y-95313935D01*
X108255580Y-95106757D01*
X108253234Y-95101094D01*
X108171504Y-95065101D01*
X107919605Y-95317000D01*
X107560395Y-95317000D01*
X107308496Y-95065101D01*
X107226766Y-95101094D01*
X107183210Y-95313935D01*
X88913600Y-95313935D01*
X88913600Y-94885496D01*
X107488101Y-94885496D01*
X107740000Y-95137395D01*
X107991899Y-94885496D01*
X108618101Y-94885496D01*
X108870000Y-95137395D01*
X109121899Y-94885496D01*
X109748101Y-94885496D01*
X110000000Y-95137395D01*
X110251899Y-94885496D01*
X110878101Y-94885496D01*
X111130000Y-95137395D01*
X111381899Y-94885496D01*
X112008101Y-94885496D01*
X112260000Y-95137395D01*
X112511899Y-94885496D01*
X112475906Y-94803766D01*
X112263065Y-94760210D01*
X112049757Y-94801420D01*
X112044094Y-94803766D01*
X112008101Y-94885496D01*
X111381899Y-94885496D01*
X111345906Y-94803766D01*
X111133065Y-94760210D01*
X110919757Y-94801420D01*
X110914094Y-94803766D01*
X110878101Y-94885496D01*
X110251899Y-94885496D01*
X110215906Y-94803766D01*
X110003065Y-94760210D01*
X109789757Y-94801420D01*
X109784094Y-94803766D01*
X109748101Y-94885496D01*
X109121899Y-94885496D01*
X109085906Y-94803766D01*
X108873065Y-94760210D01*
X108659757Y-94801420D01*
X108654094Y-94803766D01*
X108618101Y-94885496D01*
X107991899Y-94885496D01*
X107955906Y-94803766D01*
X107743065Y-94760210D01*
X107529757Y-94801420D01*
X107524094Y-94803766D01*
X107488101Y-94885496D01*
X88913600Y-94885496D01*
X88913600Y-94532504D01*
X107488101Y-94532504D01*
X107524094Y-94614234D01*
X107736935Y-94657790D01*
X107950243Y-94616580D01*
X107955906Y-94614234D01*
X107991899Y-94532504D01*
X108618101Y-94532504D01*
X108654094Y-94614234D01*
X108866935Y-94657790D01*
X109080243Y-94616580D01*
X109085906Y-94614234D01*
X109121899Y-94532504D01*
X109748101Y-94532504D01*
X109784094Y-94614234D01*
X109996935Y-94657790D01*
X110210243Y-94616580D01*
X110215906Y-94614234D01*
X110251899Y-94532504D01*
X110878101Y-94532504D01*
X110914094Y-94614234D01*
X111126935Y-94657790D01*
X111340243Y-94616580D01*
X111345906Y-94614234D01*
X111381899Y-94532504D01*
X112008101Y-94532504D01*
X112044094Y-94614234D01*
X112256935Y-94657790D01*
X112470243Y-94616580D01*
X112475906Y-94614234D01*
X112511899Y-94532504D01*
X112260000Y-94280605D01*
X112008101Y-94532504D01*
X111381899Y-94532504D01*
X111130000Y-94280605D01*
X110878101Y-94532504D01*
X110251899Y-94532504D01*
X110000000Y-94280605D01*
X109748101Y-94532504D01*
X109121899Y-94532504D01*
X108870000Y-94280605D01*
X108618101Y-94532504D01*
X107991899Y-94532504D01*
X107740000Y-94280605D01*
X107488101Y-94532504D01*
X88913600Y-94532504D01*
X88913600Y-94097935D01*
X107183210Y-94097935D01*
X107224420Y-94311243D01*
X107226766Y-94316906D01*
X107308496Y-94352899D01*
X107560395Y-94101000D01*
X107919605Y-94101000D01*
X108171504Y-94352899D01*
X108253234Y-94316906D01*
X108296790Y-94104065D01*
X108295606Y-94097935D01*
X108313210Y-94097935D01*
X108354420Y-94311243D01*
X108356766Y-94316906D01*
X108438496Y-94352899D01*
X108690395Y-94101000D01*
X109049605Y-94101000D01*
X109301504Y-94352899D01*
X109383234Y-94316906D01*
X109426790Y-94104065D01*
X109425606Y-94097935D01*
X109443210Y-94097935D01*
X109484420Y-94311243D01*
X109486766Y-94316906D01*
X109568496Y-94352899D01*
X109820395Y-94101000D01*
X110179605Y-94101000D01*
X110431504Y-94352899D01*
X110513234Y-94316906D01*
X110556790Y-94104065D01*
X110555606Y-94097935D01*
X110573210Y-94097935D01*
X110614420Y-94311243D01*
X110616766Y-94316906D01*
X110698496Y-94352899D01*
X110950395Y-94101000D01*
X111309605Y-94101000D01*
X111561504Y-94352899D01*
X111643234Y-94316906D01*
X111686790Y-94104065D01*
X111685606Y-94097935D01*
X111703210Y-94097935D01*
X111744420Y-94311243D01*
X111746766Y-94316906D01*
X111828496Y-94352899D01*
X112080395Y-94101000D01*
X112439605Y-94101000D01*
X112691504Y-94352899D01*
X112773234Y-94316906D01*
X112816571Y-94105135D01*
X125328432Y-94105135D01*
X125427726Y-94344886D01*
X125704906Y-94668590D01*
X126084863Y-94861581D01*
X126253000Y-94837654D01*
X126253000Y-93937000D01*
X126507000Y-93937000D01*
X126507000Y-94837654D01*
X126675137Y-94861581D01*
X127055094Y-94668590D01*
X127332274Y-94344886D01*
X127431568Y-94105135D01*
X127407229Y-93937000D01*
X126507000Y-93937000D01*
X126253000Y-93937000D01*
X125352771Y-93937000D01*
X125328432Y-94105135D01*
X112816571Y-94105135D01*
X112816790Y-94104065D01*
X112775580Y-93890757D01*
X112773234Y-93885094D01*
X112691504Y-93849101D01*
X112439605Y-94101000D01*
X112080395Y-94101000D01*
X111828496Y-93849101D01*
X111746766Y-93885094D01*
X111703210Y-94097935D01*
X111685606Y-94097935D01*
X111645580Y-93890757D01*
X111643234Y-93885094D01*
X111561504Y-93849101D01*
X111309605Y-94101000D01*
X110950395Y-94101000D01*
X110698496Y-93849101D01*
X110616766Y-93885094D01*
X110573210Y-94097935D01*
X110555606Y-94097935D01*
X110515580Y-93890757D01*
X110513234Y-93885094D01*
X110431504Y-93849101D01*
X110179605Y-94101000D01*
X109820395Y-94101000D01*
X109568496Y-93849101D01*
X109486766Y-93885094D01*
X109443210Y-94097935D01*
X109425606Y-94097935D01*
X109385580Y-93890757D01*
X109383234Y-93885094D01*
X109301504Y-93849101D01*
X109049605Y-94101000D01*
X108690395Y-94101000D01*
X108438496Y-93849101D01*
X108356766Y-93885094D01*
X108313210Y-94097935D01*
X108295606Y-94097935D01*
X108255580Y-93890757D01*
X108253234Y-93885094D01*
X108171504Y-93849101D01*
X107919605Y-94101000D01*
X107560395Y-94101000D01*
X107308496Y-93849101D01*
X107226766Y-93885094D01*
X107183210Y-94097935D01*
X88913600Y-94097935D01*
X88913600Y-93669496D01*
X107488101Y-93669496D01*
X107740000Y-93921395D01*
X107991899Y-93669496D01*
X108618101Y-93669496D01*
X108870000Y-93921395D01*
X109121899Y-93669496D01*
X109748101Y-93669496D01*
X110000000Y-93921395D01*
X110251899Y-93669496D01*
X110878101Y-93669496D01*
X111130000Y-93921395D01*
X111381899Y-93669496D01*
X112008101Y-93669496D01*
X112260000Y-93921395D01*
X112371395Y-93810000D01*
X127754607Y-93810000D01*
X127841613Y-94247407D01*
X128089384Y-94618223D01*
X128460200Y-94865994D01*
X128897607Y-94953000D01*
X128942393Y-94953000D01*
X129379800Y-94865994D01*
X129750616Y-94618223D01*
X129998387Y-94247407D01*
X130085393Y-93810000D01*
X129998387Y-93372593D01*
X129750616Y-93001777D01*
X129379800Y-92754006D01*
X128942393Y-92667000D01*
X128897607Y-92667000D01*
X128460200Y-92754006D01*
X128089384Y-93001777D01*
X127841613Y-93372593D01*
X127754607Y-93810000D01*
X112371395Y-93810000D01*
X112511899Y-93669496D01*
X112475906Y-93587766D01*
X112263065Y-93544210D01*
X112049757Y-93585420D01*
X112044094Y-93587766D01*
X112008101Y-93669496D01*
X111381899Y-93669496D01*
X111345906Y-93587766D01*
X111133065Y-93544210D01*
X110919757Y-93585420D01*
X110914094Y-93587766D01*
X110878101Y-93669496D01*
X110251899Y-93669496D01*
X110215906Y-93587766D01*
X110003065Y-93544210D01*
X109789757Y-93585420D01*
X109784094Y-93587766D01*
X109748101Y-93669496D01*
X109121899Y-93669496D01*
X109085906Y-93587766D01*
X108873065Y-93544210D01*
X108659757Y-93585420D01*
X108654094Y-93587766D01*
X108618101Y-93669496D01*
X107991899Y-93669496D01*
X107955906Y-93587766D01*
X107743065Y-93544210D01*
X107529757Y-93585420D01*
X107524094Y-93587766D01*
X107488101Y-93669496D01*
X88913600Y-93669496D01*
X88913600Y-93514865D01*
X125328432Y-93514865D01*
X125352771Y-93683000D01*
X126253000Y-93683000D01*
X126253000Y-92782346D01*
X126507000Y-92782346D01*
X126507000Y-93683000D01*
X127407229Y-93683000D01*
X127431568Y-93514865D01*
X127332274Y-93275114D01*
X127055094Y-92951410D01*
X126675137Y-92758419D01*
X126507000Y-92782346D01*
X126253000Y-92782346D01*
X126084863Y-92758419D01*
X125704906Y-92951410D01*
X125427726Y-93275114D01*
X125328432Y-93514865D01*
X88913600Y-93514865D01*
X88913600Y-93316504D01*
X107488101Y-93316504D01*
X107524094Y-93398234D01*
X107736935Y-93441790D01*
X107950243Y-93400580D01*
X107955906Y-93398234D01*
X107991899Y-93316504D01*
X108618101Y-93316504D01*
X108654094Y-93398234D01*
X108866935Y-93441790D01*
X109080243Y-93400580D01*
X109085906Y-93398234D01*
X109121899Y-93316504D01*
X109748101Y-93316504D01*
X109784094Y-93398234D01*
X109996935Y-93441790D01*
X110210243Y-93400580D01*
X110215906Y-93398234D01*
X110251899Y-93316504D01*
X110878101Y-93316504D01*
X110914094Y-93398234D01*
X111126935Y-93441790D01*
X111340243Y-93400580D01*
X111345906Y-93398234D01*
X111381899Y-93316504D01*
X112008101Y-93316504D01*
X112044094Y-93398234D01*
X112256935Y-93441790D01*
X112470243Y-93400580D01*
X112475906Y-93398234D01*
X112511899Y-93316504D01*
X112260000Y-93064605D01*
X112008101Y-93316504D01*
X111381899Y-93316504D01*
X111130000Y-93064605D01*
X110878101Y-93316504D01*
X110251899Y-93316504D01*
X110000000Y-93064605D01*
X109748101Y-93316504D01*
X109121899Y-93316504D01*
X108870000Y-93064605D01*
X108618101Y-93316504D01*
X107991899Y-93316504D01*
X107740000Y-93064605D01*
X107488101Y-93316504D01*
X88913600Y-93316504D01*
X88913600Y-92881935D01*
X107183210Y-92881935D01*
X107224420Y-93095243D01*
X107226766Y-93100906D01*
X107308496Y-93136899D01*
X107560395Y-92885000D01*
X107919605Y-92885000D01*
X108171504Y-93136899D01*
X108253234Y-93100906D01*
X108296790Y-92888065D01*
X108295606Y-92881935D01*
X108313210Y-92881935D01*
X108354420Y-93095243D01*
X108356766Y-93100906D01*
X108438496Y-93136899D01*
X108690395Y-92885000D01*
X109049605Y-92885000D01*
X109301504Y-93136899D01*
X109383234Y-93100906D01*
X109426790Y-92888065D01*
X109425606Y-92881935D01*
X109443210Y-92881935D01*
X109484420Y-93095243D01*
X109486766Y-93100906D01*
X109568496Y-93136899D01*
X109820395Y-92885000D01*
X110179605Y-92885000D01*
X110431504Y-93136899D01*
X110513234Y-93100906D01*
X110556790Y-92888065D01*
X110555606Y-92881935D01*
X110573210Y-92881935D01*
X110614420Y-93095243D01*
X110616766Y-93100906D01*
X110698496Y-93136899D01*
X110950395Y-92885000D01*
X111309605Y-92885000D01*
X111561504Y-93136899D01*
X111643234Y-93100906D01*
X111686790Y-92888065D01*
X111685606Y-92881935D01*
X111703210Y-92881935D01*
X111744420Y-93095243D01*
X111746766Y-93100906D01*
X111828496Y-93136899D01*
X112080395Y-92885000D01*
X112439605Y-92885000D01*
X112691504Y-93136899D01*
X112773234Y-93100906D01*
X112816790Y-92888065D01*
X112775580Y-92674757D01*
X112773234Y-92669094D01*
X112691504Y-92633101D01*
X112439605Y-92885000D01*
X112080395Y-92885000D01*
X111828496Y-92633101D01*
X111746766Y-92669094D01*
X111703210Y-92881935D01*
X111685606Y-92881935D01*
X111645580Y-92674757D01*
X111643234Y-92669094D01*
X111561504Y-92633101D01*
X111309605Y-92885000D01*
X110950395Y-92885000D01*
X110698496Y-92633101D01*
X110616766Y-92669094D01*
X110573210Y-92881935D01*
X110555606Y-92881935D01*
X110515580Y-92674757D01*
X110513234Y-92669094D01*
X110431504Y-92633101D01*
X110179605Y-92885000D01*
X109820395Y-92885000D01*
X109568496Y-92633101D01*
X109486766Y-92669094D01*
X109443210Y-92881935D01*
X109425606Y-92881935D01*
X109385580Y-92674757D01*
X109383234Y-92669094D01*
X109301504Y-92633101D01*
X109049605Y-92885000D01*
X108690395Y-92885000D01*
X108438496Y-92633101D01*
X108356766Y-92669094D01*
X108313210Y-92881935D01*
X108295606Y-92881935D01*
X108255580Y-92674757D01*
X108253234Y-92669094D01*
X108171504Y-92633101D01*
X107919605Y-92885000D01*
X107560395Y-92885000D01*
X107308496Y-92633101D01*
X107226766Y-92669094D01*
X107183210Y-92881935D01*
X88913600Y-92881935D01*
X88913600Y-92453496D01*
X107488101Y-92453496D01*
X107740000Y-92705395D01*
X107991899Y-92453496D01*
X108618101Y-92453496D01*
X108870000Y-92705395D01*
X109121899Y-92453496D01*
X109748101Y-92453496D01*
X110000000Y-92705395D01*
X110251899Y-92453496D01*
X110878101Y-92453496D01*
X111130000Y-92705395D01*
X111381899Y-92453496D01*
X112008101Y-92453496D01*
X112260000Y-92705395D01*
X112511899Y-92453496D01*
X112475906Y-92371766D01*
X112263065Y-92328210D01*
X112049757Y-92369420D01*
X112044094Y-92371766D01*
X112008101Y-92453496D01*
X111381899Y-92453496D01*
X111345906Y-92371766D01*
X111133065Y-92328210D01*
X110919757Y-92369420D01*
X110914094Y-92371766D01*
X110878101Y-92453496D01*
X110251899Y-92453496D01*
X110215906Y-92371766D01*
X110003065Y-92328210D01*
X109789757Y-92369420D01*
X109784094Y-92371766D01*
X109748101Y-92453496D01*
X109121899Y-92453496D01*
X109085906Y-92371766D01*
X108873065Y-92328210D01*
X108659757Y-92369420D01*
X108654094Y-92371766D01*
X108618101Y-92453496D01*
X107991899Y-92453496D01*
X107955906Y-92371766D01*
X107743065Y-92328210D01*
X107529757Y-92369420D01*
X107524094Y-92371766D01*
X107488101Y-92453496D01*
X88913600Y-92453496D01*
X88913600Y-91281504D01*
X92008101Y-91281504D01*
X92044094Y-91363234D01*
X92256935Y-91406790D01*
X92470243Y-91365580D01*
X92475906Y-91363234D01*
X92511899Y-91281504D01*
X92808101Y-91281504D01*
X92844094Y-91363234D01*
X93056935Y-91406790D01*
X93270243Y-91365580D01*
X93275906Y-91363234D01*
X93311899Y-91281504D01*
X93060000Y-91029605D01*
X92808101Y-91281504D01*
X92511899Y-91281504D01*
X92260000Y-91029605D01*
X92008101Y-91281504D01*
X88913600Y-91281504D01*
X88913600Y-90846935D01*
X91703210Y-90846935D01*
X91744420Y-91060243D01*
X91746766Y-91065906D01*
X91828496Y-91101899D01*
X92080395Y-90850000D01*
X92439605Y-90850000D01*
X92519175Y-90929570D01*
X92544420Y-91060243D01*
X92546766Y-91065906D01*
X92628496Y-91101899D01*
X92660000Y-91070395D01*
X92691504Y-91101899D01*
X92773234Y-91065906D01*
X92801213Y-90929182D01*
X92880395Y-90850000D01*
X93239605Y-90850000D01*
X93491504Y-91101899D01*
X93573234Y-91065906D01*
X93616790Y-90853065D01*
X93575580Y-90639757D01*
X93573234Y-90634094D01*
X93543013Y-90620785D01*
X103519486Y-90620785D01*
X103619814Y-90863598D01*
X103805425Y-91049533D01*
X104048062Y-91150285D01*
X104310785Y-91150514D01*
X104553598Y-91050186D01*
X104554979Y-91048807D01*
X104715425Y-91209533D01*
X104958062Y-91310285D01*
X105220785Y-91310514D01*
X105269530Y-91290373D01*
X105269486Y-91340785D01*
X105369814Y-91583598D01*
X105555425Y-91769533D01*
X105798062Y-91870285D01*
X106060785Y-91870514D01*
X106303598Y-91770186D01*
X106489533Y-91584575D01*
X106590285Y-91341938D01*
X106590310Y-91312914D01*
X106608062Y-91320285D01*
X106870785Y-91320514D01*
X107113598Y-91220186D01*
X107299533Y-91034575D01*
X107400285Y-90791938D01*
X107400514Y-90529215D01*
X107367926Y-90450346D01*
X107537629Y-90450494D01*
X107629814Y-90673598D01*
X107815425Y-90859533D01*
X108058062Y-90960285D01*
X108320785Y-90960514D01*
X108563598Y-90860186D01*
X108749533Y-90674575D01*
X108850285Y-90431938D01*
X108850295Y-90420322D01*
X109031168Y-90420479D01*
X109019715Y-90448062D01*
X109019486Y-90710785D01*
X109119814Y-90953598D01*
X109305425Y-91139533D01*
X109548062Y-91240285D01*
X109810785Y-91240514D01*
X110053598Y-91140186D01*
X110239533Y-90954575D01*
X110340285Y-90711938D01*
X110340514Y-90449215D01*
X110240186Y-90206402D01*
X110054575Y-90020467D01*
X109811938Y-89919715D01*
X109588832Y-89919521D01*
X109600285Y-89891938D01*
X109600514Y-89629215D01*
X109500186Y-89386402D01*
X109314575Y-89200467D01*
X109071938Y-89099715D01*
X108809215Y-89099486D01*
X108566402Y-89199814D01*
X108380467Y-89385425D01*
X108279715Y-89628062D01*
X108279705Y-89639678D01*
X108082371Y-89639506D01*
X107990186Y-89416402D01*
X107804575Y-89230467D01*
X107561938Y-89129715D01*
X107299215Y-89129486D01*
X107056402Y-89229814D01*
X106870467Y-89415425D01*
X106769715Y-89658062D01*
X106769486Y-89920785D01*
X106802074Y-89999654D01*
X106683905Y-89999551D01*
X106720285Y-89911938D01*
X106720514Y-89649215D01*
X106620186Y-89406402D01*
X106434575Y-89220467D01*
X106191938Y-89119715D01*
X105929215Y-89119486D01*
X105686402Y-89219814D01*
X105500467Y-89405425D01*
X105399715Y-89648062D01*
X105399486Y-89910785D01*
X105480194Y-90106113D01*
X105464575Y-90090467D01*
X105221938Y-89989715D01*
X104959215Y-89989486D01*
X104716402Y-90089814D01*
X104715021Y-90091193D01*
X104554575Y-89930467D01*
X104311938Y-89829715D01*
X104049215Y-89829486D01*
X103806402Y-89929814D01*
X103620467Y-90115425D01*
X103519715Y-90358062D01*
X103519486Y-90620785D01*
X93543013Y-90620785D01*
X93491504Y-90598101D01*
X93239605Y-90850000D01*
X92880395Y-90850000D01*
X92800825Y-90770430D01*
X92775580Y-90639757D01*
X92773234Y-90634094D01*
X92691504Y-90598101D01*
X92660000Y-90629605D01*
X92628496Y-90598101D01*
X92546766Y-90634094D01*
X92518787Y-90770818D01*
X92439605Y-90850000D01*
X92080395Y-90850000D01*
X91828496Y-90598101D01*
X91746766Y-90634094D01*
X91703210Y-90846935D01*
X88913600Y-90846935D01*
X88913600Y-90418496D01*
X92008101Y-90418496D01*
X92260000Y-90670395D01*
X92429852Y-90500543D01*
X92520243Y-90483080D01*
X92525906Y-90480734D01*
X92561899Y-90399004D01*
X92808101Y-90399004D01*
X92812393Y-90408750D01*
X92808101Y-90418496D01*
X92823440Y-90433835D01*
X92844094Y-90480734D01*
X92877092Y-90487487D01*
X93060000Y-90670395D01*
X93241825Y-90488570D01*
X93270243Y-90483080D01*
X93275906Y-90480734D01*
X93296560Y-90433835D01*
X93311899Y-90418496D01*
X93307607Y-90408750D01*
X93311899Y-90399004D01*
X93296560Y-90383665D01*
X93275906Y-90336766D01*
X93242908Y-90330013D01*
X93060000Y-90147105D01*
X92878175Y-90328930D01*
X92849757Y-90334420D01*
X92844094Y-90336766D01*
X92823440Y-90383665D01*
X92808101Y-90399004D01*
X92561899Y-90399004D01*
X92310000Y-90147105D01*
X92140148Y-90316957D01*
X92049757Y-90334420D01*
X92044094Y-90336766D01*
X92008101Y-90418496D01*
X88913600Y-90418496D01*
X88913600Y-89964435D01*
X91753210Y-89964435D01*
X91794420Y-90177743D01*
X91796766Y-90183406D01*
X91878496Y-90219399D01*
X92130395Y-89967500D01*
X92489605Y-89967500D01*
X92507202Y-89985097D01*
X92544420Y-90177743D01*
X92546766Y-90183406D01*
X92628496Y-90219399D01*
X92685000Y-90162895D01*
X92741504Y-90219399D01*
X92823234Y-90183406D01*
X92864078Y-89983817D01*
X92880395Y-89967500D01*
X93239605Y-89967500D01*
X93491504Y-90219399D01*
X93573234Y-90183406D01*
X93616790Y-89970565D01*
X93575580Y-89757257D01*
X93573234Y-89751594D01*
X93491504Y-89715601D01*
X93239605Y-89967500D01*
X92880395Y-89967500D01*
X92862798Y-89949903D01*
X92825580Y-89757257D01*
X92823234Y-89751594D01*
X92741504Y-89715601D01*
X92685000Y-89772105D01*
X92628496Y-89715601D01*
X92546766Y-89751594D01*
X92505922Y-89951183D01*
X92489605Y-89967500D01*
X92130395Y-89967500D01*
X91878496Y-89715601D01*
X91796766Y-89751594D01*
X91753210Y-89964435D01*
X88913600Y-89964435D01*
X88913600Y-89531504D01*
X92058101Y-89531504D01*
X92059090Y-89533750D01*
X92058101Y-89535996D01*
X92061636Y-89539531D01*
X92094094Y-89613234D01*
X92145951Y-89623846D01*
X92310000Y-89787895D01*
X92473233Y-89624662D01*
X92520243Y-89615580D01*
X92525906Y-89613234D01*
X92558364Y-89539531D01*
X92561899Y-89535996D01*
X92560910Y-89533750D01*
X92561899Y-89531504D01*
X92808101Y-89531504D01*
X92809090Y-89533750D01*
X92808101Y-89535996D01*
X92811636Y-89539531D01*
X92844094Y-89613234D01*
X92895951Y-89623846D01*
X93060000Y-89787895D01*
X93223233Y-89624662D01*
X93270243Y-89615580D01*
X93275906Y-89613234D01*
X93308364Y-89539531D01*
X93311899Y-89535996D01*
X93310910Y-89533750D01*
X93311899Y-89531504D01*
X93308364Y-89527969D01*
X93275906Y-89454266D01*
X93224049Y-89443654D01*
X93060000Y-89279605D01*
X92896767Y-89442838D01*
X92849757Y-89451920D01*
X92844094Y-89454266D01*
X92811636Y-89527969D01*
X92808101Y-89531504D01*
X92561899Y-89531504D01*
X92558364Y-89527969D01*
X92525906Y-89454266D01*
X92474049Y-89443654D01*
X92310000Y-89279605D01*
X92146767Y-89442838D01*
X92099757Y-89451920D01*
X92094094Y-89454266D01*
X92061636Y-89527969D01*
X92058101Y-89531504D01*
X88913600Y-89531504D01*
X88913600Y-89096935D01*
X91753210Y-89096935D01*
X91794420Y-89310243D01*
X91796766Y-89315906D01*
X91878496Y-89351899D01*
X92130395Y-89100000D01*
X92489605Y-89100000D01*
X92507202Y-89117597D01*
X92544420Y-89310243D01*
X92546766Y-89315906D01*
X92628496Y-89351899D01*
X92685000Y-89295395D01*
X92741504Y-89351899D01*
X92823234Y-89315906D01*
X92864078Y-89116317D01*
X92880395Y-89100000D01*
X93239605Y-89100000D01*
X93491504Y-89351899D01*
X93573234Y-89315906D01*
X93616790Y-89103065D01*
X93575580Y-88889757D01*
X93573234Y-88884094D01*
X93491504Y-88848101D01*
X93239605Y-89100000D01*
X92880395Y-89100000D01*
X92862798Y-89082403D01*
X92825580Y-88889757D01*
X92823234Y-88884094D01*
X92741504Y-88848101D01*
X92685000Y-88904605D01*
X92628496Y-88848101D01*
X92546766Y-88884094D01*
X92505922Y-89083683D01*
X92489605Y-89100000D01*
X92130395Y-89100000D01*
X91878496Y-88848101D01*
X91796766Y-88884094D01*
X91753210Y-89096935D01*
X88913600Y-89096935D01*
X88913600Y-88668496D01*
X92058101Y-88668496D01*
X92310000Y-88920395D01*
X92561899Y-88668496D01*
X92808101Y-88668496D01*
X93060000Y-88920395D01*
X93311899Y-88668496D01*
X93282080Y-88600785D01*
X110059486Y-88600785D01*
X110159814Y-88843598D01*
X110345425Y-89029533D01*
X110588062Y-89130285D01*
X110850785Y-89130514D01*
X111093598Y-89030186D01*
X111279533Y-88844575D01*
X111379650Y-88603468D01*
X111461079Y-88685040D01*
X111330467Y-88815425D01*
X111229715Y-89058062D01*
X111229486Y-89320785D01*
X111329814Y-89563598D01*
X111455984Y-89689988D01*
X111410467Y-89735425D01*
X111309715Y-89978062D01*
X111309486Y-90240785D01*
X111409814Y-90483598D01*
X111595425Y-90669533D01*
X111838062Y-90770285D01*
X112099521Y-90770513D01*
X112099486Y-90810785D01*
X112199814Y-91053598D01*
X112385425Y-91239533D01*
X112628062Y-91340285D01*
X112782717Y-91340420D01*
X112729715Y-91468062D01*
X112729486Y-91730785D01*
X112829814Y-91973598D01*
X113015425Y-92159533D01*
X113258062Y-92260285D01*
X113520785Y-92260514D01*
X113763598Y-92160186D01*
X113949533Y-91974575D01*
X113983791Y-91892073D01*
X114148062Y-91960285D01*
X114410785Y-91960514D01*
X114653598Y-91860186D01*
X114839533Y-91674575D01*
X114940285Y-91431938D01*
X114940426Y-91270000D01*
X125214607Y-91270000D01*
X125301613Y-91707407D01*
X125549384Y-92078223D01*
X125920200Y-92325994D01*
X126357607Y-92413000D01*
X126402393Y-92413000D01*
X126839800Y-92325994D01*
X127210616Y-92078223D01*
X127458387Y-91707407D01*
X127545393Y-91270000D01*
X127754607Y-91270000D01*
X127841613Y-91707407D01*
X128089384Y-92078223D01*
X128460200Y-92325994D01*
X128897607Y-92413000D01*
X128942393Y-92413000D01*
X129379800Y-92325994D01*
X129750616Y-92078223D01*
X129998387Y-91707407D01*
X130085393Y-91270000D01*
X129998387Y-90832593D01*
X129750616Y-90461777D01*
X129379800Y-90214006D01*
X128942393Y-90127000D01*
X128897607Y-90127000D01*
X128460200Y-90214006D01*
X128089384Y-90461777D01*
X127841613Y-90832593D01*
X127754607Y-91270000D01*
X127545393Y-91270000D01*
X127458387Y-90832593D01*
X127210616Y-90461777D01*
X126839800Y-90214006D01*
X126402393Y-90127000D01*
X126357607Y-90127000D01*
X125920200Y-90214006D01*
X125549384Y-90461777D01*
X125301613Y-90832593D01*
X125214607Y-91270000D01*
X114940426Y-91270000D01*
X114940514Y-91169215D01*
X114840186Y-90926402D01*
X114654575Y-90740467D01*
X114411938Y-90639715D01*
X114149215Y-90639486D01*
X113906402Y-90739814D01*
X113720467Y-90925425D01*
X113686209Y-91007927D01*
X113521938Y-90939715D01*
X113367283Y-90939580D01*
X113420285Y-90811938D01*
X113420514Y-90549215D01*
X113320186Y-90306402D01*
X113134575Y-90120467D01*
X112891938Y-90019715D01*
X112630479Y-90019487D01*
X112630514Y-89979215D01*
X112530186Y-89736402D01*
X112404016Y-89610012D01*
X112449533Y-89564575D01*
X112550285Y-89321938D01*
X112550514Y-89059215D01*
X112450186Y-88816402D01*
X112363935Y-88730000D01*
X125214607Y-88730000D01*
X125301613Y-89167407D01*
X125549384Y-89538223D01*
X125920200Y-89785994D01*
X126357607Y-89873000D01*
X126402393Y-89873000D01*
X126839800Y-89785994D01*
X127210616Y-89538223D01*
X127458387Y-89167407D01*
X127545393Y-88730000D01*
X127754607Y-88730000D01*
X127841613Y-89167407D01*
X128089384Y-89538223D01*
X128460200Y-89785994D01*
X128897607Y-89873000D01*
X128942393Y-89873000D01*
X129379800Y-89785994D01*
X129750616Y-89538223D01*
X129998387Y-89167407D01*
X130085393Y-88730000D01*
X129998387Y-88292593D01*
X129750616Y-87921777D01*
X129379800Y-87674006D01*
X128942393Y-87587000D01*
X128897607Y-87587000D01*
X128460200Y-87674006D01*
X128089384Y-87921777D01*
X127841613Y-88292593D01*
X127754607Y-88730000D01*
X127545393Y-88730000D01*
X127458387Y-88292593D01*
X127210616Y-87921777D01*
X126839800Y-87674006D01*
X126402393Y-87587000D01*
X126357607Y-87587000D01*
X125920200Y-87674006D01*
X125549384Y-87921777D01*
X125301613Y-88292593D01*
X125214607Y-88730000D01*
X112363935Y-88730000D01*
X112348921Y-88714960D01*
X112479533Y-88584575D01*
X112580285Y-88341938D01*
X112580514Y-88079215D01*
X112480186Y-87836402D01*
X112294575Y-87650467D01*
X112051938Y-87549715D01*
X111789215Y-87549486D01*
X111546402Y-87649814D01*
X111360467Y-87835425D01*
X111260350Y-88076532D01*
X111094575Y-87910467D01*
X110851938Y-87809715D01*
X110589215Y-87809486D01*
X110346402Y-87909814D01*
X110160467Y-88095425D01*
X110059715Y-88338062D01*
X110059486Y-88600785D01*
X93282080Y-88600785D01*
X93275906Y-88586766D01*
X93063065Y-88543210D01*
X92849757Y-88584420D01*
X92844094Y-88586766D01*
X92808101Y-88668496D01*
X92561899Y-88668496D01*
X92525906Y-88586766D01*
X92313065Y-88543210D01*
X92099757Y-88584420D01*
X92094094Y-88586766D01*
X92058101Y-88668496D01*
X88913600Y-88668496D01*
X88913600Y-87315756D01*
X90033850Y-87315756D01*
X90289212Y-87582683D01*
X91150034Y-87924963D01*
X92076314Y-87911765D01*
X92870788Y-87582683D01*
X93126150Y-87315756D01*
X92931899Y-87121505D01*
X92931899Y-87121504D01*
X91580000Y-85769605D01*
X90228101Y-87121504D01*
X90228101Y-87121505D01*
X90033850Y-87315756D01*
X88913600Y-87315756D01*
X88913600Y-85160034D01*
X89245037Y-85160034D01*
X89258235Y-86086314D01*
X89587317Y-86880788D01*
X89854244Y-87136150D01*
X90048495Y-86941899D01*
X90048496Y-86941899D01*
X91400395Y-85590000D01*
X91759605Y-85590000D01*
X93111504Y-86941899D01*
X93111505Y-86941899D01*
X93305756Y-87136150D01*
X93572683Y-86880788D01*
X93774132Y-86374150D01*
X125287800Y-86374150D01*
X125287800Y-87099072D01*
X125322603Y-87183092D01*
X125386909Y-87247398D01*
X125470929Y-87282200D01*
X126195850Y-87282200D01*
X126253000Y-87225050D01*
X126253000Y-86317000D01*
X126507000Y-86317000D01*
X126507000Y-87225050D01*
X126564150Y-87282200D01*
X127289071Y-87282200D01*
X127373091Y-87247398D01*
X127437397Y-87183092D01*
X127472200Y-87099072D01*
X127472200Y-86374150D01*
X127415050Y-86317000D01*
X126507000Y-86317000D01*
X126253000Y-86317000D01*
X125344950Y-86317000D01*
X125287800Y-86374150D01*
X93774132Y-86374150D01*
X93847353Y-86190000D01*
X127754607Y-86190000D01*
X127841613Y-86627407D01*
X128089384Y-86998223D01*
X128460200Y-87245994D01*
X128897607Y-87333000D01*
X128942393Y-87333000D01*
X129379800Y-87245994D01*
X129750616Y-86998223D01*
X129998387Y-86627407D01*
X130085393Y-86190000D01*
X129998387Y-85752593D01*
X129750616Y-85381777D01*
X129379800Y-85134006D01*
X128942393Y-85047000D01*
X128897607Y-85047000D01*
X128460200Y-85134006D01*
X128089384Y-85381777D01*
X127841613Y-85752593D01*
X127754607Y-86190000D01*
X93847353Y-86190000D01*
X93914963Y-86019966D01*
X93904433Y-85280928D01*
X125287800Y-85280928D01*
X125287800Y-86005850D01*
X125344950Y-86063000D01*
X126253000Y-86063000D01*
X126253000Y-85154950D01*
X126507000Y-85154950D01*
X126507000Y-86063000D01*
X127415050Y-86063000D01*
X127472200Y-86005850D01*
X127472200Y-85280928D01*
X127437397Y-85196908D01*
X127373091Y-85132602D01*
X127289071Y-85097800D01*
X126564150Y-85097800D01*
X126507000Y-85154950D01*
X126253000Y-85154950D01*
X126195850Y-85097800D01*
X125470929Y-85097800D01*
X125386909Y-85132602D01*
X125322603Y-85196908D01*
X125287800Y-85280928D01*
X93904433Y-85280928D01*
X93901765Y-85093686D01*
X93572683Y-84299212D01*
X93305756Y-84043850D01*
X93111505Y-84238101D01*
X92859605Y-84490000D01*
X91759605Y-85590000D01*
X91400395Y-85590000D01*
X89854244Y-84043850D01*
X89587317Y-84299212D01*
X89245037Y-85160034D01*
X88913600Y-85160034D01*
X88913600Y-83864244D01*
X90033850Y-83864244D01*
X90158676Y-83989070D01*
X90128101Y-84058496D01*
X90380000Y-84310395D01*
X90394143Y-84296253D01*
X90573748Y-84475858D01*
X90559605Y-84490000D01*
X90811504Y-84741899D01*
X90880930Y-84711325D01*
X91580000Y-85410395D01*
X92931899Y-84058496D01*
X92931899Y-84058495D01*
X93126150Y-83864244D01*
X92870788Y-83597317D01*
X92009966Y-83255037D01*
X91083686Y-83268235D01*
X90289212Y-83597317D01*
X90033850Y-83864244D01*
X88913600Y-83864244D01*
X88913600Y-82923600D01*
X130306400Y-82923600D01*
X130306400Y-112316400D01*
M02*
