G04 #@! TF.GenerationSoftware,KiCad,Pcbnew,(2017-01-24 revision 0b6147e)-makepkg*
G04 #@! TF.CreationDate,2018-02-06T10:22:29-08:00*
G04 #@! TF.ProjectId,sx1238RfModule,73783132333852664D6F64756C652E6B,rev?*
G04 #@! TF.FileFunction,Legend,Top*
G04 #@! TF.FilePolarity,Positive*
%FSLAX46Y46*%
G04 Gerber Fmt 4.6, Leading zero omitted, Abs format (unit mm)*
G04 Created by KiCad (PCBNEW (2017-01-24 revision 0b6147e)-makepkg) date 02/06/18 10:22:29*
%MOMM*%
%LPD*%
G01*
G04 APERTURE LIST*
%ADD10C,0.100000*%
%ADD11C,0.150000*%
%ADD12C,0.200000*%
%ADD13C,0.010000*%
%ADD14C,0.101000*%
%ADD15C,1.035000*%
%ADD16R,1.530000X1.616000*%
%ADD17R,0.700000X1.200000*%
%ADD18R,1.200000X0.700000*%
%ADD19R,1.400000X3.700000*%
%ADD20R,3.700000X1.400000*%
%ADD21R,5.500000X1.400000*%
%ADD22R,1.400000X5.500000*%
%ADD23R,1.400000X3.000000*%
%ADD24R,3.000000X1.400000*%
%ADD25R,1.050000X0.750000*%
%ADD26R,1.600000X1.400000*%
%ADD27R,0.900000X0.950000*%
%ADD28R,1.000000X0.800000*%
%ADD29R,5.480000X2.815000*%
%ADD30R,5.480000X2.690000*%
%ADD31C,0.839000*%
%ADD32R,0.950000X0.900000*%
%ADD33R,1.400000X1.600000*%
%ADD34R,0.750000X1.050000*%
%ADD35C,4.600000*%
%ADD36O,2.127200X2.127200*%
%ADD37R,2.127200X2.127200*%
G04 APERTURE END LIST*
D10*
D11*
X94496666Y-84082380D02*
X94687142Y-84082380D01*
X94782380Y-84034761D01*
X94829999Y-83987142D01*
X94925238Y-83844285D01*
X94972857Y-83653809D01*
X94972857Y-83272857D01*
X94925238Y-83177619D01*
X94877619Y-83130000D01*
X94782380Y-83082380D01*
X94591904Y-83082380D01*
X94496666Y-83130000D01*
X94449047Y-83177619D01*
X94401428Y-83272857D01*
X94401428Y-83510952D01*
X94449047Y-83606190D01*
X94496666Y-83653809D01*
X94591904Y-83701428D01*
X94782380Y-83701428D01*
X94877619Y-83653809D01*
X94925238Y-83606190D01*
X94972857Y-83510952D01*
X95925238Y-84082380D02*
X95353809Y-84082380D01*
X95639523Y-84082380D02*
X95639523Y-83082380D01*
X95544285Y-83225238D01*
X95449047Y-83320476D01*
X95353809Y-83368095D01*
X96829999Y-83082380D02*
X96353809Y-83082380D01*
X96306190Y-83558571D01*
X96353809Y-83510952D01*
X96449047Y-83463333D01*
X96687142Y-83463333D01*
X96782380Y-83510952D01*
X96829999Y-83558571D01*
X96877619Y-83653809D01*
X96877619Y-83891904D01*
X96829999Y-83987142D01*
X96782380Y-84034761D01*
X96687142Y-84082380D01*
X96449047Y-84082380D01*
X96353809Y-84034761D01*
X96306190Y-83987142D01*
X97306190Y-84082380D02*
X97306190Y-83082380D01*
X97639523Y-83796666D01*
X97972857Y-83082380D01*
X97972857Y-84082380D01*
X98449047Y-84082380D02*
X98449047Y-83082380D01*
X98449047Y-83558571D02*
X99020476Y-83558571D01*
X99020476Y-84082380D02*
X99020476Y-83082380D01*
X99401428Y-83415714D02*
X99925238Y-83415714D01*
X99401428Y-84082380D01*
X99925238Y-84082380D01*
X101544285Y-83082380D02*
X101068095Y-83082380D01*
X101020476Y-83558571D01*
X101068095Y-83510952D01*
X101163333Y-83463333D01*
X101401428Y-83463333D01*
X101496666Y-83510952D01*
X101544285Y-83558571D01*
X101591904Y-83653809D01*
X101591904Y-83891904D01*
X101544285Y-83987142D01*
X101496666Y-84034761D01*
X101401428Y-84082380D01*
X101163333Y-84082380D01*
X101068095Y-84034761D01*
X101020476Y-83987142D01*
X102210952Y-83082380D02*
X102306190Y-83082380D01*
X102401428Y-83130000D01*
X102449047Y-83177619D01*
X102496666Y-83272857D01*
X102544285Y-83463333D01*
X102544285Y-83701428D01*
X102496666Y-83891904D01*
X102449047Y-83987142D01*
X102401428Y-84034761D01*
X102306190Y-84082380D01*
X102210952Y-84082380D01*
X102115714Y-84034761D01*
X102068095Y-83987142D01*
X102020476Y-83891904D01*
X101972857Y-83701428D01*
X101972857Y-83463333D01*
X102020476Y-83272857D01*
X102068095Y-83177619D01*
X102115714Y-83130000D01*
X102210952Y-83082380D01*
X103163333Y-83082380D02*
X103258571Y-83082380D01*
X103353809Y-83130000D01*
X103401428Y-83177619D01*
X103449047Y-83272857D01*
X103496666Y-83463333D01*
X103496666Y-83701428D01*
X103449047Y-83891904D01*
X103401428Y-83987142D01*
X103353809Y-84034761D01*
X103258571Y-84082380D01*
X103163333Y-84082380D01*
X103068095Y-84034761D01*
X103020476Y-83987142D01*
X102972857Y-83891904D01*
X102925238Y-83701428D01*
X102925238Y-83463333D01*
X102972857Y-83272857D01*
X103020476Y-83177619D01*
X103068095Y-83130000D01*
X103163333Y-83082380D01*
X103925238Y-84082380D02*
X103925238Y-83415714D01*
X103925238Y-83510952D02*
X103972857Y-83463333D01*
X104068095Y-83415714D01*
X104210952Y-83415714D01*
X104306190Y-83463333D01*
X104353809Y-83558571D01*
X104353809Y-84082380D01*
X104353809Y-83558571D02*
X104401428Y-83463333D01*
X104496666Y-83415714D01*
X104639523Y-83415714D01*
X104734761Y-83463333D01*
X104782380Y-83558571D01*
X104782380Y-84082380D01*
X105163333Y-83082380D02*
X105401428Y-84082380D01*
X105591904Y-83368095D01*
X105782380Y-84082380D01*
X106020476Y-83082380D01*
X107115714Y-84034761D02*
X107258571Y-84082380D01*
X107496666Y-84082380D01*
X107591904Y-84034761D01*
X107639523Y-83987142D01*
X107687142Y-83891904D01*
X107687142Y-83796666D01*
X107639523Y-83701428D01*
X107591904Y-83653809D01*
X107496666Y-83606190D01*
X107306190Y-83558571D01*
X107210952Y-83510952D01*
X107163333Y-83463333D01*
X107115714Y-83368095D01*
X107115714Y-83272857D01*
X107163333Y-83177619D01*
X107210952Y-83130000D01*
X107306190Y-83082380D01*
X107544285Y-83082380D01*
X107687142Y-83130000D01*
X108020476Y-83082380D02*
X108687142Y-84082380D01*
X108687142Y-83082380D02*
X108020476Y-84082380D01*
X109591904Y-84082380D02*
X109020476Y-84082380D01*
X109306190Y-84082380D02*
X109306190Y-83082380D01*
X109210952Y-83225238D01*
X109115714Y-83320476D01*
X109020476Y-83368095D01*
X109972857Y-83177619D02*
X110020476Y-83130000D01*
X110115714Y-83082380D01*
X110353809Y-83082380D01*
X110449047Y-83130000D01*
X110496666Y-83177619D01*
X110544285Y-83272857D01*
X110544285Y-83368095D01*
X110496666Y-83510952D01*
X109925238Y-84082380D01*
X110544285Y-84082380D01*
X110877619Y-83082380D02*
X111496666Y-83082380D01*
X111163333Y-83463333D01*
X111306190Y-83463333D01*
X111401428Y-83510952D01*
X111449047Y-83558571D01*
X111496666Y-83653809D01*
X111496666Y-83891904D01*
X111449047Y-83987142D01*
X111401428Y-84034761D01*
X111306190Y-84082380D01*
X111020476Y-84082380D01*
X110925238Y-84034761D01*
X110877619Y-83987142D01*
X112068095Y-83510952D02*
X111972857Y-83463333D01*
X111925238Y-83415714D01*
X111877619Y-83320476D01*
X111877619Y-83272857D01*
X111925238Y-83177619D01*
X111972857Y-83130000D01*
X112068095Y-83082380D01*
X112258571Y-83082380D01*
X112353809Y-83130000D01*
X112401428Y-83177619D01*
X112449047Y-83272857D01*
X112449047Y-83320476D01*
X112401428Y-83415714D01*
X112353809Y-83463333D01*
X112258571Y-83510952D01*
X112068095Y-83510952D01*
X111972857Y-83558571D01*
X111925238Y-83606190D01*
X111877619Y-83701428D01*
X111877619Y-83891904D01*
X111925238Y-83987142D01*
X111972857Y-84034761D01*
X112068095Y-84082380D01*
X112258571Y-84082380D01*
X112353809Y-84034761D01*
X112401428Y-83987142D01*
X112449047Y-83891904D01*
X112449047Y-83701428D01*
X112401428Y-83606190D01*
X112353809Y-83558571D01*
X112258571Y-83510952D01*
X114210952Y-84082380D02*
X113877619Y-83606190D01*
X113639523Y-84082380D02*
X113639523Y-83082380D01*
X114020476Y-83082380D01*
X114115714Y-83130000D01*
X114163333Y-83177619D01*
X114210952Y-83272857D01*
X114210952Y-83415714D01*
X114163333Y-83510952D01*
X114115714Y-83558571D01*
X114020476Y-83606190D01*
X113639523Y-83606190D01*
X114972857Y-83558571D02*
X114639523Y-83558571D01*
X114639523Y-84082380D02*
X114639523Y-83082380D01*
X115115714Y-83082380D01*
X116115714Y-83082380D02*
X116687142Y-83082380D01*
X116401428Y-84082380D02*
X116401428Y-83082380D01*
X117020476Y-84082380D02*
X117020476Y-83415714D01*
X117020476Y-83606190D02*
X117068095Y-83510952D01*
X117115714Y-83463333D01*
X117210952Y-83415714D01*
X117306190Y-83415714D01*
X118068095Y-84082380D02*
X118068095Y-83558571D01*
X118020476Y-83463333D01*
X117925238Y-83415714D01*
X117734761Y-83415714D01*
X117639523Y-83463333D01*
X118068095Y-84034761D02*
X117972857Y-84082380D01*
X117734761Y-84082380D01*
X117639523Y-84034761D01*
X117591904Y-83939523D01*
X117591904Y-83844285D01*
X117639523Y-83749047D01*
X117734761Y-83701428D01*
X117972857Y-83701428D01*
X118068095Y-83653809D01*
X118544285Y-83415714D02*
X118544285Y-84082380D01*
X118544285Y-83510952D02*
X118591904Y-83463333D01*
X118687142Y-83415714D01*
X118829999Y-83415714D01*
X118925238Y-83463333D01*
X118972857Y-83558571D01*
X118972857Y-84082380D01*
X119401428Y-84034761D02*
X119496666Y-84082380D01*
X119687142Y-84082380D01*
X119782380Y-84034761D01*
X119829999Y-83939523D01*
X119829999Y-83891904D01*
X119782380Y-83796666D01*
X119687142Y-83749047D01*
X119544285Y-83749047D01*
X119449047Y-83701428D01*
X119401428Y-83606190D01*
X119401428Y-83558571D01*
X119449047Y-83463333D01*
X119544285Y-83415714D01*
X119687142Y-83415714D01*
X119782380Y-83463333D01*
X120687142Y-84034761D02*
X120591904Y-84082380D01*
X120401428Y-84082380D01*
X120306190Y-84034761D01*
X120258571Y-83987142D01*
X120210952Y-83891904D01*
X120210952Y-83606190D01*
X120258571Y-83510952D01*
X120306190Y-83463333D01*
X120401428Y-83415714D01*
X120591904Y-83415714D01*
X120687142Y-83463333D01*
X121496666Y-84034761D02*
X121401428Y-84082380D01*
X121210952Y-84082380D01*
X121115714Y-84034761D01*
X121068095Y-83939523D01*
X121068095Y-83558571D01*
X121115714Y-83463333D01*
X121210952Y-83415714D01*
X121401428Y-83415714D01*
X121496666Y-83463333D01*
X121544285Y-83558571D01*
X121544285Y-83653809D01*
X121068095Y-83749047D01*
X121972857Y-84082380D02*
X121972857Y-83415714D01*
X121972857Y-83082380D02*
X121925238Y-83130000D01*
X121972857Y-83177619D01*
X122020476Y-83130000D01*
X121972857Y-83082380D01*
X121972857Y-83177619D01*
X122353809Y-83415714D02*
X122591904Y-84082380D01*
X122829999Y-83415714D01*
X123591904Y-84034761D02*
X123496666Y-84082380D01*
X123306190Y-84082380D01*
X123210952Y-84034761D01*
X123163333Y-83939523D01*
X123163333Y-83558571D01*
X123210952Y-83463333D01*
X123306190Y-83415714D01*
X123496666Y-83415714D01*
X123591904Y-83463333D01*
X123639523Y-83558571D01*
X123639523Y-83653809D01*
X123163333Y-83749047D01*
X124068095Y-84082380D02*
X124068095Y-83415714D01*
X124068095Y-83606190D02*
X124115714Y-83510952D01*
X124163333Y-83463333D01*
X124258571Y-83415714D01*
X124353809Y-83415714D01*
D12*
X122500000Y-87550000D02*
X124500000Y-87550000D01*
X122500000Y-89950000D02*
X124500000Y-89950000D01*
X122500000Y-92575000D02*
X124500000Y-92575000D01*
X122500000Y-95175000D02*
X124500000Y-95175000D01*
X122500000Y-97625000D02*
X124500000Y-97625000D01*
X122500000Y-100075000D02*
X124500000Y-100075000D01*
X122500000Y-102650000D02*
X124500000Y-102650000D01*
X122500000Y-105225000D02*
X124500000Y-105225000D01*
X124500000Y-107800000D02*
X124500000Y-107800000D01*
X122500000Y-107800000D02*
X124500000Y-107800000D01*
D11*
X123794000Y-109630571D02*
X123757714Y-109703142D01*
X123757714Y-109812000D01*
X123794000Y-109920857D01*
X123866571Y-109993428D01*
X123939142Y-110029714D01*
X124084285Y-110066000D01*
X124193142Y-110066000D01*
X124338285Y-110029714D01*
X124410857Y-109993428D01*
X124483428Y-109920857D01*
X124519714Y-109812000D01*
X124519714Y-109739428D01*
X124483428Y-109630571D01*
X124447142Y-109594285D01*
X124193142Y-109594285D01*
X124193142Y-109739428D01*
X124519714Y-109267714D02*
X123757714Y-109267714D01*
X124519714Y-108832285D01*
X123757714Y-108832285D01*
X124519714Y-108469428D02*
X123757714Y-108469428D01*
X123757714Y-108288000D01*
X123794000Y-108179142D01*
X123866571Y-108106571D01*
X123939142Y-108070285D01*
X124084285Y-108034000D01*
X124193142Y-108034000D01*
X124338285Y-108070285D01*
X124410857Y-108106571D01*
X124483428Y-108179142D01*
X124519714Y-108288000D01*
X124519714Y-108469428D01*
X123757714Y-107504714D02*
X123757714Y-107069285D01*
X124519714Y-107287000D02*
X123757714Y-107287000D01*
X123757714Y-106887857D02*
X124519714Y-106379857D01*
X123757714Y-106379857D02*
X124519714Y-106887857D01*
X124519714Y-106089571D02*
X123757714Y-106089571D01*
X124519714Y-105654142D01*
X123757714Y-105654142D01*
X124519714Y-104392285D02*
X124156857Y-104646285D01*
X124519714Y-104827714D02*
X123757714Y-104827714D01*
X123757714Y-104537428D01*
X123794000Y-104464857D01*
X123830285Y-104428571D01*
X123902857Y-104392285D01*
X124011714Y-104392285D01*
X124084285Y-104428571D01*
X124120571Y-104464857D01*
X124156857Y-104537428D01*
X124156857Y-104827714D01*
X123757714Y-104138285D02*
X124519714Y-103630285D01*
X123757714Y-103630285D02*
X124519714Y-104138285D01*
X123757714Y-103448857D02*
X123757714Y-103013428D01*
X124519714Y-103231142D02*
X123757714Y-103231142D01*
X124519714Y-102187000D02*
X123757714Y-102187000D01*
X123757714Y-101679000D02*
X123757714Y-101533857D01*
X123794000Y-101461285D01*
X123866571Y-101388714D01*
X124011714Y-101352428D01*
X124265714Y-101352428D01*
X124410857Y-101388714D01*
X124483428Y-101461285D01*
X124519714Y-101533857D01*
X124519714Y-101679000D01*
X124483428Y-101751571D01*
X124410857Y-101824142D01*
X124265714Y-101860428D01*
X124011714Y-101860428D01*
X123866571Y-101824142D01*
X123794000Y-101751571D01*
X123757714Y-101679000D01*
X123757714Y-100880714D02*
X123757714Y-100808142D01*
X123794000Y-100735571D01*
X123830285Y-100699285D01*
X123902857Y-100663000D01*
X124048000Y-100626714D01*
X124229428Y-100626714D01*
X124374571Y-100663000D01*
X124447142Y-100699285D01*
X124483428Y-100735571D01*
X124519714Y-100808142D01*
X124519714Y-100880714D01*
X124483428Y-100953285D01*
X124447142Y-100989571D01*
X124374571Y-101025857D01*
X124229428Y-101062142D01*
X124048000Y-101062142D01*
X123902857Y-101025857D01*
X123830285Y-100989571D01*
X123794000Y-100953285D01*
X123757714Y-100880714D01*
X124519714Y-99662000D02*
X123757714Y-99662000D01*
X123757714Y-99154000D02*
X123757714Y-99008857D01*
X123794000Y-98936285D01*
X123866571Y-98863714D01*
X124011714Y-98827428D01*
X124265714Y-98827428D01*
X124410857Y-98863714D01*
X124483428Y-98936285D01*
X124519714Y-99008857D01*
X124519714Y-99154000D01*
X124483428Y-99226571D01*
X124410857Y-99299142D01*
X124265714Y-99335428D01*
X124011714Y-99335428D01*
X123866571Y-99299142D01*
X123794000Y-99226571D01*
X123757714Y-99154000D01*
X123830285Y-98537142D02*
X123794000Y-98500857D01*
X123757714Y-98428285D01*
X123757714Y-98246857D01*
X123794000Y-98174285D01*
X123830285Y-98138000D01*
X123902857Y-98101714D01*
X123975428Y-98101714D01*
X124084285Y-98138000D01*
X124519714Y-98573428D01*
X124519714Y-98101714D01*
X124519714Y-97112000D02*
X123757714Y-97112000D01*
X123757714Y-96604000D02*
X123757714Y-96458857D01*
X123794000Y-96386285D01*
X123866571Y-96313714D01*
X124011714Y-96277428D01*
X124265714Y-96277428D01*
X124410857Y-96313714D01*
X124483428Y-96386285D01*
X124519714Y-96458857D01*
X124519714Y-96604000D01*
X124483428Y-96676571D01*
X124410857Y-96749142D01*
X124265714Y-96785428D01*
X124011714Y-96785428D01*
X123866571Y-96749142D01*
X123794000Y-96676571D01*
X123757714Y-96604000D01*
X124011714Y-95624285D02*
X124519714Y-95624285D01*
X123721428Y-95805714D02*
X124265714Y-95987142D01*
X124265714Y-95515428D01*
X124519714Y-94587000D02*
X123757714Y-94587000D01*
X123757714Y-94079000D02*
X123757714Y-93933857D01*
X123794000Y-93861285D01*
X123866571Y-93788714D01*
X124011714Y-93752428D01*
X124265714Y-93752428D01*
X124410857Y-93788714D01*
X124483428Y-93861285D01*
X124519714Y-93933857D01*
X124519714Y-94079000D01*
X124483428Y-94151571D01*
X124410857Y-94224142D01*
X124265714Y-94260428D01*
X124011714Y-94260428D01*
X123866571Y-94224142D01*
X123794000Y-94151571D01*
X123757714Y-94079000D01*
X123757714Y-93063000D02*
X123757714Y-93425857D01*
X124120571Y-93462142D01*
X124084285Y-93425857D01*
X124048000Y-93353285D01*
X124048000Y-93171857D01*
X124084285Y-93099285D01*
X124120571Y-93063000D01*
X124193142Y-93026714D01*
X124374571Y-93026714D01*
X124447142Y-93063000D01*
X124483428Y-93099285D01*
X124519714Y-93171857D01*
X124519714Y-93353285D01*
X124483428Y-93425857D01*
X124447142Y-93462142D01*
X124519714Y-92291000D02*
X123757714Y-92291000D01*
X124302000Y-92037000D01*
X123757714Y-91783000D01*
X124519714Y-91783000D01*
X124483428Y-91456428D02*
X124519714Y-91347571D01*
X124519714Y-91166142D01*
X124483428Y-91093571D01*
X124447142Y-91057285D01*
X124374571Y-91021000D01*
X124302000Y-91021000D01*
X124229428Y-91057285D01*
X124193142Y-91093571D01*
X124156857Y-91166142D01*
X124120571Y-91311285D01*
X124084285Y-91383857D01*
X124048000Y-91420142D01*
X123975428Y-91456428D01*
X123902857Y-91456428D01*
X123830285Y-91420142D01*
X123794000Y-91383857D01*
X123757714Y-91311285D01*
X123757714Y-91129857D01*
X123794000Y-91021000D01*
X123757714Y-90549285D02*
X123757714Y-90404142D01*
X123794000Y-90331571D01*
X123866571Y-90259000D01*
X124011714Y-90222714D01*
X124265714Y-90222714D01*
X124410857Y-90259000D01*
X124483428Y-90331571D01*
X124519714Y-90404142D01*
X124519714Y-90549285D01*
X124483428Y-90621857D01*
X124410857Y-90694428D01*
X124265714Y-90730714D01*
X124011714Y-90730714D01*
X123866571Y-90694428D01*
X123794000Y-90621857D01*
X123757714Y-90549285D01*
X124519714Y-89693428D02*
X123757714Y-89693428D01*
X124519714Y-89258000D01*
X123757714Y-89258000D01*
X124483428Y-88931428D02*
X124519714Y-88822571D01*
X124519714Y-88641142D01*
X124483428Y-88568571D01*
X124447142Y-88532285D01*
X124374571Y-88496000D01*
X124302000Y-88496000D01*
X124229428Y-88532285D01*
X124193142Y-88568571D01*
X124156857Y-88641142D01*
X124120571Y-88786285D01*
X124084285Y-88858857D01*
X124048000Y-88895142D01*
X123975428Y-88931428D01*
X123902857Y-88931428D01*
X123830285Y-88895142D01*
X123794000Y-88858857D01*
X123757714Y-88786285D01*
X123757714Y-88604857D01*
X123794000Y-88496000D01*
X124483428Y-88205714D02*
X124519714Y-88096857D01*
X124519714Y-87915428D01*
X124483428Y-87842857D01*
X124447142Y-87806571D01*
X124374571Y-87770285D01*
X124302000Y-87770285D01*
X124229428Y-87806571D01*
X124193142Y-87842857D01*
X124156857Y-87915428D01*
X124120571Y-88060571D01*
X124084285Y-88133142D01*
X124048000Y-88169428D01*
X123975428Y-88205714D01*
X123902857Y-88205714D01*
X123830285Y-88169428D01*
X123794000Y-88133142D01*
X123757714Y-88060571D01*
X123757714Y-87879142D01*
X123794000Y-87770285D01*
X122582714Y-109993428D02*
X122582714Y-109521714D01*
X122873000Y-109775714D01*
X122873000Y-109666857D01*
X122909285Y-109594285D01*
X122945571Y-109558000D01*
X123018142Y-109521714D01*
X123199571Y-109521714D01*
X123272142Y-109558000D01*
X123308428Y-109594285D01*
X123344714Y-109666857D01*
X123344714Y-109884571D01*
X123308428Y-109957142D01*
X123272142Y-109993428D01*
X122582714Y-109304000D02*
X123344714Y-109050000D01*
X122582714Y-108796000D01*
X122582714Y-108614571D02*
X122582714Y-108142857D01*
X122873000Y-108396857D01*
X122873000Y-108288000D01*
X122909285Y-108215428D01*
X122945571Y-108179142D01*
X123018142Y-108142857D01*
X123199571Y-108142857D01*
X123272142Y-108179142D01*
X123308428Y-108215428D01*
X123344714Y-108288000D01*
X123344714Y-108505714D01*
X123308428Y-108578285D01*
X123272142Y-108614571D01*
X123344714Y-107504714D02*
X122582714Y-107504714D01*
X123127000Y-107250714D01*
X122582714Y-106996714D01*
X123344714Y-106996714D01*
X123344714Y-106633857D02*
X122582714Y-106633857D01*
X122582714Y-106452428D01*
X122619000Y-106343571D01*
X122691571Y-106271000D01*
X122764142Y-106234714D01*
X122909285Y-106198428D01*
X123018142Y-106198428D01*
X123163285Y-106234714D01*
X123235857Y-106271000D01*
X123308428Y-106343571D01*
X123344714Y-106452428D01*
X123344714Y-106633857D01*
X122945571Y-105871857D02*
X122945571Y-105617857D01*
X123344714Y-105509000D02*
X123344714Y-105871857D01*
X122582714Y-105871857D01*
X122582714Y-105509000D01*
X123344714Y-104501142D02*
X122981857Y-104755142D01*
X123344714Y-104936571D02*
X122582714Y-104936571D01*
X122582714Y-104646285D01*
X122619000Y-104573714D01*
X122655285Y-104537428D01*
X122727857Y-104501142D01*
X122836714Y-104501142D01*
X122909285Y-104537428D01*
X122945571Y-104573714D01*
X122981857Y-104646285D01*
X122981857Y-104936571D01*
X122582714Y-104247142D02*
X123344714Y-103739142D01*
X122582714Y-103739142D02*
X123344714Y-104247142D01*
X123344714Y-103448857D02*
X122582714Y-103448857D01*
X123344714Y-103013428D01*
X122582714Y-103013428D01*
X123344714Y-101842285D02*
X122981857Y-102096285D01*
X123344714Y-102277714D02*
X122582714Y-102277714D01*
X122582714Y-101987428D01*
X122619000Y-101914857D01*
X122655285Y-101878571D01*
X122727857Y-101842285D01*
X122836714Y-101842285D01*
X122909285Y-101878571D01*
X122945571Y-101914857D01*
X122981857Y-101987428D01*
X122981857Y-102277714D01*
X123308428Y-101552000D02*
X123344714Y-101443142D01*
X123344714Y-101261714D01*
X123308428Y-101189142D01*
X123272142Y-101152857D01*
X123199571Y-101116571D01*
X123127000Y-101116571D01*
X123054428Y-101152857D01*
X123018142Y-101189142D01*
X122981857Y-101261714D01*
X122945571Y-101406857D01*
X122909285Y-101479428D01*
X122873000Y-101515714D01*
X122800428Y-101552000D01*
X122727857Y-101552000D01*
X122655285Y-101515714D01*
X122619000Y-101479428D01*
X122582714Y-101406857D01*
X122582714Y-101225428D01*
X122619000Y-101116571D01*
X122582714Y-100898857D02*
X122582714Y-100463428D01*
X123344714Y-100681142D02*
X122582714Y-100681142D01*
X123344714Y-99662000D02*
X122582714Y-99662000D01*
X122582714Y-99154000D02*
X122582714Y-99008857D01*
X122619000Y-98936285D01*
X122691571Y-98863714D01*
X122836714Y-98827428D01*
X123090714Y-98827428D01*
X123235857Y-98863714D01*
X123308428Y-98936285D01*
X123344714Y-99008857D01*
X123344714Y-99154000D01*
X123308428Y-99226571D01*
X123235857Y-99299142D01*
X123090714Y-99335428D01*
X122836714Y-99335428D01*
X122691571Y-99299142D01*
X122619000Y-99226571D01*
X122582714Y-99154000D01*
X123344714Y-98101714D02*
X123344714Y-98537142D01*
X123344714Y-98319428D02*
X122582714Y-98319428D01*
X122691571Y-98392000D01*
X122764142Y-98464571D01*
X122800428Y-98537142D01*
X123344714Y-97137000D02*
X122582714Y-97137000D01*
X122582714Y-96629000D02*
X122582714Y-96483857D01*
X122619000Y-96411285D01*
X122691571Y-96338714D01*
X122836714Y-96302428D01*
X123090714Y-96302428D01*
X123235857Y-96338714D01*
X123308428Y-96411285D01*
X123344714Y-96483857D01*
X123344714Y-96629000D01*
X123308428Y-96701571D01*
X123235857Y-96774142D01*
X123090714Y-96810428D01*
X122836714Y-96810428D01*
X122691571Y-96774142D01*
X122619000Y-96701571D01*
X122582714Y-96629000D01*
X122582714Y-96048428D02*
X122582714Y-95576714D01*
X122873000Y-95830714D01*
X122873000Y-95721857D01*
X122909285Y-95649285D01*
X122945571Y-95613000D01*
X123018142Y-95576714D01*
X123199571Y-95576714D01*
X123272142Y-95613000D01*
X123308428Y-95649285D01*
X123344714Y-95721857D01*
X123344714Y-95939571D01*
X123308428Y-96012142D01*
X123272142Y-96048428D01*
X122619000Y-94405571D02*
X122582714Y-94478142D01*
X122582714Y-94587000D01*
X122619000Y-94695857D01*
X122691571Y-94768428D01*
X122764142Y-94804714D01*
X122909285Y-94841000D01*
X123018142Y-94841000D01*
X123163285Y-94804714D01*
X123235857Y-94768428D01*
X123308428Y-94695857D01*
X123344714Y-94587000D01*
X123344714Y-94514428D01*
X123308428Y-94405571D01*
X123272142Y-94369285D01*
X123018142Y-94369285D01*
X123018142Y-94514428D01*
X123344714Y-94042714D02*
X122582714Y-94042714D01*
X123344714Y-93607285D01*
X122582714Y-93607285D01*
X123344714Y-93244428D02*
X122582714Y-93244428D01*
X122582714Y-93063000D01*
X122619000Y-92954142D01*
X122691571Y-92881571D01*
X122764142Y-92845285D01*
X122909285Y-92809000D01*
X123018142Y-92809000D01*
X123163285Y-92845285D01*
X123235857Y-92881571D01*
X123308428Y-92954142D01*
X123344714Y-93063000D01*
X123344714Y-93244428D01*
X123308428Y-92254714D02*
X123344714Y-92145857D01*
X123344714Y-91964428D01*
X123308428Y-91891857D01*
X123272142Y-91855571D01*
X123199571Y-91819285D01*
X123127000Y-91819285D01*
X123054428Y-91855571D01*
X123018142Y-91891857D01*
X122981857Y-91964428D01*
X122945571Y-92109571D01*
X122909285Y-92182142D01*
X122873000Y-92218428D01*
X122800428Y-92254714D01*
X122727857Y-92254714D01*
X122655285Y-92218428D01*
X122619000Y-92182142D01*
X122582714Y-92109571D01*
X122582714Y-91928142D01*
X122619000Y-91819285D01*
X123272142Y-91057285D02*
X123308428Y-91093571D01*
X123344714Y-91202428D01*
X123344714Y-91275000D01*
X123308428Y-91383857D01*
X123235857Y-91456428D01*
X123163285Y-91492714D01*
X123018142Y-91529000D01*
X122909285Y-91529000D01*
X122764142Y-91492714D01*
X122691571Y-91456428D01*
X122619000Y-91383857D01*
X122582714Y-91275000D01*
X122582714Y-91202428D01*
X122619000Y-91093571D01*
X122655285Y-91057285D01*
X123344714Y-90730714D02*
X122582714Y-90730714D01*
X123344714Y-90295285D02*
X122909285Y-90621857D01*
X122582714Y-90295285D02*
X123018142Y-90730714D01*
X123344714Y-89548285D02*
X122582714Y-89548285D01*
X123127000Y-89294285D01*
X122582714Y-89040285D01*
X123344714Y-89040285D01*
X123308428Y-88713714D02*
X123344714Y-88604857D01*
X123344714Y-88423428D01*
X123308428Y-88350857D01*
X123272142Y-88314571D01*
X123199571Y-88278285D01*
X123127000Y-88278285D01*
X123054428Y-88314571D01*
X123018142Y-88350857D01*
X122981857Y-88423428D01*
X122945571Y-88568571D01*
X122909285Y-88641142D01*
X122873000Y-88677428D01*
X122800428Y-88713714D01*
X122727857Y-88713714D01*
X122655285Y-88677428D01*
X122619000Y-88641142D01*
X122582714Y-88568571D01*
X122582714Y-88387142D01*
X122619000Y-88278285D01*
X123344714Y-87951714D02*
X122582714Y-87951714D01*
X123757714Y-87253428D02*
X123757714Y-86781714D01*
X124048000Y-87035714D01*
X124048000Y-86926857D01*
X124084285Y-86854285D01*
X124120571Y-86818000D01*
X124193142Y-86781714D01*
X124374571Y-86781714D01*
X124447142Y-86818000D01*
X124483428Y-86854285D01*
X124519714Y-86926857D01*
X124519714Y-87144571D01*
X124483428Y-87217142D01*
X124447142Y-87253428D01*
X123757714Y-86564000D02*
X124519714Y-86310000D01*
X123757714Y-86056000D01*
X123757714Y-85874571D02*
X123757714Y-85402857D01*
X124048000Y-85656857D01*
X124048000Y-85548000D01*
X124084285Y-85475428D01*
X124120571Y-85439142D01*
X124193142Y-85402857D01*
X124374571Y-85402857D01*
X124447142Y-85439142D01*
X124483428Y-85475428D01*
X124519714Y-85548000D01*
X124519714Y-85765714D01*
X124483428Y-85838285D01*
X124447142Y-85874571D01*
X122619000Y-86900571D02*
X122582714Y-86973142D01*
X122582714Y-87082000D01*
X122619000Y-87190857D01*
X122691571Y-87263428D01*
X122764142Y-87299714D01*
X122909285Y-87336000D01*
X123018142Y-87336000D01*
X123163285Y-87299714D01*
X123235857Y-87263428D01*
X123308428Y-87190857D01*
X123344714Y-87082000D01*
X123344714Y-87009428D01*
X123308428Y-86900571D01*
X123272142Y-86864285D01*
X123018142Y-86864285D01*
X123018142Y-87009428D01*
X123344714Y-86537714D02*
X122582714Y-86537714D01*
X123344714Y-86102285D01*
X122582714Y-86102285D01*
X123344714Y-85739428D02*
X122582714Y-85739428D01*
X122582714Y-85558000D01*
X122619000Y-85449142D01*
X122691571Y-85376571D01*
X122764142Y-85340285D01*
X122909285Y-85304000D01*
X123018142Y-85304000D01*
X123163285Y-85340285D01*
X123235857Y-85376571D01*
X123308428Y-85449142D01*
X123344714Y-85558000D01*
X123344714Y-85739428D01*
D13*
G36*
X101326957Y-103856571D02*
X101423232Y-103880809D01*
X101509816Y-103923641D01*
X101584627Y-103983419D01*
X101645582Y-104058494D01*
X101690601Y-104147220D01*
X101716864Y-104243530D01*
X101722714Y-104340795D01*
X101707860Y-104434654D01*
X101674160Y-104522511D01*
X101623472Y-104601770D01*
X101557655Y-104669836D01*
X101478566Y-104724112D01*
X101388066Y-104762002D01*
X101336800Y-104774426D01*
X101292302Y-104781947D01*
X101258001Y-104784919D01*
X101225040Y-104783094D01*
X101184566Y-104776225D01*
X101151469Y-104769250D01*
X101058053Y-104737741D01*
X100974381Y-104686617D01*
X100902335Y-104617429D01*
X100843800Y-104531728D01*
X100829852Y-104504489D01*
X100813414Y-104468122D01*
X100803106Y-104437582D01*
X100797540Y-104405450D01*
X100795331Y-104364307D01*
X100795052Y-104318222D01*
X100799139Y-104233865D01*
X100812554Y-104164586D01*
X100837744Y-104103961D01*
X100877154Y-104045567D01*
X100915702Y-104001302D01*
X100987594Y-103935484D01*
X101062687Y-103890053D01*
X101145438Y-103862850D01*
X101223072Y-103852576D01*
X101326957Y-103856571D01*
X101326957Y-103856571D01*
G37*
X101326957Y-103856571D02*
X101423232Y-103880809D01*
X101509816Y-103923641D01*
X101584627Y-103983419D01*
X101645582Y-104058494D01*
X101690601Y-104147220D01*
X101716864Y-104243530D01*
X101722714Y-104340795D01*
X101707860Y-104434654D01*
X101674160Y-104522511D01*
X101623472Y-104601770D01*
X101557655Y-104669836D01*
X101478566Y-104724112D01*
X101388066Y-104762002D01*
X101336800Y-104774426D01*
X101292302Y-104781947D01*
X101258001Y-104784919D01*
X101225040Y-104783094D01*
X101184566Y-104776225D01*
X101151469Y-104769250D01*
X101058053Y-104737741D01*
X100974381Y-104686617D01*
X100902335Y-104617429D01*
X100843800Y-104531728D01*
X100829852Y-104504489D01*
X100813414Y-104468122D01*
X100803106Y-104437582D01*
X100797540Y-104405450D01*
X100795331Y-104364307D01*
X100795052Y-104318222D01*
X100799139Y-104233865D01*
X100812554Y-104164586D01*
X100837744Y-104103961D01*
X100877154Y-104045567D01*
X100915702Y-104001302D01*
X100987594Y-103935484D01*
X101062687Y-103890053D01*
X101145438Y-103862850D01*
X101223072Y-103852576D01*
X101326957Y-103856571D01*
G36*
X109786507Y-106302245D02*
X109786526Y-106536662D01*
X109786552Y-106749603D01*
X109786625Y-106942168D01*
X109786782Y-107115459D01*
X109787064Y-107270576D01*
X109787509Y-107408620D01*
X109788156Y-107530692D01*
X109789045Y-107637894D01*
X109790213Y-107731326D01*
X109791701Y-107812090D01*
X109793546Y-107881286D01*
X109795789Y-107940015D01*
X109798469Y-107989379D01*
X109801623Y-108030478D01*
X109805292Y-108064413D01*
X109809513Y-108092286D01*
X109814327Y-108115198D01*
X109819773Y-108134249D01*
X109825888Y-108150540D01*
X109832712Y-108165173D01*
X109840285Y-108179249D01*
X109848645Y-108193868D01*
X109853839Y-108202974D01*
X109888104Y-108263689D01*
X109029955Y-108263689D01*
X109029955Y-108167733D01*
X109029224Y-108124370D01*
X109027272Y-108091205D01*
X109024463Y-108073424D01*
X109023221Y-108071778D01*
X109011799Y-108078662D01*
X108989084Y-108096505D01*
X108966385Y-108115879D01*
X108911800Y-108156614D01*
X108842321Y-108197617D01*
X108765270Y-108235123D01*
X108687965Y-108265364D01*
X108657113Y-108275012D01*
X108588616Y-108289578D01*
X108505764Y-108299539D01*
X108416371Y-108304583D01*
X108328248Y-108304396D01*
X108249207Y-108298666D01*
X108211511Y-108292858D01*
X108073414Y-108254797D01*
X107946113Y-108197073D01*
X107830292Y-108120211D01*
X107726637Y-108024739D01*
X107635833Y-107911179D01*
X107569031Y-107800381D01*
X107514164Y-107683625D01*
X107472163Y-107564276D01*
X107442167Y-107438283D01*
X107423311Y-107301594D01*
X107414732Y-107150158D01*
X107414006Y-107072711D01*
X107416100Y-107015934D01*
X108245217Y-107015934D01*
X108245424Y-107109002D01*
X108248337Y-107196692D01*
X108254000Y-107273772D01*
X108262455Y-107335009D01*
X108265038Y-107347350D01*
X108296840Y-107454633D01*
X108338498Y-107541658D01*
X108390363Y-107608642D01*
X108452781Y-107655805D01*
X108526100Y-107683365D01*
X108610669Y-107691541D01*
X108706835Y-107680551D01*
X108770311Y-107664829D01*
X108819454Y-107646639D01*
X108873583Y-107620791D01*
X108914244Y-107597089D01*
X108984800Y-107550721D01*
X108984800Y-106400530D01*
X108917392Y-106356962D01*
X108838867Y-106316040D01*
X108754681Y-106289389D01*
X108669557Y-106277465D01*
X108588216Y-106280722D01*
X108515380Y-106299615D01*
X108483426Y-106315184D01*
X108425501Y-106358181D01*
X108376544Y-106414953D01*
X108335390Y-106487575D01*
X108300874Y-106578121D01*
X108271833Y-106688666D01*
X108270552Y-106694533D01*
X108260381Y-106756788D01*
X108252739Y-106834594D01*
X108247670Y-106922720D01*
X108245217Y-107015934D01*
X107416100Y-107015934D01*
X107421857Y-106859895D01*
X107443802Y-106664059D01*
X107479786Y-106485332D01*
X107529759Y-106323845D01*
X107593668Y-106179726D01*
X107671462Y-106053106D01*
X107763089Y-105944115D01*
X107868497Y-105852883D01*
X107913662Y-105821932D01*
X108014611Y-105765785D01*
X108117901Y-105726174D01*
X108227989Y-105702014D01*
X108349330Y-105692219D01*
X108441836Y-105693265D01*
X108571490Y-105704231D01*
X108684084Y-105726046D01*
X108782875Y-105759714D01*
X108871121Y-105806236D01*
X108919986Y-105840448D01*
X108949353Y-105862362D01*
X108971043Y-105877333D01*
X108979253Y-105881733D01*
X108980868Y-105870904D01*
X108982159Y-105840251D01*
X108983138Y-105792526D01*
X108983817Y-105730479D01*
X108984210Y-105656862D01*
X108984330Y-105574427D01*
X108984188Y-105485925D01*
X108983797Y-105394107D01*
X108983171Y-105301724D01*
X108982320Y-105211528D01*
X108981260Y-105126271D01*
X108980001Y-105048703D01*
X108978556Y-104981576D01*
X108976938Y-104927641D01*
X108975161Y-104889650D01*
X108974669Y-104882667D01*
X108967092Y-104812251D01*
X108955531Y-104757102D01*
X108937792Y-104709981D01*
X108911682Y-104663647D01*
X108905415Y-104654067D01*
X108880983Y-104617378D01*
X109786311Y-104617378D01*
X109786507Y-106302245D01*
X109786507Y-106302245D01*
G37*
X109786507Y-106302245D02*
X109786526Y-106536662D01*
X109786552Y-106749603D01*
X109786625Y-106942168D01*
X109786782Y-107115459D01*
X109787064Y-107270576D01*
X109787509Y-107408620D01*
X109788156Y-107530692D01*
X109789045Y-107637894D01*
X109790213Y-107731326D01*
X109791701Y-107812090D01*
X109793546Y-107881286D01*
X109795789Y-107940015D01*
X109798469Y-107989379D01*
X109801623Y-108030478D01*
X109805292Y-108064413D01*
X109809513Y-108092286D01*
X109814327Y-108115198D01*
X109819773Y-108134249D01*
X109825888Y-108150540D01*
X109832712Y-108165173D01*
X109840285Y-108179249D01*
X109848645Y-108193868D01*
X109853839Y-108202974D01*
X109888104Y-108263689D01*
X109029955Y-108263689D01*
X109029955Y-108167733D01*
X109029224Y-108124370D01*
X109027272Y-108091205D01*
X109024463Y-108073424D01*
X109023221Y-108071778D01*
X109011799Y-108078662D01*
X108989084Y-108096505D01*
X108966385Y-108115879D01*
X108911800Y-108156614D01*
X108842321Y-108197617D01*
X108765270Y-108235123D01*
X108687965Y-108265364D01*
X108657113Y-108275012D01*
X108588616Y-108289578D01*
X108505764Y-108299539D01*
X108416371Y-108304583D01*
X108328248Y-108304396D01*
X108249207Y-108298666D01*
X108211511Y-108292858D01*
X108073414Y-108254797D01*
X107946113Y-108197073D01*
X107830292Y-108120211D01*
X107726637Y-108024739D01*
X107635833Y-107911179D01*
X107569031Y-107800381D01*
X107514164Y-107683625D01*
X107472163Y-107564276D01*
X107442167Y-107438283D01*
X107423311Y-107301594D01*
X107414732Y-107150158D01*
X107414006Y-107072711D01*
X107416100Y-107015934D01*
X108245217Y-107015934D01*
X108245424Y-107109002D01*
X108248337Y-107196692D01*
X108254000Y-107273772D01*
X108262455Y-107335009D01*
X108265038Y-107347350D01*
X108296840Y-107454633D01*
X108338498Y-107541658D01*
X108390363Y-107608642D01*
X108452781Y-107655805D01*
X108526100Y-107683365D01*
X108610669Y-107691541D01*
X108706835Y-107680551D01*
X108770311Y-107664829D01*
X108819454Y-107646639D01*
X108873583Y-107620791D01*
X108914244Y-107597089D01*
X108984800Y-107550721D01*
X108984800Y-106400530D01*
X108917392Y-106356962D01*
X108838867Y-106316040D01*
X108754681Y-106289389D01*
X108669557Y-106277465D01*
X108588216Y-106280722D01*
X108515380Y-106299615D01*
X108483426Y-106315184D01*
X108425501Y-106358181D01*
X108376544Y-106414953D01*
X108335390Y-106487575D01*
X108300874Y-106578121D01*
X108271833Y-106688666D01*
X108270552Y-106694533D01*
X108260381Y-106756788D01*
X108252739Y-106834594D01*
X108247670Y-106922720D01*
X108245217Y-107015934D01*
X107416100Y-107015934D01*
X107421857Y-106859895D01*
X107443802Y-106664059D01*
X107479786Y-106485332D01*
X107529759Y-106323845D01*
X107593668Y-106179726D01*
X107671462Y-106053106D01*
X107763089Y-105944115D01*
X107868497Y-105852883D01*
X107913662Y-105821932D01*
X108014611Y-105765785D01*
X108117901Y-105726174D01*
X108227989Y-105702014D01*
X108349330Y-105692219D01*
X108441836Y-105693265D01*
X108571490Y-105704231D01*
X108684084Y-105726046D01*
X108782875Y-105759714D01*
X108871121Y-105806236D01*
X108919986Y-105840448D01*
X108949353Y-105862362D01*
X108971043Y-105877333D01*
X108979253Y-105881733D01*
X108980868Y-105870904D01*
X108982159Y-105840251D01*
X108983138Y-105792526D01*
X108983817Y-105730479D01*
X108984210Y-105656862D01*
X108984330Y-105574427D01*
X108984188Y-105485925D01*
X108983797Y-105394107D01*
X108983171Y-105301724D01*
X108982320Y-105211528D01*
X108981260Y-105126271D01*
X108980001Y-105048703D01*
X108978556Y-104981576D01*
X108976938Y-104927641D01*
X108975161Y-104889650D01*
X108974669Y-104882667D01*
X108967092Y-104812251D01*
X108955531Y-104757102D01*
X108937792Y-104709981D01*
X108911682Y-104663647D01*
X108905415Y-104654067D01*
X108880983Y-104617378D01*
X109786311Y-104617378D01*
X109786507Y-106302245D01*
G36*
X106273574Y-105696552D02*
X106425492Y-105716567D01*
X106560756Y-105750202D01*
X106680239Y-105797725D01*
X106784815Y-105859405D01*
X106862424Y-105922965D01*
X106931265Y-105997099D01*
X106985006Y-106076871D01*
X107027910Y-106169091D01*
X107043384Y-106212161D01*
X107056244Y-106251142D01*
X107067446Y-106287289D01*
X107077120Y-106322434D01*
X107085396Y-106358410D01*
X107092403Y-106397050D01*
X107098272Y-106440185D01*
X107103131Y-106489649D01*
X107107110Y-106547273D01*
X107110340Y-106614891D01*
X107112949Y-106694334D01*
X107115067Y-106787436D01*
X107116824Y-106896027D01*
X107118349Y-107021942D01*
X107119772Y-107167012D01*
X107121025Y-107309778D01*
X107122351Y-107465968D01*
X107123556Y-107601239D01*
X107124766Y-107717246D01*
X107126106Y-107815645D01*
X107127700Y-107898093D01*
X107129675Y-107966246D01*
X107132156Y-108021760D01*
X107135269Y-108066292D01*
X107139138Y-108101498D01*
X107143889Y-108129034D01*
X107149648Y-108150556D01*
X107156539Y-108167722D01*
X107164689Y-108182186D01*
X107174223Y-108195606D01*
X107185266Y-108209638D01*
X107189566Y-108215071D01*
X107205386Y-108237910D01*
X107212422Y-108253463D01*
X107212444Y-108253922D01*
X107201567Y-108256121D01*
X107170582Y-108258147D01*
X107121957Y-108259942D01*
X107058163Y-108261451D01*
X106981669Y-108262616D01*
X106894944Y-108263380D01*
X106800457Y-108263686D01*
X106789550Y-108263689D01*
X106366657Y-108263689D01*
X106363395Y-108167622D01*
X106360133Y-108071556D01*
X106298044Y-108122543D01*
X106200714Y-108190057D01*
X106090813Y-108244749D01*
X106004349Y-108274978D01*
X105935278Y-108289666D01*
X105851925Y-108299659D01*
X105762159Y-108304646D01*
X105673845Y-108304313D01*
X105594851Y-108298351D01*
X105558622Y-108292638D01*
X105418603Y-108254776D01*
X105292178Y-108199932D01*
X105180260Y-108128924D01*
X105083762Y-108042568D01*
X105003600Y-107941679D01*
X104940687Y-107827076D01*
X104896312Y-107700984D01*
X104883978Y-107644401D01*
X104876368Y-107582202D01*
X104872739Y-107507363D01*
X104872245Y-107473467D01*
X104872310Y-107470282D01*
X105632248Y-107470282D01*
X105641541Y-107545333D01*
X105669728Y-107609160D01*
X105718197Y-107664798D01*
X105723254Y-107669211D01*
X105771548Y-107704037D01*
X105823257Y-107726620D01*
X105883989Y-107738540D01*
X105959352Y-107741383D01*
X105977459Y-107740978D01*
X106031278Y-107738325D01*
X106071308Y-107732909D01*
X106106324Y-107722745D01*
X106145103Y-107705850D01*
X106155745Y-107700672D01*
X106216396Y-107664844D01*
X106263215Y-107622212D01*
X106275952Y-107606973D01*
X106320622Y-107550462D01*
X106320622Y-107354586D01*
X106320086Y-107275939D01*
X106318396Y-107217988D01*
X106315428Y-107178875D01*
X106311057Y-107156741D01*
X106306972Y-107150274D01*
X106291047Y-107147111D01*
X106257264Y-107144488D01*
X106210340Y-107142655D01*
X106154993Y-107141857D01*
X106146106Y-107141842D01*
X106025330Y-107147096D01*
X105922660Y-107163263D01*
X105836106Y-107190961D01*
X105763681Y-107230808D01*
X105708751Y-107277758D01*
X105664204Y-107335645D01*
X105639480Y-107398693D01*
X105632248Y-107470282D01*
X104872310Y-107470282D01*
X104874178Y-107379712D01*
X104882522Y-107300812D01*
X104898768Y-107229590D01*
X104924405Y-107158864D01*
X104948401Y-107106493D01*
X105007020Y-107011196D01*
X105085117Y-106923170D01*
X105180315Y-106844017D01*
X105290238Y-106775340D01*
X105412510Y-106718741D01*
X105544755Y-106675821D01*
X105609422Y-106660882D01*
X105745604Y-106638777D01*
X105894049Y-106624194D01*
X106045505Y-106617813D01*
X106172064Y-106619445D01*
X106333950Y-106626224D01*
X106326530Y-106567245D01*
X106307238Y-106468092D01*
X106276104Y-106387372D01*
X106232269Y-106324466D01*
X106174871Y-106278756D01*
X106103048Y-106249622D01*
X106015941Y-106236447D01*
X105912686Y-106238611D01*
X105874711Y-106242612D01*
X105733520Y-106267780D01*
X105596707Y-106308814D01*
X105502178Y-106346815D01*
X105457018Y-106366190D01*
X105418585Y-106381760D01*
X105392234Y-106391405D01*
X105384546Y-106393452D01*
X105374802Y-106384374D01*
X105358083Y-106355405D01*
X105334232Y-106306217D01*
X105303093Y-106236484D01*
X105264507Y-106145879D01*
X105257910Y-106130089D01*
X105227853Y-106057772D01*
X105200874Y-105992425D01*
X105178136Y-105936906D01*
X105160806Y-105894072D01*
X105150048Y-105866781D01*
X105146941Y-105857942D01*
X105156940Y-105853187D01*
X105183217Y-105847910D01*
X105211489Y-105844231D01*
X105241646Y-105839474D01*
X105289433Y-105830028D01*
X105350612Y-105816820D01*
X105420946Y-105800776D01*
X105496194Y-105782820D01*
X105524755Y-105775797D01*
X105629816Y-105750209D01*
X105717480Y-105730147D01*
X105792068Y-105714969D01*
X105857903Y-105704035D01*
X105919307Y-105696704D01*
X105980602Y-105692335D01*
X106046110Y-105690287D01*
X106104128Y-105689889D01*
X106273574Y-105696552D01*
X106273574Y-105696552D01*
G37*
X106273574Y-105696552D02*
X106425492Y-105716567D01*
X106560756Y-105750202D01*
X106680239Y-105797725D01*
X106784815Y-105859405D01*
X106862424Y-105922965D01*
X106931265Y-105997099D01*
X106985006Y-106076871D01*
X107027910Y-106169091D01*
X107043384Y-106212161D01*
X107056244Y-106251142D01*
X107067446Y-106287289D01*
X107077120Y-106322434D01*
X107085396Y-106358410D01*
X107092403Y-106397050D01*
X107098272Y-106440185D01*
X107103131Y-106489649D01*
X107107110Y-106547273D01*
X107110340Y-106614891D01*
X107112949Y-106694334D01*
X107115067Y-106787436D01*
X107116824Y-106896027D01*
X107118349Y-107021942D01*
X107119772Y-107167012D01*
X107121025Y-107309778D01*
X107122351Y-107465968D01*
X107123556Y-107601239D01*
X107124766Y-107717246D01*
X107126106Y-107815645D01*
X107127700Y-107898093D01*
X107129675Y-107966246D01*
X107132156Y-108021760D01*
X107135269Y-108066292D01*
X107139138Y-108101498D01*
X107143889Y-108129034D01*
X107149648Y-108150556D01*
X107156539Y-108167722D01*
X107164689Y-108182186D01*
X107174223Y-108195606D01*
X107185266Y-108209638D01*
X107189566Y-108215071D01*
X107205386Y-108237910D01*
X107212422Y-108253463D01*
X107212444Y-108253922D01*
X107201567Y-108256121D01*
X107170582Y-108258147D01*
X107121957Y-108259942D01*
X107058163Y-108261451D01*
X106981669Y-108262616D01*
X106894944Y-108263380D01*
X106800457Y-108263686D01*
X106789550Y-108263689D01*
X106366657Y-108263689D01*
X106363395Y-108167622D01*
X106360133Y-108071556D01*
X106298044Y-108122543D01*
X106200714Y-108190057D01*
X106090813Y-108244749D01*
X106004349Y-108274978D01*
X105935278Y-108289666D01*
X105851925Y-108299659D01*
X105762159Y-108304646D01*
X105673845Y-108304313D01*
X105594851Y-108298351D01*
X105558622Y-108292638D01*
X105418603Y-108254776D01*
X105292178Y-108199932D01*
X105180260Y-108128924D01*
X105083762Y-108042568D01*
X105003600Y-107941679D01*
X104940687Y-107827076D01*
X104896312Y-107700984D01*
X104883978Y-107644401D01*
X104876368Y-107582202D01*
X104872739Y-107507363D01*
X104872245Y-107473467D01*
X104872310Y-107470282D01*
X105632248Y-107470282D01*
X105641541Y-107545333D01*
X105669728Y-107609160D01*
X105718197Y-107664798D01*
X105723254Y-107669211D01*
X105771548Y-107704037D01*
X105823257Y-107726620D01*
X105883989Y-107738540D01*
X105959352Y-107741383D01*
X105977459Y-107740978D01*
X106031278Y-107738325D01*
X106071308Y-107732909D01*
X106106324Y-107722745D01*
X106145103Y-107705850D01*
X106155745Y-107700672D01*
X106216396Y-107664844D01*
X106263215Y-107622212D01*
X106275952Y-107606973D01*
X106320622Y-107550462D01*
X106320622Y-107354586D01*
X106320086Y-107275939D01*
X106318396Y-107217988D01*
X106315428Y-107178875D01*
X106311057Y-107156741D01*
X106306972Y-107150274D01*
X106291047Y-107147111D01*
X106257264Y-107144488D01*
X106210340Y-107142655D01*
X106154993Y-107141857D01*
X106146106Y-107141842D01*
X106025330Y-107147096D01*
X105922660Y-107163263D01*
X105836106Y-107190961D01*
X105763681Y-107230808D01*
X105708751Y-107277758D01*
X105664204Y-107335645D01*
X105639480Y-107398693D01*
X105632248Y-107470282D01*
X104872310Y-107470282D01*
X104874178Y-107379712D01*
X104882522Y-107300812D01*
X104898768Y-107229590D01*
X104924405Y-107158864D01*
X104948401Y-107106493D01*
X105007020Y-107011196D01*
X105085117Y-106923170D01*
X105180315Y-106844017D01*
X105290238Y-106775340D01*
X105412510Y-106718741D01*
X105544755Y-106675821D01*
X105609422Y-106660882D01*
X105745604Y-106638777D01*
X105894049Y-106624194D01*
X106045505Y-106617813D01*
X106172064Y-106619445D01*
X106333950Y-106626224D01*
X106326530Y-106567245D01*
X106307238Y-106468092D01*
X106276104Y-106387372D01*
X106232269Y-106324466D01*
X106174871Y-106278756D01*
X106103048Y-106249622D01*
X106015941Y-106236447D01*
X105912686Y-106238611D01*
X105874711Y-106242612D01*
X105733520Y-106267780D01*
X105596707Y-106308814D01*
X105502178Y-106346815D01*
X105457018Y-106366190D01*
X105418585Y-106381760D01*
X105392234Y-106391405D01*
X105384546Y-106393452D01*
X105374802Y-106384374D01*
X105358083Y-106355405D01*
X105334232Y-106306217D01*
X105303093Y-106236484D01*
X105264507Y-106145879D01*
X105257910Y-106130089D01*
X105227853Y-106057772D01*
X105200874Y-105992425D01*
X105178136Y-105936906D01*
X105160806Y-105894072D01*
X105150048Y-105866781D01*
X105146941Y-105857942D01*
X105156940Y-105853187D01*
X105183217Y-105847910D01*
X105211489Y-105844231D01*
X105241646Y-105839474D01*
X105289433Y-105830028D01*
X105350612Y-105816820D01*
X105420946Y-105800776D01*
X105496194Y-105782820D01*
X105524755Y-105775797D01*
X105629816Y-105750209D01*
X105717480Y-105730147D01*
X105792068Y-105714969D01*
X105857903Y-105704035D01*
X105919307Y-105696704D01*
X105980602Y-105692335D01*
X106046110Y-105690287D01*
X106104128Y-105689889D01*
X106273574Y-105696552D01*
G36*
X103928429Y-104779071D02*
X104088570Y-104800245D01*
X104252510Y-104840385D01*
X104422313Y-104899889D01*
X104600043Y-104979154D01*
X104611310Y-104984699D01*
X104669005Y-105012725D01*
X104720552Y-105036802D01*
X104762191Y-105055249D01*
X104790162Y-105066386D01*
X104799733Y-105068933D01*
X104818950Y-105073941D01*
X104823561Y-105078147D01*
X104818458Y-105088580D01*
X104802418Y-105114868D01*
X104777288Y-105154257D01*
X104744914Y-105203991D01*
X104707143Y-105261315D01*
X104665822Y-105323476D01*
X104622798Y-105387718D01*
X104579917Y-105451285D01*
X104539026Y-105511425D01*
X104501971Y-105565380D01*
X104470600Y-105610397D01*
X104446759Y-105643721D01*
X104432294Y-105662597D01*
X104430309Y-105664787D01*
X104420191Y-105660138D01*
X104397850Y-105642962D01*
X104367280Y-105616440D01*
X104351536Y-105601964D01*
X104255047Y-105526682D01*
X104148336Y-105471241D01*
X104032832Y-105436141D01*
X103909962Y-105421880D01*
X103840561Y-105423051D01*
X103719423Y-105440212D01*
X103610205Y-105476094D01*
X103512582Y-105530959D01*
X103426228Y-105605070D01*
X103350815Y-105698688D01*
X103286018Y-105812076D01*
X103248601Y-105898667D01*
X103204748Y-106034366D01*
X103172428Y-106181850D01*
X103151557Y-106337314D01*
X103142051Y-106496956D01*
X103143827Y-106656973D01*
X103156803Y-106813561D01*
X103180894Y-106962918D01*
X103216018Y-107101240D01*
X103262092Y-107224724D01*
X103278373Y-107258978D01*
X103346620Y-107373064D01*
X103427079Y-107469557D01*
X103518570Y-107547670D01*
X103619911Y-107606617D01*
X103729920Y-107645612D01*
X103847415Y-107663868D01*
X103888883Y-107665211D01*
X104010441Y-107654290D01*
X104130878Y-107621474D01*
X104248666Y-107567439D01*
X104362277Y-107492865D01*
X104453685Y-107414539D01*
X104500215Y-107370008D01*
X104681483Y-107667271D01*
X104726580Y-107741433D01*
X104767819Y-107809646D01*
X104803735Y-107869459D01*
X104832866Y-107918420D01*
X104853750Y-107954079D01*
X104864924Y-107973984D01*
X104866375Y-107977079D01*
X104858146Y-107986718D01*
X104832567Y-108003999D01*
X104792873Y-108027283D01*
X104742297Y-108054934D01*
X104684074Y-108085315D01*
X104621437Y-108116790D01*
X104557621Y-108147722D01*
X104495860Y-108176473D01*
X104439388Y-108201408D01*
X104391438Y-108220889D01*
X104367986Y-108229318D01*
X104234221Y-108267133D01*
X104096327Y-108292136D01*
X103948622Y-108305140D01*
X103821833Y-108307468D01*
X103753878Y-108306373D01*
X103688277Y-108304275D01*
X103630847Y-108301434D01*
X103587403Y-108298106D01*
X103573298Y-108296422D01*
X103434284Y-108267587D01*
X103292757Y-108222468D01*
X103155275Y-108163750D01*
X103028394Y-108094120D01*
X102950889Y-108041441D01*
X102823481Y-107933239D01*
X102705178Y-107806671D01*
X102598172Y-107664866D01*
X102504652Y-107510951D01*
X102426810Y-107348053D01*
X102382956Y-107230756D01*
X102332708Y-107047128D01*
X102299209Y-106852581D01*
X102282449Y-106651325D01*
X102282416Y-106447568D01*
X102299101Y-106245521D01*
X102332493Y-106049392D01*
X102382580Y-105863391D01*
X102386397Y-105851803D01*
X102449281Y-105689750D01*
X102526028Y-105541832D01*
X102619242Y-105403865D01*
X102731527Y-105271661D01*
X102775392Y-105226399D01*
X102911534Y-105102457D01*
X103051491Y-104999915D01*
X103197411Y-104917656D01*
X103351442Y-104854564D01*
X103515732Y-104809523D01*
X103611289Y-104792033D01*
X103770023Y-104776466D01*
X103928429Y-104779071D01*
X103928429Y-104779071D01*
G37*
X103928429Y-104779071D02*
X104088570Y-104800245D01*
X104252510Y-104840385D01*
X104422313Y-104899889D01*
X104600043Y-104979154D01*
X104611310Y-104984699D01*
X104669005Y-105012725D01*
X104720552Y-105036802D01*
X104762191Y-105055249D01*
X104790162Y-105066386D01*
X104799733Y-105068933D01*
X104818950Y-105073941D01*
X104823561Y-105078147D01*
X104818458Y-105088580D01*
X104802418Y-105114868D01*
X104777288Y-105154257D01*
X104744914Y-105203991D01*
X104707143Y-105261315D01*
X104665822Y-105323476D01*
X104622798Y-105387718D01*
X104579917Y-105451285D01*
X104539026Y-105511425D01*
X104501971Y-105565380D01*
X104470600Y-105610397D01*
X104446759Y-105643721D01*
X104432294Y-105662597D01*
X104430309Y-105664787D01*
X104420191Y-105660138D01*
X104397850Y-105642962D01*
X104367280Y-105616440D01*
X104351536Y-105601964D01*
X104255047Y-105526682D01*
X104148336Y-105471241D01*
X104032832Y-105436141D01*
X103909962Y-105421880D01*
X103840561Y-105423051D01*
X103719423Y-105440212D01*
X103610205Y-105476094D01*
X103512582Y-105530959D01*
X103426228Y-105605070D01*
X103350815Y-105698688D01*
X103286018Y-105812076D01*
X103248601Y-105898667D01*
X103204748Y-106034366D01*
X103172428Y-106181850D01*
X103151557Y-106337314D01*
X103142051Y-106496956D01*
X103143827Y-106656973D01*
X103156803Y-106813561D01*
X103180894Y-106962918D01*
X103216018Y-107101240D01*
X103262092Y-107224724D01*
X103278373Y-107258978D01*
X103346620Y-107373064D01*
X103427079Y-107469557D01*
X103518570Y-107547670D01*
X103619911Y-107606617D01*
X103729920Y-107645612D01*
X103847415Y-107663868D01*
X103888883Y-107665211D01*
X104010441Y-107654290D01*
X104130878Y-107621474D01*
X104248666Y-107567439D01*
X104362277Y-107492865D01*
X104453685Y-107414539D01*
X104500215Y-107370008D01*
X104681483Y-107667271D01*
X104726580Y-107741433D01*
X104767819Y-107809646D01*
X104803735Y-107869459D01*
X104832866Y-107918420D01*
X104853750Y-107954079D01*
X104864924Y-107973984D01*
X104866375Y-107977079D01*
X104858146Y-107986718D01*
X104832567Y-108003999D01*
X104792873Y-108027283D01*
X104742297Y-108054934D01*
X104684074Y-108085315D01*
X104621437Y-108116790D01*
X104557621Y-108147722D01*
X104495860Y-108176473D01*
X104439388Y-108201408D01*
X104391438Y-108220889D01*
X104367986Y-108229318D01*
X104234221Y-108267133D01*
X104096327Y-108292136D01*
X103948622Y-108305140D01*
X103821833Y-108307468D01*
X103753878Y-108306373D01*
X103688277Y-108304275D01*
X103630847Y-108301434D01*
X103587403Y-108298106D01*
X103573298Y-108296422D01*
X103434284Y-108267587D01*
X103292757Y-108222468D01*
X103155275Y-108163750D01*
X103028394Y-108094120D01*
X102950889Y-108041441D01*
X102823481Y-107933239D01*
X102705178Y-107806671D01*
X102598172Y-107664866D01*
X102504652Y-107510951D01*
X102426810Y-107348053D01*
X102382956Y-107230756D01*
X102332708Y-107047128D01*
X102299209Y-106852581D01*
X102282449Y-106651325D01*
X102282416Y-106447568D01*
X102299101Y-106245521D01*
X102332493Y-106049392D01*
X102382580Y-105863391D01*
X102386397Y-105851803D01*
X102449281Y-105689750D01*
X102526028Y-105541832D01*
X102619242Y-105403865D01*
X102731527Y-105271661D01*
X102775392Y-105226399D01*
X102911534Y-105102457D01*
X103051491Y-104999915D01*
X103197411Y-104917656D01*
X103351442Y-104854564D01*
X103515732Y-104809523D01*
X103611289Y-104792033D01*
X103770023Y-104776466D01*
X103928429Y-104779071D01*
G36*
X100653600Y-104319054D02*
X100664465Y-104432993D01*
X100696082Y-104540616D01*
X100746985Y-104639615D01*
X100815707Y-104727684D01*
X100900781Y-104802516D01*
X100997768Y-104860384D01*
X101104036Y-104900005D01*
X101211050Y-104918573D01*
X101316700Y-104917434D01*
X101418875Y-104897930D01*
X101515466Y-104861406D01*
X101604362Y-104809205D01*
X101683454Y-104742673D01*
X101750631Y-104663152D01*
X101803783Y-104571987D01*
X101840801Y-104470523D01*
X101859573Y-104360102D01*
X101861511Y-104310206D01*
X101861511Y-104222267D01*
X101913440Y-104222267D01*
X101949747Y-104225111D01*
X101976645Y-104236911D01*
X102003751Y-104260649D01*
X102042133Y-104299031D01*
X102042133Y-106490602D01*
X102042124Y-106752739D01*
X102042092Y-106993241D01*
X102042028Y-107213048D01*
X102041924Y-107413101D01*
X102041773Y-107594344D01*
X102041566Y-107757716D01*
X102041294Y-107904160D01*
X102040950Y-108034617D01*
X102040526Y-108150029D01*
X102040013Y-108251338D01*
X102039403Y-108339484D01*
X102038688Y-108415410D01*
X102037860Y-108480057D01*
X102036911Y-108534367D01*
X102035833Y-108579280D01*
X102034617Y-108615740D01*
X102033255Y-108644687D01*
X102031739Y-108667063D01*
X102030062Y-108683809D01*
X102028214Y-108695868D01*
X102026187Y-108704180D01*
X102023975Y-108709687D01*
X102022892Y-108711537D01*
X102018729Y-108718549D01*
X102015195Y-108724996D01*
X102011365Y-108730900D01*
X102006318Y-108736286D01*
X101999129Y-108741178D01*
X101988877Y-108745598D01*
X101974636Y-108749572D01*
X101955486Y-108753121D01*
X101930501Y-108756270D01*
X101898760Y-108759042D01*
X101859338Y-108761461D01*
X101811314Y-108763551D01*
X101753763Y-108765335D01*
X101685763Y-108766837D01*
X101606390Y-108768080D01*
X101514721Y-108769089D01*
X101409834Y-108769885D01*
X101290804Y-108770494D01*
X101156710Y-108770939D01*
X101006627Y-108771243D01*
X100839633Y-108771430D01*
X100654804Y-108771524D01*
X100451217Y-108771548D01*
X100227950Y-108771525D01*
X99984078Y-108771480D01*
X99718679Y-108771437D01*
X99680296Y-108771432D01*
X99413318Y-108771389D01*
X99167998Y-108771318D01*
X98943417Y-108771213D01*
X98738655Y-108771066D01*
X98552794Y-108770869D01*
X98384912Y-108770616D01*
X98234092Y-108770300D01*
X98099413Y-108769913D01*
X97979956Y-108769447D01*
X97874801Y-108768897D01*
X97783029Y-108768253D01*
X97703721Y-108767511D01*
X97635957Y-108766661D01*
X97578818Y-108765697D01*
X97531383Y-108764611D01*
X97492734Y-108763397D01*
X97461951Y-108762047D01*
X97438115Y-108760555D01*
X97420306Y-108758911D01*
X97407605Y-108757111D01*
X97399092Y-108755145D01*
X97394734Y-108753477D01*
X97386272Y-108749906D01*
X97378503Y-108747270D01*
X97371398Y-108744634D01*
X97364927Y-108741062D01*
X97359061Y-108735621D01*
X97353771Y-108727375D01*
X97349026Y-108715390D01*
X97344798Y-108698731D01*
X97341057Y-108676463D01*
X97337773Y-108647652D01*
X97334917Y-108611363D01*
X97332460Y-108566661D01*
X97330371Y-108512611D01*
X97328622Y-108448279D01*
X97327183Y-108372730D01*
X97326024Y-108285030D01*
X97325117Y-108184243D01*
X97324431Y-108069434D01*
X97323937Y-107939670D01*
X97323605Y-107794015D01*
X97323407Y-107631535D01*
X97323313Y-107451295D01*
X97323292Y-107252360D01*
X97323315Y-107033796D01*
X97323354Y-106794668D01*
X97323378Y-106534040D01*
X97323378Y-106491889D01*
X97323364Y-106228992D01*
X97323339Y-105987732D01*
X97323329Y-105767165D01*
X97323358Y-105566352D01*
X97323452Y-105384349D01*
X97323638Y-105220216D01*
X97323941Y-105073011D01*
X97324386Y-104941792D01*
X97324966Y-104831867D01*
X97627803Y-104831867D01*
X97667593Y-104889711D01*
X97678764Y-104905479D01*
X97688834Y-104919441D01*
X97697862Y-104932784D01*
X97705903Y-104946693D01*
X97713014Y-104962356D01*
X97719253Y-104980958D01*
X97724675Y-105003686D01*
X97729338Y-105031727D01*
X97733299Y-105066267D01*
X97736615Y-105108492D01*
X97739341Y-105159589D01*
X97741536Y-105220744D01*
X97743255Y-105293144D01*
X97744556Y-105377975D01*
X97745495Y-105476422D01*
X97746130Y-105589674D01*
X97746516Y-105718916D01*
X97746712Y-105865334D01*
X97746773Y-106030116D01*
X97746757Y-106214447D01*
X97746720Y-106419513D01*
X97746711Y-106542133D01*
X97746735Y-106759082D01*
X97746769Y-106954642D01*
X97746757Y-107129999D01*
X97746642Y-107286341D01*
X97746370Y-107424857D01*
X97745882Y-107546734D01*
X97745124Y-107653160D01*
X97744038Y-107745322D01*
X97742569Y-107824409D01*
X97740660Y-107891608D01*
X97738256Y-107948107D01*
X97735299Y-107995093D01*
X97731734Y-108033755D01*
X97727505Y-108065280D01*
X97722554Y-108090855D01*
X97716827Y-108111670D01*
X97710267Y-108128911D01*
X97702817Y-108143765D01*
X97694421Y-108157422D01*
X97685024Y-108171069D01*
X97674568Y-108185893D01*
X97668477Y-108194783D01*
X97629704Y-108252400D01*
X98161268Y-108252400D01*
X98284517Y-108252365D01*
X98387013Y-108252215D01*
X98470580Y-108251878D01*
X98537044Y-108251286D01*
X98588229Y-108250367D01*
X98625959Y-108249051D01*
X98652060Y-108247269D01*
X98668356Y-108244951D01*
X98676672Y-108242026D01*
X98678832Y-108238424D01*
X98676661Y-108234075D01*
X98675465Y-108232645D01*
X98650315Y-108195573D01*
X98624417Y-108142772D01*
X98600808Y-108080770D01*
X98592539Y-108054357D01*
X98587922Y-108036416D01*
X98584021Y-108015355D01*
X98580752Y-107989089D01*
X98578034Y-107955532D01*
X98575785Y-107912599D01*
X98573923Y-107858204D01*
X98572364Y-107790262D01*
X98571028Y-107706688D01*
X98569831Y-107605395D01*
X98568692Y-107484300D01*
X98568315Y-107439600D01*
X98567298Y-107314449D01*
X98566540Y-107210082D01*
X98566097Y-107124707D01*
X98566030Y-107056533D01*
X98566395Y-107003765D01*
X98567252Y-106964614D01*
X98568659Y-106937285D01*
X98570675Y-106919986D01*
X98573357Y-106910926D01*
X98576764Y-106908312D01*
X98580956Y-106910351D01*
X98585429Y-106914667D01*
X98595784Y-106927602D01*
X98617842Y-106956676D01*
X98650043Y-106999759D01*
X98690826Y-107054718D01*
X98738630Y-107119423D01*
X98791895Y-107191742D01*
X98849060Y-107269544D01*
X98908563Y-107350698D01*
X98968845Y-107433072D01*
X99028345Y-107514536D01*
X99085502Y-107592957D01*
X99138755Y-107666204D01*
X99186543Y-107732147D01*
X99227307Y-107788654D01*
X99259484Y-107833593D01*
X99281515Y-107864834D01*
X99286083Y-107871466D01*
X99309004Y-107908369D01*
X99335812Y-107956359D01*
X99361211Y-108005897D01*
X99364432Y-108012577D01*
X99386110Y-108060772D01*
X99398696Y-108098334D01*
X99404426Y-108134160D01*
X99405544Y-108176200D01*
X99404910Y-108252400D01*
X100559349Y-108252400D01*
X100468185Y-108158669D01*
X100421388Y-108108775D01*
X100371101Y-108052295D01*
X100325056Y-107998026D01*
X100304631Y-107972673D01*
X100274193Y-107933128D01*
X100234138Y-107879916D01*
X100185639Y-107814667D01*
X100129865Y-107739011D01*
X100067989Y-107654577D01*
X100001181Y-107562994D01*
X99930613Y-107465892D01*
X99857455Y-107364901D01*
X99782879Y-107261650D01*
X99708056Y-107157768D01*
X99634157Y-107054885D01*
X99562354Y-106954631D01*
X99493816Y-106858636D01*
X99429716Y-106768527D01*
X99371225Y-106685936D01*
X99319514Y-106612492D01*
X99275753Y-106549824D01*
X99241115Y-106499561D01*
X99216770Y-106463334D01*
X99203889Y-106442771D01*
X99202131Y-106438668D01*
X99210090Y-106427342D01*
X99230885Y-106400162D01*
X99263153Y-106358829D01*
X99305530Y-106305044D01*
X99356653Y-106240506D01*
X99415159Y-106166918D01*
X99479686Y-106085978D01*
X99548869Y-105999388D01*
X99621347Y-105908848D01*
X99695754Y-105816060D01*
X99755483Y-105741702D01*
X100766489Y-105741702D01*
X100772398Y-105754659D01*
X100786728Y-105776908D01*
X100787775Y-105778391D01*
X100806562Y-105808544D01*
X100826209Y-105845375D01*
X100830108Y-105853511D01*
X100833644Y-105861940D01*
X100836770Y-105872059D01*
X100839514Y-105885260D01*
X100841908Y-105902938D01*
X100843981Y-105926484D01*
X100845765Y-105957293D01*
X100847288Y-105996757D01*
X100848581Y-106046269D01*
X100849674Y-106107223D01*
X100850597Y-106181011D01*
X100851381Y-106269028D01*
X100852055Y-106372665D01*
X100852650Y-106493316D01*
X100853195Y-106632374D01*
X100853721Y-106791232D01*
X100854255Y-106970089D01*
X100854794Y-107155207D01*
X100855228Y-107319145D01*
X100855491Y-107463303D01*
X100855516Y-107589079D01*
X100855235Y-107697871D01*
X100854581Y-107791077D01*
X100853486Y-107870097D01*
X100851882Y-107936328D01*
X100849703Y-107991170D01*
X100846881Y-108036021D01*
X100843349Y-108072278D01*
X100839039Y-108101341D01*
X100833883Y-108124609D01*
X100827815Y-108143479D01*
X100820767Y-108159351D01*
X100812671Y-108173622D01*
X100803460Y-108187691D01*
X100794960Y-108200158D01*
X100777824Y-108226452D01*
X100767678Y-108244037D01*
X100766489Y-108247257D01*
X100777396Y-108248334D01*
X100808589Y-108249335D01*
X100857777Y-108250235D01*
X100922667Y-108251010D01*
X101000970Y-108251637D01*
X101090393Y-108252091D01*
X101188644Y-108252349D01*
X101257555Y-108252400D01*
X101362548Y-108252180D01*
X101459390Y-108251548D01*
X101545893Y-108250549D01*
X101619868Y-108249227D01*
X101679126Y-108247626D01*
X101721480Y-108245791D01*
X101744740Y-108243765D01*
X101748622Y-108242493D01*
X101740924Y-108227591D01*
X101732926Y-108219560D01*
X101719754Y-108202434D01*
X101702515Y-108172183D01*
X101690593Y-108147622D01*
X101663955Y-108088711D01*
X101660880Y-106911845D01*
X101657805Y-105734978D01*
X101212147Y-105734978D01*
X101114330Y-105735142D01*
X101023936Y-105735611D01*
X100943370Y-105736347D01*
X100875038Y-105737316D01*
X100821344Y-105738480D01*
X100784695Y-105739803D01*
X100767496Y-105741249D01*
X100766489Y-105741702D01*
X99755483Y-105741702D01*
X99770730Y-105722722D01*
X99844910Y-105630537D01*
X99916931Y-105541204D01*
X99985431Y-105456424D01*
X100049045Y-105377898D01*
X100106412Y-105307326D01*
X100156167Y-105246409D01*
X100196948Y-105196847D01*
X100214112Y-105176178D01*
X100300404Y-105075516D01*
X100377003Y-104992259D01*
X100445817Y-104924438D01*
X100508752Y-104870089D01*
X100518133Y-104862722D01*
X100557644Y-104832117D01*
X99425884Y-104831867D01*
X99431173Y-104879844D01*
X99427870Y-104937188D01*
X99406339Y-105005463D01*
X99366365Y-105085212D01*
X99321057Y-105157495D01*
X99304839Y-105180140D01*
X99276786Y-105217696D01*
X99238570Y-105268021D01*
X99191863Y-105328973D01*
X99138339Y-105398411D01*
X99079669Y-105474194D01*
X99017525Y-105554180D01*
X98953579Y-105636228D01*
X98889505Y-105718196D01*
X98826973Y-105797943D01*
X98767657Y-105873327D01*
X98713229Y-105942207D01*
X98665361Y-106002442D01*
X98625725Y-106051889D01*
X98595994Y-106088408D01*
X98577839Y-106109858D01*
X98574780Y-106113156D01*
X98571921Y-106105149D01*
X98569707Y-106074855D01*
X98568143Y-106022556D01*
X98567233Y-105948531D01*
X98566980Y-105853063D01*
X98567387Y-105736434D01*
X98568296Y-105616445D01*
X98569618Y-105484333D01*
X98571143Y-105372594D01*
X98573119Y-105279025D01*
X98575794Y-105201419D01*
X98579418Y-105137574D01*
X98584239Y-105085283D01*
X98590506Y-105042344D01*
X98598468Y-105006551D01*
X98608373Y-104975700D01*
X98620469Y-104947586D01*
X98635007Y-104920005D01*
X98649689Y-104894966D01*
X98687686Y-104831867D01*
X97627803Y-104831867D01*
X97324966Y-104831867D01*
X97324999Y-104825617D01*
X97325805Y-104723544D01*
X97326830Y-104634633D01*
X97328100Y-104557941D01*
X97329640Y-104492527D01*
X97331476Y-104437449D01*
X97333633Y-104391765D01*
X97336137Y-104354534D01*
X97339013Y-104324813D01*
X97342287Y-104301662D01*
X97345985Y-104284139D01*
X97350131Y-104271301D01*
X97354753Y-104262208D01*
X97359874Y-104255918D01*
X97365522Y-104251488D01*
X97371721Y-104247978D01*
X97378496Y-104244445D01*
X97384492Y-104240876D01*
X97389725Y-104238300D01*
X97397901Y-104235972D01*
X97410114Y-104233878D01*
X97427459Y-104232007D01*
X97451031Y-104230347D01*
X97481923Y-104228884D01*
X97521232Y-104227608D01*
X97570050Y-104226504D01*
X97629473Y-104225561D01*
X97700596Y-104224767D01*
X97784512Y-104224109D01*
X97882317Y-104223575D01*
X97995106Y-104223153D01*
X98123971Y-104222829D01*
X98270009Y-104222592D01*
X98434314Y-104222430D01*
X98617980Y-104222330D01*
X98822103Y-104222280D01*
X99033247Y-104222267D01*
X100653600Y-104222267D01*
X100653600Y-104319054D01*
X100653600Y-104319054D01*
G37*
X100653600Y-104319054D02*
X100664465Y-104432993D01*
X100696082Y-104540616D01*
X100746985Y-104639615D01*
X100815707Y-104727684D01*
X100900781Y-104802516D01*
X100997768Y-104860384D01*
X101104036Y-104900005D01*
X101211050Y-104918573D01*
X101316700Y-104917434D01*
X101418875Y-104897930D01*
X101515466Y-104861406D01*
X101604362Y-104809205D01*
X101683454Y-104742673D01*
X101750631Y-104663152D01*
X101803783Y-104571987D01*
X101840801Y-104470523D01*
X101859573Y-104360102D01*
X101861511Y-104310206D01*
X101861511Y-104222267D01*
X101913440Y-104222267D01*
X101949747Y-104225111D01*
X101976645Y-104236911D01*
X102003751Y-104260649D01*
X102042133Y-104299031D01*
X102042133Y-106490602D01*
X102042124Y-106752739D01*
X102042092Y-106993241D01*
X102042028Y-107213048D01*
X102041924Y-107413101D01*
X102041773Y-107594344D01*
X102041566Y-107757716D01*
X102041294Y-107904160D01*
X102040950Y-108034617D01*
X102040526Y-108150029D01*
X102040013Y-108251338D01*
X102039403Y-108339484D01*
X102038688Y-108415410D01*
X102037860Y-108480057D01*
X102036911Y-108534367D01*
X102035833Y-108579280D01*
X102034617Y-108615740D01*
X102033255Y-108644687D01*
X102031739Y-108667063D01*
X102030062Y-108683809D01*
X102028214Y-108695868D01*
X102026187Y-108704180D01*
X102023975Y-108709687D01*
X102022892Y-108711537D01*
X102018729Y-108718549D01*
X102015195Y-108724996D01*
X102011365Y-108730900D01*
X102006318Y-108736286D01*
X101999129Y-108741178D01*
X101988877Y-108745598D01*
X101974636Y-108749572D01*
X101955486Y-108753121D01*
X101930501Y-108756270D01*
X101898760Y-108759042D01*
X101859338Y-108761461D01*
X101811314Y-108763551D01*
X101753763Y-108765335D01*
X101685763Y-108766837D01*
X101606390Y-108768080D01*
X101514721Y-108769089D01*
X101409834Y-108769885D01*
X101290804Y-108770494D01*
X101156710Y-108770939D01*
X101006627Y-108771243D01*
X100839633Y-108771430D01*
X100654804Y-108771524D01*
X100451217Y-108771548D01*
X100227950Y-108771525D01*
X99984078Y-108771480D01*
X99718679Y-108771437D01*
X99680296Y-108771432D01*
X99413318Y-108771389D01*
X99167998Y-108771318D01*
X98943417Y-108771213D01*
X98738655Y-108771066D01*
X98552794Y-108770869D01*
X98384912Y-108770616D01*
X98234092Y-108770300D01*
X98099413Y-108769913D01*
X97979956Y-108769447D01*
X97874801Y-108768897D01*
X97783029Y-108768253D01*
X97703721Y-108767511D01*
X97635957Y-108766661D01*
X97578818Y-108765697D01*
X97531383Y-108764611D01*
X97492734Y-108763397D01*
X97461951Y-108762047D01*
X97438115Y-108760555D01*
X97420306Y-108758911D01*
X97407605Y-108757111D01*
X97399092Y-108755145D01*
X97394734Y-108753477D01*
X97386272Y-108749906D01*
X97378503Y-108747270D01*
X97371398Y-108744634D01*
X97364927Y-108741062D01*
X97359061Y-108735621D01*
X97353771Y-108727375D01*
X97349026Y-108715390D01*
X97344798Y-108698731D01*
X97341057Y-108676463D01*
X97337773Y-108647652D01*
X97334917Y-108611363D01*
X97332460Y-108566661D01*
X97330371Y-108512611D01*
X97328622Y-108448279D01*
X97327183Y-108372730D01*
X97326024Y-108285030D01*
X97325117Y-108184243D01*
X97324431Y-108069434D01*
X97323937Y-107939670D01*
X97323605Y-107794015D01*
X97323407Y-107631535D01*
X97323313Y-107451295D01*
X97323292Y-107252360D01*
X97323315Y-107033796D01*
X97323354Y-106794668D01*
X97323378Y-106534040D01*
X97323378Y-106491889D01*
X97323364Y-106228992D01*
X97323339Y-105987732D01*
X97323329Y-105767165D01*
X97323358Y-105566352D01*
X97323452Y-105384349D01*
X97323638Y-105220216D01*
X97323941Y-105073011D01*
X97324386Y-104941792D01*
X97324966Y-104831867D01*
X97627803Y-104831867D01*
X97667593Y-104889711D01*
X97678764Y-104905479D01*
X97688834Y-104919441D01*
X97697862Y-104932784D01*
X97705903Y-104946693D01*
X97713014Y-104962356D01*
X97719253Y-104980958D01*
X97724675Y-105003686D01*
X97729338Y-105031727D01*
X97733299Y-105066267D01*
X97736615Y-105108492D01*
X97739341Y-105159589D01*
X97741536Y-105220744D01*
X97743255Y-105293144D01*
X97744556Y-105377975D01*
X97745495Y-105476422D01*
X97746130Y-105589674D01*
X97746516Y-105718916D01*
X97746712Y-105865334D01*
X97746773Y-106030116D01*
X97746757Y-106214447D01*
X97746720Y-106419513D01*
X97746711Y-106542133D01*
X97746735Y-106759082D01*
X97746769Y-106954642D01*
X97746757Y-107129999D01*
X97746642Y-107286341D01*
X97746370Y-107424857D01*
X97745882Y-107546734D01*
X97745124Y-107653160D01*
X97744038Y-107745322D01*
X97742569Y-107824409D01*
X97740660Y-107891608D01*
X97738256Y-107948107D01*
X97735299Y-107995093D01*
X97731734Y-108033755D01*
X97727505Y-108065280D01*
X97722554Y-108090855D01*
X97716827Y-108111670D01*
X97710267Y-108128911D01*
X97702817Y-108143765D01*
X97694421Y-108157422D01*
X97685024Y-108171069D01*
X97674568Y-108185893D01*
X97668477Y-108194783D01*
X97629704Y-108252400D01*
X98161268Y-108252400D01*
X98284517Y-108252365D01*
X98387013Y-108252215D01*
X98470580Y-108251878D01*
X98537044Y-108251286D01*
X98588229Y-108250367D01*
X98625959Y-108249051D01*
X98652060Y-108247269D01*
X98668356Y-108244951D01*
X98676672Y-108242026D01*
X98678832Y-108238424D01*
X98676661Y-108234075D01*
X98675465Y-108232645D01*
X98650315Y-108195573D01*
X98624417Y-108142772D01*
X98600808Y-108080770D01*
X98592539Y-108054357D01*
X98587922Y-108036416D01*
X98584021Y-108015355D01*
X98580752Y-107989089D01*
X98578034Y-107955532D01*
X98575785Y-107912599D01*
X98573923Y-107858204D01*
X98572364Y-107790262D01*
X98571028Y-107706688D01*
X98569831Y-107605395D01*
X98568692Y-107484300D01*
X98568315Y-107439600D01*
X98567298Y-107314449D01*
X98566540Y-107210082D01*
X98566097Y-107124707D01*
X98566030Y-107056533D01*
X98566395Y-107003765D01*
X98567252Y-106964614D01*
X98568659Y-106937285D01*
X98570675Y-106919986D01*
X98573357Y-106910926D01*
X98576764Y-106908312D01*
X98580956Y-106910351D01*
X98585429Y-106914667D01*
X98595784Y-106927602D01*
X98617842Y-106956676D01*
X98650043Y-106999759D01*
X98690826Y-107054718D01*
X98738630Y-107119423D01*
X98791895Y-107191742D01*
X98849060Y-107269544D01*
X98908563Y-107350698D01*
X98968845Y-107433072D01*
X99028345Y-107514536D01*
X99085502Y-107592957D01*
X99138755Y-107666204D01*
X99186543Y-107732147D01*
X99227307Y-107788654D01*
X99259484Y-107833593D01*
X99281515Y-107864834D01*
X99286083Y-107871466D01*
X99309004Y-107908369D01*
X99335812Y-107956359D01*
X99361211Y-108005897D01*
X99364432Y-108012577D01*
X99386110Y-108060772D01*
X99398696Y-108098334D01*
X99404426Y-108134160D01*
X99405544Y-108176200D01*
X99404910Y-108252400D01*
X100559349Y-108252400D01*
X100468185Y-108158669D01*
X100421388Y-108108775D01*
X100371101Y-108052295D01*
X100325056Y-107998026D01*
X100304631Y-107972673D01*
X100274193Y-107933128D01*
X100234138Y-107879916D01*
X100185639Y-107814667D01*
X100129865Y-107739011D01*
X100067989Y-107654577D01*
X100001181Y-107562994D01*
X99930613Y-107465892D01*
X99857455Y-107364901D01*
X99782879Y-107261650D01*
X99708056Y-107157768D01*
X99634157Y-107054885D01*
X99562354Y-106954631D01*
X99493816Y-106858636D01*
X99429716Y-106768527D01*
X99371225Y-106685936D01*
X99319514Y-106612492D01*
X99275753Y-106549824D01*
X99241115Y-106499561D01*
X99216770Y-106463334D01*
X99203889Y-106442771D01*
X99202131Y-106438668D01*
X99210090Y-106427342D01*
X99230885Y-106400162D01*
X99263153Y-106358829D01*
X99305530Y-106305044D01*
X99356653Y-106240506D01*
X99415159Y-106166918D01*
X99479686Y-106085978D01*
X99548869Y-105999388D01*
X99621347Y-105908848D01*
X99695754Y-105816060D01*
X99755483Y-105741702D01*
X100766489Y-105741702D01*
X100772398Y-105754659D01*
X100786728Y-105776908D01*
X100787775Y-105778391D01*
X100806562Y-105808544D01*
X100826209Y-105845375D01*
X100830108Y-105853511D01*
X100833644Y-105861940D01*
X100836770Y-105872059D01*
X100839514Y-105885260D01*
X100841908Y-105902938D01*
X100843981Y-105926484D01*
X100845765Y-105957293D01*
X100847288Y-105996757D01*
X100848581Y-106046269D01*
X100849674Y-106107223D01*
X100850597Y-106181011D01*
X100851381Y-106269028D01*
X100852055Y-106372665D01*
X100852650Y-106493316D01*
X100853195Y-106632374D01*
X100853721Y-106791232D01*
X100854255Y-106970089D01*
X100854794Y-107155207D01*
X100855228Y-107319145D01*
X100855491Y-107463303D01*
X100855516Y-107589079D01*
X100855235Y-107697871D01*
X100854581Y-107791077D01*
X100853486Y-107870097D01*
X100851882Y-107936328D01*
X100849703Y-107991170D01*
X100846881Y-108036021D01*
X100843349Y-108072278D01*
X100839039Y-108101341D01*
X100833883Y-108124609D01*
X100827815Y-108143479D01*
X100820767Y-108159351D01*
X100812671Y-108173622D01*
X100803460Y-108187691D01*
X100794960Y-108200158D01*
X100777824Y-108226452D01*
X100767678Y-108244037D01*
X100766489Y-108247257D01*
X100777396Y-108248334D01*
X100808589Y-108249335D01*
X100857777Y-108250235D01*
X100922667Y-108251010D01*
X101000970Y-108251637D01*
X101090393Y-108252091D01*
X101188644Y-108252349D01*
X101257555Y-108252400D01*
X101362548Y-108252180D01*
X101459390Y-108251548D01*
X101545893Y-108250549D01*
X101619868Y-108249227D01*
X101679126Y-108247626D01*
X101721480Y-108245791D01*
X101744740Y-108243765D01*
X101748622Y-108242493D01*
X101740924Y-108227591D01*
X101732926Y-108219560D01*
X101719754Y-108202434D01*
X101702515Y-108172183D01*
X101690593Y-108147622D01*
X101663955Y-108088711D01*
X101660880Y-106911845D01*
X101657805Y-105734978D01*
X101212147Y-105734978D01*
X101114330Y-105735142D01*
X101023936Y-105735611D01*
X100943370Y-105736347D01*
X100875038Y-105737316D01*
X100821344Y-105738480D01*
X100784695Y-105739803D01*
X100767496Y-105741249D01*
X100766489Y-105741702D01*
X99755483Y-105741702D01*
X99770730Y-105722722D01*
X99844910Y-105630537D01*
X99916931Y-105541204D01*
X99985431Y-105456424D01*
X100049045Y-105377898D01*
X100106412Y-105307326D01*
X100156167Y-105246409D01*
X100196948Y-105196847D01*
X100214112Y-105176178D01*
X100300404Y-105075516D01*
X100377003Y-104992259D01*
X100445817Y-104924438D01*
X100508752Y-104870089D01*
X100518133Y-104862722D01*
X100557644Y-104832117D01*
X99425884Y-104831867D01*
X99431173Y-104879844D01*
X99427870Y-104937188D01*
X99406339Y-105005463D01*
X99366365Y-105085212D01*
X99321057Y-105157495D01*
X99304839Y-105180140D01*
X99276786Y-105217696D01*
X99238570Y-105268021D01*
X99191863Y-105328973D01*
X99138339Y-105398411D01*
X99079669Y-105474194D01*
X99017525Y-105554180D01*
X98953579Y-105636228D01*
X98889505Y-105718196D01*
X98826973Y-105797943D01*
X98767657Y-105873327D01*
X98713229Y-105942207D01*
X98665361Y-106002442D01*
X98625725Y-106051889D01*
X98595994Y-106088408D01*
X98577839Y-106109858D01*
X98574780Y-106113156D01*
X98571921Y-106105149D01*
X98569707Y-106074855D01*
X98568143Y-106022556D01*
X98567233Y-105948531D01*
X98566980Y-105853063D01*
X98567387Y-105736434D01*
X98568296Y-105616445D01*
X98569618Y-105484333D01*
X98571143Y-105372594D01*
X98573119Y-105279025D01*
X98575794Y-105201419D01*
X98579418Y-105137574D01*
X98584239Y-105085283D01*
X98590506Y-105042344D01*
X98598468Y-105006551D01*
X98608373Y-104975700D01*
X98620469Y-104947586D01*
X98635007Y-104920005D01*
X98649689Y-104894966D01*
X98687686Y-104831867D01*
X97627803Y-104831867D01*
X97324966Y-104831867D01*
X97324999Y-104825617D01*
X97325805Y-104723544D01*
X97326830Y-104634633D01*
X97328100Y-104557941D01*
X97329640Y-104492527D01*
X97331476Y-104437449D01*
X97333633Y-104391765D01*
X97336137Y-104354534D01*
X97339013Y-104324813D01*
X97342287Y-104301662D01*
X97345985Y-104284139D01*
X97350131Y-104271301D01*
X97354753Y-104262208D01*
X97359874Y-104255918D01*
X97365522Y-104251488D01*
X97371721Y-104247978D01*
X97378496Y-104244445D01*
X97384492Y-104240876D01*
X97389725Y-104238300D01*
X97397901Y-104235972D01*
X97410114Y-104233878D01*
X97427459Y-104232007D01*
X97451031Y-104230347D01*
X97481923Y-104228884D01*
X97521232Y-104227608D01*
X97570050Y-104226504D01*
X97629473Y-104225561D01*
X97700596Y-104224767D01*
X97784512Y-104224109D01*
X97882317Y-104223575D01*
X97995106Y-104223153D01*
X98123971Y-104222829D01*
X98270009Y-104222592D01*
X98434314Y-104222430D01*
X98617980Y-104222330D01*
X98822103Y-104222280D01*
X99033247Y-104222267D01*
X100653600Y-104222267D01*
X100653600Y-104319054D01*
G36*
X109828823Y-109104533D02*
X109860202Y-109126776D01*
X109887911Y-109154485D01*
X109887911Y-109463920D01*
X109887838Y-109555799D01*
X109887495Y-109627840D01*
X109886692Y-109682780D01*
X109885241Y-109723360D01*
X109882952Y-109752317D01*
X109879636Y-109772391D01*
X109875105Y-109786321D01*
X109869169Y-109796845D01*
X109864514Y-109803100D01*
X109833783Y-109827673D01*
X109798496Y-109830341D01*
X109766245Y-109815271D01*
X109755588Y-109806374D01*
X109748464Y-109794557D01*
X109744167Y-109775526D01*
X109741991Y-109744992D01*
X109741228Y-109698662D01*
X109741155Y-109662871D01*
X109741155Y-109528045D01*
X109244444Y-109528045D01*
X109244444Y-109650700D01*
X109243931Y-109706787D01*
X109241876Y-109745333D01*
X109237508Y-109771361D01*
X109230056Y-109789897D01*
X109221047Y-109803100D01*
X109190144Y-109827604D01*
X109155196Y-109830506D01*
X109121738Y-109813089D01*
X109112604Y-109803959D01*
X109106152Y-109791855D01*
X109101897Y-109773001D01*
X109099352Y-109743620D01*
X109098029Y-109699937D01*
X109097443Y-109638175D01*
X109097375Y-109624000D01*
X109096891Y-109507631D01*
X109096641Y-109411727D01*
X109096723Y-109334177D01*
X109097231Y-109272869D01*
X109098262Y-109225690D01*
X109099913Y-109190530D01*
X109102279Y-109165276D01*
X109105457Y-109147817D01*
X109109544Y-109136041D01*
X109114634Y-109127835D01*
X109120266Y-109121645D01*
X109152128Y-109101844D01*
X109185357Y-109104533D01*
X109216735Y-109126776D01*
X109229433Y-109141126D01*
X109237526Y-109156978D01*
X109242042Y-109179554D01*
X109244006Y-109214078D01*
X109244444Y-109265776D01*
X109244444Y-109381289D01*
X109741155Y-109381289D01*
X109741155Y-109262756D01*
X109741662Y-109208148D01*
X109743698Y-109171275D01*
X109748035Y-109147307D01*
X109755447Y-109131415D01*
X109763733Y-109121645D01*
X109795594Y-109101844D01*
X109828823Y-109104533D01*
X109828823Y-109104533D01*
G37*
X109828823Y-109104533D02*
X109860202Y-109126776D01*
X109887911Y-109154485D01*
X109887911Y-109463920D01*
X109887838Y-109555799D01*
X109887495Y-109627840D01*
X109886692Y-109682780D01*
X109885241Y-109723360D01*
X109882952Y-109752317D01*
X109879636Y-109772391D01*
X109875105Y-109786321D01*
X109869169Y-109796845D01*
X109864514Y-109803100D01*
X109833783Y-109827673D01*
X109798496Y-109830341D01*
X109766245Y-109815271D01*
X109755588Y-109806374D01*
X109748464Y-109794557D01*
X109744167Y-109775526D01*
X109741991Y-109744992D01*
X109741228Y-109698662D01*
X109741155Y-109662871D01*
X109741155Y-109528045D01*
X109244444Y-109528045D01*
X109244444Y-109650700D01*
X109243931Y-109706787D01*
X109241876Y-109745333D01*
X109237508Y-109771361D01*
X109230056Y-109789897D01*
X109221047Y-109803100D01*
X109190144Y-109827604D01*
X109155196Y-109830506D01*
X109121738Y-109813089D01*
X109112604Y-109803959D01*
X109106152Y-109791855D01*
X109101897Y-109773001D01*
X109099352Y-109743620D01*
X109098029Y-109699937D01*
X109097443Y-109638175D01*
X109097375Y-109624000D01*
X109096891Y-109507631D01*
X109096641Y-109411727D01*
X109096723Y-109334177D01*
X109097231Y-109272869D01*
X109098262Y-109225690D01*
X109099913Y-109190530D01*
X109102279Y-109165276D01*
X109105457Y-109147817D01*
X109109544Y-109136041D01*
X109114634Y-109127835D01*
X109120266Y-109121645D01*
X109152128Y-109101844D01*
X109185357Y-109104533D01*
X109216735Y-109126776D01*
X109229433Y-109141126D01*
X109237526Y-109156978D01*
X109242042Y-109179554D01*
X109244006Y-109214078D01*
X109244444Y-109265776D01*
X109244444Y-109381289D01*
X109741155Y-109381289D01*
X109741155Y-109262756D01*
X109741662Y-109208148D01*
X109743698Y-109171275D01*
X109748035Y-109147307D01*
X109755447Y-109131415D01*
X109763733Y-109121645D01*
X109795594Y-109101844D01*
X109828823Y-109104533D01*
G36*
X108563065Y-109099163D02*
X108641772Y-109099542D01*
X108702863Y-109100333D01*
X108748817Y-109101670D01*
X108782114Y-109103683D01*
X108805236Y-109106506D01*
X108820662Y-109110269D01*
X108830871Y-109115105D01*
X108835813Y-109118822D01*
X108861457Y-109151358D01*
X108864559Y-109185138D01*
X108848711Y-109215826D01*
X108838348Y-109228089D01*
X108827196Y-109236450D01*
X108811035Y-109241657D01*
X108785642Y-109244457D01*
X108746798Y-109245596D01*
X108690280Y-109245821D01*
X108679180Y-109245822D01*
X108533244Y-109245822D01*
X108533244Y-109516756D01*
X108533148Y-109602154D01*
X108532711Y-109667864D01*
X108531712Y-109716774D01*
X108529928Y-109751773D01*
X108527137Y-109775749D01*
X108523117Y-109791593D01*
X108517645Y-109802191D01*
X108510666Y-109810267D01*
X108477734Y-109830112D01*
X108443354Y-109828548D01*
X108412176Y-109805906D01*
X108409886Y-109803100D01*
X108402429Y-109792492D01*
X108396747Y-109780081D01*
X108392601Y-109762850D01*
X108389750Y-109737784D01*
X108387954Y-109701867D01*
X108386972Y-109652083D01*
X108386564Y-109585417D01*
X108386489Y-109509589D01*
X108386489Y-109245822D01*
X108247127Y-109245822D01*
X108187322Y-109245418D01*
X108145918Y-109243840D01*
X108118748Y-109240547D01*
X108101646Y-109234992D01*
X108090443Y-109226631D01*
X108089083Y-109225178D01*
X108072725Y-109191939D01*
X108074172Y-109154362D01*
X108092978Y-109121645D01*
X108100250Y-109115298D01*
X108109627Y-109110266D01*
X108123609Y-109106396D01*
X108144696Y-109103537D01*
X108175389Y-109101535D01*
X108218189Y-109100239D01*
X108275595Y-109099498D01*
X108350110Y-109099158D01*
X108444233Y-109099068D01*
X108464260Y-109099067D01*
X108563065Y-109099163D01*
X108563065Y-109099163D01*
G37*
X108563065Y-109099163D02*
X108641772Y-109099542D01*
X108702863Y-109100333D01*
X108748817Y-109101670D01*
X108782114Y-109103683D01*
X108805236Y-109106506D01*
X108820662Y-109110269D01*
X108830871Y-109115105D01*
X108835813Y-109118822D01*
X108861457Y-109151358D01*
X108864559Y-109185138D01*
X108848711Y-109215826D01*
X108838348Y-109228089D01*
X108827196Y-109236450D01*
X108811035Y-109241657D01*
X108785642Y-109244457D01*
X108746798Y-109245596D01*
X108690280Y-109245821D01*
X108679180Y-109245822D01*
X108533244Y-109245822D01*
X108533244Y-109516756D01*
X108533148Y-109602154D01*
X108532711Y-109667864D01*
X108531712Y-109716774D01*
X108529928Y-109751773D01*
X108527137Y-109775749D01*
X108523117Y-109791593D01*
X108517645Y-109802191D01*
X108510666Y-109810267D01*
X108477734Y-109830112D01*
X108443354Y-109828548D01*
X108412176Y-109805906D01*
X108409886Y-109803100D01*
X108402429Y-109792492D01*
X108396747Y-109780081D01*
X108392601Y-109762850D01*
X108389750Y-109737784D01*
X108387954Y-109701867D01*
X108386972Y-109652083D01*
X108386564Y-109585417D01*
X108386489Y-109509589D01*
X108386489Y-109245822D01*
X108247127Y-109245822D01*
X108187322Y-109245418D01*
X108145918Y-109243840D01*
X108118748Y-109240547D01*
X108101646Y-109234992D01*
X108090443Y-109226631D01*
X108089083Y-109225178D01*
X108072725Y-109191939D01*
X108074172Y-109154362D01*
X108092978Y-109121645D01*
X108100250Y-109115298D01*
X108109627Y-109110266D01*
X108123609Y-109106396D01*
X108144696Y-109103537D01*
X108175389Y-109101535D01*
X108218189Y-109100239D01*
X108275595Y-109099498D01*
X108350110Y-109099158D01*
X108444233Y-109099068D01*
X108464260Y-109099067D01*
X108563065Y-109099163D01*
G36*
X107788614Y-109105877D02*
X107812327Y-109120647D01*
X107838978Y-109142227D01*
X107838978Y-109463773D01*
X107838893Y-109557830D01*
X107838529Y-109631932D01*
X107837724Y-109688704D01*
X107836313Y-109730768D01*
X107834133Y-109760748D01*
X107831021Y-109781267D01*
X107826814Y-109794949D01*
X107821348Y-109804416D01*
X107817472Y-109809082D01*
X107786034Y-109829575D01*
X107750233Y-109828739D01*
X107718873Y-109811264D01*
X107692222Y-109789684D01*
X107692222Y-109142227D01*
X107718873Y-109120647D01*
X107744594Y-109104949D01*
X107765600Y-109099067D01*
X107788614Y-109105877D01*
X107788614Y-109105877D01*
G37*
X107788614Y-109105877D02*
X107812327Y-109120647D01*
X107838978Y-109142227D01*
X107838978Y-109463773D01*
X107838893Y-109557830D01*
X107838529Y-109631932D01*
X107837724Y-109688704D01*
X107836313Y-109730768D01*
X107834133Y-109760748D01*
X107831021Y-109781267D01*
X107826814Y-109794949D01*
X107821348Y-109804416D01*
X107817472Y-109809082D01*
X107786034Y-109829575D01*
X107750233Y-109828739D01*
X107718873Y-109811264D01*
X107692222Y-109789684D01*
X107692222Y-109142227D01*
X107718873Y-109120647D01*
X107744594Y-109104949D01*
X107765600Y-109099067D01*
X107788614Y-109105877D01*
G36*
X107344665Y-109101034D02*
X107364255Y-109108035D01*
X107365010Y-109108377D01*
X107391613Y-109128678D01*
X107406270Y-109149561D01*
X107409138Y-109159352D01*
X107408996Y-109172361D01*
X107404961Y-109190895D01*
X107396146Y-109217257D01*
X107381669Y-109253752D01*
X107360645Y-109302687D01*
X107332188Y-109366365D01*
X107295415Y-109447093D01*
X107275175Y-109491216D01*
X107238625Y-109569985D01*
X107204315Y-109642423D01*
X107173552Y-109705880D01*
X107147648Y-109757708D01*
X107127910Y-109795259D01*
X107115650Y-109815884D01*
X107113224Y-109818733D01*
X107082183Y-109831302D01*
X107047121Y-109829619D01*
X107019000Y-109814332D01*
X107017854Y-109813089D01*
X107006668Y-109796154D01*
X106987904Y-109763170D01*
X106963875Y-109718380D01*
X106936897Y-109666032D01*
X106927201Y-109646742D01*
X106854014Y-109500150D01*
X106774240Y-109659393D01*
X106745767Y-109714415D01*
X106719350Y-109762132D01*
X106697148Y-109798893D01*
X106681319Y-109821044D01*
X106675954Y-109825741D01*
X106634257Y-109832102D01*
X106599849Y-109818733D01*
X106589728Y-109804446D01*
X106572214Y-109772692D01*
X106548735Y-109726597D01*
X106520720Y-109669285D01*
X106489599Y-109603880D01*
X106456799Y-109533507D01*
X106423750Y-109461291D01*
X106391881Y-109390355D01*
X106362619Y-109323825D01*
X106337395Y-109264826D01*
X106317636Y-109216481D01*
X106304772Y-109181915D01*
X106300231Y-109164253D01*
X106300277Y-109163613D01*
X106311326Y-109141388D01*
X106333410Y-109118753D01*
X106334710Y-109117768D01*
X106361853Y-109102425D01*
X106386958Y-109102574D01*
X106396368Y-109105466D01*
X106407834Y-109111718D01*
X106420010Y-109124014D01*
X106434357Y-109144908D01*
X106452336Y-109176949D01*
X106475407Y-109222688D01*
X106505030Y-109284677D01*
X106531745Y-109341898D01*
X106562480Y-109408226D01*
X106590021Y-109467874D01*
X106612938Y-109517725D01*
X106629798Y-109554664D01*
X106639173Y-109575573D01*
X106640540Y-109578845D01*
X106646689Y-109573497D01*
X106660822Y-109551109D01*
X106681057Y-109514946D01*
X106705515Y-109468277D01*
X106715248Y-109449022D01*
X106748217Y-109384004D01*
X106773643Y-109336654D01*
X106793612Y-109304219D01*
X106810210Y-109283946D01*
X106825524Y-109273082D01*
X106841640Y-109268875D01*
X106852143Y-109268400D01*
X106870670Y-109270042D01*
X106886904Y-109276831D01*
X106903035Y-109291566D01*
X106921251Y-109317044D01*
X106943739Y-109356061D01*
X106972689Y-109411414D01*
X106988662Y-109442903D01*
X107014570Y-109493087D01*
X107037167Y-109534704D01*
X107054458Y-109564242D01*
X107064450Y-109578189D01*
X107065809Y-109578770D01*
X107072261Y-109567793D01*
X107086708Y-109539290D01*
X107107703Y-109496244D01*
X107133797Y-109441638D01*
X107163546Y-109378454D01*
X107178180Y-109347071D01*
X107216250Y-109266078D01*
X107246905Y-109203756D01*
X107271737Y-109158071D01*
X107292337Y-109126989D01*
X107310298Y-109108478D01*
X107327210Y-109100504D01*
X107344665Y-109101034D01*
X107344665Y-109101034D01*
G37*
X107344665Y-109101034D02*
X107364255Y-109108035D01*
X107365010Y-109108377D01*
X107391613Y-109128678D01*
X107406270Y-109149561D01*
X107409138Y-109159352D01*
X107408996Y-109172361D01*
X107404961Y-109190895D01*
X107396146Y-109217257D01*
X107381669Y-109253752D01*
X107360645Y-109302687D01*
X107332188Y-109366365D01*
X107295415Y-109447093D01*
X107275175Y-109491216D01*
X107238625Y-109569985D01*
X107204315Y-109642423D01*
X107173552Y-109705880D01*
X107147648Y-109757708D01*
X107127910Y-109795259D01*
X107115650Y-109815884D01*
X107113224Y-109818733D01*
X107082183Y-109831302D01*
X107047121Y-109829619D01*
X107019000Y-109814332D01*
X107017854Y-109813089D01*
X107006668Y-109796154D01*
X106987904Y-109763170D01*
X106963875Y-109718380D01*
X106936897Y-109666032D01*
X106927201Y-109646742D01*
X106854014Y-109500150D01*
X106774240Y-109659393D01*
X106745767Y-109714415D01*
X106719350Y-109762132D01*
X106697148Y-109798893D01*
X106681319Y-109821044D01*
X106675954Y-109825741D01*
X106634257Y-109832102D01*
X106599849Y-109818733D01*
X106589728Y-109804446D01*
X106572214Y-109772692D01*
X106548735Y-109726597D01*
X106520720Y-109669285D01*
X106489599Y-109603880D01*
X106456799Y-109533507D01*
X106423750Y-109461291D01*
X106391881Y-109390355D01*
X106362619Y-109323825D01*
X106337395Y-109264826D01*
X106317636Y-109216481D01*
X106304772Y-109181915D01*
X106300231Y-109164253D01*
X106300277Y-109163613D01*
X106311326Y-109141388D01*
X106333410Y-109118753D01*
X106334710Y-109117768D01*
X106361853Y-109102425D01*
X106386958Y-109102574D01*
X106396368Y-109105466D01*
X106407834Y-109111718D01*
X106420010Y-109124014D01*
X106434357Y-109144908D01*
X106452336Y-109176949D01*
X106475407Y-109222688D01*
X106505030Y-109284677D01*
X106531745Y-109341898D01*
X106562480Y-109408226D01*
X106590021Y-109467874D01*
X106612938Y-109517725D01*
X106629798Y-109554664D01*
X106639173Y-109575573D01*
X106640540Y-109578845D01*
X106646689Y-109573497D01*
X106660822Y-109551109D01*
X106681057Y-109514946D01*
X106705515Y-109468277D01*
X106715248Y-109449022D01*
X106748217Y-109384004D01*
X106773643Y-109336654D01*
X106793612Y-109304219D01*
X106810210Y-109283946D01*
X106825524Y-109273082D01*
X106841640Y-109268875D01*
X106852143Y-109268400D01*
X106870670Y-109270042D01*
X106886904Y-109276831D01*
X106903035Y-109291566D01*
X106921251Y-109317044D01*
X106943739Y-109356061D01*
X106972689Y-109411414D01*
X106988662Y-109442903D01*
X107014570Y-109493087D01*
X107037167Y-109534704D01*
X107054458Y-109564242D01*
X107064450Y-109578189D01*
X107065809Y-109578770D01*
X107072261Y-109567793D01*
X107086708Y-109539290D01*
X107107703Y-109496244D01*
X107133797Y-109441638D01*
X107163546Y-109378454D01*
X107178180Y-109347071D01*
X107216250Y-109266078D01*
X107246905Y-109203756D01*
X107271737Y-109158071D01*
X107292337Y-109126989D01*
X107310298Y-109108478D01*
X107327210Y-109100504D01*
X107344665Y-109101034D01*
G36*
X104618309Y-109099275D02*
X104747288Y-109103636D01*
X104856991Y-109116861D01*
X104949226Y-109139741D01*
X105025802Y-109173070D01*
X105088527Y-109217638D01*
X105139212Y-109274236D01*
X105179663Y-109343658D01*
X105180459Y-109345351D01*
X105204601Y-109407483D01*
X105213203Y-109462509D01*
X105206231Y-109517887D01*
X105183654Y-109581073D01*
X105179372Y-109590689D01*
X105150172Y-109646966D01*
X105117356Y-109690451D01*
X105075002Y-109727417D01*
X105017190Y-109764135D01*
X105013831Y-109766052D01*
X104963504Y-109790227D01*
X104906621Y-109808282D01*
X104839527Y-109820839D01*
X104758565Y-109828522D01*
X104660082Y-109831953D01*
X104625286Y-109832251D01*
X104459594Y-109832845D01*
X104436197Y-109803100D01*
X104429257Y-109793319D01*
X104423842Y-109781897D01*
X104419765Y-109766095D01*
X104416837Y-109743175D01*
X104414867Y-109710396D01*
X104414225Y-109686089D01*
X104570844Y-109686089D01*
X104664726Y-109686089D01*
X104719664Y-109684483D01*
X104776060Y-109680255D01*
X104822345Y-109674292D01*
X104825139Y-109673790D01*
X104907348Y-109651736D01*
X104971114Y-109618600D01*
X105018452Y-109572847D01*
X105051382Y-109512939D01*
X105057108Y-109497061D01*
X105062721Y-109472333D01*
X105060291Y-109447902D01*
X105048467Y-109415400D01*
X105041340Y-109399434D01*
X105018000Y-109357006D01*
X104989880Y-109327240D01*
X104958940Y-109306511D01*
X104896966Y-109279537D01*
X104817651Y-109259998D01*
X104725253Y-109248746D01*
X104658333Y-109246270D01*
X104570844Y-109245822D01*
X104570844Y-109686089D01*
X104414225Y-109686089D01*
X104413668Y-109665021D01*
X104413050Y-109604311D01*
X104412825Y-109525526D01*
X104412800Y-109463920D01*
X104412800Y-109154485D01*
X104440509Y-109126776D01*
X104452806Y-109115544D01*
X104466103Y-109107853D01*
X104484672Y-109103040D01*
X104512786Y-109100446D01*
X104554717Y-109099410D01*
X104614737Y-109099270D01*
X104618309Y-109099275D01*
X104618309Y-109099275D01*
G37*
X104618309Y-109099275D02*
X104747288Y-109103636D01*
X104856991Y-109116861D01*
X104949226Y-109139741D01*
X105025802Y-109173070D01*
X105088527Y-109217638D01*
X105139212Y-109274236D01*
X105179663Y-109343658D01*
X105180459Y-109345351D01*
X105204601Y-109407483D01*
X105213203Y-109462509D01*
X105206231Y-109517887D01*
X105183654Y-109581073D01*
X105179372Y-109590689D01*
X105150172Y-109646966D01*
X105117356Y-109690451D01*
X105075002Y-109727417D01*
X105017190Y-109764135D01*
X105013831Y-109766052D01*
X104963504Y-109790227D01*
X104906621Y-109808282D01*
X104839527Y-109820839D01*
X104758565Y-109828522D01*
X104660082Y-109831953D01*
X104625286Y-109832251D01*
X104459594Y-109832845D01*
X104436197Y-109803100D01*
X104429257Y-109793319D01*
X104423842Y-109781897D01*
X104419765Y-109766095D01*
X104416837Y-109743175D01*
X104414867Y-109710396D01*
X104414225Y-109686089D01*
X104570844Y-109686089D01*
X104664726Y-109686089D01*
X104719664Y-109684483D01*
X104776060Y-109680255D01*
X104822345Y-109674292D01*
X104825139Y-109673790D01*
X104907348Y-109651736D01*
X104971114Y-109618600D01*
X105018452Y-109572847D01*
X105051382Y-109512939D01*
X105057108Y-109497061D01*
X105062721Y-109472333D01*
X105060291Y-109447902D01*
X105048467Y-109415400D01*
X105041340Y-109399434D01*
X105018000Y-109357006D01*
X104989880Y-109327240D01*
X104958940Y-109306511D01*
X104896966Y-109279537D01*
X104817651Y-109259998D01*
X104725253Y-109248746D01*
X104658333Y-109246270D01*
X104570844Y-109245822D01*
X104570844Y-109686089D01*
X104414225Y-109686089D01*
X104413668Y-109665021D01*
X104413050Y-109604311D01*
X104412825Y-109525526D01*
X104412800Y-109463920D01*
X104412800Y-109154485D01*
X104440509Y-109126776D01*
X104452806Y-109115544D01*
X104466103Y-109107853D01*
X104484672Y-109103040D01*
X104512786Y-109100446D01*
X104554717Y-109099410D01*
X104614737Y-109099270D01*
X104618309Y-109099275D01*
G36*
X103830343Y-109099260D02*
X103906701Y-109100174D01*
X103965217Y-109102311D01*
X104008255Y-109106175D01*
X104038183Y-109112267D01*
X104057368Y-109121090D01*
X104068176Y-109133146D01*
X104072973Y-109148939D01*
X104074127Y-109168970D01*
X104074133Y-109171335D01*
X104073131Y-109193992D01*
X104068396Y-109211503D01*
X104057333Y-109224574D01*
X104037348Y-109233913D01*
X104005846Y-109240227D01*
X103960232Y-109244222D01*
X103897913Y-109246606D01*
X103816293Y-109248086D01*
X103791277Y-109248414D01*
X103549200Y-109251467D01*
X103545814Y-109316378D01*
X103542429Y-109381289D01*
X103710576Y-109381289D01*
X103776266Y-109381531D01*
X103823172Y-109382556D01*
X103855083Y-109384811D01*
X103875791Y-109388742D01*
X103889084Y-109394798D01*
X103898755Y-109403424D01*
X103898817Y-109403493D01*
X103916356Y-109437112D01*
X103915722Y-109473448D01*
X103897314Y-109504423D01*
X103893671Y-109507607D01*
X103880741Y-109515812D01*
X103863024Y-109521521D01*
X103836570Y-109525162D01*
X103797432Y-109527167D01*
X103741662Y-109527964D01*
X103705994Y-109528045D01*
X103543555Y-109528045D01*
X103543555Y-109686089D01*
X103790161Y-109686089D01*
X103871580Y-109686231D01*
X103933410Y-109686814D01*
X103978637Y-109688068D01*
X104010248Y-109690227D01*
X104031231Y-109693523D01*
X104044573Y-109698189D01*
X104053261Y-109704457D01*
X104055450Y-109706733D01*
X104071614Y-109738280D01*
X104072797Y-109774168D01*
X104059536Y-109805285D01*
X104049043Y-109815271D01*
X104038129Y-109820769D01*
X104021217Y-109825022D01*
X103995633Y-109828180D01*
X103958701Y-109830392D01*
X103907746Y-109831806D01*
X103840094Y-109832572D01*
X103753069Y-109832838D01*
X103733394Y-109832845D01*
X103644911Y-109832787D01*
X103576227Y-109832467D01*
X103524564Y-109831667D01*
X103487145Y-109830167D01*
X103461190Y-109827749D01*
X103443922Y-109824194D01*
X103432562Y-109819282D01*
X103424332Y-109812795D01*
X103419817Y-109808138D01*
X103413021Y-109799889D01*
X103407712Y-109789669D01*
X103403706Y-109774800D01*
X103400821Y-109752602D01*
X103398874Y-109720393D01*
X103397681Y-109675496D01*
X103397061Y-109615228D01*
X103396829Y-109536911D01*
X103396800Y-109470994D01*
X103396871Y-109378628D01*
X103397208Y-109306117D01*
X103397998Y-109250737D01*
X103399426Y-109209765D01*
X103401679Y-109180478D01*
X103404943Y-109160153D01*
X103409404Y-109146066D01*
X103415248Y-109135495D01*
X103420197Y-109128811D01*
X103443594Y-109099067D01*
X103733774Y-109099067D01*
X103830343Y-109099260D01*
X103830343Y-109099260D01*
G37*
X103830343Y-109099260D02*
X103906701Y-109100174D01*
X103965217Y-109102311D01*
X104008255Y-109106175D01*
X104038183Y-109112267D01*
X104057368Y-109121090D01*
X104068176Y-109133146D01*
X104072973Y-109148939D01*
X104074127Y-109168970D01*
X104074133Y-109171335D01*
X104073131Y-109193992D01*
X104068396Y-109211503D01*
X104057333Y-109224574D01*
X104037348Y-109233913D01*
X104005846Y-109240227D01*
X103960232Y-109244222D01*
X103897913Y-109246606D01*
X103816293Y-109248086D01*
X103791277Y-109248414D01*
X103549200Y-109251467D01*
X103545814Y-109316378D01*
X103542429Y-109381289D01*
X103710576Y-109381289D01*
X103776266Y-109381531D01*
X103823172Y-109382556D01*
X103855083Y-109384811D01*
X103875791Y-109388742D01*
X103889084Y-109394798D01*
X103898755Y-109403424D01*
X103898817Y-109403493D01*
X103916356Y-109437112D01*
X103915722Y-109473448D01*
X103897314Y-109504423D01*
X103893671Y-109507607D01*
X103880741Y-109515812D01*
X103863024Y-109521521D01*
X103836570Y-109525162D01*
X103797432Y-109527167D01*
X103741662Y-109527964D01*
X103705994Y-109528045D01*
X103543555Y-109528045D01*
X103543555Y-109686089D01*
X103790161Y-109686089D01*
X103871580Y-109686231D01*
X103933410Y-109686814D01*
X103978637Y-109688068D01*
X104010248Y-109690227D01*
X104031231Y-109693523D01*
X104044573Y-109698189D01*
X104053261Y-109704457D01*
X104055450Y-109706733D01*
X104071614Y-109738280D01*
X104072797Y-109774168D01*
X104059536Y-109805285D01*
X104049043Y-109815271D01*
X104038129Y-109820769D01*
X104021217Y-109825022D01*
X103995633Y-109828180D01*
X103958701Y-109830392D01*
X103907746Y-109831806D01*
X103840094Y-109832572D01*
X103753069Y-109832838D01*
X103733394Y-109832845D01*
X103644911Y-109832787D01*
X103576227Y-109832467D01*
X103524564Y-109831667D01*
X103487145Y-109830167D01*
X103461190Y-109827749D01*
X103443922Y-109824194D01*
X103432562Y-109819282D01*
X103424332Y-109812795D01*
X103419817Y-109808138D01*
X103413021Y-109799889D01*
X103407712Y-109789669D01*
X103403706Y-109774800D01*
X103400821Y-109752602D01*
X103398874Y-109720393D01*
X103397681Y-109675496D01*
X103397061Y-109615228D01*
X103396829Y-109536911D01*
X103396800Y-109470994D01*
X103396871Y-109378628D01*
X103397208Y-109306117D01*
X103397998Y-109250737D01*
X103399426Y-109209765D01*
X103401679Y-109180478D01*
X103404943Y-109160153D01*
X103409404Y-109146066D01*
X103415248Y-109135495D01*
X103420197Y-109128811D01*
X103443594Y-109099067D01*
X103733774Y-109099067D01*
X103830343Y-109099260D01*
G36*
X102299886Y-109103448D02*
X102323452Y-109117273D01*
X102354265Y-109139881D01*
X102393922Y-109172338D01*
X102444020Y-109215708D01*
X102506157Y-109271058D01*
X102581928Y-109339451D01*
X102668666Y-109418084D01*
X102849289Y-109581878D01*
X102854933Y-109362029D01*
X102856971Y-109286351D01*
X102858937Y-109229994D01*
X102861266Y-109189706D01*
X102864394Y-109162235D01*
X102868755Y-109144329D01*
X102874784Y-109132737D01*
X102882916Y-109124208D01*
X102887228Y-109120623D01*
X102921759Y-109101670D01*
X102954617Y-109104441D01*
X102980682Y-109120633D01*
X103007333Y-109142199D01*
X103010648Y-109457151D01*
X103011565Y-109549779D01*
X103012032Y-109622544D01*
X103011887Y-109678161D01*
X103010968Y-109719342D01*
X103009113Y-109748803D01*
X103006161Y-109769255D01*
X103001950Y-109783413D01*
X102996318Y-109793991D01*
X102990073Y-109802474D01*
X102976561Y-109818207D01*
X102963117Y-109828636D01*
X102947876Y-109832639D01*
X102928974Y-109829094D01*
X102904545Y-109816879D01*
X102872727Y-109794871D01*
X102831652Y-109761949D01*
X102779458Y-109716991D01*
X102714278Y-109658875D01*
X102640444Y-109592099D01*
X102375155Y-109351458D01*
X102369511Y-109570589D01*
X102367469Y-109646128D01*
X102365498Y-109702354D01*
X102363161Y-109742524D01*
X102360019Y-109769896D01*
X102355636Y-109787728D01*
X102349576Y-109799279D01*
X102341400Y-109807807D01*
X102337216Y-109811282D01*
X102300235Y-109830372D01*
X102265292Y-109827493D01*
X102234864Y-109803100D01*
X102227903Y-109793286D01*
X102222477Y-109781826D01*
X102218397Y-109765968D01*
X102215471Y-109742963D01*
X102213508Y-109710062D01*
X102212317Y-109664516D01*
X102211708Y-109603573D01*
X102211489Y-109524486D01*
X102211466Y-109465956D01*
X102211540Y-109374407D01*
X102211887Y-109302687D01*
X102212699Y-109248045D01*
X102214167Y-109207732D01*
X102216481Y-109178998D01*
X102219833Y-109159093D01*
X102224412Y-109145268D01*
X102230411Y-109134772D01*
X102234864Y-109128811D01*
X102246150Y-109114691D01*
X102256699Y-109104029D01*
X102268107Y-109097892D01*
X102281970Y-109097343D01*
X102299886Y-109103448D01*
X102299886Y-109103448D01*
G37*
X102299886Y-109103448D02*
X102323452Y-109117273D01*
X102354265Y-109139881D01*
X102393922Y-109172338D01*
X102444020Y-109215708D01*
X102506157Y-109271058D01*
X102581928Y-109339451D01*
X102668666Y-109418084D01*
X102849289Y-109581878D01*
X102854933Y-109362029D01*
X102856971Y-109286351D01*
X102858937Y-109229994D01*
X102861266Y-109189706D01*
X102864394Y-109162235D01*
X102868755Y-109144329D01*
X102874784Y-109132737D01*
X102882916Y-109124208D01*
X102887228Y-109120623D01*
X102921759Y-109101670D01*
X102954617Y-109104441D01*
X102980682Y-109120633D01*
X103007333Y-109142199D01*
X103010648Y-109457151D01*
X103011565Y-109549779D01*
X103012032Y-109622544D01*
X103011887Y-109678161D01*
X103010968Y-109719342D01*
X103009113Y-109748803D01*
X103006161Y-109769255D01*
X103001950Y-109783413D01*
X102996318Y-109793991D01*
X102990073Y-109802474D01*
X102976561Y-109818207D01*
X102963117Y-109828636D01*
X102947876Y-109832639D01*
X102928974Y-109829094D01*
X102904545Y-109816879D01*
X102872727Y-109794871D01*
X102831652Y-109761949D01*
X102779458Y-109716991D01*
X102714278Y-109658875D01*
X102640444Y-109592099D01*
X102375155Y-109351458D01*
X102369511Y-109570589D01*
X102367469Y-109646128D01*
X102365498Y-109702354D01*
X102363161Y-109742524D01*
X102360019Y-109769896D01*
X102355636Y-109787728D01*
X102349576Y-109799279D01*
X102341400Y-109807807D01*
X102337216Y-109811282D01*
X102300235Y-109830372D01*
X102265292Y-109827493D01*
X102234864Y-109803100D01*
X102227903Y-109793286D01*
X102222477Y-109781826D01*
X102218397Y-109765968D01*
X102215471Y-109742963D01*
X102213508Y-109710062D01*
X102212317Y-109664516D01*
X102211708Y-109603573D01*
X102211489Y-109524486D01*
X102211466Y-109465956D01*
X102211540Y-109374407D01*
X102211887Y-109302687D01*
X102212699Y-109248045D01*
X102214167Y-109207732D01*
X102216481Y-109178998D01*
X102219833Y-109159093D01*
X102224412Y-109145268D01*
X102230411Y-109134772D01*
X102234864Y-109128811D01*
X102246150Y-109114691D01*
X102256699Y-109104029D01*
X102268107Y-109097892D01*
X102281970Y-109097343D01*
X102299886Y-109103448D01*
G36*
X101649919Y-109104599D02*
X101718435Y-109116095D01*
X101771057Y-109133967D01*
X101805292Y-109157499D01*
X101814621Y-109170924D01*
X101824107Y-109202148D01*
X101817723Y-109230395D01*
X101797570Y-109257182D01*
X101766255Y-109269713D01*
X101720817Y-109268696D01*
X101685674Y-109261906D01*
X101607581Y-109248971D01*
X101527774Y-109247742D01*
X101438445Y-109258241D01*
X101413771Y-109262690D01*
X101330709Y-109286108D01*
X101265727Y-109320945D01*
X101219539Y-109366604D01*
X101192855Y-109422494D01*
X101187337Y-109451388D01*
X101190949Y-109510012D01*
X101214271Y-109561879D01*
X101255176Y-109605978D01*
X101311541Y-109641299D01*
X101381240Y-109666829D01*
X101462148Y-109681559D01*
X101552140Y-109684478D01*
X101649090Y-109674575D01*
X101654564Y-109673641D01*
X101693125Y-109666459D01*
X101714506Y-109659521D01*
X101723773Y-109649227D01*
X101725994Y-109631976D01*
X101726044Y-109622841D01*
X101726044Y-109584489D01*
X101657569Y-109584489D01*
X101597100Y-109580347D01*
X101555835Y-109567147D01*
X101531825Y-109543730D01*
X101523123Y-109508936D01*
X101523017Y-109504394D01*
X101528108Y-109474654D01*
X101545567Y-109453419D01*
X101578061Y-109439366D01*
X101628257Y-109431173D01*
X101676877Y-109428161D01*
X101747544Y-109426433D01*
X101798802Y-109429070D01*
X101833761Y-109438800D01*
X101855530Y-109458353D01*
X101867220Y-109490456D01*
X101871940Y-109537838D01*
X101872800Y-109600071D01*
X101871391Y-109669535D01*
X101867152Y-109716786D01*
X101860064Y-109742012D01*
X101858689Y-109743988D01*
X101819772Y-109775508D01*
X101762714Y-109800470D01*
X101691131Y-109818340D01*
X101608642Y-109828586D01*
X101518861Y-109830673D01*
X101425408Y-109824068D01*
X101370444Y-109815956D01*
X101284234Y-109791554D01*
X101204108Y-109751662D01*
X101137023Y-109699887D01*
X101126827Y-109689539D01*
X101093698Y-109646035D01*
X101063806Y-109592118D01*
X101040643Y-109535592D01*
X101027702Y-109484259D01*
X101026142Y-109464544D01*
X101032782Y-109423419D01*
X101050432Y-109372252D01*
X101075703Y-109318394D01*
X101105211Y-109269195D01*
X101131281Y-109236334D01*
X101192235Y-109187452D01*
X101271031Y-109148545D01*
X101364843Y-109120494D01*
X101470850Y-109104179D01*
X101568000Y-109100192D01*
X101649919Y-109104599D01*
X101649919Y-109104599D01*
G37*
X101649919Y-109104599D02*
X101718435Y-109116095D01*
X101771057Y-109133967D01*
X101805292Y-109157499D01*
X101814621Y-109170924D01*
X101824107Y-109202148D01*
X101817723Y-109230395D01*
X101797570Y-109257182D01*
X101766255Y-109269713D01*
X101720817Y-109268696D01*
X101685674Y-109261906D01*
X101607581Y-109248971D01*
X101527774Y-109247742D01*
X101438445Y-109258241D01*
X101413771Y-109262690D01*
X101330709Y-109286108D01*
X101265727Y-109320945D01*
X101219539Y-109366604D01*
X101192855Y-109422494D01*
X101187337Y-109451388D01*
X101190949Y-109510012D01*
X101214271Y-109561879D01*
X101255176Y-109605978D01*
X101311541Y-109641299D01*
X101381240Y-109666829D01*
X101462148Y-109681559D01*
X101552140Y-109684478D01*
X101649090Y-109674575D01*
X101654564Y-109673641D01*
X101693125Y-109666459D01*
X101714506Y-109659521D01*
X101723773Y-109649227D01*
X101725994Y-109631976D01*
X101726044Y-109622841D01*
X101726044Y-109584489D01*
X101657569Y-109584489D01*
X101597100Y-109580347D01*
X101555835Y-109567147D01*
X101531825Y-109543730D01*
X101523123Y-109508936D01*
X101523017Y-109504394D01*
X101528108Y-109474654D01*
X101545567Y-109453419D01*
X101578061Y-109439366D01*
X101628257Y-109431173D01*
X101676877Y-109428161D01*
X101747544Y-109426433D01*
X101798802Y-109429070D01*
X101833761Y-109438800D01*
X101855530Y-109458353D01*
X101867220Y-109490456D01*
X101871940Y-109537838D01*
X101872800Y-109600071D01*
X101871391Y-109669535D01*
X101867152Y-109716786D01*
X101860064Y-109742012D01*
X101858689Y-109743988D01*
X101819772Y-109775508D01*
X101762714Y-109800470D01*
X101691131Y-109818340D01*
X101608642Y-109828586D01*
X101518861Y-109830673D01*
X101425408Y-109824068D01*
X101370444Y-109815956D01*
X101284234Y-109791554D01*
X101204108Y-109751662D01*
X101137023Y-109699887D01*
X101126827Y-109689539D01*
X101093698Y-109646035D01*
X101063806Y-109592118D01*
X101040643Y-109535592D01*
X101027702Y-109484259D01*
X101026142Y-109464544D01*
X101032782Y-109423419D01*
X101050432Y-109372252D01*
X101075703Y-109318394D01*
X101105211Y-109269195D01*
X101131281Y-109236334D01*
X101192235Y-109187452D01*
X101271031Y-109148545D01*
X101364843Y-109120494D01*
X101470850Y-109104179D01*
X101568000Y-109100192D01*
X101649919Y-109104599D01*
G36*
X100676178Y-109121645D02*
X100682758Y-109129218D01*
X100687921Y-109138987D01*
X100691836Y-109153571D01*
X100694676Y-109175585D01*
X100696613Y-109207648D01*
X100697817Y-109252375D01*
X100698461Y-109312385D01*
X100698716Y-109390294D01*
X100698755Y-109465956D01*
X100698686Y-109559802D01*
X100698362Y-109633689D01*
X100697614Y-109690232D01*
X100696268Y-109732049D01*
X100694154Y-109761757D01*
X100691100Y-109781973D01*
X100686934Y-109795314D01*
X100681484Y-109804398D01*
X100676178Y-109810267D01*
X100643174Y-109829947D01*
X100608009Y-109828181D01*
X100576545Y-109806717D01*
X100569316Y-109798337D01*
X100563666Y-109788614D01*
X100559401Y-109774861D01*
X100556327Y-109754389D01*
X100554248Y-109724512D01*
X100552970Y-109682541D01*
X100552299Y-109625789D01*
X100552041Y-109551567D01*
X100552000Y-109467537D01*
X100552000Y-109154485D01*
X100579709Y-109126776D01*
X100613863Y-109103463D01*
X100646994Y-109102623D01*
X100676178Y-109121645D01*
X100676178Y-109121645D01*
G37*
X100676178Y-109121645D02*
X100682758Y-109129218D01*
X100687921Y-109138987D01*
X100691836Y-109153571D01*
X100694676Y-109175585D01*
X100696613Y-109207648D01*
X100697817Y-109252375D01*
X100698461Y-109312385D01*
X100698716Y-109390294D01*
X100698755Y-109465956D01*
X100698686Y-109559802D01*
X100698362Y-109633689D01*
X100697614Y-109690232D01*
X100696268Y-109732049D01*
X100694154Y-109761757D01*
X100691100Y-109781973D01*
X100686934Y-109795314D01*
X100681484Y-109804398D01*
X100676178Y-109810267D01*
X100643174Y-109829947D01*
X100608009Y-109828181D01*
X100576545Y-109806717D01*
X100569316Y-109798337D01*
X100563666Y-109788614D01*
X100559401Y-109774861D01*
X100556327Y-109754389D01*
X100554248Y-109724512D01*
X100552970Y-109682541D01*
X100552299Y-109625789D01*
X100552041Y-109551567D01*
X100552000Y-109467537D01*
X100552000Y-109154485D01*
X100579709Y-109126776D01*
X100613863Y-109103463D01*
X100646994Y-109102623D01*
X100676178Y-109121645D01*
G36*
X99908297Y-109100351D02*
X99983112Y-109105581D01*
X100052694Y-109113750D01*
X100112998Y-109124550D01*
X100159980Y-109137673D01*
X100189594Y-109152813D01*
X100194140Y-109157269D01*
X100209946Y-109191850D01*
X100205153Y-109227351D01*
X100180636Y-109257725D01*
X100179466Y-109258596D01*
X100165046Y-109267954D01*
X100149992Y-109272876D01*
X100128995Y-109273473D01*
X100096743Y-109269861D01*
X100047927Y-109262154D01*
X100044000Y-109261505D01*
X99971261Y-109252569D01*
X99892783Y-109248161D01*
X99814073Y-109248119D01*
X99740639Y-109252279D01*
X99677989Y-109260479D01*
X99631630Y-109272557D01*
X99628584Y-109273771D01*
X99594952Y-109292615D01*
X99583136Y-109311685D01*
X99592386Y-109330439D01*
X99621953Y-109348337D01*
X99671089Y-109364837D01*
X99739043Y-109379396D01*
X99784355Y-109386406D01*
X99878544Y-109399889D01*
X99953456Y-109412214D01*
X100012283Y-109424449D01*
X100058215Y-109437661D01*
X100094445Y-109452917D01*
X100124162Y-109471285D01*
X100150558Y-109493831D01*
X100171770Y-109515971D01*
X100196935Y-109546819D01*
X100209319Y-109573345D01*
X100213192Y-109606026D01*
X100213333Y-109617995D01*
X100210424Y-109657712D01*
X100198798Y-109687259D01*
X100178677Y-109713486D01*
X100137784Y-109753576D01*
X100092183Y-109784149D01*
X100038487Y-109806203D01*
X99973308Y-109820735D01*
X99893256Y-109828741D01*
X99794943Y-109831218D01*
X99778711Y-109831177D01*
X99713151Y-109829818D01*
X99648134Y-109826730D01*
X99590748Y-109822356D01*
X99548078Y-109817140D01*
X99544628Y-109816541D01*
X99502204Y-109806491D01*
X99466220Y-109793796D01*
X99445850Y-109782190D01*
X99426893Y-109751572D01*
X99425573Y-109715918D01*
X99441915Y-109684144D01*
X99445571Y-109680551D01*
X99460685Y-109669876D01*
X99479585Y-109665276D01*
X99508838Y-109666059D01*
X99544349Y-109670127D01*
X99584030Y-109673762D01*
X99639655Y-109676828D01*
X99704594Y-109679053D01*
X99772215Y-109680164D01*
X99790000Y-109680237D01*
X99857872Y-109679964D01*
X99907546Y-109678646D01*
X99943390Y-109675827D01*
X99969776Y-109671050D01*
X99991074Y-109663857D01*
X100003874Y-109657867D01*
X100032000Y-109641233D01*
X100049932Y-109626168D01*
X100052553Y-109621897D01*
X100047024Y-109604263D01*
X100020740Y-109587192D01*
X99975522Y-109571458D01*
X99913192Y-109557838D01*
X99894829Y-109554804D01*
X99798910Y-109539738D01*
X99722359Y-109527146D01*
X99662220Y-109516111D01*
X99615540Y-109505720D01*
X99579363Y-109495056D01*
X99550735Y-109483205D01*
X99526702Y-109469251D01*
X99504308Y-109452281D01*
X99480598Y-109431378D01*
X99472620Y-109424049D01*
X99444647Y-109396699D01*
X99429840Y-109375029D01*
X99424048Y-109350232D01*
X99423111Y-109318983D01*
X99433425Y-109257705D01*
X99464248Y-109205640D01*
X99515405Y-109162958D01*
X99586717Y-109129825D01*
X99637600Y-109114964D01*
X99692900Y-109105366D01*
X99759147Y-109099936D01*
X99832294Y-109098367D01*
X99908297Y-109100351D01*
X99908297Y-109100351D01*
G37*
X99908297Y-109100351D02*
X99983112Y-109105581D01*
X100052694Y-109113750D01*
X100112998Y-109124550D01*
X100159980Y-109137673D01*
X100189594Y-109152813D01*
X100194140Y-109157269D01*
X100209946Y-109191850D01*
X100205153Y-109227351D01*
X100180636Y-109257725D01*
X100179466Y-109258596D01*
X100165046Y-109267954D01*
X100149992Y-109272876D01*
X100128995Y-109273473D01*
X100096743Y-109269861D01*
X100047927Y-109262154D01*
X100044000Y-109261505D01*
X99971261Y-109252569D01*
X99892783Y-109248161D01*
X99814073Y-109248119D01*
X99740639Y-109252279D01*
X99677989Y-109260479D01*
X99631630Y-109272557D01*
X99628584Y-109273771D01*
X99594952Y-109292615D01*
X99583136Y-109311685D01*
X99592386Y-109330439D01*
X99621953Y-109348337D01*
X99671089Y-109364837D01*
X99739043Y-109379396D01*
X99784355Y-109386406D01*
X99878544Y-109399889D01*
X99953456Y-109412214D01*
X100012283Y-109424449D01*
X100058215Y-109437661D01*
X100094445Y-109452917D01*
X100124162Y-109471285D01*
X100150558Y-109493831D01*
X100171770Y-109515971D01*
X100196935Y-109546819D01*
X100209319Y-109573345D01*
X100213192Y-109606026D01*
X100213333Y-109617995D01*
X100210424Y-109657712D01*
X100198798Y-109687259D01*
X100178677Y-109713486D01*
X100137784Y-109753576D01*
X100092183Y-109784149D01*
X100038487Y-109806203D01*
X99973308Y-109820735D01*
X99893256Y-109828741D01*
X99794943Y-109831218D01*
X99778711Y-109831177D01*
X99713151Y-109829818D01*
X99648134Y-109826730D01*
X99590748Y-109822356D01*
X99548078Y-109817140D01*
X99544628Y-109816541D01*
X99502204Y-109806491D01*
X99466220Y-109793796D01*
X99445850Y-109782190D01*
X99426893Y-109751572D01*
X99425573Y-109715918D01*
X99441915Y-109684144D01*
X99445571Y-109680551D01*
X99460685Y-109669876D01*
X99479585Y-109665276D01*
X99508838Y-109666059D01*
X99544349Y-109670127D01*
X99584030Y-109673762D01*
X99639655Y-109676828D01*
X99704594Y-109679053D01*
X99772215Y-109680164D01*
X99790000Y-109680237D01*
X99857872Y-109679964D01*
X99907546Y-109678646D01*
X99943390Y-109675827D01*
X99969776Y-109671050D01*
X99991074Y-109663857D01*
X100003874Y-109657867D01*
X100032000Y-109641233D01*
X100049932Y-109626168D01*
X100052553Y-109621897D01*
X100047024Y-109604263D01*
X100020740Y-109587192D01*
X99975522Y-109571458D01*
X99913192Y-109557838D01*
X99894829Y-109554804D01*
X99798910Y-109539738D01*
X99722359Y-109527146D01*
X99662220Y-109516111D01*
X99615540Y-109505720D01*
X99579363Y-109495056D01*
X99550735Y-109483205D01*
X99526702Y-109469251D01*
X99504308Y-109452281D01*
X99480598Y-109431378D01*
X99472620Y-109424049D01*
X99444647Y-109396699D01*
X99429840Y-109375029D01*
X99424048Y-109350232D01*
X99423111Y-109318983D01*
X99433425Y-109257705D01*
X99464248Y-109205640D01*
X99515405Y-109162958D01*
X99586717Y-109129825D01*
X99637600Y-109114964D01*
X99692900Y-109105366D01*
X99759147Y-109099936D01*
X99832294Y-109098367D01*
X99908297Y-109100351D01*
G36*
X98887206Y-109099146D02*
X98956614Y-109099518D01*
X99009003Y-109100385D01*
X99047153Y-109101946D01*
X99073841Y-109104403D01*
X99091847Y-109107957D01*
X99103951Y-109112810D01*
X99112931Y-109119161D01*
X99116182Y-109122084D01*
X99135957Y-109153142D01*
X99139518Y-109188828D01*
X99126509Y-109220510D01*
X99120494Y-109226913D01*
X99110765Y-109233121D01*
X99095099Y-109237910D01*
X99070592Y-109241514D01*
X99034339Y-109244164D01*
X98983435Y-109246095D01*
X98914974Y-109247539D01*
X98852383Y-109248418D01*
X98604666Y-109251467D01*
X98601281Y-109316378D01*
X98597895Y-109381289D01*
X98766042Y-109381289D01*
X98839041Y-109381919D01*
X98892483Y-109384553D01*
X98929372Y-109390309D01*
X98952712Y-109400304D01*
X98965506Y-109415656D01*
X98970758Y-109437482D01*
X98971555Y-109457738D01*
X98969077Y-109482592D01*
X98959723Y-109500906D01*
X98940617Y-109513637D01*
X98908882Y-109521741D01*
X98861641Y-109526176D01*
X98796017Y-109527899D01*
X98760199Y-109528045D01*
X98599022Y-109528045D01*
X98599022Y-109686089D01*
X98847378Y-109686089D01*
X98928787Y-109686202D01*
X98990658Y-109686712D01*
X99036032Y-109687870D01*
X99067946Y-109689930D01*
X99089441Y-109693146D01*
X99103557Y-109697772D01*
X99113332Y-109704059D01*
X99118311Y-109708667D01*
X99135390Y-109735560D01*
X99140889Y-109759467D01*
X99133037Y-109788667D01*
X99118311Y-109810267D01*
X99110454Y-109817066D01*
X99100312Y-109822346D01*
X99085156Y-109826298D01*
X99062259Y-109829113D01*
X99028891Y-109830982D01*
X98982325Y-109832098D01*
X98919833Y-109832651D01*
X98838686Y-109832833D01*
X98796578Y-109832845D01*
X98706402Y-109832765D01*
X98636076Y-109832398D01*
X98582871Y-109831552D01*
X98544060Y-109830036D01*
X98516913Y-109827659D01*
X98498702Y-109824229D01*
X98486700Y-109819554D01*
X98478178Y-109813444D01*
X98474844Y-109810267D01*
X98468245Y-109802670D01*
X98463073Y-109792870D01*
X98459154Y-109778239D01*
X98456316Y-109756152D01*
X98454385Y-109723982D01*
X98453188Y-109679103D01*
X98452552Y-109618889D01*
X98452303Y-109540713D01*
X98452266Y-109467923D01*
X98452300Y-109374707D01*
X98452535Y-109301431D01*
X98453170Y-109245458D01*
X98454406Y-109204151D01*
X98456444Y-109174872D01*
X98459483Y-109154984D01*
X98463723Y-109141850D01*
X98469365Y-109132832D01*
X98476609Y-109125293D01*
X98478394Y-109123612D01*
X98487055Y-109116172D01*
X98497118Y-109110409D01*
X98511375Y-109106112D01*
X98532617Y-109103064D01*
X98563636Y-109101051D01*
X98607223Y-109099860D01*
X98666169Y-109099275D01*
X98743266Y-109099083D01*
X98797999Y-109099067D01*
X98887206Y-109099146D01*
X98887206Y-109099146D01*
G37*
X98887206Y-109099146D02*
X98956614Y-109099518D01*
X99009003Y-109100385D01*
X99047153Y-109101946D01*
X99073841Y-109104403D01*
X99091847Y-109107957D01*
X99103951Y-109112810D01*
X99112931Y-109119161D01*
X99116182Y-109122084D01*
X99135957Y-109153142D01*
X99139518Y-109188828D01*
X99126509Y-109220510D01*
X99120494Y-109226913D01*
X99110765Y-109233121D01*
X99095099Y-109237910D01*
X99070592Y-109241514D01*
X99034339Y-109244164D01*
X98983435Y-109246095D01*
X98914974Y-109247539D01*
X98852383Y-109248418D01*
X98604666Y-109251467D01*
X98601281Y-109316378D01*
X98597895Y-109381289D01*
X98766042Y-109381289D01*
X98839041Y-109381919D01*
X98892483Y-109384553D01*
X98929372Y-109390309D01*
X98952712Y-109400304D01*
X98965506Y-109415656D01*
X98970758Y-109437482D01*
X98971555Y-109457738D01*
X98969077Y-109482592D01*
X98959723Y-109500906D01*
X98940617Y-109513637D01*
X98908882Y-109521741D01*
X98861641Y-109526176D01*
X98796017Y-109527899D01*
X98760199Y-109528045D01*
X98599022Y-109528045D01*
X98599022Y-109686089D01*
X98847378Y-109686089D01*
X98928787Y-109686202D01*
X98990658Y-109686712D01*
X99036032Y-109687870D01*
X99067946Y-109689930D01*
X99089441Y-109693146D01*
X99103557Y-109697772D01*
X99113332Y-109704059D01*
X99118311Y-109708667D01*
X99135390Y-109735560D01*
X99140889Y-109759467D01*
X99133037Y-109788667D01*
X99118311Y-109810267D01*
X99110454Y-109817066D01*
X99100312Y-109822346D01*
X99085156Y-109826298D01*
X99062259Y-109829113D01*
X99028891Y-109830982D01*
X98982325Y-109832098D01*
X98919833Y-109832651D01*
X98838686Y-109832833D01*
X98796578Y-109832845D01*
X98706402Y-109832765D01*
X98636076Y-109832398D01*
X98582871Y-109831552D01*
X98544060Y-109830036D01*
X98516913Y-109827659D01*
X98498702Y-109824229D01*
X98486700Y-109819554D01*
X98478178Y-109813444D01*
X98474844Y-109810267D01*
X98468245Y-109802670D01*
X98463073Y-109792870D01*
X98459154Y-109778239D01*
X98456316Y-109756152D01*
X98454385Y-109723982D01*
X98453188Y-109679103D01*
X98452552Y-109618889D01*
X98452303Y-109540713D01*
X98452266Y-109467923D01*
X98452300Y-109374707D01*
X98452535Y-109301431D01*
X98453170Y-109245458D01*
X98454406Y-109204151D01*
X98456444Y-109174872D01*
X98459483Y-109154984D01*
X98463723Y-109141850D01*
X98469365Y-109132832D01*
X98476609Y-109125293D01*
X98478394Y-109123612D01*
X98487055Y-109116172D01*
X98497118Y-109110409D01*
X98511375Y-109106112D01*
X98532617Y-109103064D01*
X98563636Y-109101051D01*
X98607223Y-109099860D01*
X98666169Y-109099275D01*
X98743266Y-109099083D01*
X98797999Y-109099067D01*
X98887206Y-109099146D01*
G36*
X97478629Y-109099066D02*
X97518111Y-109099467D01*
X97633800Y-109102259D01*
X97730689Y-109110550D01*
X97812081Y-109125232D01*
X97881277Y-109147193D01*
X97941580Y-109177322D01*
X97996292Y-109216510D01*
X98015833Y-109233532D01*
X98048250Y-109273363D01*
X98077480Y-109327413D01*
X98100009Y-109387323D01*
X98112321Y-109444739D01*
X98113600Y-109465956D01*
X98105583Y-109524769D01*
X98084101Y-109589013D01*
X98053001Y-109649821D01*
X98016134Y-109698330D01*
X98010146Y-109704182D01*
X97959421Y-109745321D01*
X97903875Y-109777435D01*
X97840304Y-109801365D01*
X97765506Y-109817953D01*
X97676278Y-109828041D01*
X97569418Y-109832469D01*
X97520472Y-109832845D01*
X97458238Y-109832545D01*
X97414472Y-109831292D01*
X97385069Y-109828554D01*
X97365921Y-109823801D01*
X97352923Y-109816501D01*
X97345955Y-109810267D01*
X97339374Y-109802694D01*
X97334212Y-109792924D01*
X97330297Y-109778340D01*
X97327457Y-109756326D01*
X97325520Y-109724264D01*
X97324316Y-109679536D01*
X97323672Y-109619526D01*
X97323417Y-109541617D01*
X97323378Y-109465956D01*
X97323130Y-109365041D01*
X97323183Y-109284427D01*
X97324143Y-109245822D01*
X97470133Y-109245822D01*
X97470133Y-109686089D01*
X97563266Y-109686004D01*
X97619307Y-109684396D01*
X97678001Y-109680256D01*
X97726972Y-109674464D01*
X97728462Y-109674226D01*
X97807608Y-109655090D01*
X97868998Y-109625287D01*
X97915695Y-109582878D01*
X97945365Y-109536961D01*
X97963647Y-109486026D01*
X97962229Y-109438200D01*
X97941012Y-109386933D01*
X97899511Y-109333899D01*
X97842002Y-109294600D01*
X97767250Y-109268331D01*
X97717292Y-109259035D01*
X97660584Y-109252507D01*
X97600481Y-109247782D01*
X97549361Y-109245817D01*
X97546333Y-109245808D01*
X97470133Y-109245822D01*
X97324143Y-109245822D01*
X97324740Y-109221851D01*
X97329002Y-109175055D01*
X97337170Y-109141778D01*
X97350444Y-109119759D01*
X97370026Y-109106739D01*
X97397117Y-109100457D01*
X97432918Y-109098653D01*
X97478629Y-109099066D01*
X97478629Y-109099066D01*
G37*
X97478629Y-109099066D02*
X97518111Y-109099467D01*
X97633800Y-109102259D01*
X97730689Y-109110550D01*
X97812081Y-109125232D01*
X97881277Y-109147193D01*
X97941580Y-109177322D01*
X97996292Y-109216510D01*
X98015833Y-109233532D01*
X98048250Y-109273363D01*
X98077480Y-109327413D01*
X98100009Y-109387323D01*
X98112321Y-109444739D01*
X98113600Y-109465956D01*
X98105583Y-109524769D01*
X98084101Y-109589013D01*
X98053001Y-109649821D01*
X98016134Y-109698330D01*
X98010146Y-109704182D01*
X97959421Y-109745321D01*
X97903875Y-109777435D01*
X97840304Y-109801365D01*
X97765506Y-109817953D01*
X97676278Y-109828041D01*
X97569418Y-109832469D01*
X97520472Y-109832845D01*
X97458238Y-109832545D01*
X97414472Y-109831292D01*
X97385069Y-109828554D01*
X97365921Y-109823801D01*
X97352923Y-109816501D01*
X97345955Y-109810267D01*
X97339374Y-109802694D01*
X97334212Y-109792924D01*
X97330297Y-109778340D01*
X97327457Y-109756326D01*
X97325520Y-109724264D01*
X97324316Y-109679536D01*
X97323672Y-109619526D01*
X97323417Y-109541617D01*
X97323378Y-109465956D01*
X97323130Y-109365041D01*
X97323183Y-109284427D01*
X97324143Y-109245822D01*
X97470133Y-109245822D01*
X97470133Y-109686089D01*
X97563266Y-109686004D01*
X97619307Y-109684396D01*
X97678001Y-109680256D01*
X97726972Y-109674464D01*
X97728462Y-109674226D01*
X97807608Y-109655090D01*
X97868998Y-109625287D01*
X97915695Y-109582878D01*
X97945365Y-109536961D01*
X97963647Y-109486026D01*
X97962229Y-109438200D01*
X97941012Y-109386933D01*
X97899511Y-109333899D01*
X97842002Y-109294600D01*
X97767250Y-109268331D01*
X97717292Y-109259035D01*
X97660584Y-109252507D01*
X97600481Y-109247782D01*
X97549361Y-109245817D01*
X97546333Y-109245808D01*
X97470133Y-109245822D01*
X97324143Y-109245822D01*
X97324740Y-109221851D01*
X97329002Y-109175055D01*
X97337170Y-109141778D01*
X97350444Y-109119759D01*
X97370026Y-109106739D01*
X97397117Y-109100457D01*
X97432918Y-109098653D01*
X97478629Y-109099066D01*
D11*
X106500000Y-97100000D02*
G75*
G03X106500000Y-97100000I-100000J0D01*
G01*
X113400000Y-92100000D02*
X113400000Y-92100000D01*
X113400000Y-91600000D02*
X113400000Y-92100000D01*
X113000000Y-91600000D02*
X113400000Y-91600000D01*
X113400000Y-96100000D02*
X113400000Y-96100000D01*
X113400000Y-96600000D02*
X113400000Y-96100000D01*
X113000000Y-96600000D02*
X113400000Y-96600000D01*
X107000000Y-91600000D02*
X107000000Y-91600000D01*
X106600000Y-91600000D02*
X107000000Y-91600000D01*
X106600000Y-92100000D02*
X106600000Y-91600000D01*
X106600000Y-96100000D02*
X106600000Y-96100000D01*
X106600000Y-96600000D02*
X106600000Y-96100000D01*
X107000000Y-96600000D02*
X106600000Y-96600000D01*
X95570000Y-84860000D02*
X122070000Y-84860000D01*
X122070000Y-84860000D02*
X122070000Y-111360000D01*
X122070000Y-111360000D02*
X95570000Y-111360000D01*
X95570000Y-111360000D02*
X95570000Y-84860000D01*
X95570000Y-84860000D02*
X95570000Y-84860000D01*
X111750000Y-98520000D02*
X111750000Y-98520000D01*
X110950000Y-98520000D02*
X111750000Y-98520000D01*
X110950000Y-99920000D02*
X110950000Y-98520000D01*
X111750000Y-99920000D02*
X110950000Y-99920000D01*
X111750000Y-98520000D02*
X111750000Y-99920000D01*
X113950000Y-97830000D02*
X113950000Y-97830000D01*
X113150000Y-97830000D02*
X113950000Y-97830000D01*
X113150000Y-99230000D02*
X113150000Y-97830000D01*
X113950000Y-99230000D02*
X113150000Y-99230000D01*
X113950000Y-97830000D02*
X113950000Y-99230000D01*
X114850000Y-95135000D02*
G75*
G03X114850000Y-95135000I-100000J0D01*
G01*
X115000000Y-92435000D02*
X115000000Y-92435000D01*
X115000000Y-94835000D02*
X115000000Y-92435000D01*
X118000000Y-94835000D02*
X115000000Y-94835000D01*
X118000000Y-92435000D02*
X118000000Y-94835000D01*
X115000000Y-92435000D02*
X118000000Y-92435000D01*
X109100000Y-98300000D02*
X109100000Y-98300000D01*
X108500000Y-98300000D02*
X109100000Y-98300000D01*
X108500000Y-99900000D02*
X108500000Y-98300000D01*
X109100000Y-99900000D02*
X108500000Y-99900000D01*
X109100000Y-98300000D02*
X109100000Y-99900000D01*
X112450000Y-101925000D02*
X112450000Y-101925000D01*
X113150000Y-101925000D02*
X112450000Y-101925000D01*
X113150000Y-100525000D02*
X113150000Y-101925000D01*
X112450000Y-100525000D02*
X113150000Y-100525000D01*
X112450000Y-101925000D02*
X112450000Y-100525000D01*
X111700000Y-102650000D02*
X111700000Y-102650000D01*
X111000000Y-102650000D02*
X111700000Y-102650000D01*
X111000000Y-104050000D02*
X111000000Y-102650000D01*
X111700000Y-104050000D02*
X111000000Y-104050000D01*
X111700000Y-102650000D02*
X111700000Y-104050000D01*
X104400000Y-90380000D02*
X104400000Y-90380000D01*
X105800000Y-90380000D02*
X104400000Y-90380000D01*
X105800000Y-87180000D02*
X105800000Y-90380000D01*
X104400000Y-87180000D02*
X105800000Y-87180000D01*
X104400000Y-90380000D02*
X104400000Y-87180000D01*
D12*
X89260000Y-88100000D02*
X95010000Y-88100000D01*
X95010000Y-88100000D02*
X95010000Y-100600000D01*
X95010000Y-100600000D02*
X89260000Y-100600000D01*
D11*
X114700000Y-97800000D02*
X114700000Y-97800000D01*
X114700000Y-98400000D02*
X114700000Y-97800000D01*
X116300000Y-98400000D02*
X114700000Y-98400000D01*
X116300000Y-97800000D02*
X116300000Y-98400000D01*
X114700000Y-97800000D02*
X116300000Y-97800000D01*
X114700000Y-96650000D02*
X114700000Y-96650000D01*
X114700000Y-97250000D02*
X114700000Y-96650000D01*
X116300000Y-97250000D02*
X114700000Y-97250000D01*
X116300000Y-96650000D02*
X116300000Y-97250000D01*
X114700000Y-96650000D02*
X116300000Y-96650000D01*
X114700000Y-95500000D02*
X114700000Y-95500000D01*
X114700000Y-96100000D02*
X114700000Y-95500000D01*
X116300000Y-96100000D02*
X114700000Y-96100000D01*
X116300000Y-95500000D02*
X116300000Y-96100000D01*
X114700000Y-95500000D02*
X116300000Y-95500000D01*
X116800000Y-95500000D02*
X116800000Y-95500000D01*
X116800000Y-96100000D02*
X116800000Y-95500000D01*
X118400000Y-96100000D02*
X116800000Y-96100000D01*
X118400000Y-95500000D02*
X118400000Y-96100000D01*
X116800000Y-95500000D02*
X118400000Y-95500000D01*
X119100000Y-92800000D02*
X119100000Y-92800000D01*
X118500000Y-92800000D02*
X119100000Y-92800000D01*
X118500000Y-94400000D02*
X118500000Y-92800000D01*
X119100000Y-94400000D02*
X118500000Y-94400000D01*
X119100000Y-92800000D02*
X119100000Y-94400000D01*
X104800000Y-94680000D02*
X104800000Y-94680000D01*
X105400000Y-94680000D02*
X104800000Y-94680000D01*
X105400000Y-93080000D02*
X105400000Y-94680000D01*
X104800000Y-93080000D02*
X105400000Y-93080000D01*
X104800000Y-94680000D02*
X104800000Y-93080000D01*
X103700000Y-94680000D02*
X103700000Y-94680000D01*
X104300000Y-94680000D02*
X103700000Y-94680000D01*
X104300000Y-93080000D02*
X104300000Y-94680000D01*
X103700000Y-93080000D02*
X104300000Y-93080000D01*
X103700000Y-94680000D02*
X103700000Y-93080000D01*
X100800000Y-94680000D02*
X100800000Y-94680000D01*
X101400000Y-94680000D02*
X100800000Y-94680000D01*
X101400000Y-93080000D02*
X101400000Y-94680000D01*
X100800000Y-93080000D02*
X101400000Y-93080000D01*
X100800000Y-94680000D02*
X100800000Y-93080000D01*
X99700000Y-94680000D02*
X99700000Y-94680000D01*
X100300000Y-94680000D02*
X99700000Y-94680000D01*
X100300000Y-93080000D02*
X100300000Y-94680000D01*
X99700000Y-93080000D02*
X100300000Y-93080000D01*
X99700000Y-94680000D02*
X99700000Y-93080000D01*
X98600000Y-94680000D02*
X98600000Y-94680000D01*
X99200000Y-94680000D02*
X98600000Y-94680000D01*
X99200000Y-93080000D02*
X99200000Y-94680000D01*
X98600000Y-93080000D02*
X99200000Y-93080000D01*
X98600000Y-94680000D02*
X98600000Y-93080000D01*
X103360000Y-90340000D02*
X103360000Y-90340000D01*
X103960000Y-90340000D02*
X103360000Y-90340000D01*
X103960000Y-88740000D02*
X103960000Y-90340000D01*
X103360000Y-88740000D02*
X103960000Y-88740000D01*
X103360000Y-90340000D02*
X103360000Y-88740000D01*
X109450000Y-90330000D02*
X109450000Y-90330000D01*
X110050000Y-90330000D02*
X109450000Y-90330000D01*
X110050000Y-88730000D02*
X110050000Y-90330000D01*
X109450000Y-88730000D02*
X110050000Y-88730000D01*
X109450000Y-90330000D02*
X109450000Y-88730000D01*
X106800000Y-101300000D02*
X106800000Y-101300000D01*
X106800000Y-100700000D02*
X106800000Y-101300000D01*
X105200000Y-100700000D02*
X106800000Y-100700000D01*
X105200000Y-101300000D02*
X105200000Y-100700000D01*
X106800000Y-101300000D02*
X105200000Y-101300000D01*
X97500000Y-94680000D02*
X97500000Y-94680000D01*
X98100000Y-94680000D02*
X97500000Y-94680000D01*
X98100000Y-93080000D02*
X98100000Y-94680000D01*
X97500000Y-93080000D02*
X98100000Y-93080000D01*
X97500000Y-94680000D02*
X97500000Y-93080000D01*
X114700000Y-98940000D02*
X114700000Y-98940000D01*
X114700000Y-99540000D02*
X114700000Y-98940000D01*
X116300000Y-99540000D02*
X114700000Y-99540000D01*
X116300000Y-98940000D02*
X116300000Y-99540000D01*
X114700000Y-98940000D02*
X116300000Y-98940000D01*
X111050000Y-102025000D02*
X111050000Y-102025000D01*
X111650000Y-102025000D02*
X111050000Y-102025000D01*
X111650000Y-100425000D02*
X111650000Y-102025000D01*
X111050000Y-100425000D02*
X111650000Y-100425000D01*
X111050000Y-102025000D02*
X111050000Y-100425000D01*
X110300000Y-102570000D02*
X110300000Y-102570000D01*
X109700000Y-102570000D02*
X110300000Y-102570000D01*
X109700000Y-104170000D02*
X109700000Y-102570000D01*
X110300000Y-104170000D02*
X109700000Y-104170000D01*
X110300000Y-102570000D02*
X110300000Y-104170000D01*
X106500000Y-98300000D02*
X106500000Y-98300000D01*
X105900000Y-98300000D02*
X106500000Y-98300000D01*
X105900000Y-99900000D02*
X105900000Y-98300000D01*
X106500000Y-99900000D02*
X105900000Y-99900000D01*
X106500000Y-98300000D02*
X106500000Y-99900000D01*
X110300000Y-100425000D02*
X110300000Y-100425000D01*
X109700000Y-100425000D02*
X110300000Y-100425000D01*
X109700000Y-102025000D02*
X109700000Y-100425000D01*
X110300000Y-102025000D02*
X109700000Y-102025000D01*
X110300000Y-100425000D02*
X110300000Y-102025000D01*
X107800000Y-98300000D02*
X107800000Y-98300000D01*
X107200000Y-98300000D02*
X107800000Y-98300000D01*
X107200000Y-99900000D02*
X107200000Y-98300000D01*
X107800000Y-99900000D02*
X107200000Y-99900000D01*
X107800000Y-98300000D02*
X107800000Y-99900000D01*
X105330000Y-97900000D02*
X105330000Y-97900000D01*
X105330000Y-97300000D02*
X105330000Y-97900000D01*
X103730000Y-97300000D02*
X105330000Y-97300000D01*
X103730000Y-97900000D02*
X103730000Y-97300000D01*
X105330000Y-97900000D02*
X103730000Y-97900000D01*
X105390000Y-99900000D02*
X105390000Y-99900000D01*
X105390000Y-98500000D02*
X105390000Y-99900000D01*
X102190000Y-98500000D02*
X105390000Y-98500000D01*
X102190000Y-99900000D02*
X102190000Y-98500000D01*
X105390000Y-99900000D02*
X102190000Y-99900000D01*
X108800000Y-101400000D02*
X108800000Y-101400000D01*
X108800000Y-100600000D02*
X108800000Y-101400000D01*
X107400000Y-100600000D02*
X108800000Y-100600000D01*
X107400000Y-101400000D02*
X107400000Y-100600000D01*
X108800000Y-101400000D02*
X107400000Y-101400000D01*
X104700000Y-92330000D02*
X104700000Y-92330000D01*
X105500000Y-92330000D02*
X104700000Y-92330000D01*
X105500000Y-90930000D02*
X105500000Y-92330000D01*
X104700000Y-90930000D02*
X105500000Y-90930000D01*
X104700000Y-92330000D02*
X104700000Y-90930000D01*
X105400000Y-95300000D02*
X105400000Y-95300000D01*
X104600000Y-95300000D02*
X105400000Y-95300000D01*
X104600000Y-96700000D02*
X104600000Y-95300000D01*
X105400000Y-96700000D02*
X104600000Y-96700000D01*
X105400000Y-95300000D02*
X105400000Y-96700000D01*
X103270000Y-92330000D02*
X103270000Y-92330000D01*
X104070000Y-92330000D02*
X103270000Y-92330000D01*
X104070000Y-90930000D02*
X104070000Y-92330000D01*
X103270000Y-90930000D02*
X104070000Y-90930000D01*
X103270000Y-92330000D02*
X103270000Y-90930000D01*
X103270000Y-94750000D02*
X103270000Y-94750000D01*
X103270000Y-93950000D02*
X103270000Y-94750000D01*
X101870000Y-93950000D02*
X103270000Y-93950000D01*
X101870000Y-94750000D02*
X101870000Y-93950000D01*
X103270000Y-94750000D02*
X101870000Y-94750000D01*
X124830000Y-84640000D02*
X124830000Y-86190000D01*
X127650000Y-87460000D02*
X125110000Y-87460000D01*
X127650000Y-84920000D02*
X127650000Y-87460000D01*
X126380000Y-84640000D02*
X124830000Y-84640000D01*
X130190000Y-84920000D02*
X127650000Y-84920000D01*
X130190000Y-110320000D02*
X125110000Y-110320000D01*
X125110000Y-87460000D02*
X125110000Y-110320000D01*
X130190000Y-110320000D02*
X130190000Y-84920000D01*
X110068095Y-97292380D02*
X110068095Y-98101904D01*
X110115714Y-98197142D01*
X110163333Y-98244761D01*
X110258571Y-98292380D01*
X110449047Y-98292380D01*
X110544285Y-98244761D01*
X110591904Y-98197142D01*
X110639523Y-98101904D01*
X110639523Y-97292380D01*
X111639523Y-98292380D02*
X111068095Y-98292380D01*
X111353809Y-98292380D02*
X111353809Y-97292380D01*
X111258571Y-97435238D01*
X111163333Y-97530476D01*
X111068095Y-97578095D01*
X93014285Y-112374761D02*
X93157142Y-112422380D01*
X93395238Y-112422380D01*
X93490476Y-112374761D01*
X93538095Y-112327142D01*
X93585714Y-112231904D01*
X93585714Y-112136666D01*
X93538095Y-112041428D01*
X93490476Y-111993809D01*
X93395238Y-111946190D01*
X93204761Y-111898571D01*
X93109523Y-111850952D01*
X93061904Y-111803333D01*
X93014285Y-111708095D01*
X93014285Y-111612857D01*
X93061904Y-111517619D01*
X93109523Y-111470000D01*
X93204761Y-111422380D01*
X93442857Y-111422380D01*
X93585714Y-111470000D01*
X94014285Y-112422380D02*
X94014285Y-111422380D01*
X94014285Y-111898571D02*
X94585714Y-111898571D01*
X94585714Y-112422380D02*
X94585714Y-111422380D01*
X95585714Y-112422380D02*
X95014285Y-112422380D01*
X95300000Y-112422380D02*
X95300000Y-111422380D01*
X95204761Y-111565238D01*
X95109523Y-111660476D01*
X95014285Y-111708095D01*
D14*
X111533847Y-99387733D02*
X111533847Y-99581257D01*
X111127447Y-99581257D01*
X111127447Y-99290971D02*
X111127447Y-99039390D01*
X111282266Y-99174857D01*
X111282266Y-99116800D01*
X111301619Y-99078095D01*
X111320971Y-99058742D01*
X111359676Y-99039390D01*
X111456438Y-99039390D01*
X111495142Y-99058742D01*
X111514495Y-99078095D01*
X111533847Y-99116800D01*
X111533847Y-99232914D01*
X111514495Y-99271619D01*
X111495142Y-99290971D01*
X113733847Y-98697733D02*
X113733847Y-98891257D01*
X113327447Y-98891257D01*
X113366152Y-98581619D02*
X113346800Y-98562266D01*
X113327447Y-98523561D01*
X113327447Y-98426800D01*
X113346800Y-98388095D01*
X113366152Y-98368742D01*
X113404857Y-98349390D01*
X113443561Y-98349390D01*
X113501619Y-98368742D01*
X113733847Y-98600971D01*
X113733847Y-98349390D01*
D11*
X116404761Y-92107619D02*
X116309523Y-92060000D01*
X116214285Y-91964761D01*
X116071428Y-91821904D01*
X115976190Y-91774285D01*
X115880952Y-91774285D01*
X115928571Y-92012380D02*
X115833333Y-91964761D01*
X115738095Y-91869523D01*
X115690476Y-91679047D01*
X115690476Y-91345714D01*
X115738095Y-91155238D01*
X115833333Y-91060000D01*
X115928571Y-91012380D01*
X116119047Y-91012380D01*
X116214285Y-91060000D01*
X116309523Y-91155238D01*
X116357142Y-91345714D01*
X116357142Y-91679047D01*
X116309523Y-91869523D01*
X116214285Y-91964761D01*
X116119047Y-92012380D01*
X115928571Y-92012380D01*
X117309523Y-92012380D02*
X116738095Y-92012380D01*
X117023809Y-92012380D02*
X117023809Y-91012380D01*
X116928571Y-91155238D01*
X116833333Y-91250476D01*
X116738095Y-91298095D01*
D14*
X108925142Y-99461257D02*
X108944495Y-99480609D01*
X108963847Y-99538666D01*
X108963847Y-99577371D01*
X108944495Y-99635428D01*
X108905790Y-99674133D01*
X108867085Y-99693485D01*
X108789676Y-99712838D01*
X108731619Y-99712838D01*
X108654209Y-99693485D01*
X108615504Y-99674133D01*
X108576800Y-99635428D01*
X108557447Y-99577371D01*
X108557447Y-99538666D01*
X108576800Y-99480609D01*
X108596152Y-99461257D01*
X108963847Y-99074209D02*
X108963847Y-99306438D01*
X108963847Y-99190323D02*
X108557447Y-99190323D01*
X108615504Y-99229028D01*
X108654209Y-99267733D01*
X108673561Y-99306438D01*
X108692914Y-98725866D02*
X108963847Y-98725866D01*
X108538095Y-98822628D02*
X108828380Y-98919390D01*
X108828380Y-98667809D01*
X112983847Y-101292733D02*
X112790323Y-101428200D01*
X112983847Y-101524961D02*
X112577447Y-101524961D01*
X112577447Y-101370142D01*
X112596800Y-101331438D01*
X112616152Y-101312085D01*
X112654857Y-101292733D01*
X112712914Y-101292733D01*
X112751619Y-101312085D01*
X112770971Y-101331438D01*
X112790323Y-101370142D01*
X112790323Y-101524961D01*
X112983847Y-100905685D02*
X112983847Y-101137914D01*
X112983847Y-101021800D02*
X112577447Y-101021800D01*
X112635504Y-101060504D01*
X112674209Y-101099209D01*
X112693561Y-101137914D01*
X111533847Y-103417733D02*
X111340323Y-103553200D01*
X111533847Y-103649961D02*
X111127447Y-103649961D01*
X111127447Y-103495142D01*
X111146800Y-103456438D01*
X111166152Y-103437085D01*
X111204857Y-103417733D01*
X111262914Y-103417733D01*
X111301619Y-103437085D01*
X111320971Y-103456438D01*
X111340323Y-103495142D01*
X111340323Y-103649961D01*
X111166152Y-103262914D02*
X111146800Y-103243561D01*
X111127447Y-103204857D01*
X111127447Y-103108095D01*
X111146800Y-103069390D01*
X111166152Y-103050038D01*
X111204857Y-103030685D01*
X111243561Y-103030685D01*
X111301619Y-103050038D01*
X111533847Y-103282266D01*
X111533847Y-103030685D01*
D11*
X105317714Y-89171885D02*
X105346742Y-89200914D01*
X105375771Y-89288000D01*
X105375771Y-89346057D01*
X105346742Y-89433142D01*
X105288685Y-89491200D01*
X105230628Y-89520228D01*
X105114514Y-89549257D01*
X105027428Y-89549257D01*
X104911314Y-89520228D01*
X104853257Y-89491200D01*
X104795200Y-89433142D01*
X104766171Y-89346057D01*
X104766171Y-89288000D01*
X104795200Y-89200914D01*
X104824228Y-89171885D01*
X105375771Y-88591314D02*
X105375771Y-88939657D01*
X105375771Y-88765485D02*
X104766171Y-88765485D01*
X104853257Y-88823542D01*
X104911314Y-88881600D01*
X104940342Y-88939657D01*
X105027428Y-88242971D02*
X104998400Y-88301028D01*
X104969371Y-88330057D01*
X104911314Y-88359085D01*
X104882285Y-88359085D01*
X104824228Y-88330057D01*
X104795200Y-88301028D01*
X104766171Y-88242971D01*
X104766171Y-88126857D01*
X104795200Y-88068800D01*
X104824228Y-88039771D01*
X104882285Y-88010742D01*
X104911314Y-88010742D01*
X104969371Y-88039771D01*
X104998400Y-88068800D01*
X105027428Y-88126857D01*
X105027428Y-88242971D01*
X105056457Y-88301028D01*
X105085485Y-88330057D01*
X105143542Y-88359085D01*
X105259657Y-88359085D01*
X105317714Y-88330057D01*
X105346742Y-88301028D01*
X105375771Y-88242971D01*
X105375771Y-88126857D01*
X105346742Y-88068800D01*
X105317714Y-88039771D01*
X105259657Y-88010742D01*
X105143542Y-88010742D01*
X105085485Y-88039771D01*
X105056457Y-88068800D01*
X105027428Y-88126857D01*
X91101904Y-101942380D02*
X91101904Y-100942380D01*
X91482857Y-100942380D01*
X91578095Y-100990000D01*
X91625714Y-101037619D01*
X91673333Y-101132857D01*
X91673333Y-101275714D01*
X91625714Y-101370952D01*
X91578095Y-101418571D01*
X91482857Y-101466190D01*
X91101904Y-101466190D01*
X92054285Y-101037619D02*
X92101904Y-100990000D01*
X92197142Y-100942380D01*
X92435238Y-100942380D01*
X92530476Y-100990000D01*
X92578095Y-101037619D01*
X92625714Y-101132857D01*
X92625714Y-101228095D01*
X92578095Y-101370952D01*
X92006666Y-101942380D01*
X92625714Y-101942380D01*
D14*
X115532266Y-98265142D02*
X115512914Y-98284495D01*
X115454857Y-98303847D01*
X115416152Y-98303847D01*
X115358095Y-98284495D01*
X115319390Y-98245790D01*
X115300038Y-98207085D01*
X115280685Y-98129676D01*
X115280685Y-98071619D01*
X115300038Y-97994209D01*
X115319390Y-97955504D01*
X115358095Y-97916800D01*
X115416152Y-97897447D01*
X115454857Y-97897447D01*
X115512914Y-97916800D01*
X115532266Y-97936152D01*
X115880609Y-98032914D02*
X115880609Y-98303847D01*
X115783847Y-97878095D02*
X115687085Y-98168380D01*
X115938666Y-98168380D01*
X115532266Y-97115142D02*
X115512914Y-97134495D01*
X115454857Y-97153847D01*
X115416152Y-97153847D01*
X115358095Y-97134495D01*
X115319390Y-97095790D01*
X115300038Y-97057085D01*
X115280685Y-96979676D01*
X115280685Y-96921619D01*
X115300038Y-96844209D01*
X115319390Y-96805504D01*
X115358095Y-96766800D01*
X115416152Y-96747447D01*
X115454857Y-96747447D01*
X115512914Y-96766800D01*
X115532266Y-96786152D01*
X115919314Y-97153847D02*
X115687085Y-97153847D01*
X115803200Y-97153847D02*
X115803200Y-96747447D01*
X115764495Y-96805504D01*
X115725790Y-96844209D01*
X115687085Y-96863561D01*
X115532266Y-95965142D02*
X115512914Y-95984495D01*
X115454857Y-96003847D01*
X115416152Y-96003847D01*
X115358095Y-95984495D01*
X115319390Y-95945790D01*
X115300038Y-95907085D01*
X115280685Y-95829676D01*
X115280685Y-95771619D01*
X115300038Y-95694209D01*
X115319390Y-95655504D01*
X115358095Y-95616800D01*
X115416152Y-95597447D01*
X115454857Y-95597447D01*
X115512914Y-95616800D01*
X115532266Y-95636152D01*
X115667733Y-95597447D02*
X115919314Y-95597447D01*
X115783847Y-95752266D01*
X115841904Y-95752266D01*
X115880609Y-95771619D01*
X115899961Y-95790971D01*
X115919314Y-95829676D01*
X115919314Y-95926438D01*
X115899961Y-95965142D01*
X115880609Y-95984495D01*
X115841904Y-96003847D01*
X115725790Y-96003847D01*
X115687085Y-95984495D01*
X115667733Y-95965142D01*
X117632266Y-95965142D02*
X117612914Y-95984495D01*
X117554857Y-96003847D01*
X117516152Y-96003847D01*
X117458095Y-95984495D01*
X117419390Y-95945790D01*
X117400038Y-95907085D01*
X117380685Y-95829676D01*
X117380685Y-95771619D01*
X117400038Y-95694209D01*
X117419390Y-95655504D01*
X117458095Y-95616800D01*
X117516152Y-95597447D01*
X117554857Y-95597447D01*
X117612914Y-95616800D01*
X117632266Y-95636152D01*
X117787085Y-95636152D02*
X117806438Y-95616800D01*
X117845142Y-95597447D01*
X117941904Y-95597447D01*
X117980609Y-95616800D01*
X117999961Y-95636152D01*
X118019314Y-95674857D01*
X118019314Y-95713561D01*
X117999961Y-95771619D01*
X117767733Y-96003847D01*
X118019314Y-96003847D01*
X118925142Y-93767733D02*
X118944495Y-93787085D01*
X118963847Y-93845142D01*
X118963847Y-93883847D01*
X118944495Y-93941904D01*
X118905790Y-93980609D01*
X118867085Y-93999961D01*
X118789676Y-94019314D01*
X118731619Y-94019314D01*
X118654209Y-93999961D01*
X118615504Y-93980609D01*
X118576800Y-93941904D01*
X118557447Y-93883847D01*
X118557447Y-93845142D01*
X118576800Y-93787085D01*
X118596152Y-93767733D01*
X118557447Y-93400038D02*
X118557447Y-93593561D01*
X118750971Y-93612914D01*
X118731619Y-93593561D01*
X118712266Y-93554857D01*
X118712266Y-93458095D01*
X118731619Y-93419390D01*
X118750971Y-93400038D01*
X118789676Y-93380685D01*
X118886438Y-93380685D01*
X118925142Y-93400038D01*
X118944495Y-93419390D01*
X118963847Y-93458095D01*
X118963847Y-93554857D01*
X118944495Y-93593561D01*
X118925142Y-93612914D01*
X105265142Y-94041257D02*
X105284495Y-94060609D01*
X105303847Y-94118666D01*
X105303847Y-94157371D01*
X105284495Y-94215428D01*
X105245790Y-94254133D01*
X105207085Y-94273485D01*
X105129676Y-94292838D01*
X105071619Y-94292838D01*
X104994209Y-94273485D01*
X104955504Y-94254133D01*
X104916800Y-94215428D01*
X104897447Y-94157371D01*
X104897447Y-94118666D01*
X104916800Y-94060609D01*
X104936152Y-94041257D01*
X105303847Y-93654209D02*
X105303847Y-93886438D01*
X105303847Y-93770323D02*
X104897447Y-93770323D01*
X104955504Y-93809028D01*
X104994209Y-93847733D01*
X105013561Y-93886438D01*
X104897447Y-93518742D02*
X104897447Y-93247809D01*
X105303847Y-93421980D01*
X104165142Y-94041257D02*
X104184495Y-94060609D01*
X104203847Y-94118666D01*
X104203847Y-94157371D01*
X104184495Y-94215428D01*
X104145790Y-94254133D01*
X104107085Y-94273485D01*
X104029676Y-94292838D01*
X103971619Y-94292838D01*
X103894209Y-94273485D01*
X103855504Y-94254133D01*
X103816800Y-94215428D01*
X103797447Y-94157371D01*
X103797447Y-94118666D01*
X103816800Y-94060609D01*
X103836152Y-94041257D01*
X103836152Y-93886438D02*
X103816800Y-93867085D01*
X103797447Y-93828380D01*
X103797447Y-93731619D01*
X103816800Y-93692914D01*
X103836152Y-93673561D01*
X103874857Y-93654209D01*
X103913561Y-93654209D01*
X103971619Y-93673561D01*
X104203847Y-93905790D01*
X104203847Y-93654209D01*
X103797447Y-93402628D02*
X103797447Y-93363923D01*
X103816800Y-93325219D01*
X103836152Y-93305866D01*
X103874857Y-93286514D01*
X103952266Y-93267161D01*
X104049028Y-93267161D01*
X104126438Y-93286514D01*
X104165142Y-93305866D01*
X104184495Y-93325219D01*
X104203847Y-93363923D01*
X104203847Y-93402628D01*
X104184495Y-93441333D01*
X104165142Y-93460685D01*
X104126438Y-93480038D01*
X104049028Y-93499390D01*
X103952266Y-93499390D01*
X103874857Y-93480038D01*
X103836152Y-93460685D01*
X103816800Y-93441333D01*
X103797447Y-93402628D01*
X101265142Y-94041257D02*
X101284495Y-94060609D01*
X101303847Y-94118666D01*
X101303847Y-94157371D01*
X101284495Y-94215428D01*
X101245790Y-94254133D01*
X101207085Y-94273485D01*
X101129676Y-94292838D01*
X101071619Y-94292838D01*
X100994209Y-94273485D01*
X100955504Y-94254133D01*
X100916800Y-94215428D01*
X100897447Y-94157371D01*
X100897447Y-94118666D01*
X100916800Y-94060609D01*
X100936152Y-94041257D01*
X100936152Y-93886438D02*
X100916800Y-93867085D01*
X100897447Y-93828380D01*
X100897447Y-93731619D01*
X100916800Y-93692914D01*
X100936152Y-93673561D01*
X100974857Y-93654209D01*
X101013561Y-93654209D01*
X101071619Y-93673561D01*
X101303847Y-93905790D01*
X101303847Y-93654209D01*
X101303847Y-93267161D02*
X101303847Y-93499390D01*
X101303847Y-93383276D02*
X100897447Y-93383276D01*
X100955504Y-93421980D01*
X100994209Y-93460685D01*
X101013561Y-93499390D01*
X100165142Y-94041257D02*
X100184495Y-94060609D01*
X100203847Y-94118666D01*
X100203847Y-94157371D01*
X100184495Y-94215428D01*
X100145790Y-94254133D01*
X100107085Y-94273485D01*
X100029676Y-94292838D01*
X99971619Y-94292838D01*
X99894209Y-94273485D01*
X99855504Y-94254133D01*
X99816800Y-94215428D01*
X99797447Y-94157371D01*
X99797447Y-94118666D01*
X99816800Y-94060609D01*
X99836152Y-94041257D01*
X99836152Y-93886438D02*
X99816800Y-93867085D01*
X99797447Y-93828380D01*
X99797447Y-93731619D01*
X99816800Y-93692914D01*
X99836152Y-93673561D01*
X99874857Y-93654209D01*
X99913561Y-93654209D01*
X99971619Y-93673561D01*
X100203847Y-93905790D01*
X100203847Y-93654209D01*
X99836152Y-93499390D02*
X99816800Y-93480038D01*
X99797447Y-93441333D01*
X99797447Y-93344571D01*
X99816800Y-93305866D01*
X99836152Y-93286514D01*
X99874857Y-93267161D01*
X99913561Y-93267161D01*
X99971619Y-93286514D01*
X100203847Y-93518742D01*
X100203847Y-93267161D01*
X99065142Y-94041257D02*
X99084495Y-94060609D01*
X99103847Y-94118666D01*
X99103847Y-94157371D01*
X99084495Y-94215428D01*
X99045790Y-94254133D01*
X99007085Y-94273485D01*
X98929676Y-94292838D01*
X98871619Y-94292838D01*
X98794209Y-94273485D01*
X98755504Y-94254133D01*
X98716800Y-94215428D01*
X98697447Y-94157371D01*
X98697447Y-94118666D01*
X98716800Y-94060609D01*
X98736152Y-94041257D01*
X98736152Y-93886438D02*
X98716800Y-93867085D01*
X98697447Y-93828380D01*
X98697447Y-93731619D01*
X98716800Y-93692914D01*
X98736152Y-93673561D01*
X98774857Y-93654209D01*
X98813561Y-93654209D01*
X98871619Y-93673561D01*
X99103847Y-93905790D01*
X99103847Y-93654209D01*
X98697447Y-93518742D02*
X98697447Y-93267161D01*
X98852266Y-93402628D01*
X98852266Y-93344571D01*
X98871619Y-93305866D01*
X98890971Y-93286514D01*
X98929676Y-93267161D01*
X99026438Y-93267161D01*
X99065142Y-93286514D01*
X99084495Y-93305866D01*
X99103847Y-93344571D01*
X99103847Y-93460685D01*
X99084495Y-93499390D01*
X99065142Y-93518742D01*
X103825142Y-89701257D02*
X103844495Y-89720609D01*
X103863847Y-89778666D01*
X103863847Y-89817371D01*
X103844495Y-89875428D01*
X103805790Y-89914133D01*
X103767085Y-89933485D01*
X103689676Y-89952838D01*
X103631619Y-89952838D01*
X103554209Y-89933485D01*
X103515504Y-89914133D01*
X103476800Y-89875428D01*
X103457447Y-89817371D01*
X103457447Y-89778666D01*
X103476800Y-89720609D01*
X103496152Y-89701257D01*
X103863847Y-89314209D02*
X103863847Y-89546438D01*
X103863847Y-89430323D02*
X103457447Y-89430323D01*
X103515504Y-89469028D01*
X103554209Y-89507733D01*
X103573561Y-89546438D01*
X103457447Y-88946514D02*
X103457447Y-89140038D01*
X103650971Y-89159390D01*
X103631619Y-89140038D01*
X103612266Y-89101333D01*
X103612266Y-89004571D01*
X103631619Y-88965866D01*
X103650971Y-88946514D01*
X103689676Y-88927161D01*
X103786438Y-88927161D01*
X103825142Y-88946514D01*
X103844495Y-88965866D01*
X103863847Y-89004571D01*
X103863847Y-89101333D01*
X103844495Y-89140038D01*
X103825142Y-89159390D01*
X109915142Y-89691257D02*
X109934495Y-89710609D01*
X109953847Y-89768666D01*
X109953847Y-89807371D01*
X109934495Y-89865428D01*
X109895790Y-89904133D01*
X109857085Y-89923485D01*
X109779676Y-89942838D01*
X109721619Y-89942838D01*
X109644209Y-89923485D01*
X109605504Y-89904133D01*
X109566800Y-89865428D01*
X109547447Y-89807371D01*
X109547447Y-89768666D01*
X109566800Y-89710609D01*
X109586152Y-89691257D01*
X109953847Y-89304209D02*
X109953847Y-89536438D01*
X109953847Y-89420323D02*
X109547447Y-89420323D01*
X109605504Y-89459028D01*
X109644209Y-89497733D01*
X109663561Y-89536438D01*
X109953847Y-88917161D02*
X109953847Y-89149390D01*
X109953847Y-89033276D02*
X109547447Y-89033276D01*
X109605504Y-89071980D01*
X109644209Y-89110685D01*
X109663561Y-89149390D01*
X105832266Y-101125142D02*
X105812914Y-101144495D01*
X105754857Y-101163847D01*
X105716152Y-101163847D01*
X105658095Y-101144495D01*
X105619390Y-101105790D01*
X105600038Y-101067085D01*
X105580685Y-100989676D01*
X105580685Y-100931619D01*
X105600038Y-100854209D01*
X105619390Y-100815504D01*
X105658095Y-100776800D01*
X105716152Y-100757447D01*
X105754857Y-100757447D01*
X105812914Y-100776800D01*
X105832266Y-100796152D01*
X105967733Y-100757447D02*
X106238666Y-100757447D01*
X106064495Y-101163847D01*
X97965142Y-94041257D02*
X97984495Y-94060609D01*
X98003847Y-94118666D01*
X98003847Y-94157371D01*
X97984495Y-94215428D01*
X97945790Y-94254133D01*
X97907085Y-94273485D01*
X97829676Y-94292838D01*
X97771619Y-94292838D01*
X97694209Y-94273485D01*
X97655504Y-94254133D01*
X97616800Y-94215428D01*
X97597447Y-94157371D01*
X97597447Y-94118666D01*
X97616800Y-94060609D01*
X97636152Y-94041257D01*
X97636152Y-93886438D02*
X97616800Y-93867085D01*
X97597447Y-93828380D01*
X97597447Y-93731619D01*
X97616800Y-93692914D01*
X97636152Y-93673561D01*
X97674857Y-93654209D01*
X97713561Y-93654209D01*
X97771619Y-93673561D01*
X98003847Y-93905790D01*
X98003847Y-93654209D01*
X97732914Y-93305866D02*
X98003847Y-93305866D01*
X97578095Y-93402628D02*
X97868380Y-93499390D01*
X97868380Y-93247809D01*
X115532266Y-99405142D02*
X115512914Y-99424495D01*
X115454857Y-99443847D01*
X115416152Y-99443847D01*
X115358095Y-99424495D01*
X115319390Y-99385790D01*
X115300038Y-99347085D01*
X115280685Y-99269676D01*
X115280685Y-99211619D01*
X115300038Y-99134209D01*
X115319390Y-99095504D01*
X115358095Y-99056800D01*
X115416152Y-99037447D01*
X115454857Y-99037447D01*
X115512914Y-99056800D01*
X115532266Y-99076152D01*
X115880609Y-99037447D02*
X115803200Y-99037447D01*
X115764495Y-99056800D01*
X115745142Y-99076152D01*
X115706438Y-99134209D01*
X115687085Y-99211619D01*
X115687085Y-99366438D01*
X115706438Y-99405142D01*
X115725790Y-99424495D01*
X115764495Y-99443847D01*
X115841904Y-99443847D01*
X115880609Y-99424495D01*
X115899961Y-99405142D01*
X115919314Y-99366438D01*
X115919314Y-99269676D01*
X115899961Y-99230971D01*
X115880609Y-99211619D01*
X115841904Y-99192266D01*
X115764495Y-99192266D01*
X115725790Y-99211619D01*
X115706438Y-99230971D01*
X115687085Y-99269676D01*
X111515142Y-101192733D02*
X111534495Y-101212085D01*
X111553847Y-101270142D01*
X111553847Y-101308847D01*
X111534495Y-101366904D01*
X111495790Y-101405609D01*
X111457085Y-101424961D01*
X111379676Y-101444314D01*
X111321619Y-101444314D01*
X111244209Y-101424961D01*
X111205504Y-101405609D01*
X111166800Y-101366904D01*
X111147447Y-101308847D01*
X111147447Y-101270142D01*
X111166800Y-101212085D01*
X111186152Y-101192733D01*
X111321619Y-100960504D02*
X111302266Y-100999209D01*
X111282914Y-101018561D01*
X111244209Y-101037914D01*
X111224857Y-101037914D01*
X111186152Y-101018561D01*
X111166800Y-100999209D01*
X111147447Y-100960504D01*
X111147447Y-100883095D01*
X111166800Y-100844390D01*
X111186152Y-100825038D01*
X111224857Y-100805685D01*
X111244209Y-100805685D01*
X111282914Y-100825038D01*
X111302266Y-100844390D01*
X111321619Y-100883095D01*
X111321619Y-100960504D01*
X111340971Y-100999209D01*
X111360323Y-101018561D01*
X111399028Y-101037914D01*
X111476438Y-101037914D01*
X111515142Y-101018561D01*
X111534495Y-100999209D01*
X111553847Y-100960504D01*
X111553847Y-100883095D01*
X111534495Y-100844390D01*
X111515142Y-100825038D01*
X111476438Y-100805685D01*
X111399028Y-100805685D01*
X111360323Y-100825038D01*
X111340971Y-100844390D01*
X111321619Y-100883095D01*
X110125142Y-103537733D02*
X110144495Y-103557085D01*
X110163847Y-103615142D01*
X110163847Y-103653847D01*
X110144495Y-103711904D01*
X110105790Y-103750609D01*
X110067085Y-103769961D01*
X109989676Y-103789314D01*
X109931619Y-103789314D01*
X109854209Y-103769961D01*
X109815504Y-103750609D01*
X109776800Y-103711904D01*
X109757447Y-103653847D01*
X109757447Y-103615142D01*
X109776800Y-103557085D01*
X109796152Y-103537733D01*
X110163847Y-103344209D02*
X110163847Y-103266800D01*
X110144495Y-103228095D01*
X110125142Y-103208742D01*
X110067085Y-103170038D01*
X109989676Y-103150685D01*
X109834857Y-103150685D01*
X109796152Y-103170038D01*
X109776800Y-103189390D01*
X109757447Y-103228095D01*
X109757447Y-103305504D01*
X109776800Y-103344209D01*
X109796152Y-103363561D01*
X109834857Y-103382914D01*
X109931619Y-103382914D01*
X109970323Y-103363561D01*
X109989676Y-103344209D01*
X110009028Y-103305504D01*
X110009028Y-103228095D01*
X109989676Y-103189390D01*
X109970323Y-103170038D01*
X109931619Y-103150685D01*
X106325142Y-99461257D02*
X106344495Y-99480609D01*
X106363847Y-99538666D01*
X106363847Y-99577371D01*
X106344495Y-99635428D01*
X106305790Y-99674133D01*
X106267085Y-99693485D01*
X106189676Y-99712838D01*
X106131619Y-99712838D01*
X106054209Y-99693485D01*
X106015504Y-99674133D01*
X105976800Y-99635428D01*
X105957447Y-99577371D01*
X105957447Y-99538666D01*
X105976800Y-99480609D01*
X105996152Y-99461257D01*
X106363847Y-99074209D02*
X106363847Y-99306438D01*
X106363847Y-99190323D02*
X105957447Y-99190323D01*
X106015504Y-99229028D01*
X106054209Y-99267733D01*
X106073561Y-99306438D01*
X105957447Y-98822628D02*
X105957447Y-98783923D01*
X105976800Y-98745219D01*
X105996152Y-98725866D01*
X106034857Y-98706514D01*
X106112266Y-98687161D01*
X106209028Y-98687161D01*
X106286438Y-98706514D01*
X106325142Y-98725866D01*
X106344495Y-98745219D01*
X106363847Y-98783923D01*
X106363847Y-98822628D01*
X106344495Y-98861333D01*
X106325142Y-98880685D01*
X106286438Y-98900038D01*
X106209028Y-98919390D01*
X106112266Y-98919390D01*
X106034857Y-98900038D01*
X105996152Y-98880685D01*
X105976800Y-98861333D01*
X105957447Y-98822628D01*
X110125142Y-101586257D02*
X110144495Y-101605609D01*
X110163847Y-101663666D01*
X110163847Y-101702371D01*
X110144495Y-101760428D01*
X110105790Y-101799133D01*
X110067085Y-101818485D01*
X109989676Y-101837838D01*
X109931619Y-101837838D01*
X109854209Y-101818485D01*
X109815504Y-101799133D01*
X109776800Y-101760428D01*
X109757447Y-101702371D01*
X109757447Y-101663666D01*
X109776800Y-101605609D01*
X109796152Y-101586257D01*
X110163847Y-101199209D02*
X110163847Y-101431438D01*
X110163847Y-101315323D02*
X109757447Y-101315323D01*
X109815504Y-101354028D01*
X109854209Y-101392733D01*
X109873561Y-101431438D01*
X109796152Y-101044390D02*
X109776800Y-101025038D01*
X109757447Y-100986333D01*
X109757447Y-100889571D01*
X109776800Y-100850866D01*
X109796152Y-100831514D01*
X109834857Y-100812161D01*
X109873561Y-100812161D01*
X109931619Y-100831514D01*
X110163847Y-101063742D01*
X110163847Y-100812161D01*
X107625142Y-99461257D02*
X107644495Y-99480609D01*
X107663847Y-99538666D01*
X107663847Y-99577371D01*
X107644495Y-99635428D01*
X107605790Y-99674133D01*
X107567085Y-99693485D01*
X107489676Y-99712838D01*
X107431619Y-99712838D01*
X107354209Y-99693485D01*
X107315504Y-99674133D01*
X107276800Y-99635428D01*
X107257447Y-99577371D01*
X107257447Y-99538666D01*
X107276800Y-99480609D01*
X107296152Y-99461257D01*
X107663847Y-99074209D02*
X107663847Y-99306438D01*
X107663847Y-99190323D02*
X107257447Y-99190323D01*
X107315504Y-99229028D01*
X107354209Y-99267733D01*
X107373561Y-99306438D01*
X107257447Y-98938742D02*
X107257447Y-98687161D01*
X107412266Y-98822628D01*
X107412266Y-98764571D01*
X107431619Y-98725866D01*
X107450971Y-98706514D01*
X107489676Y-98687161D01*
X107586438Y-98687161D01*
X107625142Y-98706514D01*
X107644495Y-98725866D01*
X107663847Y-98764571D01*
X107663847Y-98880685D01*
X107644495Y-98919390D01*
X107625142Y-98938742D01*
X104168742Y-97725142D02*
X104149390Y-97744495D01*
X104091333Y-97763847D01*
X104052628Y-97763847D01*
X103994571Y-97744495D01*
X103955866Y-97705790D01*
X103936514Y-97667085D01*
X103917161Y-97589676D01*
X103917161Y-97531619D01*
X103936514Y-97454209D01*
X103955866Y-97415504D01*
X103994571Y-97376800D01*
X104052628Y-97357447D01*
X104091333Y-97357447D01*
X104149390Y-97376800D01*
X104168742Y-97396152D01*
X104555790Y-97763847D02*
X104323561Y-97763847D01*
X104439676Y-97763847D02*
X104439676Y-97357447D01*
X104400971Y-97415504D01*
X104362266Y-97454209D01*
X104323561Y-97473561D01*
X104904133Y-97357447D02*
X104826723Y-97357447D01*
X104788019Y-97376800D01*
X104768666Y-97396152D01*
X104729961Y-97454209D01*
X104710609Y-97531619D01*
X104710609Y-97686438D01*
X104729961Y-97725142D01*
X104749314Y-97744495D01*
X104788019Y-97763847D01*
X104865428Y-97763847D01*
X104904133Y-97744495D01*
X104923485Y-97725142D01*
X104942838Y-97686438D01*
X104942838Y-97589676D01*
X104923485Y-97550971D01*
X104904133Y-97531619D01*
X104865428Y-97512266D01*
X104788019Y-97512266D01*
X104749314Y-97531619D01*
X104729961Y-97550971D01*
X104710609Y-97589676D01*
D11*
X103398114Y-99417714D02*
X103369085Y-99446742D01*
X103282000Y-99475771D01*
X103223942Y-99475771D01*
X103136857Y-99446742D01*
X103078800Y-99388685D01*
X103049771Y-99330628D01*
X103020742Y-99214514D01*
X103020742Y-99127428D01*
X103049771Y-99011314D01*
X103078800Y-98953257D01*
X103136857Y-98895200D01*
X103223942Y-98866171D01*
X103282000Y-98866171D01*
X103369085Y-98895200D01*
X103398114Y-98924228D01*
X103978685Y-99475771D02*
X103630342Y-99475771D01*
X103804514Y-99475771D02*
X103804514Y-98866171D01*
X103746457Y-98953257D01*
X103688400Y-99011314D01*
X103630342Y-99040342D01*
X104268971Y-99475771D02*
X104385085Y-99475771D01*
X104443142Y-99446742D01*
X104472171Y-99417714D01*
X104530228Y-99330628D01*
X104559257Y-99214514D01*
X104559257Y-98982285D01*
X104530228Y-98924228D01*
X104501200Y-98895200D01*
X104443142Y-98866171D01*
X104327028Y-98866171D01*
X104268971Y-98895200D01*
X104239942Y-98924228D01*
X104210914Y-98982285D01*
X104210914Y-99127428D01*
X104239942Y-99185485D01*
X104268971Y-99214514D01*
X104327028Y-99243542D01*
X104443142Y-99243542D01*
X104501200Y-99214514D01*
X104530228Y-99185485D01*
X104559257Y-99127428D01*
D14*
X107932266Y-101183847D02*
X107738742Y-101183847D01*
X107738742Y-100777447D01*
X108280609Y-101183847D02*
X108048380Y-101183847D01*
X108164495Y-101183847D02*
X108164495Y-100777447D01*
X108125790Y-100835504D01*
X108087085Y-100874209D01*
X108048380Y-100893561D01*
X105283847Y-91597733D02*
X105283847Y-91791257D01*
X104877447Y-91791257D01*
X105012914Y-91288095D02*
X105283847Y-91288095D01*
X104858095Y-91384857D02*
X105148380Y-91481619D01*
X105148380Y-91230038D01*
X105183847Y-96167733D02*
X105183847Y-96361257D01*
X104777447Y-96361257D01*
X104777447Y-95838742D02*
X104777447Y-96032266D01*
X104970971Y-96051619D01*
X104951619Y-96032266D01*
X104932266Y-95993561D01*
X104932266Y-95896800D01*
X104951619Y-95858095D01*
X104970971Y-95838742D01*
X105009676Y-95819390D01*
X105106438Y-95819390D01*
X105145142Y-95838742D01*
X105164495Y-95858095D01*
X105183847Y-95896800D01*
X105183847Y-95993561D01*
X105164495Y-96032266D01*
X105145142Y-96051619D01*
X103853847Y-91597733D02*
X103853847Y-91791257D01*
X103447447Y-91791257D01*
X103447447Y-91288095D02*
X103447447Y-91365504D01*
X103466800Y-91404209D01*
X103486152Y-91423561D01*
X103544209Y-91462266D01*
X103621619Y-91481619D01*
X103776438Y-91481619D01*
X103815142Y-91462266D01*
X103834495Y-91442914D01*
X103853847Y-91404209D01*
X103853847Y-91326800D01*
X103834495Y-91288095D01*
X103815142Y-91268742D01*
X103776438Y-91249390D01*
X103679676Y-91249390D01*
X103640971Y-91268742D01*
X103621619Y-91288095D01*
X103602266Y-91326800D01*
X103602266Y-91404209D01*
X103621619Y-91442914D01*
X103640971Y-91462266D01*
X103679676Y-91481619D01*
X102402266Y-94533847D02*
X102208742Y-94533847D01*
X102208742Y-94127447D01*
X102499028Y-94127447D02*
X102769961Y-94127447D01*
X102595790Y-94533847D01*
D11*
X126971904Y-111842380D02*
X126971904Y-110842380D01*
X127352857Y-110842380D01*
X127448095Y-110890000D01*
X127495714Y-110937619D01*
X127543333Y-111032857D01*
X127543333Y-111175714D01*
X127495714Y-111270952D01*
X127448095Y-111318571D01*
X127352857Y-111366190D01*
X126971904Y-111366190D01*
X128495714Y-111842380D02*
X127924285Y-111842380D01*
X128210000Y-111842380D02*
X128210000Y-110842380D01*
X128114761Y-110985238D01*
X128019523Y-111080476D01*
X127924285Y-111128095D01*
%LPC*%
D15*
X112260000Y-94101000D03*
X111130000Y-94101000D03*
X110000000Y-94101000D03*
X108870000Y-94101000D03*
X112260000Y-92885000D03*
X111130000Y-92885000D03*
X110000000Y-92885000D03*
X108870000Y-92885000D03*
X107740000Y-92885000D03*
X107740000Y-94101000D03*
X112260000Y-95317000D03*
X111130000Y-95317000D03*
X110000000Y-95317000D03*
X108870000Y-95317000D03*
D16*
X112260000Y-95317000D03*
X111130000Y-95317000D03*
X110000000Y-95317000D03*
X112260000Y-94101000D03*
X111130000Y-94101000D03*
X110000000Y-94101000D03*
X112260000Y-92885000D03*
X111130000Y-92885000D03*
X110000000Y-92885000D03*
X108870000Y-92885000D03*
X108870000Y-94101000D03*
X108870000Y-95317000D03*
X107740000Y-92885000D03*
X107740000Y-94101000D03*
X107740000Y-95317000D03*
D15*
X107740000Y-95317000D03*
D17*
X107250000Y-91650000D03*
X107750000Y-91650000D03*
X108250000Y-91650000D03*
X108750000Y-91650000D03*
X109250000Y-91650000D03*
X109750000Y-91650000D03*
X110250000Y-91650000D03*
X110750000Y-91650000D03*
X111250000Y-91650000D03*
X111750000Y-91650000D03*
X112250000Y-91650000D03*
X112750000Y-91650000D03*
X107250000Y-96550000D03*
X107750000Y-96550000D03*
X108250000Y-96550000D03*
X108750000Y-96550000D03*
X109250000Y-96550000D03*
X109750000Y-96550000D03*
X110250000Y-96550000D03*
X110750000Y-96550000D03*
X111250000Y-96550000D03*
X111750000Y-96550000D03*
X112250000Y-96550000D03*
X112750000Y-96550000D03*
D18*
X106550000Y-92350000D03*
X106550000Y-92850000D03*
X106550000Y-93350000D03*
X106550000Y-93850000D03*
X106550000Y-94350000D03*
X106550000Y-94850000D03*
X106550000Y-95350000D03*
X106550000Y-95850000D03*
X113450000Y-92350000D03*
X113450000Y-92850000D03*
X113450000Y-93350000D03*
X113450000Y-93850000D03*
X113450000Y-94350000D03*
X113450000Y-94850000D03*
X113450000Y-95350000D03*
X113450000Y-95850000D03*
D19*
X96070000Y-109710000D03*
X96070000Y-86510000D03*
X121570000Y-109710000D03*
X121570000Y-86510000D03*
D20*
X97220000Y-110860000D03*
X97220000Y-85360000D03*
X120420000Y-85360000D03*
X120420000Y-110860000D03*
D21*
X108820000Y-85360000D03*
X108820000Y-110860000D03*
D22*
X96070000Y-98110000D03*
X121570000Y-98110000D03*
D23*
X96070000Y-91860000D03*
X96070000Y-104360000D03*
D24*
X115070000Y-110860000D03*
X102570000Y-110860000D03*
X102570000Y-85360000D03*
X115070000Y-85360000D03*
D23*
X121570000Y-104360000D03*
X121570000Y-91860000D03*
D25*
X111350000Y-99640000D03*
X111350000Y-98790000D03*
X113550000Y-98950000D03*
X113550000Y-98100000D03*
D26*
X117351000Y-94280000D03*
X115651000Y-94280000D03*
X117351000Y-92980000D03*
X115651000Y-92980000D03*
D27*
X108800000Y-99580000D03*
X108800000Y-98630000D03*
D28*
X112800000Y-100775000D03*
X112800000Y-101675000D03*
X111350000Y-103800000D03*
X111350000Y-102900000D03*
D26*
X105100000Y-87790000D03*
X105100000Y-89790000D03*
D29*
X91760000Y-89967500D03*
X91760000Y-98732500D03*
D30*
X91760000Y-94350000D03*
D31*
X92310000Y-89967500D03*
X93060000Y-89967500D03*
X92310000Y-89100000D03*
X93060000Y-89100000D03*
X93060000Y-90850000D03*
X92260000Y-90850000D03*
X93060000Y-99600000D03*
X92310000Y-97850000D03*
X93060000Y-97850000D03*
X93060000Y-98717500D03*
X92310000Y-98717500D03*
X92260000Y-99600000D03*
D32*
X115980000Y-98100000D03*
X115030000Y-98100000D03*
X115980000Y-96950000D03*
X115030000Y-96950000D03*
X115980000Y-95800000D03*
X115030000Y-95800000D03*
X118080000Y-95800000D03*
X117130000Y-95800000D03*
D27*
X118800000Y-94080000D03*
X118800000Y-93130000D03*
X105100000Y-93400000D03*
X105100000Y-94350000D03*
X104000000Y-93400000D03*
X104000000Y-94350000D03*
X101100000Y-93400000D03*
X101100000Y-94350000D03*
X100000000Y-93400000D03*
X100000000Y-94350000D03*
X98900000Y-93400000D03*
X98900000Y-94350000D03*
X103660000Y-89060000D03*
X103660000Y-90010000D03*
X109750000Y-89050000D03*
X109750000Y-90000000D03*
D32*
X105520000Y-101000000D03*
X106470000Y-101000000D03*
D27*
X97800000Y-93400000D03*
X97800000Y-94350000D03*
D32*
X115980000Y-99240000D03*
X115030000Y-99240000D03*
D27*
X111350000Y-100745000D03*
X111350000Y-101695000D03*
X110000000Y-103850000D03*
X110000000Y-102900000D03*
X106200000Y-99580000D03*
X106200000Y-98630000D03*
X110000000Y-101705000D03*
X110000000Y-100755000D03*
X107500000Y-99580000D03*
X107500000Y-98630000D03*
D32*
X104050000Y-97600000D03*
X105000000Y-97600000D03*
D33*
X102800000Y-99200000D03*
X104800000Y-99200000D03*
D34*
X107680000Y-101000000D03*
X108530000Y-101000000D03*
D25*
X105100000Y-91210000D03*
X105100000Y-92060000D03*
X105000000Y-96420000D03*
X105000000Y-95570000D03*
X103670000Y-91210000D03*
X103670000Y-92060000D03*
D34*
X102150000Y-94350000D03*
X103000000Y-94350000D03*
D15*
X90480000Y-86690000D03*
X92680000Y-86690000D03*
X92680000Y-84490000D03*
X90380000Y-84490000D03*
X89980000Y-85590000D03*
X91580000Y-87290000D03*
X93180000Y-85590000D03*
X91580000Y-83990000D03*
D35*
X91580000Y-85590000D03*
D15*
X90480000Y-110750000D03*
X92680000Y-110750000D03*
X92680000Y-108550000D03*
X90380000Y-108550000D03*
X89980000Y-109650000D03*
X91580000Y-111350000D03*
X93180000Y-109650000D03*
X91580000Y-108050000D03*
D35*
X91580000Y-109650000D03*
D36*
X128920000Y-109050000D03*
X126380000Y-109050000D03*
X128920000Y-106510000D03*
X126380000Y-106510000D03*
X128920000Y-103970000D03*
X126380000Y-103970000D03*
X128920000Y-101430000D03*
X126380000Y-101430000D03*
X128920000Y-98890000D03*
X126380000Y-98890000D03*
X128920000Y-96350000D03*
X126380000Y-96350000D03*
X128920000Y-93810000D03*
X126380000Y-93810000D03*
X128920000Y-91270000D03*
X126380000Y-91270000D03*
X128920000Y-88730000D03*
X126380000Y-88730000D03*
X128920000Y-86190000D03*
D37*
X126380000Y-86190000D03*
M02*
