G04 #@! TF.GenerationSoftware,KiCad,Pcbnew,(2017-01-24 revision 0b6147e)-makepkg*
G04 #@! TF.CreationDate,2018-02-06T10:22:29-08:00*
G04 #@! TF.ProjectId,sx1238RfModule,73783132333852664D6F64756C652E6B,rev?*
G04 #@! TF.FileFunction,Copper,L4,Bot,Signal*
G04 #@! TF.FilePolarity,Positive*
%FSLAX46Y46*%
G04 Gerber Fmt 4.6, Leading zero omitted, Abs format (unit mm)*
G04 Created by KiCad (PCBNEW (2017-01-24 revision 0b6147e)-makepkg) date 02/06/18 10:22:29*
%MOMM*%
%LPD*%
G01*
G04 APERTURE LIST*
%ADD10C,0.100000*%
%ADD11C,0.635000*%
%ADD12R,5.080000X2.415000*%
%ADD13C,4.200000*%
%ADD14O,1.727200X1.727200*%
%ADD15R,1.727200X1.727200*%
%ADD16C,0.762000*%
%ADD17C,1.016000*%
%ADD18C,0.304800*%
%ADD19C,0.254000*%
G04 APERTURE END LIST*
D10*
D11*
X112260000Y-94101000D03*
X111130000Y-94101000D03*
X110000000Y-94101000D03*
X108870000Y-94101000D03*
X112260000Y-92885000D03*
X111130000Y-92885000D03*
X110000000Y-92885000D03*
X108870000Y-92885000D03*
X107740000Y-92885000D03*
X107740000Y-94101000D03*
X112260000Y-95317000D03*
X111130000Y-95317000D03*
X110000000Y-95317000D03*
X108870000Y-95317000D03*
X107740000Y-95317000D03*
D12*
X91760000Y-89967500D03*
X91760000Y-98732500D03*
D11*
X92310000Y-89967500D03*
X93060000Y-89967500D03*
X92310000Y-89100000D03*
X93060000Y-89100000D03*
X93060000Y-90850000D03*
X92260000Y-90850000D03*
X93060000Y-99600000D03*
X92310000Y-97850000D03*
X93060000Y-97850000D03*
X93060000Y-98717500D03*
X92310000Y-98717500D03*
X92260000Y-99600000D03*
X90480000Y-86690000D03*
X92680000Y-86690000D03*
X92680000Y-84490000D03*
X90380000Y-84490000D03*
X89980000Y-85590000D03*
X91580000Y-87290000D03*
X93180000Y-85590000D03*
X91580000Y-83990000D03*
D13*
X91580000Y-85590000D03*
D11*
X90480000Y-110750000D03*
X92680000Y-110750000D03*
X92680000Y-108550000D03*
X90380000Y-108550000D03*
X89980000Y-109650000D03*
X91580000Y-111350000D03*
X93180000Y-109650000D03*
X91580000Y-108050000D03*
D13*
X91580000Y-109650000D03*
D14*
X128920000Y-109050000D03*
X126380000Y-109050000D03*
X128920000Y-106510000D03*
X126380000Y-106510000D03*
X128920000Y-103970000D03*
X126380000Y-103970000D03*
X128920000Y-101430000D03*
X126380000Y-101430000D03*
X128920000Y-98890000D03*
X126380000Y-98890000D03*
X128920000Y-96350000D03*
X126380000Y-96350000D03*
X128920000Y-93810000D03*
X126380000Y-93810000D03*
X128920000Y-91270000D03*
X126380000Y-91270000D03*
X128920000Y-88730000D03*
X126380000Y-88730000D03*
X128920000Y-86190000D03*
D15*
X126380000Y-86190000D03*
D16*
X108650000Y-100130000D03*
X107530000Y-100140000D03*
X118350000Y-94830000D03*
X115640000Y-92000000D03*
X109460000Y-102160000D03*
X109760000Y-88360000D03*
X104040000Y-87790000D03*
X103010000Y-89060000D03*
X102960000Y-91180000D03*
D17*
X96070000Y-101920000D03*
X96060000Y-106890000D03*
X100070000Y-110860000D03*
X105090000Y-110860000D03*
X112600000Y-110860000D03*
X117570000Y-110860000D03*
X117530000Y-85360000D03*
X112530000Y-85360000D03*
X96070000Y-89380000D03*
X105040000Y-85360000D03*
X100080000Y-85360000D03*
X121570000Y-106860000D03*
X121570000Y-101870000D03*
X121570000Y-94340000D03*
X121570000Y-89380000D03*
D16*
X97800000Y-92650000D03*
X98900000Y-92650000D03*
X100000000Y-92650000D03*
X101110000Y-92650000D03*
X103230000Y-93400000D03*
X116760000Y-99240000D03*
X116770000Y-98100000D03*
X116770000Y-96940000D03*
X115990000Y-96390000D03*
X118850000Y-95800000D03*
X119570000Y-94080000D03*
X111360000Y-104530000D03*
X109200000Y-103840000D03*
X102800000Y-98100000D03*
X104070000Y-96420000D03*
X102800000Y-100450000D03*
X104690000Y-101000000D03*
X106060000Y-89780000D03*
X114250000Y-97440000D03*
X109680000Y-90580000D03*
X105930000Y-91210000D03*
X104180000Y-90490000D03*
X105090000Y-90650000D03*
X103990000Y-99190000D03*
X105020000Y-98210000D03*
X107750000Y-98030000D03*
X105800000Y-97210000D03*
X108160000Y-98630000D03*
X108580000Y-101900000D03*
X112730000Y-97550000D03*
X106740000Y-90660000D03*
X107430000Y-89790000D03*
X108190000Y-90300000D03*
X108940000Y-89760000D03*
X110720000Y-88470000D03*
X111920000Y-88210000D03*
X111890000Y-89190000D03*
X111970000Y-90110000D03*
X112760000Y-90680000D03*
X113390000Y-91600000D03*
X114280000Y-91300000D03*
X112240000Y-99070000D03*
X109930000Y-99490000D03*
X109710000Y-98600000D03*
X108650000Y-97810000D03*
D18*
X112730000Y-97550000D02*
X109590000Y-97550000D01*
X109590000Y-97550000D02*
X109140000Y-97100000D01*
X109140000Y-97100000D02*
X107700000Y-97100000D01*
X107700000Y-97100000D02*
X106820000Y-97980000D01*
X106820000Y-97980000D02*
X106820000Y-100600000D01*
X106820000Y-100600000D02*
X108120000Y-101900000D01*
X108120000Y-101900000D02*
X108580000Y-101900000D01*
X108810000Y-101900000D02*
X108580000Y-101900000D01*
D19*
X106740000Y-90660000D02*
X106740000Y-88600000D01*
X106740000Y-88600000D02*
X110780000Y-84560000D01*
X110780000Y-84560000D02*
X120380000Y-84560000D01*
X120380000Y-84560000D02*
X123290000Y-87470000D01*
X123290000Y-87470000D02*
X127660000Y-87470000D01*
X127660000Y-87470000D02*
X128920000Y-88730000D01*
X107430000Y-89790000D02*
X107430000Y-88490000D01*
X107430000Y-88490000D02*
X109630000Y-86290000D01*
X109630000Y-86290000D02*
X116370000Y-86290000D01*
X116370000Y-86290000D02*
X118670000Y-88590000D01*
X118670000Y-88590000D02*
X124660000Y-88590000D01*
X124660000Y-88590000D02*
X124800000Y-88730000D01*
X124800000Y-88730000D02*
X126380000Y-88730000D01*
X108190000Y-90300000D02*
X108190000Y-88340000D01*
X108190000Y-88340000D02*
X109820000Y-86710000D01*
X109820000Y-86710000D02*
X116190000Y-86710000D01*
X116190000Y-86710000D02*
X119760000Y-90280000D01*
X119760000Y-90280000D02*
X125280000Y-90280000D01*
X125280000Y-90280000D02*
X125560000Y-90000000D01*
X125560000Y-90000000D02*
X127650000Y-90000000D01*
X127650000Y-90000000D02*
X128920000Y-91270000D01*
X108940000Y-89760000D02*
X108940000Y-88220000D01*
X108940000Y-88220000D02*
X110030000Y-87130000D01*
X110030000Y-87130000D02*
X116000000Y-87130000D01*
X116000000Y-87130000D02*
X120140000Y-91270000D01*
X120140000Y-91270000D02*
X126380000Y-91270000D01*
X110720000Y-88470000D02*
X111650000Y-87540000D01*
X111650000Y-87540000D02*
X115790000Y-87540000D01*
X115790000Y-87540000D02*
X120790000Y-92540000D01*
X120790000Y-92540000D02*
X127650000Y-92540000D01*
X127650000Y-92540000D02*
X128920000Y-93810000D01*
X123550000Y-95070000D02*
X127640000Y-95070000D01*
X127640000Y-95070000D02*
X128920000Y-96350000D01*
X121570000Y-93090000D02*
X123550000Y-95070000D01*
X120710000Y-93090000D02*
X121570000Y-93090000D01*
X115810000Y-88190000D02*
X120710000Y-93090000D01*
X111940000Y-88190000D02*
X115810000Y-88190000D01*
X111920000Y-88210000D02*
X111940000Y-88190000D01*
X120730000Y-94800000D02*
X122280000Y-96350000D01*
X122280000Y-96350000D02*
X126380000Y-96350000D01*
X120730000Y-93710000D02*
X120730000Y-94800000D01*
X116230000Y-89210000D02*
X120730000Y-93710000D01*
X116230000Y-89190000D02*
X116230000Y-89210000D01*
X111890000Y-89190000D02*
X116230000Y-89190000D01*
X111970000Y-90110000D02*
X112100000Y-90110000D01*
X112100000Y-90110000D02*
X112460000Y-89750000D01*
X112460000Y-89750000D02*
X116190000Y-89750000D01*
X116190000Y-89750000D02*
X120250000Y-93810000D01*
X120250000Y-93810000D02*
X120250000Y-95050000D01*
X120250000Y-95050000D02*
X122820000Y-97620000D01*
X122820000Y-97620000D02*
X127650000Y-97620000D01*
X127650000Y-97620000D02*
X128920000Y-98890000D01*
X112760000Y-90680000D02*
X112760000Y-90650000D01*
X112760000Y-90650000D02*
X113250000Y-90160000D01*
X113250000Y-90160000D02*
X115490000Y-90160000D01*
X115490000Y-90160000D02*
X118840000Y-93510000D01*
X118840000Y-93510000D02*
X118840000Y-94350000D01*
X118840000Y-94350000D02*
X123380000Y-98890000D01*
X123380000Y-98890000D02*
X126380000Y-98890000D01*
X113390000Y-91600000D02*
X113390000Y-91250000D01*
X113390000Y-91250000D02*
X114020000Y-90620000D01*
X114020000Y-90620000D02*
X115240000Y-90620000D01*
X115240000Y-90620000D02*
X116590000Y-91970000D01*
X116590000Y-91970000D02*
X116590000Y-94720000D01*
X116590000Y-94720000D02*
X122040000Y-100170000D01*
X122040000Y-100170000D02*
X127660000Y-100170000D01*
X127660000Y-100170000D02*
X128920000Y-101430000D01*
X114280000Y-91300000D02*
X114280000Y-93070000D01*
X114280000Y-93070000D02*
X122640000Y-101430000D01*
X122640000Y-101430000D02*
X126380000Y-101430000D01*
X112240000Y-99070000D02*
X115860000Y-102690000D01*
X115860000Y-102690000D02*
X127640000Y-102690000D01*
X127640000Y-102690000D02*
X128920000Y-103970000D01*
X109930000Y-99490000D02*
X109940000Y-99490000D01*
X109940000Y-99490000D02*
X115690000Y-105240000D01*
X115690000Y-105240000D02*
X127650000Y-105240000D01*
X127650000Y-105240000D02*
X128920000Y-106510000D01*
X109710000Y-98600000D02*
X110340000Y-98600000D01*
X110340000Y-98600000D02*
X115710000Y-103970000D01*
X115710000Y-103970000D02*
X119845250Y-103970000D01*
X119845250Y-103970000D02*
X126380000Y-103970000D01*
X108650000Y-97810000D02*
X108650000Y-98040000D01*
X108650000Y-98040000D02*
X108870000Y-98260000D01*
X108870000Y-98260000D02*
X108870000Y-99410000D01*
X108870000Y-99410000D02*
X115290000Y-105830000D01*
X115290000Y-105830000D02*
X125700000Y-105830000D01*
X125700000Y-105830000D02*
X126380000Y-106510000D01*
M02*
