M48
INCH,TZ
T1C0.013
T2C0.015
T3C0.020
T4C0.040
T5C0.087
%
G90
G05
T1
X35425Y-33697
X35425Y-43169
X35583Y-33264
X35583Y-42736
X35622Y-34130
X35622Y-43602
X36055Y-33067
X36055Y-34366
X36055Y-42539
X36055Y-43839
X36323Y-35768
X36323Y-39213
X36343Y-35079
X36343Y-35420
X36343Y-38524
X36343Y-38865
X36488Y-33264
X36488Y-34130
X36488Y-42736
X36488Y-43602
X36638Y-35079
X36638Y-35420
X36638Y-35768
X36638Y-38524
X36638Y-38865
X36638Y-39213
X36685Y-33697
X36685Y-43169
X38504Y-36476
X38937Y-36476
X39370Y-36476
X39807Y-36476
X40472Y-38622
X40472Y-39547
X40535Y-35898
X40555Y-35063
X40642Y-36772
X40941Y-39051
X40961Y-34563
X40972Y-37961
X41016Y-35626
X41217Y-39764
X41346Y-38665
X41374Y-35689
X41654Y-38272
X41705Y-35909
X41756Y-35346
X42024Y-35693
X42295Y-35350
X42335Y-39425
X42421Y-38594
X42583Y-38831
X42594Y-35551
X42748Y-40118
X42776Y-38508
X42776Y-39421
X42890Y-35339
X42992Y-40882
X43094Y-40220
X43181Y-35661
X43193Y-38819
X43213Y-34787
X43280Y-39169
X43591Y-34831
X43843Y-41154
X44051Y-35114
X44063Y-34728
X44083Y-35476
X44189Y-39004
X44382Y-38406
X44394Y-35701
X44642Y-36063
X44980Y-38362
X44992Y-35945
X45528Y-36220
X45665Y-37949
X45969Y-39071
X45972Y-38165
X45972Y-38622
X46594Y-37335
X46791Y-37717
X47075Y-37039
T2
X42417Y-36569
X42417Y-37048
X42417Y-37526
X42862Y-36569
X42862Y-37048
X42862Y-37526
X43307Y-36569
X43307Y-37048
X43307Y-37526
X43752Y-36569
X43752Y-37048
X43752Y-37526
X44197Y-36569
X44197Y-37048
X44197Y-37526
T3
X37819Y-42083
X37823Y-35189
X37823Y-40126
X39398Y-43646
X39402Y-33606
X41354Y-33606
X41374Y-43646
X44303Y-33606
X44331Y-43646
X46272Y-33606
X46287Y-43646
X47862Y-35189
X47862Y-37142
X47862Y-40106
X47862Y-42071
T4
X49756Y-33933
X49756Y-34933
X49756Y-35933
X49756Y-36933
X49756Y-37933
X49756Y-38933
X49756Y-39933
X49756Y-40933
X49756Y-41933
X49756Y-42933
X50756Y-33933
X50756Y-34933
X50756Y-35933
X50756Y-36933
X50756Y-37933
X50756Y-38933
X50756Y-39933
X50756Y-40933
X50756Y-41933
X50756Y-42933
T5
X36055Y-33697
X36055Y-43169
T0
M30
